<?xml version="1.0" encoding="UTF-8"?>
<svg xmlns="http://www.w3.org/2000/svg" id="Layer_1" data-name="Layer 1" viewBox="0 0 24 24">
  <path d="M12,0C5.383,0,0,5.383,0,12s5.383,12,12,12,12-5.383,12-12S18.617,0,12,0Zm0,22c-1.422,0-2.774-.303-4-.841v-.159c0-1.921,1.375-3.65,3.199-4.02,.541-.11,.891-.638,.781-1.179-.109-.54-.632-.888-1.18-.781-2.469,.502-4.33,2.542-4.718,5.023-2.47-1.822-4.083-4.744-4.083-8.043,0-2.398,.85-4.6,2.262-6.324l14.062,14.062c-1.725,1.412-3.927,2.262-6.324,2.262Zm-1.962-13.376c.176-.924,.986-1.624,1.962-1.624,1.105,0,2,.895,2,2,0,.976-.699,1.786-1.624,1.962l-2.338-2.338Zm9.7,9.7l-5.817-5.817c1.265-.693,2.079-2.033,2.079-3.507,0-2.206-1.794-4-4-4-1.474,0-2.814,.814-3.507,2.079l-2.817-2.817c1.725-1.412,3.927-2.262,6.324-2.262,5.514,0,10,4.486,10,10,0,2.398-.85,4.6-2.262,6.324Z"/>
</svg>
