<?xml version="1.0" encoding="UTF-8"?>
<svg xmlns="http://www.w3.org/2000/svg" id="Layer_1" data-name="Layer 1" viewBox="0 0 24 24">
  <path d="M23.535,14.725c-.427-.509-1.066-.78-1.727-.716-4.473,.417-7.209,2.805-8.809,4.978v-4.093c2.807-.48,4.98-3.035,5-5.995,.024-1.662,.575-3.167,.942-4.572,.165-.653-.023-1.323-.504-1.793-.443-.433-1.052-.601-1.652-.486,.087-.297,.169-.541,.203-.781,.107-.767-.568-1.401-1.325-1.242-.924,.194-2.462,.754-3.663,1.475C10.798,.779,9.261,.219,8.337,.025c-.758-.159-1.432,.475-1.325,1.242,.034,.24,.115,.484,.203,.781-.598-.117-1.205,.051-1.646,.482-.485,.474-.676,1.149-.51,1.81,.374,1.43,.929,2.965,.942,4.661,0,1.701,.727,3.329,1.993,4.466,.849,.762,1.896,1.252,3.007,1.441v4.08c-1.6-2.173-4.335-4.561-8.809-4.978-1.336-.163-2.514,1.221-2.12,2.508,2.039,7.338,11.52,7.481,11.923,7.483h.012c.403-.002,9.884-.145,11.923-7.483,.172-.621,.025-1.291-.394-1.792Zm-6.744-10.125c-.329,1.143-.78,2.708-.791,4.285-.004,.586-.13,1.149-.354,1.661-.459-1.79-1.239-3.401-2.251-4.701,1.047-.887,2.374-1.277,3.547-1.775-.045,.163-.096,.34-.15,.53Zm-8.791,4.4c-.014-1.89-.541-3.461-.945-4.93,3.888,1.222,6.262,3.718,6.931,8.384-1.439,.889-3.423,.666-4.656-.476-.845-.758-1.329-1.843-1.329-2.978Zm-5.994,7c5.08,.474,7.483,3.883,8.462,5.863-2.497-.347-7.27-1.568-8.462-5.863Zm11.539,5.861c.993-1.979,3.419-5.397,8.456-5.88-1.195,4.301-5.955,5.53-8.456,5.88Z"/>
</svg>
