<?xml version="1.0" encoding="UTF-8"?>
<svg xmlns="http://www.w3.org/2000/svg" id="Layer_1" data-name="Layer 1" viewBox="0 0 24 24">
  <path d="M23,11h-2.152c-.174,0-.339-.093-.429-.242l-1.406-2.336c-.898-1.494-2.54-2.421-4.283-2.421h-3.802c-.954,0-1.811,.53-2.236,1.382l-1.585,3.171c-.247,.494-.047,1.095,.447,1.342,.495,.248,1.095,.046,1.342-.447l1.585-3.171c.085-.17,.256-.276,.447-.276h1.602l-1.753,4.273c-.553,1.35-.06,2.895,1.167,3.67l3.827,2.456c.144,.092,.229,.249,.229,.42v4.18c0,.552,.447,1,1,1s1-.448,1-1v-4.18c0-.856-.431-1.643-1.15-2.104l-1.332-.855,2.268-5.6,.92,1.529c.449,.747,1.271,1.21,2.142,1.21h2.152c.553,0,1-.448,1-1s-.447-1-1-1Zm-9.982,3.257c-.411-.26-.575-.775-.391-1.225l2.064-5.032h.039c.57,0,1.113,.177,1.585,.472l-2.514,6.287-.782-.502Zm1.482-11.757c0-1.381,1.119-2.5,2.5-2.5s2.5,1.119,2.5,2.5-1.119,2.5-2.5,2.5-2.5-1.119-2.5-2.5ZM2,3c0-.552,.448-1,1-1h7c.552,0,1,.448,1,1s-.448,1-1,1H3c-.552,0-1-.448-1-1Zm2,9H1c-.552,0-1-.448-1-1s.448-1,1-1h3c.552,0,1,.448,1,1s-.448,1-1,1ZM1,7c0-.552,.448-1,1-1H6c.552,0,1,.448,1,1s-.448,1-1,1H2c-.552,0-1-.448-1-1Zm10.395,11.447c-.289,.577-1.117,1.553-2.395,1.553H5c-.552,0-1-.448-1-1s.448-1,1-1h4c.354,0,.609-.455,.612-.459,.259-.481,.86-.671,1.345-.421,.485,.251,.682,.839,.438,1.328Z"/>
</svg>
