<?xml version="1.0" encoding="UTF-8"?>
<svg xmlns="http://www.w3.org/2000/svg" id="Layer_1" data-name="Layer 1" viewBox="0 0 24 24">
  <path d="M14,20c0,1.1-.9,2-2,2s-2-.9-2-2,.9-2,2-2,2,.9,2,2Zm-2-9c-2.404,0-4.664,.936-6.364,2.636-.391,.391-.391,1.024,0,1.414,.391,.391,1.023,.391,1.414,0,1.322-1.322,3.08-2.05,4.95-2.05s3.627,.728,4.95,2.05c.195,.195,.451,.293,.707,.293s.512-.098,.707-.293c.391-.39,.391-1.023,0-1.414-1.7-1.7-3.96-2.636-6.364-2.636Zm-3.707-3.293c.391,.391,1.023,.391,1.414,0l2.293-2.293,2.293,2.293c.391,.391,1.023,.391,1.414,0s.391-1.023,0-1.414l-2.293-2.293,2.293-2.293c.391-.391,.391-1.023,0-1.414s-1.023-.391-1.414,0l-2.293,2.293L9.707,.293c-.391-.391-1.023-.391-1.414,0s-.391,1.023,0,1.414l2.293,2.293-2.293,2.293c-.391,.391-.391,1.023,0,1.414Zm14.375,.368c-.974-.873-2.051-1.623-3.2-2.23-.488-.257-1.093-.071-1.351,.417-.258,.488-.071,1.093,.417,1.351,1.005,.531,1.946,1.187,2.799,1.951,.191,.171,.43,.255,.667,.255,.274,0,.548-.112,.745-.333,.369-.412,.334-1.044-.077-1.412ZM5.884,6.262c-.258-.488-.862-.676-1.351-.417-1.149,.606-2.226,1.357-3.201,2.23-.411,.368-.446,1-.077,1.412,.197,.22,.471,.333,.745,.333,.237,0,.476-.084,.667-.255,.853-.764,1.794-1.42,2.799-1.951,.488-.258,.675-.863,.417-1.351Z"/>
</svg>
