<?xml version="1.0" encoding="UTF-8"?>
<svg xmlns="http://www.w3.org/2000/svg" id="Layer_1" data-name="Layer 1" viewBox="0 0 24 24">
  <path d="M7.937,22.649c.194,.518-.068,1.094-.585,1.288-.504,.193-1.094-.063-1.288-.585-.303-.808-1.132-1.351-2.063-1.351s-1.761,.543-2.063,1.351c-.194,.517-.77,.779-1.288,.585-.517-.194-.779-.771-.585-1.288,.595-1.584,2.176-2.649,3.937-2.649s3.343,1.064,3.937,2.649Zm4.063-2.649c-1.761,0-3.343,1.064-3.937,2.649-.194,.518,.068,1.094,.585,1.288,.517,.196,1.094-.068,1.288-.585,.303-.808,1.132-1.351,2.063-1.351s1.761,.543,2.063,1.351c.193,.522,.784,.778,1.288,.585,.517-.194,.779-.77,.585-1.288-.594-1.584-2.176-2.649-3.937-2.649Zm8,0c-1.761,0-3.343,1.064-3.937,2.649-.194,.518,.068,1.094,.585,1.288,.518,.196,1.094-.068,1.288-.585,.303-.808,1.132-1.351,2.063-1.351s1.761,.543,2.063,1.351c.193,.522,.784,.778,1.288,.585,.517-.194,.779-.77,.585-1.288-.594-1.584-2.176-2.649-3.937-2.649Zm-16-1c1.379,0,2.5-1.121,2.5-2.5s-1.121-2.5-2.5-2.5-2.5,1.121-2.5,2.5,1.121,2.5,2.5,2.5Zm5.5-2.5c0,1.381,1.119,2.5,2.5,2.5s2.5-1.119,2.5-2.5-1.119-2.5-2.5-2.5-2.5,1.119-2.5,2.5Zm8,0c0,1.381,1.119,2.5,2.5,2.5s2.5-1.119,2.5-2.5-1.119-2.5-2.5-2.5-2.5,1.119-2.5,2.5Zm-2.242-12.033c.285,.338,.705,.533,1.147,.533h2.262l-.879,2.26c-.138,.356,.124,.74,.506,.74h.32c.407,0,.781-.222,.975-.579l1.911-2.421h1.5c.552,0,1-.448,1-1s-.448-1-1-1h-1.5l-1.929-2.421c-.195-.357-.569-.579-.975-.579h-.298c-.383,0-.646,.386-.505,.742l.891,2.258h-2.184l-1.11-.772c-.146-.146-.345-.228-.551-.228-.599,0-.974,.647-.677,1.167l1.096,1.3ZM4,12c.552,0,1-.448,1-1v-1.154c0-.552-.448-1-1-1s-1,.448-1,1v1.154c0,.552,.448,1,1,1Zm1.125-4.5c.311,0,.617-.144,.812-.416,.318-.442,.705-.829,1.147-1.147,.448-.323,.55-.948,.227-1.396-.322-.448-.948-.551-1.396-.227-.618,.445-1.156,.983-1.601,1.601-.323,.448-.221,1.073,.227,1.396,.177,.127,.381,.188,.583,.188Zm4.644-2.5h1.231c.552,0,1-.448,1-1s-.448-1-1-1h-1.231c-.552,0-1,.448-1,1s.448,1,1,1Z"/>
</svg>
