<?xml version="1.0" encoding="UTF-8"?>
<svg xmlns="http://www.w3.org/2000/svg" id="Layer_1" data-name="Layer 1" viewBox="0 0 24 24">
  <path d="M20.875,8.364c-.514-.208-1.095,.04-1.302,.552-.207,.512,.041,1.095,.552,1.302,1.139,.461,1.875,1.553,1.875,2.782v2H10v-2c0-1.654,1.346-3,3-3h2c.552,0,1-.447,1-1s-.448-1-1-1h-2c-1.925,0-3.581,1.106-4.416,2.705-.584-.437-1.301-.705-2.084-.705-1.93,0-3.5,1.57-3.5,3.5,0,.539,.133,1.044,.351,1.5h-1.351V5c0-.553-.448-1-1-1s-1,.447-1,1V23c0,.553,.448,1,1,1s1-.447,1-1v-2H22v2c0,.553,.448,1,1,1s1-.447,1-1V13c0-2.049-1.227-3.868-3.125-4.636Zm-14.375,3.636c.827,0,1.5,.673,1.5,1.5s-.673,1.5-1.5,1.5-1.5-.673-1.5-1.5,.673-1.5,1.5-1.5Zm15.5,7H2v-2H22v2ZM8,4c0-.553,.448-1,1-1h2.965L13.668,.445c.391-.621,1.375-.574,1.708,.072l2.371,4.309,.921-1.381c.186-.278,.498-.445,.832-.445h3.5c.552,0,1,.447,1,1s-.448,1-1,1h-2.965l-1.538,2.307c-.386,.618-1.377,.575-1.708-.072l-2.371-4.309-1.086,1.629c-.186,.278-.498,.445-.832,.445h-3.5c-.552,0-1-.447-1-1Z"/>
</svg>
