<?xml version="1.0" encoding="UTF-8"?>
<svg xmlns="http://www.w3.org/2000/svg" id="Layer_1" data-name="Layer 1" viewBox="0 0 24 24">
  <path d="M24,8v8c0,2.757-2.243,5-5,5h-7c-.552,0-1-.447-1-1s.448-1,1-1h7c1.654,0,3-1.346,3-3V8c0-1.654-1.346-3-3-3h-7c-.552,0-1-.448-1-1s.448-1,1-1h7c2.757,0,5,2.243,5,5Zm-8,9c.553,0,1-.447,1-1v-7h2c.553,0,1-.448,1-1s-.447-1-1-1h-6c-.552,0-1,.448-1,1s.448,1,1,1h2v7c0,.553,.447,1,1,1Zm-6,5c-.551,0-1-.448-1-1V3c0-.551,.449-1,1-1s1-.448,1-1-.448-1-1-1c-.771,0-1.468,.301-2,.78-.532-.48-1.229-.78-2-.78-.552,0-1,.448-1,1s.448,1,1,1,1,.449,1,1V21c0,.552-.449,1-1,1s-1,.447-1,1,.448,1,1,1c.771,0,1.468-.301,2-.78,.532,.48,1.229,.78,2,.78,.552,0,1-.447,1-1s-.448-1-1-1ZM4.249,5.094c.535-.137,.857-.683,.719-1.217-.137-.535-.681-.858-1.217-.719C1.542,3.726,0,5.717,0,8v8c0,2.282,1.542,4.273,3.75,4.843,.084,.021,.167,.031,.25,.031,.445,0,.852-.3,.968-.751,.138-.534-.184-1.08-.719-1.218-1.325-.341-2.25-1.535-2.25-2.905V8c0-1.37,.925-2.565,2.249-2.906Z"/>
</svg>
