<?xml version="1.0" encoding="UTF-8"?>
<svg xmlns="http://www.w3.org/2000/svg" id="Layer_1" data-name="Layer 1" viewBox="0 0 24 24">
  <path d="M9,8.792c0,.437-.534,1.208-1.5,1.208s-1.5-.771-1.5-1.208,.534-.792,1.5-.792,1.5,.354,1.5,.792Zm7.5,10.208c.966,0,1.5-.771,1.5-1.208s-.534-.792-1.5-.792-1.5,.354-1.5,.792,.534,1.208,1.5,1.208ZM7.826,15h-.651c-4.425,0-7.174-1.951-7.174-5.092,0-.756,.389-1.706,1.036-2.612-.623-.264-1.036-.812-1.036-1.796C0,4,3.222,0,4.462,0c.909,0,1.511,.366,2.412,1.032,.203-.017,.409-.032,.627-.032s.424,.015,.627,.032c.9-.666,1.503-1.032,2.412-1.032,1.239,0,4.462,4,4.462,5.5,0,.984-.413,1.532-1.036,1.796,.646,.906,1.036,1.855,1.036,2.612,0,3.141-2.749,5.092-7.174,5.092Zm5.174-5.092c0-.297-.326-1.236-1.332-2.242-.183-.182-.288-.429-.293-.687-.011-.404-.219-3.979-3.875-3.979s-3.864,3.575-3.875,3.983c-.007,.255-.112,.502-.292,.683-1.006,1.006-1.332,1.945-1.332,2.242,0,2.869,3.96,3.092,5.174,3.092h.651c1.214,0,5.174-.223,5.174-3.092Zm10.404,.896l-.404-2.048c-.119-.655-.873-.97-1.423-.594l-2.077,2.088s0,0,0,0c-.457-.214-.931-.375-1.418-.485-.567-.128-1.113,.288-1.177,.865,0,.009-.002,.017-.003,.026-.057,.507,.281,.955,.776,1.079,.901,.226,1.603,.651,2.009,.964,.472,.288,2.358,1.634,2.312,4.772-.037,2.517-2.125,4.53-4.642,4.53h-1.655c-2.526,0-4.628-1.992-4.702-4.5,0-.552-.448-1-1-1s-1,.448-1,1c.099,3.595,3.082,6.5,6.705,6.5h1.661c3.679,0,6.641-3.01,6.634-6.688-.005-3.225-.571-6.376-.596-6.508Z"/>
</svg>
