<?xml version="1.0" encoding="UTF-8"?>
<svg xmlns="http://www.w3.org/2000/svg" id="Layer_1" data-name="Layer 1" viewBox="0 0 24 24">
  <path d="m23,19h-5v-1h4c.553,0,1-.447,1-1s-.447-1-1-1h-4v-1.186l.612-.623c.48-.465.52-1.222.091-1.735-.428-.511-1.18-.607-1.723-.214l-2.077,1.758h-3.902v-6c0-1.302-.839-2.402-2-2.816V1c0-.552-.447-1-1-1s-1,.448-1,1v4h-3V1c0-.552-.447-1-1-1s-1,.448-1,1v4.184c-1.161.414-2,1.514-2,2.816v9c0,3.859,3.141,7,7,7h14c.553,0,1-.447,1-1s-.447-1-1-1h-3v-1h5c.553,0,1-.447,1-1s-.447-1-1-1ZM2,8c0-.551.448-1,1-1h2.804l-3.804,3.48v-2.48Zm0,8.464v-3.273l6.557-5.999c.261.181.443.467.443.808v2.06l-7,6.404Zm.362,2.38l6.638-6.073v3.226l-5.128,4.872c-.661-.536-1.19-1.223-1.51-2.025Zm4.638,3.157c-.429,0-.838-.071-1.235-.173l2.206-2.096,2.444,2.269h-3.415Zm9,0h-2.646l-3.93-3.649,1.717-1.632,4.859,4.511v.769Zm0-3.498l-2.694-2.502h2.694v2.502Z"/>
</svg>
