<?xml version="1.0" encoding="UTF-8"?>
<svg xmlns="http://www.w3.org/2000/svg" id="Layer_1" data-name="Layer 1" viewBox="0 0 24 24">
  <path d="M.499,5.216c-.667-.667-.667-1.765,.008-2.439L2.927,.301c.385-.394,1.02-.402,1.414-.016,.395,.386,.402,1.019,.016,1.414l-1.272,1.301h1.415c1.93,0,3.5,1.57,3.5,3.5v1.5c0,.553-.447,1-1,1s-1-.447-1-1v-1.5c0-.827-.673-1.5-1.5-1.5h-1.415l1.272,1.301c.387,.396,.379,1.028-.016,1.414-.394,.386-1.028,.379-1.414-.016L.499,5.216Zm9.501,3.784c.553,0,1-.447,1-1v-1.5c0-.827,.673-1.5,1.5-1.5h1.415l-1.272,1.301c-.387,.396-.379,1.028,.016,1.414,.394,.386,1.028,.379,1.414-.016l2.42-2.476c.675-.675,.675-1.772,.008-2.439L14.073,.301c-.384-.394-1.02-.402-1.414-.016-.395,.386-.402,1.019-.016,1.414l1.272,1.301h-1.415c-1.93,0-3.5,1.57-3.5,3.5v1.5c0,.553,.447,1,1,1Zm13.235,4.016l-6.804,7.637c-1.896,2.128-4.618,3.348-7.467,3.348H4c-2.206,0-4-1.794-4-4v-5c0-2.206,1.794-4,4-4H12.857c1.14,0,2.139,.609,2.689,1.519l3.217-3.534c1.065-1.221,3.074-1.31,4.254-.199,1.214,1.106,1.312,3.004,.218,4.23Zm-1.565-2.752c-.394-.38-1.069-.341-1.428,.066l-4.426,4.865c-.385,1.07-1.339,1.89-2.514,2.058l-5.161,.737c-.548,.074-1.054-.302-1.132-.849s.302-1.054,.849-1.132l5.161-.737c.56-.079,.98-.565,.98-1.13,0-.63-.513-1.143-1.143-1.143H4c-1.103,0-2,.897-2,2v5c0,1.103,.897,2,2,2h4.965c2.279,0,4.456-.977,5.974-2.678l6.804-7.638c.368-.412,.336-1.05-.072-1.421Z"/>
</svg>
