<?xml version="1.0" encoding="UTF-8"?>
<svg xmlns="http://www.w3.org/2000/svg" id="Layer_1" data-name="Layer 1" viewBox="0 0 24 24">
  <path d="M11,3.115V15c0,3.309-2.691,6-6,6H2c-1.103,0-2-.897-2-2v-4.5c0-1.277,.976-2.106,1.553-2.395,.494-.247,1.094-.047,1.342,.447,.247,.494,.047,1.095-.447,1.342,0,0-.447,.253-.447,.605v4.5h3c2.206,0,4-1.794,4-4v-4.072c0-.512-.416-.928-.928-.928-.459,0-.854,.343-.919,.797l-.62,4.344c-.078,.547-.58,.93-1.132,.849-.547-.078-.927-.584-.849-1.131l.62-4.345c.205-1.434,1.451-2.514,2.899-2.514,.326,0,.635,.066,.928,.165V3.115c0-.542-.362-1.026-.826-1.101-.301-.051-.591,.03-.817,.224-.224,.191-.353,.468-.353,.76v3.002c0,.552-.449,1-1.001,1s-1-.448-1-1V2.998c0-.879,.386-1.711,1.057-2.282C6.73,.145,7.618-.101,8.493,.04c1.43,.231,2.507,1.554,2.507,3.076Zm11.447,11.99c-.487-.243-1.075-.046-1.328,.438-.251,.485-.06,1.086,.421,1.345,.005,.002,.46,.257,.46,.612v4.5h-3c-2.206,0-4-1.794-4-4v-4.072c0-.512,.416-.928,.928-.928,.459,0,.854,.343,.919,.796l.62,4.345c.078,.546,.583,.924,1.132,.849,.547-.078,.927-.584,.849-1.131l-.62-4.345c-.205-1.433-1.451-2.514-2.899-2.514-.326,0-.635,.066-.928,.165V6.115c0-.542,.362-1.026,.825-1.101,.299-.05,.591,.03,.818,.224,.224,.191,.353,.468,.353,.761v3.002c0,.552,.449,1,1.001,1s1-.448,1-1v-3.001c0-.879-.386-1.711-1.057-2.283-.672-.571-1.556-.814-2.435-.676-1.429,.231-2.506,1.554-2.506,3.076v11.885c0,3.309,2.691,6,6,6h3c1.103,0,2-.897,2-2v-4.5c0-1.277-.976-2.106-1.553-2.395Z"/>
</svg>
