<?xml version="1.0" encoding="UTF-8"?>
<svg xmlns="http://www.w3.org/2000/svg" id="Layer_1" data-name="Layer 1" viewBox="0 0 24 24">
  <path d="M17,3h-1.551c-.245-1.692-1.691-3-3.449-3s-3.204,1.308-3.449,3h-1.551C3.691,3,1,5.691,1,9v7c0,3.309,2.691,6,6,6h2v1c0,.553,.448,1,1,1s1-.447,1-1v-1h2v1c0,.553,.447,1,1,1s1-.447,1-1v-1h2c3.309,0,6-2.691,6-6v-7c0-3.309-2.691-6-6-6Zm-5-1c.827,0,1.5,.673,1.5,1.5s-.673,1.5-1.5,1.5-1.5-.673-1.5-1.5,.673-1.5,1.5-1.5Zm5,18H7c-2.206,0-4-1.794-4-4v-6H14c.553,0,1-.448,1-1s-.447-1-1-1H3.142c.447-1.72,2-3,3.858-3h1.851c.564,1.178,1.758,2,3.149,2s2.585-.822,3.149-2h1.851c1.859,0,3.411,1.28,3.858,3h-2.858c-.553,0-1,.448-1,1s.447,1,1,1h3v2h-3c-.553,0-1,.448-1,1s.447,1,1,1h3v2h-3c-.553,0-1,.447-1,1s.447,1,1,1h2.444c-.694,1.19-1.97,2-3.444,2Z"/>
</svg>
