<?xml version="1.0" encoding="UTF-8"?>
<svg xmlns="http://www.w3.org/2000/svg" id="Layer_1" data-name="Layer 1" viewBox="0 0 24 24">
  <path d="M19.425,13.084c-.301-3.376-.916-6.452-1.403-8.497-.643-2.701-3.041-4.587-5.832-4.587h-.19c-.552,0-1,.448-1,1s.448,1,1,1h.19c1.861,0,3.458,1.254,3.886,3.05,.228,.959,.485,2.16,.724,3.504-1.872,.136-5.244,.604-8.249,2.13l-1.069-2.684h1.517c.552,0,1-.448,1-1s-.448-1-1-1H4c-.552,0-1,.448-1,1s.448,1,1,1h1.33l1.483,3.722c-1.485,1.059-2.739,2.48-3.508,4.348-1.874,.331-3.305,1.962-3.305,3.93,0,2.206,1.794,4,4,4s4-1.794,4-4c0-1.714-1.089-3.167-2.606-3.736,2.44-4.713,9.445-5.572,11.725-5.727,.118,.826,.22,1.686,.302,2.571-2.517,.503-4.42,2.729-4.42,5.392,0,3.033,2.467,5.5,5.5,5.5s5.5-2.467,5.5-5.5c0-2.717-1.982-4.974-4.575-5.416Zm-13.425,6.916c0,1.103-.897,2-2,2s-2-.897-2-2,.896-1.999,1.998-2c0,0,.001,0,.002,0,0,0,.001,0,.002,0,1.102,.001,1.998,.897,1.998,2Zm12.5,2c-1.93,0-3.5-1.57-3.5-3.5s1.57-3.5,3.5-3.5,3.5,1.57,3.5,3.5-1.57,3.5-3.5,3.5Zm1.5-3.5c0,.828-.672,1.5-1.5,1.5s-1.5-.672-1.5-1.5,.672-1.5,1.5-1.5,1.5,.672,1.5,1.5Z"/>
</svg>
