<?xml version="1.0" encoding="UTF-8"?>
<svg xmlns="http://www.w3.org/2000/svg" id="Layer_1" data-name="Layer 1" viewBox="0 0 24 24">
  <path d="M24,9v12.855c0,.794-.435,1.52-1.135,1.894-.318,.17-.666,.254-1.013,.254-.417,0-.832-.121-1.192-.361l-2.922-1.642h-6.738c-2.386,0-4.381-1.683-4.876-3.923l-2.849,1.6c-.318,.214-.708,.325-1.108,.325-.349,0-.706-.084-1.031-.258-.7-.375-1.135-1.1-1.135-1.894V6C0,3.243,2.243,1,5,1h1c.552,0,1,.448,1,1s-.448,1-1,1h-1c-1.654,0-3,1.346-3,3v11.85c0,.022,0,.089,.078,.13s.133,.005,.151-.007l3.281-1.845c.15-.084,.318-.128,.49-.128H14.354c.732,0,1.436-.266,1.983-.75,.416-.366,1.046-.325,1.412,.087,.366,.414,.326,1.046-.087,1.412-.914,.807-2.088,1.25-3.308,1.25h-6.17c.414,1.161,1.514,2,2.816,2h7c.172,0,.341,.044,.491,.128l3.215,1.81c.083,.052,.138,.088,.216,.047,.078-.042,.078-.108,.078-.13V9c0-1.37-.925-2.564-2.25-2.906-.535-.138-.856-.683-.719-1.218s.68-.856,1.218-.719c2.208,.569,3.75,2.56,3.75,4.842Zm-11.5,1.5c.828,0,1.5-.672,1.5-1.5s-.672-1.5-1.5-1.5-1.5,.672-1.5,1.5,.672,1.5,1.5,1.5Zm-3.497-6.151c0-.006-.003-.01-.003-.016v-.833c0-1.93,1.57-3.5,3.5-3.5s3.5,1.57,3.5,3.5v.833c0,.006-.003,.01-.003,.016,1.18,.563,2.003,1.758,2.003,3.151v3c0,1.93-1.57,3.5-3.5,3.5h-4c-1.93,0-3.5-1.57-3.5-3.5v-3c0-1.392,.823-2.587,2.003-3.151Zm1.997-.849v.5h3v-.5c0-.827-.673-1.5-1.5-1.5s-1.5,.673-1.5,1.5Zm-2,7c0,.827,.673,1.5,1.5,1.5h4c.827,0,1.5-.673,1.5-1.5v-3c0-.827-.673-1.5-1.5-1.5h-4c-.827,0-1.5,.673-1.5,1.5v3Z"/>
</svg>
