<?xml version="1.0" encoding="UTF-8"?>
<svg xmlns="http://www.w3.org/2000/svg" id="Layer_1" data-name="Layer 1" viewBox="0 0 24 24">
  <path d="M12,2.622c0-.693-.349-1.327-.933-1.694-.674-.423-1.818-.928-3.442-.928C5.249,0,3.919,1.071,3.604,1.36,1.973,2.607,1,4.571,1,6.625c0,5.913,1.828,15.137,2.069,15.948,.255,.854,1.025,1.427,1.916,1.427h1.733c.62,0,1.194-.28,1.576-.769s.515-1.114,.364-1.717l-.678-2.713c-.487-2.609-.833-5.013-.99-6.839,.212,.025,.423,.037,.634,.037,1.624,0,2.769-.505,3.442-.928,.584-.367,.933-1,.933-1.694V2.622ZM4.985,22.002c-.153-.513-.346-1.22-.526-2.002h1.76l.499,2-1.733,.002Zm2.64-12.002c-.439,0-.889-.086-1.372-.264-.313-.116-.662-.067-.932,.129-.27,.195-.424,.512-.412,.845,.08,2.272,.556,5.342,.895,7.29h-1.722c-.521-3.354-1.082-7.792-1.082-11.375,0-1.448,.691-2.831,1.851-3.7,.029-.022,1.01-.925,2.774-.925,1.147,0,1.927,.338,2.375,.622l.003,6.756c-.451,.284-1.23,.622-2.378,.622ZM20.931,1.427c-.255-.854-1.025-1.427-1.916-1.427h-1.733c-.62,0-1.194,.28-1.576,.769s-.515,1.114-.364,1.717l.678,2.713c.487,2.609,.833,5.013,.99,6.839-.212-.025-.423-.037-.634-.037-1.624,0-2.769,.505-3.442,.928-.584,.367-.933,1-.933,1.694v6.756c0,.693,.349,1.327,.933,1.694,.674,.423,1.818,.928,3.442,.928,2.376,0,3.706-1.071,4.021-1.36,1.631-1.247,2.604-3.21,2.604-5.265,0-6.298-1.828-15.137-2.069-15.948Zm-1.916,.571c.153,.513,.346,1.22,.526,2.002h-1.76l-.499-2,1.733-.002Zm.135,19.077c-.029,.022-1.01,.925-2.774,.925-1.147,0-1.927-.338-2.375-.622l-.003-6.756c.451-.284,1.23-.622,2.378-.622,.439,0,.889,.086,1.372,.264,.312,.114,.661,.066,.932-.129,.27-.195,.424-.512,.412-.845-.08-2.272-.556-5.342-.895-7.29h1.722c.521,3.354,1.082,7.792,1.082,11.375,0,1.448-.691,2.831-1.851,3.7Z"/>
</svg>
