<?xml version="1.0" encoding="UTF-8"?>
<svg xmlns="http://www.w3.org/2000/svg" id="Layer_1" data-name="Layer 1" viewBox="0 0 24 24">
  <path d="M23.707,22.293l-3.957-3.957,1.586-1.586,.207,.207c.195,.195,.451,.293,.707,.293s.512-.098,.707-.293c.391-.391,.391-1.023,0-1.414l-4.5-4.5c-.391-.391-1.023-.391-1.414,0s-.391,1.023,0,1.414l.056,.056-4.586,4.586-.056-.056c-.391-.391-1.023-.391-1.414,0s-.391,1.023,0,1.414l4.5,4.5c.195,.195,.451,.293,.707,.293s.512-.098,.707-.293c.391-.391,.391-1.023,0-1.414l-.207-.207,1.586-1.586,3.957,3.957c.195,.195,.451,.293,.707,.293s.512-.098,.707-.293c.391-.391,.391-1.023,0-1.414Zm-8.371-2.371l-1.409-1.409,4.586-4.586,1.409,1.409-4.586,4.586Zm-3.336,2.078H5c-1.654,0-3-1.346-3-3V5c0-1.654,1.346-3,3-3h4.515c.163,0,.325,.008,.485,.023V7c0,1.654,1.346,3,3,3h5.813c.309,0,.601-.143,.79-.387s.255-.562,.179-.861c-.312-1.217-.945-2.33-1.833-3.217l-3.484-3.485c-1.322-1.322-3.081-2.05-4.95-2.05H5C2.243,0,0,2.243,0,5v14c0,2.757,2.243,5,5,5h7c.552,0,1-.448,1-1s-.448-1-1-1Zm0-19.341c.379,.218,.733,.488,1.051,.806l3.484,3.486c.314,.314,.584,.667,.804,1.05h-4.339c-.551,0-1-.449-1-1V2.659Z"/>
</svg>
