<?xml version="1.0" encoding="UTF-8"?>
<svg xmlns="http://www.w3.org/2000/svg" id="Layer_1" data-name="Layer 1" viewBox="0 0 24 24">
  <path d="M17,21c0,.552-.448,1-1,1H5c-2.757,0-5-2.243-5-5V7c0-.552,.448-1,1-1s1,.448,1,1v10c0,1.654,1.346,3,3,3h11c.552,0,1,.448,1,1Zm5.222-.192l1.485,1.485c.391,.391,.391,1.023,0,1.414-.195,.195-.451,.293-.707,.293s-.512-.098-.707-.293L.293,1.707C-.098,1.316-.098,.684,.293,.293S1.316-.098,1.707,.293l1.921,1.921c.445-.128,.901-.214,1.372-.214h14c2.757,0,5,2.243,5,5v10c0,1.485-.668,2.868-1.778,3.808Zm-1.434-1.434c.745-.563,1.211-1.427,1.211-2.375V7c0-1.654-1.346-3-3-3H5.414l7,7h6.586c.552,0,1,.448,1,1s-.448,1-1,1h-4.586l3,3h1.586c.552,0,1,.448,1,1,0,.43-.275,.789-.656,.93l1.444,1.444ZM5,13h1c.552,0,1-.448,1-1s-.448-1-1-1h-1c-.552,0-1,.448-1,1s.448,1,1,1Zm0,5h6.5c.552,0,1-.448,1-1s-.448-1-1-1H5c-.552,0-1,.448-1,1s.448,1,1,1Z"/>
</svg>
