<?xml version="1.0" encoding="UTF-8"?>
<svg xmlns="http://www.w3.org/2000/svg" id="Layer_1" data-name="Layer 1" viewBox="0 0 24 24">
  <path d="M1.5,3.5c0-1.381,1.119-2.5,2.5-2.5s2.5,1.119,2.5,2.5-1.119,2.5-2.5,2.5S1.5,4.881,1.5,3.5Zm7.5,15.5v-2H3v3c0,.107-.018,.214-.052,.316l-1,3c-.174,.529-.754,.806-1.265,.632-.523-.174-.807-.74-.632-1.265l.948-2.846V10c0-1.654,1.346-3,3-3h4.859c.21,0,.411-.064,.581-.186l2.648-1.892c.51-2.795,2.958-4.923,5.898-4.923,3.309,0,6,2.691,6,6s-2.691,6-6,6c-2.847,0-5.232-1.995-5.844-4.659l-1.54,1.1c-.511,.365-1.113,.559-1.743,.559h-1.859v6h2c1.103,0,2,.897,2,2v2c0,.553-.447,1-1,1s-1-.447-1-1ZM13.986,6c0,2.206,1.794,4,4,4s4-1.794,4-4-1.794-4-4-4-4,1.794-4,4ZM3,15h2v-6h-1c-.552,0-1,.448-1,1v5Zm19.43-1.821l-13,9.021c-.453,.314-.566,.938-.251,1.392,.317,.456,.943,.564,1.392,.251l13-9.021c.453-.314,.566-.938,.251-1.392-.314-.453-.938-.566-1.392-.251Z"/>
</svg>
