<?xml version="1.0" encoding="UTF-8"?>
<svg xmlns="http://www.w3.org/2000/svg" id="Layer_1" data-name="Layer 1" viewBox="0 0 24 24">
  <path d="M21.103,1.343C18.291,.558,15.187,.007,12,0,8.816,.007,5.706,.559,2.897,1.343,1.191,1.823,0,3.404,0,5.188V15.5c0,1.379,1.122,2.5,2.5,2.5h2.214c1.164,0,2.146-.826,2.387-2.009,.473-2.312,2.533-3.991,4.898-3.991s4.425,1.679,4.898,3.991c.242,1.183,1.224,2.009,2.387,2.009h2.214c1.378,0,2.5-1.121,2.5-2.5V5.188c0-1.784-1.191-3.365-2.897-3.846Zm.897,3.846v1.806c-.862-.333-2.068-.748-3.5-1.116V2.756c.763,.168,1.463,.344,2.061,.513,.847,.238,1.439,1.027,1.439,1.92Zm-14.5,.247V2.377c1.098-.174,2.277-.304,3.5-.352v3.001c-1.222,.055-2.4,.207-3.5,.411Zm5.5-3.411c1.223,.048,2.402,.178,3.5,.352v3.059c-1.1-.204-2.278-.355-3.5-.411V2.025ZM3.439,3.269c.598-.169,1.298-.345,2.061-.513v3.123c-1.432,.368-2.638,.783-3.5,1.116v-1.806c0-.893,.592-1.682,1.439-1.92Zm18.061,12.731h-2.214c-.238,0-.386-.206-.428-.409-.662-3.239-3.546-5.591-6.857-5.591s-6.195,2.352-6.857,5.591c-.042,.203-.19,.409-.428,.409H2.5c-.276,0-.5-.225-.5-.5v-6.347c1.464-.613,5.58-2.153,10-2.153s8.536,1.54,10,2.153v6.347c0,.275-.224,.5-.5,.5Zm2.244,5.565c.369,.41,.335,1.043-.075,1.412-.734,.659-1.682,1.022-2.668,1.022-1.131,0-2.221-.479-3-1.235-.779,.757-1.869,1.235-3,1.235s-2.221-.479-3-1.235c-.779,.757-1.869,1.235-3,1.235s-2.221-.479-3-1.235c-.779,.757-1.869,1.235-3,1.235-.987,0-1.935-.363-2.668-1.022-.411-.369-.444-1.002-.075-1.412s1.002-.443,1.412-.076c.366,.329,.839,.511,1.332,.511,.89,0,1.793-.586,2.057-1.333,.323-.856,1.563-.856,1.886,0,.264,.747,1.167,1.333,2.057,1.333s1.793-.586,2.057-1.333c.323-.856,1.563-.856,1.886,0,.264,.747,1.167,1.333,2.057,1.333s1.793-.586,2.057-1.333c.323-.856,1.563-.856,1.886,0,.264,.747,1.167,1.333,2.057,1.333,.493,0,.965-.182,1.332-.511,.411-.367,1.043-.336,1.412,.076Z"/>
</svg>
