<?xml version="1.0" encoding="UTF-8"?>
<svg xmlns="http://www.w3.org/2000/svg" id="Layer_1" data-name="Layer 1" viewBox="0 0 24 24">
  <path d="M16.9,11.5c0-.496-.404-.9-.9-.9h-1.7c-.442,0-.8-.358-.8-.8v-3c0-.442,.358-.8,.8-.8h2.9c.442,0,.8,.358,.8,.8s-.358,.8-.8,.8h-2.101v1.4h.758c1.308,0,2.499,.941,2.63,2.242,.15,1.496-1.021,2.758-2.487,2.758h-1.7c-.442,0-.8-.358-.8-.8s.358-.8,.8-.8h1.7c.496,0,.9-.404,.9-.9Zm6.3-2h-.9c-.442,0-.8,.358-.8,.8s.358,.8,.8,.8h.1v.368c0,.479-.361,.898-.838,.93-.524,.035-.962-.381-.962-.898v-2.968c0-.479,.361-.898,.838-.93,.375-.025,.705,.181,.863,.489,.132,.258,.409,.409,.699,.409,.606,0,.99-.647,.703-1.182-.414-.772-1.222-1.3-2.155-1.318-1.401-.027-2.548,1.154-2.548,2.556v2.887c0,1.402,1.147,2.582,2.548,2.556,1.358-.026,2.452-1.135,2.452-2.5v-1.2c0-.442-.358-.8-.8-.8Zm-3.2,7.5v2c0,2.757-2.243,5-5,5h-6c-2.757,0-5-2.243-5-5V5C4,2.243,6.243,0,9,0h6c2.282,0,4.273,1.542,4.843,3.751,.138,.534-.185,1.08-.72,1.218-.527,.139-1.08-.185-1.218-.72-.341-1.324-1.535-2.249-2.905-2.249h-6c-1.654,0-3,1.346-3,3v11h13c.553,0,1,.447,1,1Zm-2,1H6v1c0,1.654,1.346,3,3,3h6c1.654,0,3-1.346,3-3v-1Zm-7,3h2c.553,0,1-.447,1-1s-.447-1-1-1h-2c-.552,0-1,.447-1,1s.448,1,1,1Z"/>
</svg>
