<?xml version="1.0" encoding="UTF-8"?>
<svg xmlns="http://www.w3.org/2000/svg" id="Layer_1" data-name="Layer 1" viewBox="0 0 24 24">
  <path d="M23,22h-3c-.133-6.607,1.824-8.263,3.854-12.599,.307-.701,.117-1.505-.471-2.001-.577-.487-1.388-.539-2.018-.124-.95,.627-2.451,1.924-3.821,3.312,.779-2.621,1.846-5.27,3.257-8.018,.368-.717,.217-1.564-.376-2.11-.576-.531-1.407-.607-2.07-.196-3.499,2.18-5.682,5.405-7.06,8.705-1.426-2.08-3.573-4.433-5.577-5.693-.688-.432-1.552-.354-2.149,.195-.587,.54-.736,1.379-.37,2.088,1.079,2.092,1.985,4.152,2.719,6.125-1.155-1.047-2.302-1.863-3.113-2.391-.709-.461-1.64-.361-2.265,.242-.59,.571-.709,1.415-.296,2.1,1.887,3.044,3.685,4.775,3.756,10.364H1c-.552,0-1,.448-1,1s.448,1,1,1H23c.553,0,1-.448,1-1s-.447-1-1-1Zm-15,0h-2c-.025-5.495-1.848-8.059-3.432-10.447,1.513,1.081,3.576,2.817,4.796,4.944,.392,1.712,.636,3.325,.636,4.703v.8Zm1.36-5.825c-.735-3.243-2.082-6.915-3.95-10.676,1.949,1.493,4,4.007,5.011,5.854-.522,1.697-.849,3.342-1.061,4.822Zm4.64,5.825h-3c.05-4.046,.129-13.738,7.591-19.485-3.305,6.699-4.715,12.82-4.591,19.485Zm4,0h-2c-.035-2.38,.12-4.76,.531-7.093,.846-1.412,3.246-3.848,4.994-5.26-1.96,3.653-3.612,5.894-3.524,12.353Z"/>
</svg>
