<?xml version="1.0" encoding="UTF-8"?>
<svg xmlns="http://www.w3.org/2000/svg" id="Layer_1" data-name="Layer 1" viewBox="0 0 24 24">
  <path d="M16.78,7.598c-.279-.631-.788-1.116-1.432-1.364-.645-.248-1.348-.23-1.975,.046-1.447,.625-6.256,3.287-6.429,3.383-.883,.449-1.429,1.342-1.426,2.332,.003,.989,.555,1.879,1.419,2.311,0,0,6.394,3.396,6.413,3.404,.34,.156,.7,.231,1.057,.231,.662,0,1.317-.26,1.827-.757,.728-.726,.966-1.818,.561-2.787-.063-.124-.829-1.622-1.225-2.396,.53-1.03,1.06-2.045,1.179-2.255,.324-.676,.335-1.459,.031-2.148Zm-3.224,4.857s1.37,2.676,1.423,2.777c.045,.107,.027,.353-.148,.527-.182,.177-.438,.228-.649,.132-.339-.183-1.575-.839-6.327-3.363-.302-.151-.336-.429-.336-.541,0-.112,.031-.389,.363-.559,.049-.027,4.927-2.727,6.292-3.317,.147-.065,.309-.068,.456-.013,.145,.056,.259,.165,.321,.306,.068,.154,.066,.328,.037,.399-.175,.296-1.223,2.333-1.431,2.738-.147,.287-.147,.626,0,.913ZM12,0C5.383,0,0,5.383,0,12s5.383,12,12,12,12-5.383,12-12S18.617,0,12,0Zm0,22c-5.514,0-10-4.486-10-10S6.486,2,12,2s10,4.486,10,10-4.486,10-10,10Z"/>
</svg>
