<?xml version="1.0" encoding="UTF-8"?>
<svg xmlns="http://www.w3.org/2000/svg" id="Layer_1" data-name="Layer 1" viewBox="0 0 24 24">
  <path d="M20,10h-2.528c-.154,0-.31-.037-.447-.105l-3.156-1.578c-.415-.207-.878-.316-1.341-.316h-1.528c-2.206,0-4,1.794-4,4v7c0,2.206,1.794,4,4,4h9c2.206,0,4-1.794,4-4v-5c0-2.206-1.794-4-4-4Zm2,9c0,1.103-.897,2-2,2H11c-1.103,0-2-.897-2-2v-7c0-1.103,.897-2,2-2h1.528c.154,0,.31,.037,.447,.105l3.156,1.578c.415,.207,.878,.316,1.341,.316h2.528c1.103,0,2,.897,2,2v5Zm-16,3c0,.552-.448,1-1,1-2.757,0-5-2.243-5-5V6C0,3.243,2.243,1,5,1h2.528c.463,0,.927,.109,1.341,.316l3.156,1.578c.138,.069,.293,.105,.447,.105h6.528c2.757,0,5,2.243,5,5,0,.552-.448,1-1,1s-1-.448-1-1c0-1.654-1.346-3-3-3h-6.528c-.463,0-.927-.109-1.341-.316l-3.156-1.578c-.138-.069-.293-.105-.447-.105h-2.528c-1.654,0-3,1.346-3,3v12c0,1.654,1.346,3,3,3,.552,0,1,.448,1,1Z"/>
</svg>
