<?xml version="1.0" encoding="UTF-8"?>
<svg xmlns="http://www.w3.org/2000/svg" id="Layer_1" data-name="Layer 1" viewBox="0 0 24 24">
  <path d="M24,6.997s-2.007,4.037-2,4.5c.009,.575,0,1.5,0,2.5,0,.5-.34,.805-.55,1.171-.378,.657-1.004,1.39-1.355,2.059-.042,.079-.074,.172-.095,.27-.056,.255-.045,.551,.039,.767,.257,.656,.58,1.265,.915,1.89,.14,.261,.251,.529,.309,.813,.109,.532-.293,1.031-.836,1.031h-.017c-.279,0-.537-.132-.7-.354-.345-.469-.711-1.141-.711-1.647,0-1-1.383-1-2-1-.419,0-.662,.175-.804,.379-.274,.394-.73,.621-1.21,.621h-.987c-.331,.24-.907,1.978-1.356,3-.328,.745-1.319,.872-1.828,.255-.324-.391-.635-1.355-.816-1.716-.169-.339-.731-.469-1.217-.517-.493-.049-.926-.35-1.157-.789-.041-.078-.084-.157-.127-.233-.508-.896-2.423-1.821-4-2-.699-.038-1.545,.549-1.989-.31-.813-1.482-1.511-3.467-1.511-5.171v-1.256c0-.542,.081-1.33,.241-2.208,.163-.893,1.337-1.136,1.817-.366l.018,.028c.137,.217,.193,.477,.145,.73-.142,.751-.221,1.383-.221,1.816v1.256c0,.982,.339,2.271,.907,3.499,.275-.034,.544-.036,.819-.005,1.996,.226,4.634,1.376,5.543,3.053,0,0,0,0,0,0,1.063,.156,1.837,.568,2.31,1.229,.39-.938,.694-1.488,1.188-1.87,.317-.245,.919-.425,1.32-.425h.651c.552-.639,1.36-1,2.262-1,.385,0,.732,.024,1.047,.067,.061-.275,.154-.533,.277-.767,.253-.481,1.573-2.417,1.673-2.559,.001-.002,.002-.003,.003-.005,0,0-.003-2.382,.01-2.497-.516,.328-1.142,.528-1.711,.528-1.29,0-2.3-.996-2.3-2.268v-.967c-.223-.058-.436-.113-.639-.164-.553-.139-.863-.711-.691-1.255,.139-.51,.665-.814,1.178-.684,.288,.072,.569,.145,.83,.213,.781,.205,1.322,.911,1.322,1.718v1.138c.068,.559,.911,.128,1.125-.096,.35-.371,1.061-1.307,1.499-1.895,.198-.266,.465-.473,.775-.59,.365-.138,.568-.442,.601-.918,.015-.217-.006-.842-.013-1.35-.028-.659,.927-.892,1.217-.31,.344,.649,.795,1.78,.795,1.78v.88Zm-19.528,1.546c-.952-.952-1.472-2.207-1.472-3.543s.52-2.591,1.464-3.535c1.862-1.94,5.21-1.94,7.071,0,.944,.944,1.464,2.199,1.464,3.535s-.52,2.591-1.464,3.535l-1.921,1.879c-.89,.871-2.34,.871-3.23,0l-1.913-1.871Zm.528-3.543c0,.802,.312,1.555,.878,2.121l1.905,1.863c.119,.117,.313,.117,.432,0l1.914-1.871c1.154-1.108,1.153-3.125-.008-4.234-1.117-1.164-3.126-1.164-4.243,0-.566,.566-.878,1.319-.878,2.121Zm3,1.494c.828,0,1.5-.672,1.5-1.5s-.672-1.5-1.5-1.5-1.5,.672-1.5,1.5,.672,1.5,1.5,1.5Z"/>
</svg>
