<?xml version="1.0" encoding="UTF-8"?>
<svg xmlns="http://www.w3.org/2000/svg" id="Layer_1" data-name="Layer 1" viewBox="0 0 24 24">
  <path d="m18.271,4.338c-.802-1.723-2.67-2.646-4.544-2.249C8.425,3.214,3.521,6.854.933,9.632c-1.237,1.328-1.237,3.408,0,4.736,2.588,2.777,7.492,6.418,12.792,7.543.292.062.582.092.869.092,1.56,0,2.999-.886,3.676-2.34.789-1.693,1.73-4.397,1.73-7.663s-.941-5.97-1.729-7.662Zm-.465,5.272c-1.04.303-1.805,1.252-1.805,2.39s.765,2.087,1.805,2.39c-.11.701-.26,1.356-.432,1.959-1.964-.5-3.373-2.252-3.373-4.349s1.409-3.848,3.373-4.349c.173.603.322,1.257.432,1.959Zm-3.664,10.344c-5.182-1.099-9.821-4.886-11.745-6.949-.525-.563-.525-1.446,0-2.01,1.924-2.064,6.563-5.851,11.746-6.949.94-.204,1.916.277,2.316,1.137.082.176.166.366.25.566-2.753.777-4.707,3.282-4.707,6.252s1.954,5.475,4.707,6.252c-.084.2-.168.391-.25.567-.399.858-1.372,1.34-2.316,1.136Zm9.859-7.954c0,6.437-2.557,10.386-2.665,10.551-.192.291-.511.449-.836.449-.189,0-.38-.054-.55-.165-.461-.305-.588-.925-.284-1.386.022-.033,2.335-3.647,2.335-9.449s-2.313-9.416-2.336-9.451c-.301-.462-.172-1.082.289-1.384.462-.304,1.079-.176,1.383.284.108.165,2.665,4.114,2.665,10.551Z"/>
</svg>
