<?xml version="1.0" encoding="UTF-8"?>
<svg xmlns="http://www.w3.org/2000/svg" id="Layer_1" data-name="Layer 1" viewBox="0 0 24 24">
  <path d="M24,4s0-1-1-1h-2V1c0-1-1-1-1-1-1.174,0-1.906,.902-1.984,2.049-1.699,.239-3.016,1.687-3.016,3.451v.5h-.5c-1.758,0-3.204,1.308-3.449,3h-.551c-1.93,0-3.5,1.57-3.5,3.5v.5h-.5c-1.93,0-3.5,1.57-3.5,3.5v.518c-1.672,.091-3,1.284-3,2.982,0,0,0,1,1,1H3v2c0,1,1,1,1,1,1.174,0,1.906-.902,1.984-2.049,1.699-.239,3.016-1.687,3.016-3.451v-.5h1c1.654,0,3-1.346,3-3h1c1.654,0,3-1.346,3-3v-1h.5c1.93,0,3.5-1.57,3.5-3.5v-.518c1.672-.091,3-1.284,3-2.982ZM7,18.5c0,.827-.673,1.5-1.5,1.5h-.5v-3.5c0-.827,.673-1.5,1.5-1.5h.5v3.5Zm3-2.5h-1v-3.5c0-.827,.673-1.5,1.5-1.5h.5v4c0,.552-.448,1-1,1Zm4-3h-1v-3.5c0-.827,.673-1.5,1.5-1.5h.5v4c0,.551-.448,1-1,1Zm5-5.5c0,.827-.673,1.5-1.5,1.5h-.5v-3.5c0-.827,.673-1.5,1.5-1.5h.5v3.5Z"/>
</svg>
