<?xml version="1.0" encoding="UTF-8"?>
<svg xmlns="http://www.w3.org/2000/svg" id="Layer_1" data-name="Layer 1" viewBox="0 0 24 24">
  <path d="M15.595,7h-.595V3c0-.552-.448-1-1-1s-1,.448-1,1V7h-2V3c0-.552-.448-1-1-1s-1,.448-1,1V7h-.595c-2.635,0-4.405,1.607-4.405,4,0,.97,.701,2,2,2v3.5c0,1.378,1.122,2.5,2.5,2.5h7c1.378,0,2.5-1.122,2.5-2.5v-3.5c1.299,0,2-1.03,2-2,0-2.393-1.77-4-4.405-4Zm-7.595,9.5v-4.5c0-.552-.448-1-1-1h-1c0-1.805,1.682-2,2.405-2h.117c-.327,.574-.522,1.242-.522,2,0,.97,.701,2,2,2v3.5c0,.171,.018,.338,.051,.5h-1.551c-.276,0-.5-.224-.5-.5Zm9-5.5c-.552,0-1,.448-1,1v4.5c0,.276-.224,.5-.5,.5h-3c-.276,0-.5-.224-.5-.5v-4.5c0-.552-.448-1-1-1h-1c0-1.541,1.223-1.906,2.031-1.98,.455,.593,1.163,.98,1.969,.98s1.513-.388,1.969-.98c.809,.074,2.031,.439,2.031,1.98h-1Zm7.004,12c0,.552-.448,1-1,1s-1-.448-1-1l-.003-19h-4.001c-.552,0-1-.448-1-1s.448-1,1-1h4V1c0-.552,.448-1,1-1s1,.448,1,1l.004,22ZM1.997,4l.003,19c0,.552-.448,1-1,1s-1-.448-1-1L-.004,1C-.004,.448,.444,0,.996,0S1.996,.448,1.996,1v1H6c.552,0,1,.448,1,1s-.448,1-1,1H1.997Z"/>
</svg>
