<?xml version="1.0" encoding="UTF-8"?>
<svg xmlns="http://www.w3.org/2000/svg" id="Layer_1" data-name="Layer 1" viewBox="0 0 24 24">
  <path d="M22,8.43v-.43c0-2.206-1.794-4-4-4h-1c-2.206,0-4,1.794-4,4v.428c-.01,.009-.021,.018-.031,.027-.133-1.547-.829-2.97-1.969-4.027v-.428C11,1.794,9.206,0,7,0h-1C3.794,0,2,1.794,2,4v.428C.727,5.609,0,7.246,0,9v14c0,.552,.448,1,1,1s1-.448,1-1V9c0-.242,.041-.475,.08-.709,.376,2.104,2.21,3.709,4.42,3.709s4.044-1.605,4.42-3.709c.039,.233,.08,.467,.08,.709v14c0,.552,.448,1,1,1s1-.448,1-1V13c0-.242,.041-.475,.08-.709,.376,2.104,2.21,3.709,4.42,3.709s4.05-1.612,4.421-3.722c.041,.238,.079,.477,.079,.722v10c0,.552,.448,1,1,1s1-.448,1-1V13c0-1.742-.73-3.389-2-4.57Zm-13-.93c0,.786-.372,1.48-.941,1.939-.441-.268-.946-.439-1.502-.439-.583,0-1.112,.186-1.568,.478-.597-.457-.989-1.17-.989-1.978v-3.5c0-1.103,.897-2,2-2h1c1.103,0,2,.897,2,2v3.5Zm11,4c0,.798-.382,1.501-.966,1.959-.448-.28-.965-.459-1.534-.459s-1.087,.178-1.536,.457c-.582-.458-.964-1.161-.964-1.957v-3.5c0-1.103,.897-2,2-2h1c1.103,0,2,.897,2,2v3.5Z"/>
</svg>
