<?xml version="1.0" encoding="UTF-8"?>
<svg xmlns="http://www.w3.org/2000/svg" id="Layer_1" data-name="Layer 1" viewBox="0 0 24 24">
  <path d="m12.936,1.285c-.754-.817-1.823-1.285-2.936-1.285h-6C2.888,0,1.817.469,1.063,1.286.307,2.107-.076,3.218.014,4.334c.442,5.501,1.822,12.89,1.986,13.762v2.404c0,1.93,1.57,3.5,3.5,3.5h3c1.93,0,3.5-1.57,3.5-3.5v-2.404c.164-.872,1.545-8.261,1.987-13.762.089-1.117-.294-2.228-1.052-3.049ZM2.534,2.642c.382-.414.902-.642,1.466-.642h6c.563,0,1.084.228,1.466.642.386.418.573.962.527,1.532-.372,4.633-1.43,10.667-1.824,12.826H3.831c-.395-2.159-1.451-8.193-1.823-12.827-.046-.57.141-1.114.526-1.532Zm7.466,17.858c0,.827-.673,1.5-1.5,1.5h-3c-.827,0-1.5-.673-1.5-1.5v-1.5h6v1.5Zm14-11.5c0,.552-.447,1-1,1h-2.089c-.063.376-.155.743-.285,1.094l1.801,1.04c.479.276.643.888.366,1.366-.186.321-.521.5-.867.5-.17,0-.342-.043-.499-.134l-1.803-1.041c-.24.291-.507.559-.799.8l1.041,1.803c.276.479.112,1.09-.366,1.366-.157.091-.329.134-.499.134-.346,0-.682-.179-.867-.5l-1.042-1.805c-.343.127-.7.226-1.072.29l-.02,2.086c0,.552-.447,1-1,1s-1-.448-1-1v-2.089c0-.974.707-1.802,1.682-1.969.473-.081.913-.244,1.31-.471.003-.002.005-.006.009-.008.005-.003.012-.003.017-.006.6-.349,1.095-.847,1.441-1.441.003-.006.003-.012.006-.017.001-.002.004-.003.005-.006.338-.59.531-1.271.531-1.994,0-1.591-.942-3.03-2.4-3.667-.506-.221-.737-.811-.516-1.317.164-.374.529-.596.914-.597l1.059-1.879c.271-.481.879-.652,1.362-.38.48.271.651.881.38,1.362l-1.027,1.823c.294.239.563.501.805.788l1.8-1.064c.475-.28,1.089-.124,1.369.352.281.475.124,1.088-.352,1.37l-1.806,1.068c.141.368.254.748.321,1.143h2.091c.553,0,1,.448,1,1Z"/>
</svg>
