<?xml version="1.0" encoding="UTF-8"?>
<svg xmlns="http://www.w3.org/2000/svg" id="Layer_1" data-name="Layer 1" viewBox="0 0 24 24">
  <path d="M20,9h-2.008c0-1.654-1.346-3-3-3H4.992c-1.654,0-3,1.346-3,3v3c0,.553,.448,1,1,1s1-.447,1-1v-3c0-.552,.449-1,1-1H14.992c.551,0,1,.448,1,1v4c0,2.449-1.75,4.523-4.16,4.93-.544,.092-.912,.608-.819,1.152,.089,.548,.62,.913,1.152,.82,2.323-.392,4.208-1.889,5.158-3.902h2.677c2.28,0,4-1.521,4-3.538,0-2.006-1.682-3.462-4-3.462Zm0,5h-2.085c.047-.328,.077-.66,.077-1v-2h2.008c.743,0,2,.308,2,1.462,0,1.01-1.006,1.538-2,1.538ZM9.025,3V1c0-.553,.448-1,1-1s1,.447,1,1V3c0,.553-.448,1-1,1s-1-.447-1-1Zm4,0V1c0-.553,.448-1,1-1s1,.447,1,1V3c0,.553-.448,1-1,1s-1-.447-1-1Zm-8,0V1c0-.553,.448-1,1-1s1,.447,1,1V3c0,.553-.448,1-1,1s-1-.447-1-1Zm14.975,20c0,.553-.448,1-1,1H1c-.552,0-1-.447-1-1s.448-1,1-1H19c.552,0,1,.447,1,1ZM.002,14.987c-.038-.587,.5-1.073,1.08-.974,2.772,.473,3.947,2.629,4.431,4.187,.433-1.194,1.381-2.739,3.314-3.187,.654-.152,1.245,.381,1.169,1.048-.349,3.053-2.875,3.783-4.139,3.899,.051,.024-.757,.032-.733,.006C3.62,19.859,.271,19.089,.002,14.987Z"/>
</svg>
