<?xml version="1.0" encoding="UTF-8"?>
<svg xmlns="http://www.w3.org/2000/svg" id="Layer_1" data-name="Layer 1" viewBox="0 0 24 24">
  <path d="m21,19.586v-3.101c0-1.871-.729-3.628-2.051-4.95l-6.071-6.071c-1.766-1.766-4.526-1.915-6.481-.481l-1.483-1.483,1.793-1.793c.391-.391.391-1.023,0-1.414s-1.023-.391-1.414,0L.293,5.293c-.391.391-.391,1.023,0,1.414.195.195.451.293.707.293s.512-.098.707-.293l1.793-1.793,1.483,1.483c-1.434,1.955-1.285,4.715.481,6.481l6.071,6.071c1.323,1.322,3.081,2.05,4.95,2.05h3.101l2.707,2.707c.195.195.451.293.707.293s.512-.098.707-.293c.391-.391.391-1.023,0-1.414l-2.707-2.707Zm-8.05-2.05l-6.071-6.071c-.566-.567-.878-1.32-.878-2.122s.312-1.554.878-2.121l.343-.343c.567-.566,1.32-.878,2.121-.878s1.555.312,2.122.878l.622.622-1.793,1.793c-.391.391-.391,1.023,0,1.414.195.195.451.293.707.293s.512-.098.707-.293l1.793-1.793,1.586,1.586-1.793,1.793c-.391.391-.391,1.023,0,1.414.195.195.451.293.707.293s.512-.098.707-.293l1.793-1.793,1.036,1.036c.187.187.344.394.497.604l-1.739,1.739c-.391.391-.391,1.023,0,1.414.195.195.451.293.707.293s.512-.098.707-.293l1.198-1.198c.063.318.095.644.095.976v2.515h-2.515c-1.335,0-2.591-.52-3.536-1.464Zm5.844-8.952c.521.298,1.113.447,1.707.447.607,0,1.215-.156,1.742-.467,1.101-.649,1.757-1.785,1.757-3.04,0-.915-.349-1.775-.982-2.431,0,0-1.245-1.558-1.275-1.587-.697-.68-1.787-.68-2.484,0-.029.029-1.281,1.593-1.281,1.593-.631.652-.977,1.511-.977,2.425,0,1.273.671,2.417,1.794,3.06Zm.639-4.114c.026-.026,1.067-1.327,1.067-1.327,0,0,1.034,1.294,1.061,1.32.283.284.439.66.439,1.061,0,.547-.281,1.027-.772,1.316-.428.252-1.006.256-1.44.007-.5-.286-.787-.769-.787-1.324,0-.401.153-.775.433-1.054Z"/>
</svg>
