<?xml version="1.0" encoding="UTF-8"?>
<svg xmlns="http://www.w3.org/2000/svg" id="Layer_1" data-name="Layer 1" viewBox="0 0 24 24">
  <path d="M23.707,22.293l-2.54-2.54c.524-.791,.833-1.736,.833-2.753,0-2.757-2.243-5-5-5s-5,2.243-5,5,2.243,5,5,5c1.017,0,1.962-.309,2.753-.833l2.54,2.54c.195,.195,.451,.293,.707,.293s.512-.098,.707-.293c.391-.391,.391-1.023,0-1.414Zm-9.707-5.293c0-1.654,1.346-3,3-3s3,1.346,3,3-1.346,3-3,3-3-1.346-3-3Zm-3-3c0,.552-.448,1-1,1h-1.5c-.265,0-.52-.105-.707-.293l-.707-.707H3c-.551,0-1,.449-1,1s.449,1,1,1h6c.552,0,1,.448,1,1s-.448,1-1,1H3c-1.654,0-3-1.346-3-3,0-1.302,.839-2.402,2-2.816V5C2,2.243,4.243,0,7,0h10c2.757,0,5,2.243,5,5v5c0,.552-.448,1-1,1s-1-.448-1-1V5c0-1.654-1.346-3-3-3H7c-1.654,0-3,1.346-3,3v7h3.5c.265,0,.52,.105,.707,.293l.707,.707h1.086c.552,0,1,.448,1,1Z"/>
</svg>
