<?xml version="1.0" encoding="UTF-8"?>
<svg xmlns="http://www.w3.org/2000/svg" id="Layer_1" data-name="Layer 1" viewBox="0 0 24 24">
  <path d="M6.349,17.703c-1.515-1.532-2.349-3.557-2.349-5.703v-4C4,3.589,7.589,0,12,0s8,3.589,8,8c0,.552-.447,1-1,1h-4c-.553,0-1-.448-1-1s.447-1,1-1h2.917c-.478-2.834-2.949-5-5.917-5s-5.431,2.167-5.91,5h2.91c.552,0,1,.448,1,1s-.448,1-1,1h-3v2h3c.552,0,1,.448,1,1s-.448,1-1,1h-2.912c.204,1.238,.78,2.384,1.683,3.297,.388,.393,.385,1.026-.008,1.414-.195,.193-.449,.289-.703,.289-.258,0-.516-.099-.711-.297Zm2.85,4.117c-4.171-.847-7.199-4.556-7.199-8.82,0-.552-.448-1-1-1s-1,.448-1,1c0,5.211,3.701,9.745,8.801,10.78,.067,.014,.134,.02,.2,.02,.466,0,.883-.327,.979-.801,.11-.541-.24-1.069-.781-1.179Zm14.801-4.82c0,3.866-3.134,7-7,7s-7-3.134-7-7,3.134-7,7-7,7,3.134,7,7Zm-4.247,4.167l-6.92-6.92c-.524,.791-.833,1.736-.833,2.753,0,2.757,2.243,5,5,5,1.017,0,1.962-.309,2.753-.833Zm2.247-4.167c0-2.757-2.243-5-5-5-1.017,0-1.962,.309-2.753,.833l6.919,6.92c.524-.791,.833-1.736,.833-2.753Z"/>
</svg>
