<?xml version="1.0" encoding="UTF-8"?>
<svg xmlns="http://www.w3.org/2000/svg" id="Layer_1" data-name="Layer 1" viewBox="0 0 24 24">
  <path d="M24,23c0,.553-.448,1-1,1H1c-.552,0-1-.447-1-1s.448-1,1-1H23c.552,0,1,.447,1,1ZM.623,17.959c3.51,1.429,7.323,2.153,11.333,2.154h.001s.003,0,.004,0h.001c4.074,0,7.916-.737,11.42-2.189,.51-.212,.752-.797,.541-1.307s-.796-.753-1.307-.541c-3.261,1.352-6.847,2.037-10.658,2.037-3.751,0-7.312-.675-10.582-2.006-.513-.211-1.095,.037-1.303,.549s.038,1.095,.549,1.303Zm10.061-7.005c.727,.727,1.91,.727,2.638,0l2.888-2.888c.391-.391,.391-1.023,0-1.414s-1.023-.391-1.414,0l-1.794,1.794-.002-7.445c0-.552-.448-1-1-1s-1,.448-1,1l.002,7.443-1.792-1.792c-.391-.391-1.023-.391-1.414,0s-.391,1.023,0,1.414l2.888,2.888Zm1.31,5.046h.002s.002,0,.004,0h.002c6.014-.003,10.201-3.714,11.722-5.31,.381-.4,.366-1.033-.034-1.414-.398-.381-1.032-.366-1.414,.034-1.344,1.41-5.036,4.689-10.278,4.69-5.227,0-8.927-3.281-10.275-4.691-.382-.399-1.015-.414-1.414-.032-.399,.381-.414,1.015-.032,1.414,1.525,1.596,5.72,5.306,11.716,5.309Z"/>
</svg>
