<?xml version="1.0" encoding="UTF-8"?>
<svg xmlns="http://www.w3.org/2000/svg" id="Layer_1" data-name="Layer 1" viewBox="0 0 24 24">
  <path d="M23.867,11.954c.743-3.239-1.408-6.094-4.473-6.686-.386-.075-.8-.103-1.224-.097-.744-2.206-1.83-3.372-2.621-3.96C12.935-.843,9.438-.11,7.595,2.412c-.434,.591-.771,1.33-.986,2.114-2.016,.137-3.628,1.022-4.093,1.308C-.265,7.463-.734,11.307,1.099,13.794c.302,.427,.948,1.035,1.656,1.517-.372,1.927-.338,3.661,.012,4.803,.885,3.154,4.317,4.603,7.238,3.559,.646-.224,1.288-.594,1.872-1.061,1.654,.92,3.251,1.353,4.335,1.353,3.332,.086,5.697-2.551,5.692-5.678,0-.789-.179-1.635-.514-2.449,1.431-1.28,2.242-2.725,2.476-3.883Zm-11.044-1.773c.436-.42,1.026-.681,1.678-.681,1.332,0,2.5,1.168,2.5,2.5,0,2.757-2.243,5-5,5-.791,0-1.529-.201-2.195-.53,2.1-.141,4.195-1.47,4.195-4.47,0-.811-.484-1.505-1.178-1.819Zm-3.616-6.584c1.221-1.641,3.392-2.165,5.149-.78,.553,.411,1.568,1.466,2.17,3.853-.905-.769-2.001-1.329-3.212-1.56-1.317-.349-2.835-.544-4.599-.599,.136-.341,.302-.657,.491-.915Zm2.793,3.403c.792,0,1.531,.202,2.197,.531-2.079,.144-4.197,1.969-4.197,4.469,0,.813,.487,1.51,1.184,1.823-.436,.417-1.024,.677-1.673,.677-1.337,0-2.511-1.168-2.511-2.5,0-2.757,2.243-5,5-5ZM3.309,13.215c-.269-.231-.489-.451-.578-.578-1.156-1.585-.981-4.038,.83-5.099,.793-.486,2.118-1.015,3.458-1.039,.232-.005,.44,.003,.663,.002-.396,.312-.762,.661-1.082,1.05-1.574,1.699-2.637,3.707-3.29,5.663Zm6.042,8.566c-1.891,.66-4.087-.166-4.672-2.254-.384-1.253-.227-3.465,.558-5.753,.107,.406,.196,.813,.371,1.186,.916,2.89,2.631,5.005,4.483,6.46-.246,.148-.495,.275-.739,.36Zm9.393-.693c-.549,.549-1.495,.876-2.532,.876-1.467,0-4.019-1.081-6.07-3.222,.593,.164,1.214,.258,1.857,.258,3.264,0,5.805-.798,7.692-1.922,.125,.416,.212,.831,.212,1.208,0,1.059-.412,2.054-1.161,2.802Zm-.86-5.31c.703-1.091,1.116-2.386,1.116-3.778,0-.003,0-.005,0-.008,.055-1.893-.075-3.467-.316-4.79,.108,.011,.225,.009,.325,.029,4.501,1.379,3.859,6.069-1.125,8.546Z"/>
</svg>
