<?xml version="1.0" encoding="UTF-8"?>
<svg xmlns="http://www.w3.org/2000/svg" id="Layer_1" data-name="Layer 1" viewBox="0 0 24 24">
  <path d="m9.432,8.5c0-1.379,1.121-2.5,2.5-2.5.012,0,.023.003.034.003.012,0,.022-.003.034-.003,1.379,0,2.5,1.121,2.5,2.5s-1.121,2.5-2.5,2.5c-.012,0-.023-.003-.034-.003-.012,0-.022.003-.034.003-1.379,0-2.5-1.121-2.5-2.5Zm9.208-.062c.375.374.867.561,1.36.561s.985-.187,1.361-.562l2.346-2.347c.391-.391.391-1.023,0-1.414s-1.023-.391-1.414,0l-1.293,1.294V1c0-.553-.447-1-1-1s-1,.447-1,1v4.969l-1.293-1.294c-.391-.391-1.023-.391-1.414,0s-.391,1.023,0,1.414l2.347,2.348Zm-16,0c.375.374.867.561,1.36.561s.985-.187,1.361-.562l2.346-2.347c.391-.391.391-1.023,0-1.414s-1.023-.391-1.414,0l-1.293,1.294V1c0-.553-.447-1-1-1s-1,.447-1,1v4.969l-1.293-1.294c-.391-.391-1.023-.391-1.414,0s-.391,1.023,0,1.414l2.347,2.348Zm-.14,7.062c0,1.379,1.121,2.5,2.5,2.5s2.5-1.121,2.5-2.5-1.121-2.5-2.5-2.5-2.5,1.121-2.5,2.5Zm2.5,3.5c-2.333,0-4.375,1.538-4.966,3.741-.144.533.174,1.082.707,1.225.534.146,1.082-.172,1.225-.707.356-1.33,1.604-2.259,3.034-2.259s2.678.929,3.034,2.259c.12.447.523.741.965.741.086,0,.173-.011.26-.034.533-.143.851-.691.707-1.225-.591-2.203-2.633-3.741-4.966-3.741Zm10.305-4.589c.328-.444.233-1.07-.21-1.399-1.793-1.324-4.396-1.324-6.189,0-.443.329-.538.955-.21,1.399.328.442.955.539,1.399.209,1.098-.811,2.713-.811,3.811,0,.179.133.388.196.594.196.307,0,.609-.141.806-.405Zm3.695-1.411c-1.379,0-2.5,1.121-2.5,2.5s1.121,2.5,2.5,2.5,2.5-1.121,2.5-2.5-1.121-2.5-2.5-2.5Zm0,6c-2.333,0-4.375,1.538-4.966,3.741-.144.533.174,1.082.707,1.225.536.146,1.081-.172,1.225-.707.356-1.33,1.604-2.259,3.034-2.259s2.678.929,3.034,2.259c.12.447.523.741.965.741.086,0,.173-.011.26-.034.533-.143.851-.691.707-1.225-.591-2.203-2.633-3.741-4.966-3.741Z"/>
</svg>
