<?xml version="1.0" encoding="UTF-8"?>
<svg xmlns="http://www.w3.org/2000/svg" id="Layer_1" data-name="Layer 1" viewBox="0 0 24 24">
  <path d="M12,16c2.206,0,4-1.794,4-4s-1.794-4-4-4-4,1.794-4,4,1.794,4,4,4Zm0-6c1.103,0,2,.897,2,2s-.897,2-2,2-2-.897-2-2,.897-2,2-2Zm6,13c0,.553-.448,1-1,1s-1-.447-1-1c0-2.206-1.794-4-4-4s-4,1.794-4,4c0,.553-.448,1-1,1s-1-.447-1-1c0-3.309,2.691-6,6-6s6,2.691,6,6ZM5.801,9.519c.216,.589-.523,1.138-1.025,.763l-1.309-.912-1.305,.912c-.498,.374-1.232-.166-1.022-.753l.465-1.456-1.219-.849c-.537-.349-.254-1.261,.388-1.24h1.595l.371-1.421c.168-.738,1.294-.737,1.462,0l.371,1.421h1.585c.64-.021,.922,.885,.387,1.234l-1.221,.853,.476,1.447Zm17.907-2.3l-1.221,.853,.476,1.447c.216,.589-.523,1.138-1.025,.763l-1.309-.912-1.305,.912c-.498,.374-1.231-.167-1.022-.753l.465-1.456-1.219-.849c-.537-.349-.254-1.261,.388-1.24h1.595l.371-1.421c.168-.738,1.294-.737,1.462,0l.371,1.421h1.585c.64-.021,.922,.885,.387,1.234ZM8.648,2.515c.067-.308,.34-.53,.656-.529h1.595l.371-1.421c.168-.738,1.294-.737,1.462,0l.371,1.421h1.585c.64-.021,.922,.885,.387,1.234l-1.221,.853,.476,1.447c.216,.589-.524,1.138-1.025,.763l-1.309-.912-1.305,.912c-.498,.374-1.232-.166-1.022-.753l.465-1.456-1.219-.849c-.228-.159-.334-.441-.268-.71Z"/>
</svg>
