<?xml version="1.0" encoding="UTF-8"?>
<svg xmlns="http://www.w3.org/2000/svg" id="Layer_1" data-name="Layer 1" viewBox="0 0 24 24">
  <path d="M12,13c0-1.522,0-4.25,0-4.25,0-.32-.195-.597-.498-.706-.301-.107-.63-.015-.848,.252l-1.154,1.704-1.231-1.675c-.425-.421-1.124-.411-1.579,.045l-1.19,1.63-1.253-1.792c-.024-.031-.052-.058-.083-.081-.191-.136-.482-.152-.729-.04-.268,.124-.434,.385-.434,.681v4.232c-1.654,0-3,1.346-3,3v5c0,1.654,1.346,3,3,3H12c1.654,0,3-1.346,3-3v-5c0-1.654-1.346-3-3-3ZM2,21v-5c0-.551,.448-1,1-1h3.5v7H3c-.552,0-1-.449-1-1Zm11,0c0,.551-.448,1-1,1h-3.5v-7h3.5c.552,0,1,.449,1,1v5Zm6.229-6.548c.515,.031,1.087-.311,1.534-.541,1.572-.763,2.235-2.662,1.479-4.239l-.954-1.987c.161,.122,.31,.229,.42,.296,.712,.432,1.64,.206,2.072-.506,.432-.712,.206-1.64-.506-2.072-.565-.343-1.224-.423-1.855-.38,.421-.549,.752-1.21,.752-1.938,0-.833-.675-1.508-1.508-1.508s-1.508,.675-1.508,1.508c0,.049,.002,.105,.005,.166l-.694-1.446c-.367-.766-1.012-1.344-1.813-1.625-.803-.282-1.667-.235-2.454,.145l-.681,.348c-.975,.499-1.367,1.661-.893,2.646l4.798,9.997c.319,.688,1.05,1.14,1.806,1.136ZM14.429,2.454l.658-.337c.162-.078,.336-.117,.511-.117,.132,0,.264,.022,.393,.067,.298,.104,.537,.319,.674,.604l3.775,7.867c.281,.587,.033,1.294-.554,1.577-.008,.003-.016,.007-.022,.011l-.637,.325L14.429,2.454ZM0,2.46c.005-.255,.165-.482,.404-.573l1.082-.41L1.92,.393C2.106-.122,2.894-.122,3.08,.393l.436,1.09,1.09,.436c.515,.186,.515,.975,0,1.161l-1.09,.436-.436,1.09c-.186,.515-.975,.515-1.161,0l-.438-1.097-1.099-.463C.147,2.948-.004,2.715,0,2.46Zm7,2c.005-.255,.165-.482,.404-.573l1.082-.41,.433-1.084c.186-.515,.975-.515,1.161,0l.436,1.09,1.09,.436c.515,.186,.515,.975,0,1.161l-1.09,.436-.436,1.09c-.186,.515-.975,.515-1.161,0l-.438-1.097-1.099-.463c-.236-.099-.387-.332-.382-.587Zm17,15.54c0,.307-.187,.583-.472,.697l-1.308,.523-.523,1.308c-.223,.618-1.17,.618-1.393,0l-.526-1.316-1.318-.556c-.614-.235-.597-1.181,.026-1.392l1.299-.492,.52-1.301c.223-.618,1.17-.618,1.393,0l.523,1.308,1.308,.523c.285,.114,.472,.39,.472,.697Z"/>
</svg>
