<?xml version="1.0" encoding="UTF-8"?>
<svg xmlns="http://www.w3.org/2000/svg" id="Layer_1" data-name="Layer 1" viewBox="0 0 24 24">
  <path d="M19.801,4.418C17.362,1.163,13.489-.448,9.453,.106,4.457,.792,.501,4.945,.046,9.983c-.25,2.768,.537,5.5,2.215,7.692,.477,.623,.739,1.458,.739,2.354v.971c0,1.654,1.346,3,3,3h7c1.654,0,3-1.346,3-3h.494c2.498,0,4.629-1.868,4.957-4.344l.219-1.656h.33c1.299,0,2-1.03,2-2,0-1.419-2.932-7.014-4.199-8.582Zm.993,8.582c-.502,0-.926,.372-.991,.869l-.334,2.524c-.197,1.486-1.476,2.607-2.975,2.607h-1.494c-.553,0-1,.448-1,1v1c0,.551-.448,1-1,1H6c-.552,0-1-.449-1-1v-.971c0-1.333-.409-2.601-1.151-3.57-1.372-1.792-2.016-4.029-1.811-6.296,.372-4.119,3.604-7.515,7.687-8.075,.431-.059,.858-.088,1.282-.088,2.833,0,5.459,1.304,7.216,3.647,1.307,1.616,3.65,6.454,3.775,7.353h-1.204Zm-4.494-4.5h-.371c-.224-.86-1-1.5-1.929-1.5h-6c-1.103,0-2,.897-2,2v2c0,1.103,.897,2,2,2h6c.929,0,1.705-.64,1.929-1.5h.371c.387,0,.7-.313,.7-.7v-1.6c0-.387-.313-.7-.7-.7Zm-6.3,2.5v-2h4v2s-4,0-4,0Z"/>
</svg>
