<?xml version="1.0" encoding="UTF-8"?>
<svg xmlns="http://www.w3.org/2000/svg" id="Layer_1" data-name="Layer 1" viewBox="0 0 24 24">
  <path d="M23.017,8.785c-1.17-1.121-3.19-1.019-4.254,.199l-3.216,3.534c-.15-.248-.336-.471-.547-.668V5.021c0-1.072-.572-2.062-1.5-2.598L10,.402c-.928-.536-2.072-.536-3,0L3.5,2.423c-.928,.536-1.5,1.526-1.5,2.598v6.536c-1.19,.694-2,1.97-2,3.444v5c0,2.206,1.794,4,4,4h4.965c2.849,0,5.571-1.22,7.466-3.348l6.805-7.637c1.093-1.226,.995-3.123-.219-4.229Zm-11.517-3.774h2c.276,0,.5,.224,.5,.5s-.224,.5-.5,.5h-.5v3.489c0,.276-.224,.5-.5,.5s-.5-.224-.5-.5v-3.489h-.5c-.276,0-.5-.224-.5-.5s.224-.5,.5-.5Zm-4,.489c0-.276,.224-.5,.5-.5h1.5c.276,0,.5,.224,.5,.5s-.224,.5-.5,.5h-1v1.007l1.001,.003c.276,0,.499,.225,.499,.501,0,.276-.225,.499-.501,.499l-.999-.003v1.493c0,.276-.224,.5-.5,.5s-.5-.224-.5-.5V5.5Zm-4.5,.105c0-.334,.271-.605,.605-.605,.22,0,.422,.119,.529,.311l1.366,2.464v-2.275c0-.276,.224-.5,.5-.5s.5,.224,.5,.5v3.927c0,.316-.256,.573-.573,.573-.208,0-.4-.113-.501-.295l-1.427-2.573v2.368c0,.276-.224,.5-.5,.5s-.5-.224-.5-.5v-3.895Zm18.743,6.079l-6.805,7.638c-1.517,1.702-3.694,2.678-5.973,2.678H4c-1.103,0-2-.897-2-2v-5c0-1.103,.897-2,2-2H12.858c.63,0,1.142,.512,1.142,1.142,0,.564-.422,1.051-.981,1.131l-5.161,.737c-.546,.078-.926,.584-.848,1.131,.079,.547,.585,.928,1.131,.848l5.161-.737c1.175-.168,2.129-.988,2.514-2.059l4.426-4.864c.357-.411,1.032-.435,1.428-.067,.408,.372,.44,1.009,.073,1.421Z"/>
</svg>
