<?xml version="1.0" encoding="UTF-8"?>
<svg xmlns="http://www.w3.org/2000/svg" id="Layer_1" data-name="Layer 1" viewBox="0 0 24 24">
  <path d="M19.5,0h-6c-2.481,0-4.5,2.019-4.5,4.5v3.5c0,.552,.447,1,1,1s1-.448,1-1v-3.5c0-1.378,1.121-2.5,2.5-2.5h6c1.379,0,2.5,1.122,2.5,2.5V14h-7.014c-.031-.852-.395-1.688-1.093-2.282-1.184-1.005-2.955-.987-4.125,.048l-4.438,4c-.41,.37-.442,1.002-.073,1.412,.371,.41,1.002,.442,1.413,.073l4.43-3.993c.427-.375,1.068-.38,1.498-.016,.479,.408,.538,1.13,.07,1.689l-3.96,5.731c-.463,.671-.708,1.458-.708,2.337,0,.552,.447,.968,1,.968s1-.48,1-1.032c0-.408,.122-.801,.354-1.137l.478-.693c.77,.572,1.69,.894,2.669,.894h6c2.481,0,4.5-2.019,4.5-4.5V4.5c0-2.481-2.019-4.5-4.5-4.5Zm2.5,17.5c0,1.378-1.121,2.5-2.5,2.5h-6c-.566,0-1.096-.196-1.533-.539,.113-.164,2.277-3.3,2.387-3.461h7.646v1.5Zm-7,.5c0-.552,.447-1,1-1h1c.553,0,1,.448,1,1s-.447,1-1,1h-1c-.553,0-1-.448-1-1ZM6.707,8.707l-2.364,2.364c-1.511,1.511-2.343,3.521-2.343,5.657v6.272c0,.552-.447,1-1,1s-1-.448-1-1v-6.272c0-2.671,1.04-5.182,2.929-7.071l2.364-2.364c.391-.391,1.023-.391,1.414,0s.391,1.024,0,1.414Z"/>
</svg>
