<?xml version="1.0" encoding="UTF-8"?>
<svg xmlns="http://www.w3.org/2000/svg" id="Layer_1" data-name="Layer 1" viewBox="0 0 24 24">
  <path d="M24,19c0,.509-.193,1.018-.58,1.405l-2.758,2.757c-.391,.391-1.023,.391-1.414,0s-.391-1.023,0-1.414l1.749-1.748H1c-.553,0-1-.447-1-1s.447-1,1-1H21.007l-1.759-1.748c-.391-.391-.391-1.023,0-1.414s1.023-.391,1.414,0l2.757,2.756c.387,.388,.58,.897,.581,1.406ZM17.91,2.019c2.332,.21,4.09,2.136,4.09,4.481,0,2.481-2.019,4.5-4.5,4.5h-4c-2.481,0-4.5-2.019-4.5-4.5,0-.417,.057-.83,.169-1.228,.15-.532-.158-1.084-.69-1.234-.529-.148-1.084,.158-1.233,.69-.163,.575-.245,1.171-.245,1.772,0,3.584,2.916,6.5,6.5,6.5h4c3.584,0,6.5-2.916,6.5-6.5C24,3.113,21.459,.33,18.09,.026c-.541-.042-1.036,.356-1.086,.906s.356,1.036,.906,1.086ZM5.91,12.996c.03,.002,.061,.004,.091,.004,.512,0,.948-.391,.995-.91,.05-.55-.356-1.036-.906-1.086-2.332-.21-4.09-2.136-4.09-4.481,0-2.481,2.019-4.5,4.5-4.5h4c2.481,0,4.5,2.019,4.5,4.5,0,.417-.057,.83-.169,1.228-.15,.532,.158,1.084,.69,1.234,.525,.146,1.084-.159,1.233-.69,.163-.575,.245-1.171,.245-1.772C17,2.938,14.084,.022,10.5,.022H6.5C2.916,.022,0,2.938,0,6.522c0,3.387,2.541,6.17,5.91,6.474Z"/>
</svg>
