<?xml version="1.0" encoding="UTF-8"?>
<svg xmlns="http://www.w3.org/2000/svg" id="Layer_1" data-name="Layer 1" viewBox="0 0 24 24">
  <path d="m8,19c0-1.103.897-2,2-2s2,.897,2,2c0,.553.448,1,1,1h1c2.757,0,5-2.243,5-5V5c0-2.757-2.243-5-5-5h-1c-.552,0-1,.447-1,1,0,1.103-.897,2-2,2s-2-.897-2-2c0-.553-.448-1-1-1h-1C3.243,0,1,2.243,1,5v10c0,2.757,2.243,5,5,5h1c.552,0,1-.447,1-1Zm-2-1c-1.654,0-3-1.346-3-3V5c0-1.654,1.346-3,3-3h.126c.445,1.724,2.013,3,3.874,3s3.428-1.276,3.874-3h.126c1.654,0,3,1.346,3,3v10c0,1.654-1.346,3-3,3h-.126c-.445-1.724-2.013-3-3.874-3s-3.428,1.276-3.874,3h-.126ZM23,6v9c0,2.403-.936,4.664-2.636,6.364-1.7,1.699-3.96,2.636-6.364,2.636h-6c-.552,0-1-.447-1-1s.448-1,1-1h6c1.87,0,3.628-.729,4.95-2.051,1.322-1.321,2.05-3.079,2.05-4.949V6c0-.553.448-1,1-1s1,.447,1,1Z"/>
</svg>
