<?xml version="1.0" encoding="UTF-8"?>
<svg xmlns="http://www.w3.org/2000/svg" id="Layer_1" data-name="Layer 1" viewBox="0 0 24 24">
  <path d="m22.459,9.097l-1.459-1.397v-3.699c0-2.206-1.794-4-4-4H7C4.794,0,3,1.794,3,4v3.699l-1.46,1.397c-.979.938-1.54,2.254-1.54,3.611v6.292c0,2.757,2.243,5,5,5h14c2.757,0,5-2.243,5-5v-6.292c0-1.356-.562-2.672-1.541-3.611ZM5,4c0-1.103.897-2,2-2h10c1.103,0,2,.897,2,2v8.243l-4.879,4.879c-1.133,1.133-3.109,1.133-4.242,0l-4.879-4.879V4Zm17,15c0,1.654-1.346,3-3,3H5c-1.654,0-3-1.346-3-3v-6.292c0-.195.022-.388.059-.577l6.406,6.406c.944.944,2.199,1.464,3.535,1.464s2.591-.52,3.535-1.464l6.406-6.406c.037.189.059.383.059.577v6.292ZM6,8c0-2.206,1.794-4,4-4h5.5c1.379,0,2.5,1.122,2.5,2.5s-1.121,2.5-2.5,2.5h-4.5c-.553,0-1-.448-1-1s.447-1,1-1h4.5c.275,0,.5-.224.5-.5s-.225-.5-.5-.5h-5.5c-1.103,0-2,.897-2,2s.897,2,2,2h5c.553,0,1,.448,1,1s-.447,1-1,1h-5c-2.206,0-4-1.794-4-4Z"/>
</svg>
