<?xml version="1.0" encoding="UTF-8"?>
<svg xmlns="http://www.w3.org/2000/svg" id="Layer_1" data-name="Layer 1" viewBox="0 0 24 24">
  <path d="M19.5,0H4.5C2.019,0,0,2.019,0,4.5v5.501c0,1.473,.867,2.829,2.264,3.539,1.688,.858,2.736,2.567,2.736,4.46v5c0,.553,.448,1,1,1s1-.447,1-1v-5c0-2.757,2.243-5,5-5s5,2.243,5,5v5c0,.553,.448,1,1,1s1-.447,1-1v-5c0-1.893,1.048-3.602,2.736-4.46,1.396-.71,2.264-2.066,2.264-3.539V4.5c0-2.481-2.019-4.5-4.5-4.5Zm2.5,4.5v.5h-3.5V2h1c1.378,0,2.5,1.122,2.5,2.5Zm-9,.5V2h3.5v3h-3.5Zm-5.5,0V2h3.5v3h-3.5Zm-3-3h1v3H2v-.5c0-1.378,1.122-2.5,2.5-2.5ZM20.83,11.757c-1.205,.613-2.173,1.538-2.836,2.646-1.226-2.035-3.45-3.403-5.994-3.403s-4.768,1.368-5.994,3.403c-.663-1.108-1.631-2.033-2.836-2.645-.722-.367-1.17-1.041-1.17-1.757v-3.001H22v3.001c0,.716-.448,1.39-1.17,1.756Z"/>
</svg>
