<?xml version="1.0" encoding="UTF-8"?>
<svg xmlns="http://www.w3.org/2000/svg" id="Layer_1" data-name="Layer 1" viewBox="0 0 24 24">
  <path d="M16,13v4c0,.553-.448,1-1,1s-1-.447-1-1v-2.512c-2.113,1.619-3,2.821-3,4.012,.007,.41,.187,2.5,3,2.5,.552,0,1,.447,1,1s-.448,1-1,1c-3.955,0-5-2.943-5-4.5,0-2.098,1.425-3.773,3.658-5.5h-2.658c-.552,0-1-.448-1-1s.448-1,1-1h4c1.103,0,2,.897,2,2Zm8-5v10c0,2.757-2.243,5-5,5h-1c-.552,0-1-.447-1-1s.448-1,1-1h1c1.654,0,3-1.346,3-3V9H2v9c0,1.654,1.346,3,3,3h2c.552,0,1,.447,1,1s-.448,1-1,1h-2c-2.757,0-5-2.243-5-5V6C0,3.243,2.243,1,5,1h2.528c.463,0,.927,.109,1.341,.316l3.156,1.578c.138,.069,.293,.105,.447,.105h6.528c2.757,0,5,2.243,5,5ZM2,7H21.816c-.414-1.161-1.514-2-2.816-2h-6.528c-.463,0-.927-.109-1.341-.316l-3.156-1.578c-.138-.069-.293-.105-.447-.105h-2.528c-1.654,0-3,1.346-3,3v1Z"/>
</svg>
