<?xml version="1.0" encoding="UTF-8"?>
<svg xmlns="http://www.w3.org/2000/svg" id="Layer_1" data-name="Layer 1" viewBox="0 0 24 24">
  <path d="M16.472,12c.325,.318,.528,.76,.528,1.25,0,.966-.784,1.75-1.75,1.75s-1.75-.784-1.75-1.75c0-.086,.013-.168,.025-.25h-3.05c.012,.082,.025,.164,.025,.25,0,.966-.784,1.75-1.75,1.75s-1.75-.784-1.75-1.75c0-.49,.203-.932,.528-1.25-.325-.318-.528-.76-.528-1.25,0-.966,.784-1.75,1.75-1.75s1.75,.784,1.75,1.75c0,.086-.013,.168-.025,.25h3.05c-.012-.082-.025-.164-.025-.25,0-.966,.784-1.75,1.75-1.75s1.75,.784,1.75,1.75c0,.49-.203,.932-.528,1.25Zm6.606,6.403c-.807,1.015-2.014,1.597-3.311,1.597H4.232c-1.296,0-2.503-.582-3.311-1.597S-.182,16.082,.109,14.818l1.547-6.705c.559-2.422,2.686-4.114,5.172-4.114h10.343c2.486,0,4.613,1.692,5.172,4.114l1.547,6.704c.291,1.264-.005,2.57-.812,3.585Zm-1.137-3.136l-1.547-6.704c-.348-1.51-1.673-2.564-3.223-2.564H6.829c-1.549,0-2.875,1.054-3.223,2.563l-1.547,6.704c-.154,.667,.002,1.355,.428,1.891s1.062,.842,1.746,.842h15.536c.684,0,1.32-.307,1.746-.842s.582-1.224,.428-1.891Z"/>
</svg>
