<?xml version="1.0" encoding="UTF-8"?>
<svg xmlns="http://www.w3.org/2000/svg" id="Layer_1" data-name="Layer 1" viewBox="0 0 24 24">
  <path d="M17,4h-3c-.552,0-1,.447-1,1s.448,1,1,1h3c2.757,0,5,2.243,5,5H10.457C5.266,11,.906,14.715,.081,19.879c-.633,1.82,1.179,4.471,3.875,4.121h15.043c2.757,0,5-2.243,5-5V11c0-3.859-3.14-7-7-7Zm5,15c0,1.654-1.346,3-3,3H3.957c-1.524,.086-2.212-.668-1.893-1.853,.662-4.142,4.191-7.147,8.393-7.147h11.543v6ZM3.107,8h.343l1.2,1.6c.188,.252,.485,.4,.8,.4s.611-.148,.8-.4l1.2-1.6h.55c1.654,0,3-1.346,3-3,0-1.434-1.01-2.635-2.356-2.931-.555-1.233-1.798-2.069-3.194-2.069-1.407,0-2.658,.849-3.207,2.097-.59,.153-1.125,.485-1.529,.96C.143,3.729-.103,4.617,.041,5.497c.232,1.427,1.551,2.503,3.066,2.503Zm-.869-3.647c.19-.224,.468-.353,.762-.353,.476,0,.885-.335,.98-.801,.141-.695,.759-1.199,1.47-1.199s1.329,.504,1.47,1.199c.095,.466,.504,.801,.98,.801h.101c.551,0,1,.448,1,1s-.449,1-1,1h-1.05c-.315,0-.611,.148-.8,.4l-.7,.933-.7-.933c-.188-.252-.485-.4-.8-.4h-.843c-.537,0-1.017-.362-1.093-.824-.049-.304,.03-.596,.224-.823Z"/>
</svg>
