<?xml version="1.0" encoding="UTF-8"?>
<svg xmlns="http://www.w3.org/2000/svg" id="Layer_1" data-name="Layer 1" viewBox="0 0 24 24">
  <path d="M17,12v8.37c0,1.004-.423,1.9-1,2.63,0,.552-.448,1-1,1s-1-.448-1-1c0-.538,.202-.95,.431-1.24,.378-.478,.569-.946,.569-1.39v-2.37h-5v2.788s1.598,1.6,1.597,1.6c.518,.615,.026,1.638-.786,1.611-.271,0-.516-.11-.696-.285h0s-4.772-4.718-4.772-4.718c-.457-.457-.457-1.197,0-1.654,.457-.457,1.197-.457,1.654,0l1.003,1.003v-7.312c0-.533,.402-.998,.933-1.032,.582-.038,1.067,.424,1.066,.998v4.25c0,.414,.336,.75,.75,.75s.75-.336,.75-.75v-5.216c0-.533,.402-.998,.933-1.032,.582-.038,1.067,.424,1.066,.998v5.25c0,.414,.336,.75,.75,.75s.75-.336,.75-.75v-3.216c0-.533,.402-.998,.933-1.032,.582-.038,1.067,.424,1.067,.998Zm-10.986-1.142l-2.803-2.803c-.314-.314-.509-.78-.58-1.385-.049-.625-.478-1.128-.923-1.533-.63-.63-1.707-.184-1.707,.707,0,.265,.105,.52,.293,.707l.351,.351c.108,.924,.443,1.857,1.153,2.567l4.203,4.203s.012-2.766,.014-2.814ZM2.956,3.503c.319,.318,.751,.497,1.201,.497h2.07l4.031,4.031c.468-.526,1.112-.884,1.845-.983l-2.692-2.692h1.419c.648,0,1.173-.527,1.17-1.175-.003-.65-.573-1.18-1.223-1.18H4.282L2.676,.396c-.246-.246-.603-.346-.941-.265-.76,.183-1.025,1.127-.472,1.68l1.693,1.692Zm21.044,.337c0-.891-1.077-1.337-1.707-.707l-.794,.794c-.321,.321-.501,.758-.498,1.212l.012,2.102-2.944,2.944,.125,.125c.686,.688,.685,1.894,.685,1.894l1.821-1.821v1.419c0,.646,.524,1.17,1.17,1.17s1.17-.524,1.17-1.17l-.038-6.549,.706-.706c.188-.188,.293-.442,.293-.707Zm-3.11-2.133c.63-.63,.184-1.707-.707-1.707h0c-.265,0-.52,.105-.707,.293l-1.322,1.322c-.924,.108-1.857,.443-2.567,1.153l-2.468,2.468,1.414,1.414,2.468-2.468c.565-.678,1.939-.417,2.567-1.153l1.322-1.322Z"/>
</svg>
