<?xml version="1.0" encoding="UTF-8"?>
<svg xmlns="http://www.w3.org/2000/svg" id="Layer_1" data-name="Layer 1" viewBox="0 0 24 24">
  <path d="M23.971,17.98c-.191,1.175-1.215,2.028-2.436,2.028-.664,0-1.301-.196-1.84-.553-.387-.257-.447-.801-.118-1.129l.002-.002c.236-.235,.602-.283,.886-.11,.316,.191,.689,.298,1.07,.298,.604,0,1.031-.404,1.096-.795,.088-.55-.602-.873-.817-.959-.915-.371-1.751-.78-1.753-.78-.692-.484-1.027-1.231-.921-2.049,.111-.845,.674-1.534,1.471-1.796,.839-.277,1.603-.076,2.152,.203,.405,.205,.518,.733,.24,1.093-.203,.263-.559,.358-.863,.225-.306-.134-.71-.226-1.137-.088-.412,.136-.517,.447-.515,.577,.005,.442,.335,.57,.433,.615,.282,.128,.806,.368,1.366,.595,1.461,.591,1.828,1.745,1.685,2.627Zm-8.368-5.972h0c-.442,0-.8,.358-.8,.8v6.401c0,.442,.358,.8,.8,.8h2.133c.442,0,.8-.358,.8-.8s-.358-.8-.8-.8c-.755,0-1.333,0-1.333,0v-5.601c0-.442-.358-.8-.8-.8Zm-2.612,0c-.307,0-.589,.174-.726,.449l-.864,1.733-.864-1.733c-.137-.275-.418-.449-.726-.449-.602,0-.994,.634-.726,1.173l1.409,2.827-1.409,2.827c-.269,.539,.123,1.173,.726,1.173h0c.307,0,.589-.174,.726-.449l.864-1.733,.864,1.733c.137,.275,.418,.449,.726,.449,.602,0,.994-.634,.726-1.173l-1.409-2.827,1.409-2.827c.269-.539-.123-1.173-.726-1.173Zm7.009,10.992c0,.553-.447,1-1,1H5c-2.757,0-5-2.243-5-5V5C0,2.243,2.243,0,5,0h4.515c1.869,0,3.627,.728,4.95,2.05l3.484,3.486c.888,.887,1.521,2,1.833,3.217,.076,.299,.011,.617-.179,.861s-.481,.387-.79,.387h-5.813c-1.654,0-3-1.346-3-3V2.023c-.16-.015-.322-.023-.485-.023H5c-1.654,0-3,1.346-3,3v14c0,1.654,1.346,3,3,3h14c.553,0,1,.447,1,1ZM12,7c0,.551,.448,1,1,1h4.339c-.22-.382-.489-.736-.804-1.05l-3.484-3.486c-.318-.318-.671-.587-1.051-.805V7Z"/>
</svg>
