<?xml version="1.0" encoding="UTF-8"?>
<svg xmlns="http://www.w3.org/2000/svg" id="Layer_1" data-name="Layer 1" viewBox="0 0 24 24">
  <path d="m22.459,9.098l-1.459-1.398v-3.7c0-2.206-1.794-4-4-4H7C4.794,0,3,1.794,3,4v3.7l-1.459,1.397c-.979.938-1.541,2.254-1.541,3.61v6.293c0,2.757,2.243,5,5,5h14c2.757,0,5-2.243,5-5v-6.293c0-1.356-.562-2.672-1.541-3.609ZM7,2h10c1.103,0,2,.897,2,2v8.242l-4.879,4.879c-1.133,1.133-3.109,1.133-4.242,0l-4.879-4.879V4c0-1.103.897-2,2-2Zm15,17c0,1.654-1.346,3-3,3H5c-1.654,0-3-1.346-3-3v-6.293c0-.195.022-.388.059-.577l6.406,6.406c.943.944,2.199,1.465,3.535,1.465s2.592-.521,3.535-1.465l6.406-6.406c.037.189.059.383.059.577v6.293ZM7.319,9.536c-.404-.376-.428-1.009-.052-1.413.377-.405,1.011-.426,1.413-.052l1.851,1.721c.269.268.666.269.911.024l3.863-3.724c.398-.384,1.031-.371,1.414.025.384.397.372,1.031-.025,1.414l-3.851,3.712c-.504.504-1.171.756-1.839.756-.673,0-1.348-.256-1.861-.768l-1.824-1.696Z"/>
</svg>
