<?xml version="1.0" encoding="UTF-8"?>
<svg xmlns="http://www.w3.org/2000/svg" id="Layer_1" data-name="Layer 1" viewBox="0 0 24 24">
  <path d="M0,14v-3C0,4.935,4.935,0,11,0c2.401,0,4.683,.763,6.601,2.206,.441,.333,.53,.959,.198,1.4-.332,.441-.959,.53-1.4,.198-1.569-1.18-3.436-1.804-5.399-1.804C6.038,2,2,6.038,2,11v3c0,.553-.448,1-1,1s-1-.447-1-1ZM11,4c-1.985,0-3.885,.85-5.213,2.333-.368,.411-.333,1.043,.078,1.412,.412,.37,1.043,.334,1.412-.078,.949-1.059,2.307-1.667,3.724-1.667,1.432,0,2.799,.619,3.75,1.697,.198,.224,.473,.338,.75,.338,.235,0,.471-.083,.661-.25,.414-.365,.454-.997,.088-1.412-1.331-1.509-3.244-2.374-5.25-2.374ZM1.187,19.901c2.196-.418,4.813-2.302,4.813-8.901,0-.281,.023-.562,.069-.833,.092-.545-.274-1.061-.818-1.153-.548-.093-1.061,.274-1.153,.818-.065,.382-.098,.774-.098,1.167,0,2.888-.553,6.436-3.187,6.937-.542,.104-.898,.627-.795,1.169,.091,.479,.511,.813,.981,.813,.062,0,.125-.006,.188-.018ZM19.55,8.188c.139,.421,.53,.688,.95,.688,.104,0,.209-.017,.313-.051,.524-.173,.81-.738,.637-1.263-.236-.717-.548-1.412-.927-2.064-.278-.479-.89-.641-1.367-.363-.478,.277-.64,.889-.363,1.367,.31,.533,.564,1.101,.757,1.687Zm-.05,7.812h-5c-.552,0-1,.447-1,1s.448,1,1,1h5c.552,0,1-.447,1-1s-.448-1-1-1Zm4.5,1c0,3.859-3.14,7-7,7s-7-3.141-7-7,3.14-7,7-7,7,3.141,7,7Zm-2,0c0-2.757-2.243-5-5-5s-5,2.243-5,5,2.243,5,5,5,5-2.243,5-5Zm-14.5,.5c-.347,0-.638,.188-.817,.456-1.078,1.497-2.314,3.185-5.458,4.082-.531,.152-.838,.706-.687,1.236,.125,.439,.526,.726,.961,.726,.091,0,.184-.013,.275-.038,3.812-1.09,5.36-3.273,6.522-4.888,.119-.164,.203-.356,.203-.574,0-.552-.448-1-1-1Zm2.5-6.5c0-.545,.766-1.104,1.26-.984,.532,.131,1.078-.195,1.21-.731s-.195-1.078-.731-1.21c-1.626-.403-3.739,.968-3.74,2.925l.006,1.001c0,.552,.448,.999,1,.999h.001c.552,0,.999-.449,.999-1.001l-.006-.999Z"/>
</svg>
