<?xml version="1.0" encoding="UTF-8"?>
<svg xmlns="http://www.w3.org/2000/svg" id="Layer_1" data-name="Layer 1" viewBox="0 0 24 24">
  <path d="M15.251,19.801c0,1.299-1.552,3.114-2.519,3.924-.438,.367-1.072,.367-1.51,0-.967-.81-2.519-2.625-2.519-3.924,0-.995,.733-1.801,1.637-1.801s1.637,.806,1.637,1.801c0-.995,.733-1.801,1.637-1.801s1.637,.806,1.637,1.801ZM6,6C6,2.691,8.691,0,12,0s6,2.691,6,6-2.691,6-6,6-6-2.691-6-6Zm2,0c0,2.206,1.794,4,4,4s4-1.794,4-4-1.794-4-4-4-4,1.794-4,4Zm4,8c-4.963,0-9,4.038-9,9,0,.552,.447,1,1,1s1-.448,1-1c0-3.86,3.141-7,7-7s7,3.14,7,7c0,.552,.447,1,1,1s1-.448,1-1c0-4.962-4.037-9-9-9Z"/>
</svg>
