<?xml version="1.0" encoding="UTF-8"?>
<svg xmlns="http://www.w3.org/2000/svg" id="Layer_1" data-name="Layer 1" viewBox="0 0 24 24">
  <path d="M21.134,12.27c-.216-.376-.138-.852,.169-1.159l.021-.021c.45-.45,1.22-.373,1.538,.178,.361,.625,.645,1.3,.838,2.012,.167,.616-.323,1.22-.962,1.22h-.031c-.433,0-.826-.279-.939-.697-.146-.542-.361-1.056-.634-1.533Zm1.605,4.23h-.031c-.433,0-.826,.279-.939,.697-.146,.542-.361,1.056-.634,1.533-.216,.376-.138,.852,.169,1.159l.021,.021c.45,.45,1.22,.373,1.538-.178,.361-.625,.645-1.3,.838-2.012,.167-.616-.323-1.22-.962-1.22Zm-8.935,5.268c-.542-.146-1.056-.361-1.533-.634-.376-.216-.852-.138-1.159,.169l-.021,.021c-.45,.45-.373,1.22,.178,1.538,.625,.361,1.3,.645,2.012,.838,.616,.167,1.22-.323,1.22-.962v-.031c0-.433-.279-.826-.697-.939Zm6.086-.465c-.307-.307-.783-.385-1.159-.169-.476,.273-.99,.488-1.533,.634-.418,.113-.697,.506-.697,.939v.031c0,.639,.604,1.129,1.22,.962,.712-.193,1.387-.477,2.012-.838,.551-.318,.627-1.088,.178-1.538l-.021-.021Zm-2.923-12.128c-.328,4.149-3.643,7.463-7.791,7.791,.146,.624,.377,1.215,.689,1.756,.218,.379,.144,.858-.165,1.167-.007,.007-.014,.014-.021,.021-.452,.451-1.223,.371-1.542-.181-.501-.866-.847-1.828-1.016-2.851C3.089,16.215,0,12.716,0,8.5,0,3.813,3.813,0,8.5,0c4.215,0,7.715,3.088,8.378,7.119,1.022,.169,1.985,.515,2.851,1.016,.552,.319,.632,1.091,.181,1.542-.007,.007-.014,.014-.021,.021-.309,.309-.788,.383-1.166,.165-.541-.312-1.132-.543-1.756-.689ZM7.03,14.826c.017-.22,.039-.442,.074-.665,.557-3.596,3.463-6.502,7.059-7.057,.223-.034,.443-.056,.663-.073-.669-2.877-3.248-5.03-6.326-5.03-3.584,0-6.5,2.916-6.5,6.5,0,3.078,2.153,5.657,5.03,6.326Zm7.943-5.801c-.237,.019-.477,.047-.718,.093-2.574,.486-4.65,2.563-5.137,5.136-.046,.242-.074,.482-.093,.719,3.165-.255,5.693-2.783,5.948-5.948Z"/>
</svg>
