<?xml version="1.0" encoding="UTF-8"?>
<svg xmlns="http://www.w3.org/2000/svg" id="Layer_1" data-name="Layer 1" viewBox="0 0 24 24">
  <path d="M13,7v4.398l3.518,2.128c.473,.286,.624,.9,.338,1.373-.188,.311-.518,.482-.856,.482-.177,0-.354-.047-.517-.145l-4-2.42c-.299-.181-.482-.505-.482-.855V7c0-.552,.448-1,1-1s1,.448,1,1ZM23,2c-.553,0-1,.448-1,1v2.362C19.811,2.044,16.11,0,12,0,5.748,0,.61,4.69,.049,10.91c-.049,.55,.356,1.036,.906,1.086,.031,.002,.061,.004,.091,.004,.512,0,.948-.391,.995-.91C2.508,5.908,6.79,2,12,2c3.64,0,6.9,1.921,8.665,5h-2.665c-.553,0-1,.448-1,1s.447,1,1,1h4c1.103,0,2-.897,2-2V3c0-.552-.447-1-1-1Zm.045,10.004c-.542-.043-1.036,.356-1.086,.906-.467,5.182-4.748,9.09-9.959,9.09-3.64,0-6.9-1.921-8.665-5h2.665c.552,0,1-.447,1-1s-.448-1-1-1H2c-1.103,0-2,.897-2,2v4c0,.553,.448,1,1,1s1-.447,1-1v-2.362c2.189,3.319,5.891,5.362,10,5.362,6.253,0,11.391-4.69,11.951-10.91,.05-.55-.356-1.036-.906-1.086Z"/>
</svg>
