<?xml version="1.0" encoding="UTF-8"?>
<svg xmlns="http://www.w3.org/2000/svg" id="Layer_1" data-name="Layer 1" viewBox="0 0 24 24">
  <path d="M23.539,19.581s-.284,.359-.643,.807c-.516,.645-1.538,.396-1.72-.41l-.008-.034c-.064-.278,.008-.569,.181-.795l.602-.784c.117-.139,.003-.374-.181-.364h-.86c-.563,0-1.013-.47-.986-1.032,0-.009,0-.018,.001-.028,.026-.526,.459-.94,.985-.94h.736c1.848-.111,3.064,2.149,1.89,3.581ZM7.5,8c1.381,0,2.5-1.119,2.5-2.5s-1.119-2.5-2.5-2.5-2.5,1.119-2.5,2.5,1.119,2.5,2.5,2.5Zm-.006,3c.295,0,.569,.146,.732,.392l1.145,1.717c.372,.558,.994,.891,1.664,.891h1.965c.553,0,1-.447,1-1s-.447-1-1-1h-1.965l-1.145-1.717c-.535-.804-1.431-1.283-2.397-1.283-1.367,0-2.554,.968-2.822,2.302-.221,1.101-.489,2.753-.609,4.698h-1.835c-1.79-.062-2.905,2.199-1.767,3.581l1.286,1.678c1.315,1.717,3.393,2.741,5.556,2.741h4.696c.552,0,1-.447,1-1s-.448-1-1-1H7.304c-1.545,0-3.028-.731-3.968-1.958l-1.287-1.678c-.119-.139-.003-.375,.18-.364H13c.553,0,1-.447,1-1s-.447-1-1-1H6.068c.116-1.779,.361-3.291,.565-4.305,.081-.403,.443-.695,.861-.695ZM19.5,2c0-1.381-1.119-2-2.5-2s-2.5,.619-2.5,2c0,1.025,.617,3.281,1.5,4.377v11.247c-.883,1.096-1.5,3.352-1.5,4.377,0,1.381,1.119,2,2.5,2s2.5-.619,2.5-2c0-1.025-.617-3.281-1.5-4.377V6.377c.883-1.096,1.5-3.352,1.5-4.377Z"/>
</svg>
