<?xml version="1.0" encoding="UTF-8"?>
<svg xmlns="http://www.w3.org/2000/svg" id="Layer_1" data-name="Layer 1" viewBox="0 0 24 24">
  <path d="m22,5v14c0,2.757-2.243,5-5,5H7c-2.757,0-5-2.243-5-5V5C2,2.243,4.243,0,7,0h1c.552,0,1,.448,1,1s-.448,1-1,1h-1c-1.654,0-3,1.346-3,3v14c0,1.654,1.346,3,3,3h10c1.654,0,3-1.346,3-3V5c0-.689-.228-1.338-.658-1.875-.345-.431-.276-1.06.155-1.406.43-.346,1.059-.278,1.406.155.708.882,1.097,1.993,1.097,3.125Zm-14,14h8c.552,0,1-.448,1-1s-.448-1-1-1h-8c-.552,0-1,.448-1,1s.448,1,1,1Zm3-8c.552,0,1-.448,1-1v-6c0-1.103.897-2,2-2s2,.897,2,2v7.5c0,.276-.224.5-.5.5s-.5-.224-.5-.5v-6.5c0-.552-.448-1-1-1s-1,.448-1,1v6.5c0,1.378,1.122,2.5,2.5,2.5s2.5-1.122,2.5-2.5v-7.5c0-2.206-1.794-4-4-4s-4,1.794-4,4v6c0,.552.448,1,1,1Zm-3,4h2.5c.552,0,1-.448,1-1s-.448-1-1-1h-2.5c-.552,0-1,.448-1,1s.448,1,1,1Z"/>
</svg>
