<?xml version="1.0" encoding="UTF-8"?>
<svg xmlns="http://www.w3.org/2000/svg" id="Layer_1" data-name="Layer 1" viewBox="0 0 24 24">
  <path d="M20.656,14.856c-1.195-1.143-3.089-1.138-4.281,.006l-1.464,1.165c-3.198-1.357-5.474-3.637-6.932-6.946l1.158-1.456c.557-.579,.863-1.338,.863-2.145s-.304-1.559-.857-2.138c0,0-1.852-2.406-1.882-2.437-.584-.584-1.362-.907-2.189-.907s-1.604,.322-2.138,.859L1.784,1.864C.633,3.012,0,4.566,0,6.238c0,7.636,10.126,17.762,17.762,17.762,1.673,0,3.227-.634,4.421-1.834l.911-1.049c1.207-1.207,1.207-3.171,0-4.378-.031-.031-2.438-1.883-2.438-1.883Zm.976,4.897l-.911,1.05c-.77,.771-1.821,1.196-2.959,1.196-5.989,0-15.762-8.806-15.762-15.762,0-1.138,.425-2.188,1.147-2.913l1.15-1.005c.207-.207,.482-.321,.774-.321,.274,0,.533,.1,.734,.283,0,0,1.842,2.394,1.873,2.424,.207,.207,.321,.482,.321,.774s-.114,.567-.321,.774c-.027,.027-1.635,2.045-1.635,2.045-.224,.281-.279,.662-.145,.995,1.713,4.267,4.682,7.232,8.822,8.812,.33,.124,.702,.068,.979-.152,0,0,2.018-1.607,2.044-1.635,.426-.426,1.121-.428,1.549,0,.03,.03,2.423,1.872,2.423,1.872,.389,.43,.375,1.097-.085,1.561ZM15,6c0-.552,.448-1,1-1h1v-1c0-.552,.448-1,1-1s1,.448,1,1v1h1c.552,0,1,.448,1,1s-.448,1-1,1h-1v1c0,.552-.448,1-1,1s-1-.448-1-1v-1h-1c-.552,0-1-.448-1-1Zm0,6h3c3.309,0,6-2.691,6-6S21.309,0,18,0s-6,2.691-6,6v3c0,1.206,.799,3,3,3Zm-1-6c0-2.206,1.794-4,4-4s4,1.794,4,4-1.794,4-4,4h-3c-.805,0-.988-.55-1-1v-3Z"/>
</svg>
