<?xml version="1.0" encoding="UTF-8"?>
<svg xmlns="http://www.w3.org/2000/svg" id="Layer_1" data-name="Layer 1" viewBox="0 0 24 24">
  <path d="m2,2.5c0-1.381,1.119-2.5,2.5-2.5s2.5,1.119,2.5,2.5-1.119,2.5-2.5,2.5-2.5-1.119-2.5-2.5Zm7,7.5v3c0,1.474-.81,2.75-2,3.444v6.556c0,.553-.448,1-1,1s-1-.447-1-1v-6h-1v6c0,.553-.448,1-1,1s-1-.447-1-1v-6.556c-1.19-.694-2-1.97-2-3.444v-3c0-2.206,1.794-4,4-4h1c2.206,0,4,1.794,4,4Zm-2,0c0-1.103-.897-2-2-2h-1c-1.103,0-2,.897-2,2v3c0,1.103.897,2,2,2h1c1.103,0,2-.897,2-2v-3Zm7-6c.552,0,1-.447,1-1s-.448-1-1-1c-1.654,0-3,1.346-3,3v14c0,1.654,1.346,3,3,3,.552,0,1-.447,1-1s-.448-1-1-1-1-.448-1-1v-6h1c.552,0,1-.447,1-1s-.448-1-1-1h-1v-6c0-.552.449-1,1-1Zm7.821.953c-.71.733-1.887.728-2.59-.011l-.962-1.01c-.362-.387-.358-.99.01-1.372.397-.413,1.059-.407,1.449.013l.805.835,2.683-2.72c-.448-.424-1.049-.689-1.715-.689h-2c-1.381,0-2.5,1.119-2.5,2.5v2c0,1.381,1.119,2.5,2.5,2.5h2c1.381,0,2.5-1.119,2.5-2.5v-1.76l-2.179,2.214Zm-2.59,8.489l-.962-1.01c-.362-.387-.358-.99.01-1.372.397-.413,1.059-.407,1.449.013l.805.835,2.683-2.72c-.448-.424-1.049-.689-1.715-.689h-2c-1.381,0-2.5,1.119-2.5,2.5v2c0,1.381,1.119,2.5,2.5,2.5h2c1.381,0,2.5-1.119,2.5-2.5v-1.76l-2.179,2.214c-.71.733-1.887.728-2.59-.011Zm0,8.5l-.962-1.01c-.362-.387-.358-.99.01-1.372.397-.413,1.059-.407,1.449.013l.805.835,2.683-2.72c-.448-.424-1.049-.689-1.715-.689h-2c-1.381,0-2.5,1.119-2.5,2.5v2c0,1.381,1.119,2.5,2.5,2.5h2c1.381,0,2.5-1.119,2.5-2.5v-1.76l-2.179,2.214c-.71.733-1.887.728-2.59-.011Z"/>
</svg>
