<?xml version="1.0" encoding="UTF-8"?>
<svg xmlns="http://www.w3.org/2000/svg" id="Layer_1" data-name="Layer 1" viewBox="0 0 24 24">
  <path d="M23,13c-.445,0-2.035,.258-3.841,1.201l-2.207-2.207,3.221-3.219c1.657-1.655,2.92-3.707,3.651-5.936,.321-.762,.192-1.666-.41-2.252-.537-.566-1.462-.735-2.258-.409-2.222,.729-4.271,1.988-5.928,3.643l-3.226,3.224-3.232-3.228C7.116,2.166,5.068,.908,2.846,.179,2.082-.145,1.174-.021,.586,.587-.013,1.172-.15,2.075,.175,2.836c.731,2.229,1.995,4.282,3.654,5.94l3.221,3.216-2.21,2.208c-1.805-.943-3.395-1.201-3.841-1.201-.546,0-.978,.438-.987,.983-.009,.546,.434,.998,.979,1.017,.391,.013,2.554,.437,4.547,2.039L1.292,21.294c-.39,.391-.389,1.023,.001,1.414,.391,.389,1.025,.39,1.415-.002l4.246-4.254c1.604,1.992,2.032,4.156,2.046,4.553,.003,.55,.45,.995,1,.995s1-.447,1-1c0-.447-.259-2.043-1.207-3.853l2.208-2.206,2.206,2.206c-.948,1.81-1.207,3.407-1.207,3.853,0,.546,.438,.978,.983,.986h.017c.538,0,.982-.439,1-.979,.013-.392,.439-2.557,2.042-4.55l4.251,4.251c.391,.391,1.023,.391,1.414,0s.391-1.023,0-1.414l-4.251-4.251c1.99-1.602,4.152-2.028,4.549-2.042,.55-.003,.995-.449,.995-1s-.448-1-1-1ZM5.243,7.36c-1.49-1.487-2.607-3.343-3.234-5.352,2.007,.625,3.862,1.737,5.348,3.224l3.23,3.226-2.122,2.12-3.223-3.218Zm2.464,8.933c-.37-.37-.753-.698-1.138-.993L16.642,5.234c1.488-1.49,3.345-2.599,5.35-3.228-.626,2.01-1.742,3.867-3.232,5.353l-10.068,10.061c-.293-.382-.618-.76-.985-1.127Zm7.601,1.127l-1.893-1.893,2.122-2.12,1.893,1.893c-.385,.295-.768,.622-1.138,.993-.367,.367-.692,.745-.985,1.127Z"/>
</svg>
