<?xml version="1.0" encoding="UTF-8"?>
<svg xmlns="http://www.w3.org/2000/svg" id="Layer_1" data-name="Layer 1" viewBox="0 0 24 24">
  <path d="M12,0C5.383,0,0,5.383,0,12s5.383,12,12,12,12-5.383,12-12S18.617,0,12,0Zm0,2c2.398,0,4.6,.85,6.325,2.262l-1.71,1.71c-1.591-1.274-3.556-1.972-5.615-1.972-.552,0-1,.448-1,1s.448,1,1,1c1.525,0,2.984,.494,4.189,1.398l-1.437,1.437c-.812-.538-1.762-.835-2.752-.835-.552,0-1,.448-1,1s.448,1,1,1c.452,0,.886,.112,1.285,.302l-3.963,3.963c-.435-.578-.81-1.231-1.11-1.977l1.025-1.036c.446-.446,.446-1.17,0-1.616l-1.208-1.302c-.446-.446-1.17-.446-1.616,0l-.6,.522c-.552,.551-.813,1.277-.813,2,0,1.689,.919,3.567,2.432,5.297l-2.171,2.171c-1.412-1.725-2.262-3.927-2.262-6.324C2,6.486,6.486,2,12,2Zm0,20c-2.398,0-4.6-.85-6.324-2.262L19.738,5.676c1.412,1.725,2.262,3.926,2.262,6.324,0,5.514-4.486,10-10,10Z"/>
  <path d="M14.364,15.763c-.446-.446-1.17-.446-1.616,0l-3.09,3.084c1.19,.711,2.409,1.153,3.485,1.153,.723,0,1.449-.261,2-.813l.522-.6c.446-.446,.446-1.17,0-1.616l-1.302-1.208Z"/>
  <path d="M19.118,9.124l-1.527,1.527c.264,.743,.409,1.532,.409,2.348,0,.552,.448,1,1,1s1-.448,1-1c0-1.37-.311-2.682-.882-3.876Z"/>
</svg>
