<?xml version="1.0" encoding="UTF-8"?>
<svg xmlns="http://www.w3.org/2000/svg" id="Layer_1" data-name="Layer 1" viewBox="0 0 24 24">
  <path d="M18.745,10.674c-.948-1.064-2.309-1.674-3.733-1.674h-.012V3c0-1.654-1.346-3-3-3s-3,1.346-3,3v6h-.012c-1.425,0-2.785,.61-3.733,1.674-.947,1.063-1.397,2.485-1.233,3.899l.679,5.885c.233,2.019,1.941,3.542,3.974,3.542h6.652c2.032,0,3.74-1.522,3.974-3.542l.679-5.885c.164-1.415-.286-2.836-1.233-3.899ZM11,3c0-.551,.448-1,1-1s1,.449,1,1v6h-2V3Zm6.992,11.344l-.679,5.885c-.117,1.01-.971,1.771-1.987,1.771h-6.652c-1.017,0-1.87-.761-1.987-1.771l-.679-5.885c-.238-1.726,1.24-3.383,2.98-3.344h6.023c1.741-.039,3.219,1.618,2.98,3.344Zm-3.992-1.344h-4c-1.103,0-2,.897-2,2v2c0,1.103,.897,2,2,2h4c1.103,0,2-.897,2-2v-2c0-1.103-.897-2-2-2Zm0,4h-4v-2h4v2Z"/>
</svg>
