<?xml version="1.0" encoding="UTF-8"?>
<svg xmlns="http://www.w3.org/2000/svg" id="Layer_1" data-name="Layer 1" viewBox="0 0 24 24">
  <path d="M22,0H2c-.552,0-1,.448-1,1s.448,1,1,1h.093l1.717,17.488c.252,2.572,2.392,4.512,4.976,4.512h6.428c2.584,0,4.724-1.939,4.976-4.512l1.717-17.488h.094c.552,0,1-.448,1-1s-.448-1-1-1ZM13.7,2l-1.674,1.674-1.674-1.674h3.348Zm-6.176,0l3.088,3.088-1.977,1.977L4.161,2.592l-.058-.592h3.422Zm9.327,13.282l1.931-1.931-.345,3.517-1.586-1.586Zm2.239-5.067l-.262,.262-1.997-1.997,2.694-2.694-.435,4.429Zm-1.676,1.676l-1.977,1.977-1.997-1.997,1.977-1.977,1.997,1.997Zm-11.848,5.026l-.354-3.602,.01-.01,1.978,1.978-1.634,1.634Zm-1.098-11.189l2.752,2.752-1.997,1.997-.32-.32-.435-4.429Zm2.169,6.163l1.997-1.997,1.978,1.978-1.997,1.997-1.978-1.978Zm5.389,1.394l1.997,1.997-1.997,1.997-1.997-1.997,1.997-1.997Zm0-2.828l-1.978-1.978,1.977-1.977,1.978,1.978-1.977,1.977Zm-6.191,9.019l2.779-2.779,1.997,1.997-3.042,3.042c-.905-.401-1.569-1.234-1.734-2.26Zm6.191,.632l1.893,1.893h-3.785l1.893-1.893Zm4.439,1.611l-3.025-3.025,1.997-1.997,2.735,2.735c-.15,1.033-.807,1.874-1.707,2.287ZM19.833,2.65l-4.415,4.415-1.978-1.978,3.088-3.088h3.369l-.064,.65Z"/>
</svg>
