<?xml version="1.0" encoding="UTF-8"?>
<svg xmlns="http://www.w3.org/2000/svg" id="Layer_1" data-name="Layer 1" viewBox="0 0 24 24">
  <path d="M23.121,13.607c.623-.624,.94-1.485,.869-2.364s-.526-1.682-1.248-2.202c-.288-.207-.607-.351-.94-.438,.047-.213,.077-.431,.077-.654,0-.801-.312-1.555-.879-2.121-.528-.528-1.24-.8-1.964-.835-.031-.725-.313-1.441-.865-1.994-.753-.753-1.809-1.013-2.778-.797-.136-.494-.386-.951-.758-1.324-1.17-1.17-3.072-1.17-4.242,0l-3.392,3.392c-.086,.086-.145,.187-.193,.291-.39,.101-.774,.235-1.141,.425-1.284,.665-2.232,1.791-2.681,3.207l-1.499,5.47c-.093,.336-.271,.644-.518,.889l-.671,.668c-.392,.39-.394,1.022-.004,1.414,.195,.196,.452,.294,.709,.294,.255,0,.511-.097,.705-.292l.672-.668c.492-.49,.85-1.104,1.035-1.776l1.488-5.433c.275-.869,.873-1.579,1.683-1.998,.809-.418,1.73-.499,2.594-.224l2.994,.983c.524,.167,.816,.73,.65,1.255-.081,.255-.256,.463-.493,.586-.237,.123-.511,.146-.755,.068l-3.15-1.032c-.528-.174-1.091,.115-1.262,.639-.172,.525,.114,1.09,.639,1.262l3.159,1.035c.765,.243,1.577,.174,2.289-.196,.547-.283,.98-.719,1.263-1.251,.103,.586,.375,1.147,.826,1.599t0,0c.545,.545,1.251,.825,1.965,.862,.038,.742,.335,1.437,.864,1.966,.248,.248,.528,.443,.828,.586l-3.398,3.398c-.81,.81-1.821,1.397-2.926,1.698-1.406,.384-2.786,1.2-3.883,2.298-.391,.391-.391,1.024,0,1.415,.195,.195,.451,.292,.707,.292s.512-.098,.707-.293c.843-.843,1.935-1.493,2.995-1.782,1.439-.392,2.759-1.158,3.813-2.213l6.105-6.104Zm-6.364-9.193c.391,.39,.391,1.025,0,1.415l-1.416,1.415s0,0,0,0c-.172,.172-.398,.264-.633,.281-.184-.549-.523-1.036-.982-1.4,.044-.098,1.616-1.711,1.616-1.711,.39-.39,1.024-.391,1.414,0Zm-7.233,.163l2.283-2.283c.391-.39,1.023-.39,1.414,0,.189,.188,.293,.439,.293,.707s-.104,.517-.292,.706c0,0-1.476,1.511-1.509,1.558,0,0-2.098-.664-2.189-.687Zm7.233,4.081l1.416-1.415c.376-.376,1.033-.378,1.413,0,.189,.188,.293,.439,.293,.707s-.104,.518-.293,.707l-1.414,1.414c-.392,.392-1.025,.391-1.415,0-.39-.39-.389-1.024,0-1.414Zm4.95,3.535l-.713,.713c-.39,.384-1.019,.383-1.408-.006-.189-.188-.293-.439-.293-.707s.104-.518,.293-.707l.631-.631c.229-.229,.537-.351,.829-.351,.191,0,.376,.053,.527,.161,.249,.18,.399,.442,.424,.739,.023,.293-.082,.581-.29,.789Zm2.253,7.089c-.696,2.377-2.268,3.95-4.671,4.676-.097,.029-.193,.043-.289,.043-.43,0-.827-.279-.957-.711-.16-.528,.139-1.086,.668-1.246,1.739-.526,2.828-1.613,3.329-3.324,.155-.53,.71-.836,1.241-.678,.53,.155,.834,.71,.679,1.241ZM.04,4.719C.718,2.408,2.376,.748,4.711,.042c.532-.159,1.088,.14,1.246,.668,.16,.529-.14,1.087-.668,1.247-1.69,.51-2.842,1.66-3.329,3.324-.128,.436-.527,.719-.96,.719-.093,0-.188-.013-.281-.041-.53-.155-.834-.711-.679-1.241Z"/>
</svg>
