<?xml version="1.0" encoding="UTF-8"?>
<svg xmlns="http://www.w3.org/2000/svg" id="Layer_1" data-name="Layer 1" viewBox="0 0 24 24">
  <path d="M23.707,22.355l-6.747-6.747c.145-1.235-.141-2.507-.46-3.695l1.869-1.869c.079-.079,.225-.089,.217-.089,.058,0,.143,.016,.217,.091,1.074,1.07,2.768,1.241,3.938,.396,1.492-1.018,1.684-3.32,.38-4.564L18.197,.953c-1.073-1.07-2.768-1.241-3.938-.396-1.492,1.018-1.684,3.32-.38,4.564,.162,.121,.235,.354,.076,.51l-1.869,1.869c-1.188-.319-2.469-.604-3.695-.46L1.707,.355C1.316-.035,.684-.035,.293,.355S-.098,1.379,.293,1.77L22.293,23.77c.391,.391,1.023,.391,1.414,0s.391-1.023,0-1.414ZM10.607,9.197l1.549,.38c.34,.079,.698-.019,.945-.265l2.268-2.268c.436-.436,.675-1.015,.675-1.631s-.239-1.195-.675-1.631l-.076-.076c-.208-.208-.313-.495-.29-.788,.024-.298,.175-.56,.425-.739,.378-.274,.975-.191,1.355,.188l4.924,4.925c.208,.208,.313,.495,.29,.788-.024,.298-.175,.56-.425,.739-.38,.276-.976,.19-1.355-.189-.898-.9-2.363-.9-3.262,0l-2.268,2.268c-.247,.247-.348,.605-.265,.945l.384,1.562c.005,.02,.008,.041,.013,.062l-4.286-4.286c.025,.006,.049,.009,.074,.015Zm4.1,10.096c.391,.391,.391,1.023,0,1.414s-1.023,.391-1.414,0l-4.293-4.293L1.707,23.707c-.391,.391-1.023,.391-1.414,0s-.391-1.023,0-1.414l7.293-7.293L3.293,10.707c-.391-.391-.391-1.023,0-1.414s1.023-.391,1.414,0l10,10Z"/>
</svg>
