<?xml version="1.0" encoding="UTF-8"?>
<svg xmlns="http://www.w3.org/2000/svg" id="Layer_1" data-name="Layer 1" viewBox="0 0 24 24">
  <path d="M20.403,17c-1.513,0-2.673,.948-3.403,1.785-.73-.837-1.89-1.785-3.403-1.785-1.983,0-3.597,1.57-3.597,3.5s1.614,3.5,3.597,3.5c1.513,0,2.673-.948,3.403-1.785,.73,.837,1.89,1.785,3.403,1.785,1.983,0,3.597-1.57,3.597-3.5s-1.614-3.5-3.597-3.5Zm-6.806,5c-.881,0-1.597-.673-1.597-1.5s.716-1.5,1.597-1.5c.931,0,1.759,.859,2.221,1.5-.457,.631-1.291,1.5-2.221,1.5Zm6.806,0c-.931,0-1.759-.859-2.221-1.5,.457-.631,1.291-1.5,2.221-1.5,.881,0,1.597,.673,1.597,1.5s-.716,1.5-1.597,1.5ZM5,2h4.515c.165,0,.323,.032,.485,.047V7c0,1.654,1.346,3,3,3h4.953c.016,.162,.047,.32,.047,.485v3.515c0,.553,.448,1,1,1s1-.447,1-1v-3.515c0-1.87-.728-3.627-2.05-4.95l-3.485-3.485c-1.322-1.322-3.08-2.05-4.95-2.05H5C2.243,0,0,2.243,0,5v14c0,2.757,2.243,5,5,5h2c.552,0,1-.447,1-1s-.448-1-1-1h-2c-1.654,0-3-1.346-3-3V5c0-1.654,1.346-3,3-3Zm11.536,4.95c.315,.315,.564,.674,.781,1.05h-4.317c-.551,0-1-.449-1-1V2.683c.376,.217,.735,.466,1.05,.781l3.485,3.485Z"/>
</svg>
