<?xml version="1.0" encoding="UTF-8"?>
<svg xmlns="http://www.w3.org/2000/svg" id="Layer_1" data-name="Layer 1" viewBox="0 0 24 24">
  <path d="M20,2c0-1.105,.895-2,2-2s2,.895,2,2-.895,2-2,2-2-.895-2-2ZM2,4c1.105,0,2-.895,2-2S3.105,0,2,0,0,.895,0,2s.895,2,2,2ZM22,20c-1.105,0-2,.895-2,2s.895,2,2,2,2-.895,2-2-.895-2-2-2Zm-20,0c-1.105,0-2,.895-2,2s.895,2,2,2,2-.895,2-2-.895-2-2-2Zm10-2c-3.309,0-6-2.691-6-6s2.691-6,6-6,6,2.691,6,6-2.691,6-6,6Zm2.447-9.141c.169,.66,.276,1.39,.326,2.141h1.085c-.224-.863-.727-1.607-1.411-2.141Zm-2.447,7.032c.259-.362,.641-1.356,.764-2.892h-1.528c.123,1.536,.505,2.529,.764,2.892Zm.764-4.892c-.123-1.536-.505-2.529-.764-2.892-.259,.362-.641,1.356-.764,2.892h1.528Zm-4.622,0h1.085c.05-.751,.157-1.48,.326-2.141-.683,.534-1.186,1.278-1.411,2.141Zm1.411,4.141c-.169-.66-.276-1.39-.326-2.141h-1.085c.224,.863,.727,1.607,1.411,2.141Zm6.305-2.141h-1.085c-.05,.751-.157,1.48-.326,2.141,.683-.534,1.186-1.278,1.411-2.141ZM1,7H3l1.712,1.712c.801-1.773,2.227-3.199,4-4l-1.712-1.712V1c0-.552-.448-1-1-1s-1,.448-1,1V3.293c0,.453-.18,.887-.5,1.207s-.754,.5-1.207,.5H1c-.552,0-1,.448-1,1s.448,1,1,1Zm22-2h-2.293c-.453,0-.887-.18-1.207-.5-.32-.32-.5-.754-.5-1.207V1c0-.552-.448-1-1-1s-1,.448-1,1V3l-1.712,1.712c1.773,.801,3.199,2.227,4,4l1.712-1.712h2c.552,0,1-.448,1-1s-.448-1-1-1ZM4.712,15.288l-1.712,1.712H1c-.552,0-1,.448-1,1s.448,1,1,1H3.293c.453,0,.887,.18,1.207,.5,.32,.32,.5,.754,.5,1.207v2.293c0,.552,.448,1,1,1s1-.448,1-1v-2l1.712-1.712c-1.773-.801-3.199-2.227-4-4Zm18.288,1.712h-2l-1.712-1.712c-.801,1.773-2.227,3.199-4,4l1.712,1.712v2c0,.552,.448,1,1,1s1-.448,1-1v-2.293c0-.453,.18-.887,.5-1.207s.754-.5,1.207-.5h2.293c.552,0,1-.448,1-1s-.448-1-1-1Z"/>
</svg>
