<?xml version="1.0" encoding="UTF-8"?>
<svg xmlns="http://www.w3.org/2000/svg" id="Layer_1" data-name="Layer 1" viewBox="0 0 24 24">
  <path d="M23.707,22.293l-4.75-4.75c4.867-5.329,6.269-10.171,3.925-13.691-.6-.901-1.443-1.631-2.438-2.108-2.237-1.077-4.644-.989-6.602,.243-.755,.475-1.372,1.089-1.842,1.787-.471-.698-1.087-1.313-1.842-1.787-1.958-1.232-4.365-1.32-6.601-.243-.089,.042-.168,.098-.254,.144L1.707,.293C1.316-.098,.684-.098,.293,.293S-.098,1.316,.293,1.707L22.293,23.707c.195,.195,.451,.293,.707,.293s.512-.098,.707-.293c.391-.391,.391-1.023,0-1.414ZM9.094,3.681c1.194,.75,1.906,1.984,1.906,3.302,0,.553,.448,1,1,1s1-.447,1-1c0-1.317,.712-2.552,1.906-3.302,1.365-.857,3.067-.905,4.672-.134,.672,.322,1.238,.812,1.64,1.414,2.329,3.496-1.029,8.257-3.673,11.17L4.803,3.389c1.491-.595,3.034-.499,4.291,.292Zm6.175,16.101c.354,.425,.296,1.055-.129,1.408l-.259,.214c-.834,.684-1.858,1.024-2.881,1.024s-2.046-.341-2.881-1.023C6.717,19.438-1.032,12.54,.114,6.319c.1-.544,.618-.91,1.165-.803,.543,.1,.902,.621,.802,1.164-.753,4.092,4.003,9.654,8.305,13.176,.936,.764,2.293,.765,3.229,0l.246-.203c.424-.354,1.055-.296,1.408,.129Z"/>
</svg>
