<?xml version="1.0" encoding="UTF-8"?>
<svg xmlns="http://www.w3.org/2000/svg" id="Layer_1" data-name="Layer 1" viewBox="0 0 24 24">
  <path d="M12,2c-2.967,0-5.431,2.167-5.91,5h2.91c.553,0,1,.448,1,1s-.447,1-1,1h-3v2h3c.553,0,1,.448,1,1s-.447,1-1,1h-2.909c.427,2.562,2.451,4.638,5.05,5.01,.547,.078,.927,.584,.849,1.131-.071,.499-.499,.858-.989,.858-.047,0-.095-.003-.143-.01-3.91-.559-6.858-3.994-6.858-7.99v-4C4,3.589,7.589,0,12,0s8,3.589,8,8v3c0,.552-.447,1-1,1s-1-.448-1-1v-2h-3c-.553,0-1-.448-1-1s.447-1,1-1h2.91c-.478-2.833-2.942-5-5.91-5Zm-1,20c-4.963,0-9-4.038-9-9,0-.552-.447-1-1-1s-1,.448-1,1c0,6.065,4.935,11,11,11,.553,0,1-.448,1-1s-.447-1-1-1Zm12-10c-.553,0-1,.448-1,1,0,.319-.017,.635-.049,.946-.056,.549,.344,1.04,.894,1.096,.034,.004,.068,.005,.103,.005,.507,0,.941-.383,.994-.898,.038-.377,.059-.761,.059-1.149,0-.552-.447-1-1-1Zm.567,6.547c0,.768-.387,1.475-1.034,1.889l-5.08,3.254c-.368,.236-.789,.355-1.21,.355-.37,0-.74-.092-1.077-.275-.719-.394-1.166-1.147-1.166-1.968v-6.51c0-.82,.446-1.574,1.166-1.968,.719-.394,1.596-.364,2.287,.079h0s5.08,3.255,5.08,3.255c.647,.414,1.034,1.12,1.034,1.889Zm-2,0c0-.061-.02-.146-.112-.205l-5.08-3.255c-.047-.03-.091-.041-.131-.041-.046,0-.087,.015-.118,.032-.058,.032-.126,.094-.126,.213v6.51c0,.119,.068,.182,.126,.213,.059,.031,.148,.055,.249-.009l5.08-3.254c.093-.06,.112-.144,.112-.205Z"/>
</svg>
