<?xml version="1.0" encoding="UTF-8"?>
<svg xmlns="http://www.w3.org/2000/svg" id="Layer_1" data-name="Layer 1" viewBox="0 0 24 24">
  <path d="M22,22h-1V11c0-4.497-3.32-8.224-7.635-8.885,.085-.188,.135-.395,.135-.615,0-.828-.672-1.5-1.5-1.5s-1.5,.672-1.5,1.5c0,.22,.05,.427,.135,.615C6.32,2.776,3,6.503,3,11v11h-1c-.552,0-1,.448-1,1s.448,1,1,1H22c.552,0,1-.448,1-1s-.448-1-1-1ZM13,4.473c.951,.88,1.787,2.929,1.963,5.527h-1.963V4.473Zm-2,0v5.527h-1.963c.175-2.598,1.011-4.646,1.963-5.527Zm0,7.527v10h-2V12h2Zm2,0h2v10h-2V12Zm4,0h2v10h-2V12Zm1.92-2h-1.949c-.104-1.858-.497-3.513-1.103-4.829,1.622,1.08,2.762,2.818,3.052,4.829ZM8.132,5.171c-.606,1.316-.998,2.971-1.103,4.829h-1.949c.29-2.011,1.43-3.749,3.052-4.829Zm-3.132,6.829h2v10h-2V12Z"/>
</svg>
