<?xml version="1.0" encoding="UTF-8"?>
<svg xmlns="http://www.w3.org/2000/svg" id="Layer_1" data-name="Layer 1" viewBox="0 0 24 24">
  <path d="M20,0H4C1.794,0,0,1.794,0,4v12c0,2.206,1.794,4,4,4h2.923l3.749,3.157c.744,.663,1.887,.682,2.629,.023l3.848-3.18h2.852c2.206,0,4-1.794,4-4V4c0-2.206-1.794-4-4-4Zm2,16c0,1.103-.897,2-2,2h-3.212c-.232,0-.458,.081-.637,.229l-4.171,3.416-4.048-3.41c-.181-.152-.409-.235-.645-.235h-3.288c-1.103,0-2-.897-2-2V4c0-1.103,.897-2,2-2H20c1.103,0,2,.897,2,2v12Zm-2-6c0,.552-.447,1-1,1h-1v1c0,.552-.447,1-1,1s-1-.448-1-1v-1h-1c-.553,0-1-.448-1-1s.447-1,1-1h1v-1c0-.552,.447-1,1-1s1,.448,1,1v1h1c.553,0,1,.448,1,1Zm-7.403,3.567c.239,.498,.029,1.095-.469,1.334-.487,.237-1.095,.034-1.334-.469-.418-.87-1.318-1.433-2.294-1.433s-1.876,.562-2.294,1.433c-.238,.498-.834,.71-1.334,.469-.498-.239-.708-.836-.469-1.334,.748-1.56,2.356-2.567,4.097-2.567s3.349,1.008,4.097,2.567ZM6,7.5c0-1.381,1.119-2.5,2.5-2.5s2.5,1.119,2.5,2.5-1.119,2.5-2.5,2.5-2.5-1.119-2.5-2.5Z"/>
</svg>
