<?xml version="1.0" encoding="UTF-8"?>
<svg xmlns="http://www.w3.org/2000/svg" id="Layer_1" data-name="Layer 1" viewBox="0 0 24 24">
  <path d="M0,7V3c0-.552,.448-1,1-1s1,.448,1,1v2.375C4.2,2.061,7.942,0,12,0c6.617,0,12,5.383,12,12,0,.552-.448,1-1,1s-1-.448-1-1c0-5.514-4.486-10-10-10-3.585,0-6.862,1.94-8.637,5h2.637c.552,0,1,.448,1,1s-.448,1-1,1H2c-1.103,0-2-.897-2-2Zm11,0v4h-3c-.552,0-1,.448-1,1s.448,1,1,1h4c.552,0,1-.448,1-1V7c0-.552-.448-1-1-1s-1,.448-1,1Zm10,11h-1v-1h2.5c.552,0,1-.448,1-1s-.448-1-1-1h-3c-.827,0-1.5,.673-1.5,1.5v2c0,.827,.673,1.5,1.5,1.5h1.5c.294,0,.572,.128,.762,.353,.193,.228,.272,.52,.224,.823-.076,.462-.556,.825-1.093,.825h-1.893c-.552,0-1,.448-1,1s.448,1,1,1h1.893c1.516,0,2.834-1.076,3.066-2.503,.143-.879-.103-1.768-.674-2.439-.571-.672-1.404-1.057-2.286-1.057Zm-6.271,3.625c-.885,.249-1.803,.375-2.729,.375-5.15,0-9.544-3.993-10.004-9.09-.049-.549-.521-.944-1.086-.906-.55,.05-.956,.536-.906,1.086,.552,6.118,5.821,10.91,11.996,10.91,1.109,0,2.21-.151,3.271-.451,.532-.149,.841-.702,.691-1.233-.149-.532-.703-.84-1.233-.691Z"/>
</svg>
