<?xml version="1.0" encoding="UTF-8"?>
<svg xmlns="http://www.w3.org/2000/svg" id="Layer_1" data-name="Layer 1" viewBox="0 0 24 24">
  <path d="M7,10h-1c-1.103,0-2,.897-2,2v6c0,1.103,.897,2,2,2h1c1.103,0,2-.897,2-2v-6c0-1.103-.897-2-2-2Zm0,8h-1v-6h1v6ZM4.5,6c0-1.105,.895-2,2-2s2,.895,2,2-.895,2-2,2-2-.895-2-2ZM19.5,0h-4c-1.421,0-2.675,.675-3.5,1.706-.825-1.032-2.079-1.706-3.5-1.706H4.5C2.019,0,0,2.019,0,4.5v15c0,2.481,2.019,4.5,4.5,4.5h4c1.421,0,2.675-.675,3.5-1.706,.825,1.032,2.079,1.706,3.5,1.706h4c2.481,0,4.5-2.019,4.5-4.5V4.5c0-2.481-2.019-4.5-4.5-4.5ZM8.5,22H4.5c-1.378,0-2.5-1.121-2.5-2.5V4.5c0-1.379,1.122-2.5,2.5-2.5h4c1.378,0,2.5,1.121,2.5,2.5v15c0,1.379-1.122,2.5-2.5,2.5Zm13.5-2.5c0,1.379-1.121,2.5-2.5,2.5h-4c-1.379,0-2.5-1.121-2.5-2.5V4.5c0-1.379,1.121-2.5,2.5-2.5h4c1.379,0,2.5,1.121,2.5,2.5v15Zm-4-9.5h-1c-1.103,0-2,.897-2,2v6c0,1.103,.897,2,2,2h1c1.103,0,2-.897,2-2v-6c0-1.103-.897-2-2-2Zm0,8h-1v-6l1-.002v6.002Zm-2.5-12c0-1.105,.895-2,2-2s2,.895,2,2-.895,2-2,2-2-.895-2-2Z"/>
</svg>
