<?xml version="1.0" encoding="UTF-8"?>
<svg xmlns="http://www.w3.org/2000/svg" id="Layer_1" data-name="Layer 1" viewBox="0 0 24 24">
  <path d="M5.611,9.561c.558,.582,1.564,.582,2.121,0l.708-.708,2.363,2.356,1.591,3.145c.427,.736,1.436,.868,2.038,.266l1.187-1.187c.602-.602,.47-1.611-.266-2.038l-3.347-1.81-2.153-2.147,.705-.705c.583-.558,.584-1.563,0-2.122L6.975,1.025c-1.322-1.322-3.628-1.322-4.95,0-1.358,1.303-1.358,3.648,0,4.95l3.585,3.586ZM3.44,2.439c.558-.582,1.563-.582,2.121,0l3.232,3.232-2.122,2.122-3.232-3.233c-.582-.558-.582-1.563,0-2.121Zm20.56,15.061c0,2.481-2.019,4.5-4.5,4.5-3.028,0-6.421-1.236-9.414-2.327-2.362-.86-4.593-1.673-6.086-1.673-1.103,0-2,.897-2,2s.897,2,2,2h1c.552,0,1,.448,1,1s-.448,1-1,1h-1c-2.206,0-4-1.794-4-4s1.794-4,4-4c1.847,0,4.239,.872,6.771,1.794,2.837,1.034,6.053,2.206,8.729,2.206,1.379,0,2.5-1.122,2.5-2.5s-1.121-2.5-2.5-2.5h-1.5c-.553,0-1-.448-1-1s.447-1,1-1h1.5c2.481,0,4.5,2.019,4.5,4.5Z"/>
</svg>
