<?xml version="1.0" encoding="UTF-8"?>
<svg xmlns="http://www.w3.org/2000/svg" id="Layer_1" data-name="Layer 1" viewBox="0 0 24 24">
  <path d="M19,15.329v-.706l1.046-4.185c2.949-3.139,2.954-3.458,2.954-3.855,0-.873-.71-1.583-1.583-1.583h-1.021c-.874-.798-3.493-2.974-6.396-3.414v-.586c0-.552-.448-1-1-1s-1,.448-1,1v.586c-2.956,.448-5.621,2.7-6.446,3.459-2.546,.23-4.554,2.351-4.554,4.955v4c0,.552,.448,1,1,1s1-.448,1-1v-4c0-1.35,.902-2.481,2.13-2.856l1.87,7.479v.706l-1.827,5.191c-.665,1.626,.622,3.513,2.382,3.48h10.89c1.746,.038,3.035-1.839,2.393-3.45l-1.838-5.221Zm-3.383-1.329l.778-7h2.45l-1.75,7h-1.477Zm-6.711,0l-1.75-7h2.45l.778,7h-1.477Zm4.699,0h-1.21l-.778-7h2.766l-.778,7Zm-1.222,2h1.234l.75,6h-2.735l.75-6Zm-3.506-11c1.171-.765,2.664-1.5,4.123-1.5s2.952,.735,4.123,1.5H8.877Zm-1.877,16.445c0-.069,.013-.136,.049-.23l1.835-5.214h1.483l-.75,6h-2.062c-.306,0-.555-.249-.555-.555Zm11.445,.555h-2.062l-.75-6h1.483l1.847,5.245c.144,.353-.136,.763-.518,.755Z"/>
</svg>
