<?xml version="1.0" encoding="UTF-8"?>
<svg xmlns="http://www.w3.org/2000/svg" id="Layer_1" data-name="Layer 1" viewBox="0 0 24 24">
  <path d="M11,23c0,.553-.448,1-1,1H5c-2.757,0-5-2.243-5-5v-6c0-2.757,2.243-5,5-5h5.5c1.5,0,1.5-.531,1.5-1,0-2.757-2.243-5-5-5-2.116,0-4.011,1.339-4.716,3.333-.185,.521-.76,.794-1.276,.61-.521-.184-.794-.755-.61-1.276C1.385,1.875,4.038,0,7,0c3.86,0,7,3.14,7,7v3.5c0,.552-.448,1-1,1s-1-.448-1-1v-.697c-.413,.124-.906,.197-1.5,.197H5c-1.654,0-3,1.346-3,3v6c0,1.654,1.346,3,3,3h5c.552,0,1,.447,1,1Zm13-5c0,3.314-2.686,6-6,6s-6-2.686-6-6,2.686-6,6-6,6,2.686,6,6Zm-3.981,3.433l-5.453-5.452c-.351,.595-.567,1.279-.567,2.019,0,2.206,1.794,4,4,4,.74,0,1.424-.216,2.019-.567Zm1.981-3.433c0-2.206-1.794-4-4-4-.74,0-1.424,.216-2.019,.567l5.453,5.452c.351-.595,.567-1.279,.567-2.019Z"/>
</svg>
