<?xml version="1.0" encoding="UTF-8"?>
<svg xmlns="http://www.w3.org/2000/svg" id="Layer_1" data-name="Layer 1" viewBox="0 0 24 24">
  <path d="M17,12c0,2.761-2.239,5-5,5-1.658,0-3.117-.817-4.026-2.06l1.526-1.526,.793,.793c.391,.391,1.023,.391,1.414,0l1.556-1.556,.664,.664c.396,.396,1.072,.115,1.072-.444v-2.76c0-.337-.273-.611-.611-.611h-2.76c-.56,0-.84,.677-.444,1.072l.664,.664-.849,.849-.793-.793c-.391-.391-1.023-.391-1.414,0l-1.693,1.693c-.064-.319-.099-.649-.099-.986,0-2.761,2.239-5,5-5s5,2.239,5,5Zm6.271,2.486c-1.552,2.433-5.08,6.514-11.27,6.514S2.279,16.918,.729,14.485c-.978-1.533-.978-3.438,0-4.971C2.279,7.081,5.807,3,12,3s9.721,4.081,11.271,6.514c.979,1.534,.979,3.439,0,4.973Zm-1.687-3.897c-1.331-2.087-4.346-5.589-9.585-5.589S3.746,8.502,2.414,10.589c-.554,.87-.554,1.951,0,2.821,1.331,2.087,4.346,5.59,9.585,5.59s8.254-3.502,9.586-5.59c.554-.869,.554-1.95,0-2.821Z"/>
</svg>
