<?xml version="1.0" encoding="UTF-8"?>
<svg xmlns="http://www.w3.org/2000/svg" id="Layer_1" data-name="Layer 1" viewBox="0 0 24 24">
  <path d="m23.394,10.604c-.258-.319-.394-.701-.394-1.104s.136-.784.394-1.104c.809-1.003.809-2.457,0-3.46-.258-.319-.394-.701-.394-1.104s.137-.784.393-1.103c.353-.436.567-1.168.255-1.823-.13-.272-.552-.907-1.647-.907h-14C4.146,0,0,1.096,0,3.5v17c0,2.404,4.146,3.5,8,3.5s8-1.096,8-3.5v-1.5h6c1.096,0,1.518-.635,1.647-.907.312-.655.098-1.388-.253-1.821-.258-.32-.395-.702-.395-1.104s.136-.784.394-1.104c.809-1.003.809-2.457,0-3.46ZM8,2c3.79,0,5.82,1.069,5.996,1.5-.176.431-2.206,1.5-5.996,1.5-3.838,0-5.869-1.095-6-1.48v-.005c.131-.42,2.162-1.515,6-1.515Zm0,20c-3.845,0-5.878-1.1-6-1.5V5.917c1.563.734,3.828,1.083,6,1.083s4.437-.348,6-1.083v12.075s0,.005,0,.008.002.005.002.008v2.474c-.124.418-2.157,1.518-6.002,1.518Zm13.837-10.141c.218.271.218.678,0,.948-.548.68-.837,1.495-.837,2.359,0,.65.164,1.273.479,1.833h-5.479V3.5c0-.573-.241-1.07-.652-1.497l6.128.003c-.312.558-.476,1.179-.476,1.827,0,.864.289,1.68.837,2.359.218.271.218.678,0,.948-.548.68-.837,1.495-.837,2.359s.289,1.68.837,2.359Zm-9.837,2.141c0,.553-.447,1-1,1h-2v2c0,.553-.447,1-1,1s-1-.447-1-1v-2h-2c-.553,0-1-.447-1-1s.447-1,1-1h2v-2c0-.553.447-1,1-1s1,.447,1,1v2h2c.553,0,1,.447,1,1Z"/>
</svg>
