<?xml version="1.0" encoding="UTF-8"?>
<svg xmlns="http://www.w3.org/2000/svg" id="Layer_1" data-name="Layer 1" viewBox="0 0 24 24">
  <path d="M12,0C5.383,0,0,5.383,0,12s5.383,12,12,12,12-5.383,12-12S18.617,0,12,0Zm2.204,21.747c.591-.877,1.265-2.005,1.854-3.344,.223-.506-.007-1.096-.513-1.318-.507-.223-1.097,.008-1.317,.513-.725,1.647-1.613,2.981-2.228,3.808-.614-.827-1.503-2.161-2.228-3.808-.221-.505-.81-.735-1.317-.513-.506,.223-.735,.812-.513,1.318,.589,1.34,1.263,2.468,1.854,3.344-4.139-.936-7.316-4.44-7.745-8.747h1.449c.553,0,1-.448,1-1s-.447-1-1-1h-1.449c.43-4.307,3.606-7.811,7.745-8.747-.591,.877-1.265,2.005-1.854,3.344-.223,.506,.007,1.096,.513,1.318,.507,.222,1.097-.008,1.317-.513,.725-1.647,1.613-2.981,2.228-3.808,.614,.827,1.503,2.161,2.228,3.808,.222,.51,.824,.733,1.317,.513,.506-.223,.735-.812,.513-1.318-.589-1.34-1.263-2.468-1.854-3.344,4.139,.936,7.316,4.44,7.745,8.747h-.949c-.553,0-1,.448-1,1s.447,1,1,1h.949c-.43,4.307-3.606,7.811-7.745,8.747Zm4.296-12.107v4.576c0,.433-.351,.784-.784,.784h0c-.303,0-.579-.174-.708-.448l-1.228-2.592v2.401c0,.353-.287,.64-.64,.64h0c-.353,0-.64-.287-.64-.64v-4.576c0-.433,.351-.784,.784-.784,.303,0,.579,.175,.708,.449l1.228,2.598v-2.407c0-.353,.287-.64,.64-.64h0c.353,0,.64,.286,.64,.64Zm-6.533-.64h-.842c-.345,0-.625,.28-.625,.625v4.75c0,.345,.28,.625,.625,.625s.625-.28,.625-.625v-1.402l.217-.003c1.109,0,2.012-.891,2.012-1.985s-.902-1.985-2.012-1.985Zm0,2.72l-.21,.003-.005-1.473h.215c.413,0,.762,.336,.762,.735s-.349,.735-.762,.735Zm-2.166-1.978l-.83,4.077c-.205,1.53-2.214,1.521-2.435,.033l-.876-4.104c-.082-.385,.211-.748,.605-.748,.307-.017,.586,.191,.647,.494l.838,4.057,.838-4.057c.059-.287,.312-.494,.606-.494,.391,0,.684,.359,.606,.742Z"/>
</svg>
