<?xml version="1.0" encoding="UTF-8"?>
<svg xmlns="http://www.w3.org/2000/svg" id="Layer_1" data-name="Layer 1" viewBox="0 0 24 24">
  <path d="M4.5,16c-.828,0-1.5-.672-1.5-1.5s.672-1.5,1.5-1.5,1.5,.672,1.5,1.5-.672,1.5-1.5,1.5Zm2.5,1c-.828,0-1.5,.672-1.5,1.5s.672,1.5,1.5,1.5,1.5-.672,1.5-1.5-.672-1.5-1.5-1.5Zm5,0c-.828,0-1.5,.672-1.5,1.5s.672,1.5,1.5,1.5,1.5-.672,1.5-1.5-.672-1.5-1.5-1.5Zm5.5,0c-.828,0-1.5,.672-1.5,1.5s.672,1.5,1.5,1.5,1.5-.672,1.5-1.5-.672-1.5-1.5-1.5Zm2-4c-.828,0-1.5,.672-1.5,1.5s.672,1.5,1.5,1.5,1.5-.672,1.5-1.5-.672-1.5-1.5-1.5Zm-8.5,1.5c0-.828-.672-1.5-1.5-1.5s-1.5,.672-1.5,1.5,.672,1.5,1.5,1.5,1.5-.672,1.5-1.5Zm3.5-1.5c-.828,0-1.5,.672-1.5,1.5s.672,1.5,1.5,1.5,1.5-.672,1.5-1.5-.672-1.5-1.5-1.5Zm9.5-4v10c0,2.757-2.243,5-5,5H5c-2.757,0-5-2.243-5-5V9c0-2.757,2.243-5,5-5h1.223C7.142,1.614,9.422,0,12.039,0s4.897,1.614,5.816,4h1.146c2.757,0,5,2.243,5,5ZM8.435,4h7.206c-.759-1.218-2.1-2-3.602-2s-2.844,.782-3.603,2ZM2,9H22c0-1.654-1.346-3-3-3H5c-1.654,0-3,1.346-3,3Zm20,10V11H2v8c0,1.654,1.346,3,3,3h14c1.654,0,3-1.346,3-3Z"/>
</svg>
