<?xml version="1.0" encoding="UTF-8"?>
<svg xmlns="http://www.w3.org/2000/svg" id="Layer_1" data-name="Layer 1" viewBox="0 0 24 24">
  <path d="M11,2.5c0-1.381,1.119-2.5,2.5-2.5s2.5,1.119,2.5,2.5-1.119,2.5-2.5,2.5-2.5-1.119-2.5-2.5Zm10,15.5v5c0,.553-.447,1-1,1s-1-.447-1-1v-5h-6c-1.654,0-3-1.346-3-3v-5.741l-1.843,1.412c-.136,.105-.193,.297-.136,.47l.936,3.082c.16,.528-.139,1.087-.667,1.247-.53,.16-1.087-.14-1.247-.667l-.927-3.055c-.316-.947,.009-2.025,.816-2.658l2.459-1.884c1.21-1.01,2.205-1.206,3.608-1.206,1.654,0,3,1.346,3,3v7h3c1.103,0,2,.897,2,2Zm-8-2h1v-7c0-.551-.448-1-1-1-.404,0-.714,.028-1,.082v6.918c0,.552,.448,1,1,1Zm-2.184,3.052c-.529-.177-1.091,.108-1.265,.632l-.772,2.316H4c-.553,0-1,.447-1,1s.447,1,1,1h4.779c.862,0,1.625-.55,1.896-1.367l.772-2.316c.175-.524-.108-1.091-.632-1.265Z"/>
</svg>
