<?xml version="1.0" encoding="UTF-8"?>
<svg xmlns="http://www.w3.org/2000/svg" id="Layer_1" data-name="Layer 1" viewBox="0 0 24 24">
  <path d="M14.5,12.36V7.784c0-.433,.351-.784,.784-.784,.303,0,.579,.175,.708,.449l1.228,2.598v-2.407c0-.353,.287-.64,.64-.64h0c.353,0,.64,.286,.64,.64v4.576c0,.433-.351,.784-.784,.784h0c-.303,0-.579-.174-.708-.448l-1.228-2.592v2.401c0,.353-.287,.64-.64,.64h0c-.353,0-.64-.287-.64-.64Zm-4,.015V7.625c0-.345,.28-.625,.625-.625h.842c1.109,0,2.012,.891,2.012,1.985s-.902,1.985-2.012,1.985l-.217,.003v1.402c0,.345-.28,.625-.625,.625s-.625-.28-.625-.625Zm1.252-4.125l.005,1.473,.21-.003c.413,0,.762-.336,.762-.735s-.349-.735-.762-.735h-.215Zm-4.571,4.586c.779,.471,1.645-.129,1.79-1.017l.83-4.077c.078-.383-.215-.742-.606-.742-.293,0-.547,.206-.606,.494l-.838,4.057-.838-4.057c-.061-.303-.34-.511-.647-.494-.394,0-.687,.363-.605,.748l.876,4.104c.081,.421,.317,.783,.645,.984Zm16.819,5.164c0,1.654-1.346,3-3,3H3c-1.654,0-3-1.346-3-3,0-1.302,.839-2.402,2-2.816v-7.184c0-2.757,2.243-5,5-5h10c2.757,0,5,2.243,5,5v7.184c1.161,.414,2,1.514,2,2.816ZM4,8v7h4.5c.266,0,.52,.105,.707,.293l.707,.707h4.172l.707-.707c.188-.188,.441-.293,.707-.293h4.5v-7c0-1.654-1.346-3-3-3H7c-1.654,0-3,1.346-3,3Zm18,10c0-.551-.448-1-1-1h-5.086l-.707,.707c-.188,.188-.441,.293-.707,.293h-5c-.266,0-.52-.105-.707-.293l-.707-.707H3c-.552,0-1,.449-1,1s.448,1,1,1H21c.552,0,1-.449,1-1Z"/>
</svg>
