<?xml version="1.0" encoding="UTF-8"?>
<svg xmlns="http://www.w3.org/2000/svg" id="Layer_1" data-name="Layer 1" viewBox="0 0 24 24">
  <path d="M23.811,11.989l-1.668-8.008c-.388-1.86-1.808-3.292-3.577-3.783-.163-.115-1.141-.198-1.319-.198H6.752c-.178,0-1.155,.082-1.318,.197-1.769,.491-3.189,1.922-3.577,3.783L.189,11.989c-.125,.602-.189,1.22-.189,1.836v5.175c0,2.757,2.243,5,5,5h14c2.757,0,5-2.243,5-5v-5.175c0-.614-.063-1.231-.189-1.836Zm-3.626-7.601l1.586,7.612h-1.936l-.834-4.59V2.581c.589,.428,1.029,1.058,1.185,1.807Zm-3.185,1.612H7V2h10V6Zm-10.075,2h10.15l.727,4H6.198l.727-4Zm-3.11-3.612c.156-.749,.595-1.38,1.185-1.807V7.41l-.835,4.59h-1.936l1.586-7.612Zm15.185,17.612H5c-1.654,0-3-1.346-3-3v-5H22v5c0,1.654-1.346,3-3,3Zm-4-4c0,.552-.447,1-1,1h-4c-.552,0-1-.448-1-1s.448-1,1-1h4c.553,0,1,.448,1,1Z"/>
</svg>
