<?xml version="1.0" encoding="UTF-8"?>
<svg xmlns="http://www.w3.org/2000/svg" id="Layer_1" data-name="Layer 1" viewBox="0 0 24 24">
  <path d="M23.707,22.293l-2.54-2.54c.524-.791,.833-1.736,.833-2.753,0-2.757-2.243-5-5-5s-5,2.243-5,5,2.243,5,5,5c1.017,0,1.962-.309,2.753-.833l2.54,2.54c.391,.391,1.023,.391,1.414,0s.391-1.023,0-1.414Zm-9.707-5.293c0-1.654,1.346-3,3-3s3,1.346,3,3-1.346,3-3,3-3-1.346-3-3ZM8,4C8,1.794,6.206,0,4,0S0,1.794,0,4v3c0,2.206,1.794,4,4,4s4-1.794,4-4v-3Zm-2,3c0,1.103-.897,2-2,2s-2-.897-2-2v-3c0-1.103,.897-2,2-2s2,.897,2,2v3Zm7,16c0,.552-.448,1-1,1-2.206,0-4-1.794-4-4v-3c0-.986,.362-1.933,1.019-2.667,.369-.412,1-.447,1.412-.078,.412,.368,.446,1,.078,1.412-.329,.367-.509,.84-.509,1.333v3c0,1.103,.897,2,2,2,.552,0,1,.448,1,1ZM9.849,4.151c-.391-.391-.391-1.023,0-1.414L12.293,.293c.286-.286,.715-.373,1.09-.217,.374,.155,.617,.52,.617,.924V10c0,.552-.448,1-1,1s-1-.448-1-1V3.414l-.737,.737c-.391,.391-1.023,.391-1.414,0ZM5,14v9c0,.552-.448,1-1,1s-1-.448-1-1v-6.586l-.737,.737c-.391,.391-1.023,.391-1.414,0s-.391-1.023,0-1.414l2.444-2.444c.286-.287,.714-.373,1.09-.217,.374,.155,.617,.52,.617,.924Z"/>
</svg>
