<?xml version="1.0" encoding="UTF-8"?>
<svg xmlns="http://www.w3.org/2000/svg" id="Layer_1" data-name="Layer 1" viewBox="0 0 24 24">
  <path d="M18.573,2.126L12.315,.051c-.205-.067-.425-.067-.63,0L5.427,2.126c-2.05,.679-3.427,2.586-3.427,4.746v5.171c0,6.563,7.005,10.577,9.153,11.65,.506,.355,1.108,.379,1.641,.066,2.16-.869,9.207-4.283,9.207-11.717V6.872c0-2.16-1.377-4.067-3.427-4.746Zm1.427,9.917c0,6.18-6.088,9.11-7.953,9.861-1.888-.944-8.047-4.445-8.047-9.861V6.872c0-1.296,.826-2.44,2.056-2.848l5.944-1.971,5.944,1.971c1.229,.408,2.056,1.552,2.056,2.848v5.171Zm-1.795-3.403v4.576c0,.433-.351,.784-.784,.784h0c-.303,0-.579-.174-.708-.448l-1.228-2.592v2.401c0,.353-.287,.64-.64,.64s-.64-.287-.64-.64v-4.576c0-.433,.351-.784,.784-.784,.303,0,.579,.175,.708,.449l1.228,2.598v-2.407c0-.353,.286-.64,.64-.64s.64,.286,.64,.64Zm-6.533-.64h-.842c-.345,0-.625,.28-.625,.625v4.75c0,.345,.28,.625,.625,.625s.625-.28,.625-.625v-1.402l.217-.003c1.109,0,2.012-.891,2.012-1.985s-.902-1.985-2.012-1.985Zm0,2.72l-.21,.003-.005-1.473h.215c.413,0,.762,.336,.762,.735s-.349,.735-.762,.735Zm-2.166-1.978l-.83,4.077c-.205,1.53-2.214,1.521-2.435,.033l-.876-4.104c-.082-.385,.211-.748,.605-.748h.041c.293,0,.547,.206,.606,.494l.838,4.057,.838-4.057c.059-.287,.312-.494,.606-.494,.391,0,.684,.359,.606,.742Z"/>
</svg>
