<?xml version="1.0" encoding="UTF-8"?>
<svg xmlns="http://www.w3.org/2000/svg" id="Layer_1" data-name="Layer 1" viewBox="0 0 24 24">
  <path d="M23.018,8.785c-1.179-1.114-3.189-1.021-4.254,.199l-3.217,3.534c-.551-.909-1.55-1.519-2.689-1.519H4c-2.206,0-4,1.794-4,4v5c0,2.206,1.794,4,4,4h4.965c2.849,0,5.57-1.22,7.467-3.348l6.804-7.637c1.094-1.227,.996-3.124-.218-4.23Zm-1.275,2.899l-6.804,7.638c-1.518,1.701-3.694,2.678-5.974,2.678H4c-1.103,0-2-.897-2-2v-5c0-1.103,.897-2,2-2H12.857c.63,0,1.143,.513,1.143,1.143,0,.564-.421,1.051-.98,1.13l-5.161,.737c-.547,.078-.927,.585-.849,1.132,.078,.546,.584,.926,1.132,.849l5.161-.737c1.175-.168,2.129-.987,2.514-2.058l4.426-4.865c.358-.408,1.034-.444,1.428-.066,.408,.371,.44,1.009,.072,1.421ZM2,8v-1c0-1.654,1.346-3,3-3h.899c-.662-.39-1.165-.75-1.179-.76-.795-.596-.956-1.725-.36-2.52,.596-.795,1.725-.956,2.52-.36,1.096,.821,1.507,2.267,1.62,2.913,.113-.646,.524-2.091,1.62-2.913,.795-.596,1.924-.435,2.52,.36,.596,.795,.435,1.924-.36,2.52-.013,.01-.517,.37-1.179,.76h.899c1.654,0,3,1.346,3,3v1c0,.553-.447,1-1,1s-1-.447-1-1v-1c0-.552-.448-1-1-1h-2.5v2c0,.553-.447,1-1,1s-1-.447-1-1v-2h-2.5c-.552,0-1,.448-1,1v1c0,.553-.447,1-1,1s-1-.447-1-1Z"/>
</svg>
