<?xml version="1.0" encoding="UTF-8"?>
<svg xmlns="http://www.w3.org/2000/svg" id="Layer_1" data-name="Layer 1" viewBox="0 0 24 24">
  <path d="M21,0h-7c-1.654,0-3,1.346-3,3v6c0,1.654,1.346,3,3,3h7c1.654,0,3-1.346,3-3V3c0-1.654-1.346-3-3-3Zm-7,2h7c.552,0,1,.449,1,1v1H13v-1c0-.551,.448-1,1-1Zm7,8h-7c-.552,0-1-.449-1-1v-3h9v3c0,.551-.448,1-1,1Zm-9,4.5c-.553,0-1,.447-1,1v.5H2v-1c0-.552,.448-1,1-1h6c.553,0,1-.447,1-1s-.447-1-1-1H3c-1.654,0-3,1.346-3,3v6c0,1.654,1.346,3,3,3h7c1.654,0,3-1.346,3-3v-5.5c0-.553-.447-1-1-1Zm-2,7.5H3c-.552,0-1-.448-1-1v-3H11v3c0,.552-.448,1-1,1Zm13.693-4.221c.397,.383,.41,1.016,.027,1.414-.196,.204-.458,.307-.721,.307-.249,0-.499-.093-.693-.279l-1.307-1.256v2.035c0,2.206-1.794,4-4,4h-2c-.553,0-1-.447-1-1s.447-1,1-1h2c1.103,0,2-.897,2-2v-2.029l-1.307,1.25c-.399,.384-1.031,.37-1.414-.027-.383-.398-.37-1.031,.027-1.414l2.301-2.212c.763-.763,2.023-.76,2.798,.013l2.288,2.199ZM.307,6.221c-.397-.383-.41-1.016-.027-1.414,.382-.399,1.015-.411,1.414-.028l1.307,1.256v-2.035C3,1.794,4.794,0,7,0h1c.553,0,1,.448,1,1s-.447,1-1,1h-1c-1.103,0-2,.897-2,2v2.029l1.307-1.25c.399-.383,1.032-.371,1.414,.028,.383,.398,.37,1.031-.027,1.414l-2.301,2.212c-.38,.378-.883,.569-1.388,.569-.51,0-1.021-.193-1.41-.582L.307,6.221Z"/>
</svg>
