<?xml version="1.0" encoding="UTF-8"?>
<svg xmlns="http://www.w3.org/2000/svg" id="Layer_1" data-name="Layer 1" viewBox="0 0 24 24">
  <path d="m10,22h-5c-1.654,0-3-1.346-3-3h7c.552,0,1-.448,1-1s-.448-1-1-1h-1v-4h4c.552,0,1-.448,1-1v-5h9v3c0,.552.448,1,1,1s1-.448,1-1v-5c0-2.757-2.243-5-5-5H5C2.243,0,0,2.243,0,5v14c0,2.757,2.243,5,5,5h5c.552,0,1-.448,1-1s-.448-1-1-1Zm-4-5H2v-4h4v4Zm5-6H2v-4h9v4Zm-3-6v-3h8v3h-8Zm14,0h-4v-3h1c1.654,0,3,1.346,3,3ZM5,2h1v3H2c0-1.654,1.346-3,3-3Zm14.565,8.496c-.585-.519-1.137-.493-1.412-.429-.273.061-.775.268-1.073.964-.319.746-.472,1.585-.607,2.326-.073.398-.181.989-.3,1.349-.05-.129-.095-.257-.124-.338-.047-.134-.089-.252-.126-.342-.252-.606-.738-.988-1.299-1.022-.554-.034-1.066.276-1.379.829-.507.897-1.245,2.967-1.245,4.168,0,3.17,2.477,5.801,5.638,5.989.105.006.209.009.314.009,2.036,0,4.04-1.168,5.171-3.042,1.908-3.16.711-6.68-3.558-10.461Zm1.846,9.427c-.387.641-.918,1.158-1.519,1.518.212-.721-.005-1.55-.566-2.112l-.769-1.097c-.308-.308-.807-.308-1.115,0l-.77,1.096c-.585.585-.791,1.46-.532,2.202-1.273-.673-2.141-2.002-2.141-3.529,0-.47.234-1.347.514-2.111.293.569.75,1.111,1.511,1.111,1.817,0,2.163-1.899,2.416-3.285.08-.436.161-.882.273-1.292,3.152,2.936,4.008,5.328,2.698,7.499Z"/>
</svg>
