<?xml version="1.0" encoding="UTF-8"?>
<svg xmlns="http://www.w3.org/2000/svg" id="Layer_1" data-name="Layer 1" viewBox="0 0 24 24">
  <path d="M10.905,6.5h2.095v1.127c0,.661,.803,.989,1.266,.516l1.978-2.024c.342-.342,.342-.896,0-1.237l-1.978-2.024c-.462-.473-1.266-.146-1.266,.516v1.127h-2.095C10.434,1.941,8.196,0,5.5,0,2.462,0,0,2.462,0,5.5s2.462,5.5,5.5,5.5c2.696,0,4.934-1.941,5.405-4.5Zm-7.523,.925l-1.219-1.275c-.37-.387-.369-.998,.002-1.384,.394-.409,1.049-.409,1.442,.002l1.196,1.249,2.338-2.445c.391-.408,1.042-.412,1.437-.008h0c.377,.385,.38,1,.008,1.39l-2.377,2.487-.004,.004c-.744,.744-2.058,.746-2.823-.019Zm19.381,15.267c.17,.525-.117,1.09-.643,1.26-.511,.17-1.09-.112-1.26-.643-.284-.875-.94-1.562-1.801-1.884l-5.404-2.026c-.39-.146-.649-.52-.649-.937v-5.354c0-.538-.362-1.018-.825-1.093-.602-.119-1.186,.381-1.175,.985v7.454c0,.608-.341,1.15-.889,1.415-.549,.264-1.185,.192-1.66-.187,0,0-1.76-1.404-1.771-1.414-.402-.373-1.034-.354-1.41,.048-.377,.403-.356,1.038,.046,1.416l.568,.548c.648,.624,.206,1.72-.694,1.72-.498,.044-.926-.523-1.252-.818-1.196-1.12-1.26-3.022-.13-4.23,1.103-1.182,2.941-1.26,4.152-.208,.008,.006,.017,.007,.025,.013l1.015,.808v-6.563c-.042-1.803,1.722-3.294,3.497-2.96,1.427,.232,2.503,1.552,2.503,3.067v4.661l4.755,1.783c1.435,.538,2.529,1.683,3.001,3.14Zm1.169-14.867c-.253,1.036-1.213,1.745-2.28,1.745h-.304v.583c0,.469-.38,.848-.848,.848s-.848-.38-.848-.848v-.583h-.58c-.757,0-1.435-.346-1.882-.889-.44-.533-.066-1.338,.625-1.338,.268,0,.532,.1,.715,.295,.136,.145,.328,.235,.542,.235h2.598c.295,0,.564-.199,.622-.488,.067-.337-.155-.652-.478-.718l-2.922-.585c-.928-.186-1.68-.902-1.851-1.833-.269-1.462,.851-2.74,2.265-2.74h.347V.848c0-.469,.38-.848,.848-.848s.848,.38,.848,.848v.66h.212c.755,0,1.43,.344,1.878,.884,.443,.534,.067,1.343-.628,1.343-.268,.018-.523-.09-.704-.29-.136-.148-.331-.24-.546-.24h-2.229c-.294,0-.564,.198-.623,.486-.068,.337,.154,.654,.477,.719l2.961,.593c1.254,.25,2.106,1.505,1.785,2.821Z"/>
</svg>
