<?xml version="1.0" encoding="UTF-8"?>
<svg xmlns="http://www.w3.org/2000/svg" id="Layer_1" data-name="Layer 1" viewBox="0 0 24 24">
  <path d="M19,3h-6.528c-.154,0-.309-.037-.446-.105l-3.156-1.578c-.414-.207-.878-.316-1.341-.316h-2.528C2.243,1,0,3.243,0,6v12c0,2.757,2.243,5,5,5h14c2.757,0,5-2.243,5-5V8c0-2.757-2.243-5-5-5Zm-14,0h2.528c.154,0,.309,.037,.446,.105l3.156,1.578c.414,.207,.878,.316,1.341,.316h6.528c1.302,0,2.402,.839,2.816,2H2v-1c0-1.654,1.346-3,3-3Zm14,18H5c-1.654,0-3-1.346-3-3V9H22v9c0,1.654-1.346,3-3,3Zm-4.993-10.5c-.748,0-1.453,.301-1.996,.797-.538-.499-1.243-.797-2.004-.797-1.654,0-3,1.436-3,3.2,0,2.366,2.873,4.855,3.754,5.562,.361,.29,.804,.435,1.246,.435s.885-.145,1.246-.435c.881-.707,3.754-3.198,3.754-5.562,0-1.765-1.346-3.2-3-3.2Zm-1.994,7.203c-1.494-1.199-3.006-2.958-3.006-4.002,0-.662,.448-1.2,1-1.2,.479,0,.913,.41,1.01,.953,.084,.478,.499,.825,.984,.825s.9-.349,.984-.826c.096-.542,.535-.952,1.021-.952,.552,0,1,.539,1,1.2,0,1.043-1.513,2.803-2.994,4.002Z"/>
</svg>
