<?xml version="1.0" encoding="UTF-8"?>
<svg xmlns="http://www.w3.org/2000/svg" id="Layer_1" data-name="Layer 1" viewBox="0 0 24 24">
  <path d="M8.325,14.687c.683,.454,1.675-.034,1.672-.915l.002-6.771c0-1.657-1.342-3-2.999-3.001H3s0-.001,0-.001C1.343,3.999,0,5.342,0,6.999v2.999C0,11.655,1.343,12.998,3,12.998h2.872l2.454,1.69ZM2,9.998v-2.999c0-.551,.449-1,1.001-1h3.999c.69,.104,.898,.311,1,1.001v5.033s-.993-.683-.993-.683c-.334-.23-.729-.353-1.134-.353H3c-.551,0-1-.449-1-1ZM21,0h-4c-1.657,.002-3,1.345-2.999,3.002l.002,6.771c-.002,.881,.989,1.369,1.672,.915l2.454-1.69h2.872c1.657,0,3-1.343,3-3V3.001C24,1.344,22.657,0,21,0Zm1,5.999c0,.551-.449,1-1,1h-2.872c-.405,0-.801,.123-1.134,.353l-.992,.683V3.002c.101-.69,.308-.898,.998-1h4c.551-.001,1,.448,1,.999v2.999Zm-3,5c-.552,0-1,.447-1,1v4H6c0-.553-.448-1-1-1s-1,.447-1,1v3c0,2.757,2.243,5,5,5h6c2.757,0,5-2.243,5-5v-7c0-.553-.448-1-1-1Zm-4,11h-6c-1.654,0-3-1.346-3-3v-1h12v1c0,1.654-1.346,3-3,3ZM5.72,2.503c-.345-.432-.276-1.061,.155-1.406,.882-.707,1.992-1.097,3.125-1.097h1.942c.552,0,1,.447,1,1s-.448,1-1,1h-1.942c-.69,0-1.338,.228-1.875,.657-.428,.343-1.058,.278-1.406-.154ZM14,20c0,.553-.448,1-1,1h-2c-.552,0-1-.447-1-1s.448-1,1-1h2c.552,0,1,.447,1,1Z"/>
</svg>
