<?xml version="1.0" encoding="UTF-8"?>
<svg xmlns="http://www.w3.org/2000/svg" id="Layer_1" data-name="Layer 1" viewBox="0 0 24 24">
  <path d="M16.5,2.5c0-1.381,1.119-2.5,2.5-2.5s2.5,1.119,2.5,2.5-1.119,2.5-2.5,2.5-2.5-1.119-2.5-2.5Zm7.5,7.5v3c0,1.474-.81,2.75-2,3.444v6.556c0,.552-.448,1-1,1s-1-.448-1-1v-6h-2v6c0,.552-.448,1-1,1s-1-.448-1-1v-6.556c-1.19-.694-2-1.97-2-3.444v-3c0-2.206,1.794-4,4-4h2c2.206,0,4,1.794,4,4Zm-2,0c0-1.103-.897-2-2-2h-2c-1.103,0-2,.897-2,2v3c0,1.103,.897,2,2,2h2c1.103,0,2-.897,2-2v-3ZM12.126,1.027c-.338-.634-.994-1.027-1.712-1.027h0c-.719,0-1.375,.395-1.712,1.029l-1.171,2.2L3.385,1.062c-.688-.365-1.513-.233-2.051,.331-.538,.564-.633,1.393-.206,2.109l2.497,3.733-2.668,1.231C.353,8.765-.014,9.368,0,10.041c.014,.673,.405,1.261,1.044,1.542l2.615,1.08s-1.394,2.739-1.408,2.776c-.241,.657-.087,1.376,.403,1.876,.49,.501,1.208,.67,1.897,.433l2.974-1.124,1.257,2.349c.34,.635,.996,1.027,1.715,1.027h.019c.726-.007,1.383-.413,1.736-1.108l.661-1.485c.225-.505-.002-1.096-.507-1.32-.506-.224-1.096,.002-1.32,.507l-.594,1.335-1.617-3.021c-.237-.442-.766-.64-1.235-.464l-3.274,1.238,1.568-3.075c.126-.249,.144-.539,.047-.801s-.298-.471-.557-.578l-2.996-1.236,3.098-1.429c.266-.123,.464-.355,.543-.637,.08-.282,.031-.583-.131-.827L3.423,3.339l4.06,2.122c.488,.255,1.089,.069,1.346-.417l1.583-2.974,1.693,3.378c.248,.493,.846,.692,1.342,.446,.494-.248,.693-.849,.446-1.342l-1.768-3.524Z"/>
</svg>
