<?xml version="1.0" encoding="UTF-8"?>
<svg xmlns="http://www.w3.org/2000/svg" id="Layer_1" data-name="Layer 1" viewBox="0 0 24 24">
  <path d="M12.806,10.103c-.816-.214-1.656-.093-2.364,.342-.709,.435-1.216,1.15-1.392,1.961-.117,.54,.227,1.072,.767,1.189,.537,.112,1.072-.227,1.188-.766,.061-.281,.237-.529,.483-.68,.169-.103,.449-.205,.81-.112,.342,.09,.632,.399,.706,.753,.111,.536-.183,.958-.523,1.137-.662,.349-1.242,1.075-1.445,1.806-.147,.532,.165,1.083,.697,1.23,.089,.024,.179,.037,.267,.037,.438,0,.841-.291,.963-.734,.054-.197,.277-.479,.449-.57,1.207-.635,1.829-1.967,1.549-3.314-.229-1.102-1.076-1.997-2.156-2.28Zm9.194,.382v8.515c0,2.757-2.243,5-5,5H7c-2.757,0-5-2.243-5-5V5C2,2.243,4.243,0,7,0h4.515c1.871,0,3.628,.728,4.95,2.05l3.485,3.485c1.322,1.323,2.05,3.081,2.05,4.95Zm-8-3.485c0,.551,.449,1,1,1h4.317c-.217-.376-.466-.735-.781-1.051l-3.485-3.485c-.315-.315-.674-.564-1.05-.781V7Zm6,3.485c0-.165-.032-.323-.047-.485h-4.953c-1.654,0-3-1.346-3-3V2.047c-.162-.016-.32-.047-.485-.047H7c-1.654,0-3,1.346-3,3v14c0,1.654,1.346,3,3,3h10c1.654,0,3-1.346,3-3V10.485Zm-9.5,9.015c0-.828,.672-1.5,1.5-1.5s1.5,.672,1.5,1.5-.672,1.5-1.5,1.5-1.5-.672-1.5-1.5Z"/>
</svg>
