<?xml version="1.0" encoding="UTF-8"?>
<svg xmlns="http://www.w3.org/2000/svg" id="Layer_1" data-name="Layer 1" viewBox="0 0 24 24">
  <path d="M22,14c0,.552-.447,1-1,1H9c-.552,0-1-.448-1-1s.448-1,1-1h12c.553,0,1,.448,1,1ZM5,12H3c-.552,0-1,.448-1,1v2c0,.552,.448,1,1,1h2c.552,0,1-.448,1-1v-2c0-.552-.448-1-1-1Zm16,7H9c-.552,0-1,.448-1,1s.448,1,1,1h12c.553,0,1-.448,1-1s-.447-1-1-1Zm-16-1H3c-.552,0-1,.448-1,1v2c0,.552,.448,1,1,1h2c.552,0,1-.448,1-1v-2c0-.552-.448-1-1-1ZM24,4v2c0,2.206-1.794,4-4,4H4C1.794,10,0,8.206,0,6v-2C0,1.794,1.794,0,4,0H20c2.206,0,4,1.794,4,4Zm-2,0c0-1.103-.897-2-2-2H4c-1.103,0-2,.897-2,2v2c0,1.103,.897,2,2,2H20c1.103,0,2-.897,2-2v-2Zm-2.886-.5h-4.257c-.697,0-1.043,.846-.546,1.334l1.858,1.825c.455,.455,1.177,.455,1.632,0l1.858-1.825c.498-.489,.152-1.334-.546-1.334Z"/>
</svg>
