<?xml version="1.0" encoding="UTF-8"?>
<svg xmlns="http://www.w3.org/2000/svg" id="Layer_1" data-name="Layer 1" viewBox="0 0 24 24">
  <path d="M8,8c-1.381,0-2.5,1.119-2.5,2.5v3c0,1.381,1.119,2.5,2.5,2.5s2.5-1.119,2.5-2.5v-3c0-1.381-1.119-2.5-2.5-2.5Zm.9,5.5c0,.496-.404,.9-.9,.9s-.9-.404-.9-.9v-3c0-.496,.404-.9,.9-.9s.9,.404,.9,.9v3Zm9.6,1.231c0,.69-.56,1.25-1.25,1.25s-1.25-.56-1.25-1.25,.56-1.25,1.25-1.25,1.25,.56,1.25,1.25Zm-5.75-4.25c-.69,0-1.25-.56-1.25-1.25s.56-1.25,1.25-1.25,1.25,.56,1.25,1.25-.56,1.25-1.25,1.25Zm4.942-1.263l-4.178,6.4c-.148,.226-.4,.363-.67,.363-.635,0-1.017-.705-.67-1.237l4.178-6.4c.148-.226,.4-.363,.67-.363,.635,0,1.017,.705,.67,1.237ZM12,0C5.383,0,0,5.383,0,12s5.383,12,12,12,12-5.383,12-12S18.617,0,12,0Zm0,22c-5.514,0-10-4.486-10-10S6.486,2,12,2s10,4.486,10,10-4.486,10-10,10Z"/>
</svg>
