<?xml version="1.0" encoding="UTF-8"?>
<svg xmlns="http://www.w3.org/2000/svg" id="Layer_1" data-name="Layer 1" viewBox="0 0 24 24">
  <path d="M18,8.8v4.629c0,1.508-1.297,2.712-2.837,2.558-1.338-.134-2.306-1.36-2.306-2.705v-4.482c0-.442,.358-.8,.8-.8s.8,.358,.8,.8v4.629c0,.536,.436,.971,.971,.971s.971-.436,.971-.971v-4.629c0-.442,.358-.8,.8-.8s.8,.358,.8,.8Zm-7.589,.833l1.221,5.377c.116,.51-.272,.996-.795,.996h-.009c-.383,0-.714-.267-.797-.641l-.168-.765h-2.714l-.172,.769c-.083,.372-.414,.637-.796,.637-.524,0-.912-.487-.795-.998l1.246-5.42c.181-.884,.98-1.592,1.883-1.581,.926-.004,1.692,.673,1.895,1.627Zm-.899,3.367l-.662-3.013c-.087-.511-.558-.474-.654-.06l-.688,3.073h2.004Zm14.488-5v8c0,2.757-2.243,5-5,5H5c-2.757,0-5-2.243-5-5V8C0,5.243,2.243,3,5,3h14c2.757,0,5,2.243,5,5Zm-2,0c0-1.654-1.346-3-3-3H5c-1.654,0-3,1.346-3,3v8c0,1.654,1.346,3,3,3h14c1.654,0,3-1.346,3-3V8Z"/>
</svg>
