<?xml version="1.0" encoding="UTF-8"?>
<svg xmlns="http://www.w3.org/2000/svg" id="Layer_1" data-name="Layer 1" viewBox="0 0 24 24">
  <path d="M24,18.5v2c0,1.93-1.57,3.5-3.5,3.5H3.5c-1.93,0-3.5-1.57-3.5-3.5v-2c0-1.93,1.57-3.5,3.5-3.5h2c.553,0,1,.447,1,1s-.447,1-1,1H3.5c-.827,0-1.5,.673-1.5,1.5v2c0,.827,.673,1.5,1.5,1.5H20.5c.827,0,1.5-.673,1.5-1.5v-2c0-.827-.673-1.5-1.5-1.5h-2c-.553,0-1-.447-1-1s.447-1,1-1h2c1.93,0,3.5,1.57,3.5,3.5Zm0-15v1c0,1.93-1.57,3.5-3.5,3.5h-.5v1c0,1.654-1.346,3-3,3h-4v3.395s1.295-1.294,1.295-1.294c.391-.391,1.023-.391,1.414,0s.391,1.023,0,1.414l-2.475,2.476c-.68,.679-1.784,.68-2.464,0l-2.476-2.476c-.391-.391-.391-1.023,0-1.414s1.023-.391,1.414,0l1.292,1.292v-3.394H7c-1.654,0-3-1.346-3-3v-1h-.5c-1.93,0-3.5-1.57-3.5-3.5v-1C0,1.57,1.57,0,3.5,0h3c1.93,0,3.5,1.57,3.5,3.5v1c0,1.93-1.57,3.5-3.5,3.5h-.5v1c0,.551,.448,1,1,1h10c.552,0,1-.449,1-1v-1h-.5c-1.93,0-3.5-1.57-3.5-3.5v-1c0-1.93,1.57-3.5,3.5-3.5h3c1.93,0,3.5,1.57,3.5,3.5ZM6.5,6c.827,0,1.5-.673,1.5-1.5v-1c0-.827-.673-1.5-1.5-1.5H3.5c-.827,0-1.5,.673-1.5,1.5v1c0,.827,.673,1.5,1.5,1.5h3Zm15.5-2.5c0-.827-.673-1.5-1.5-1.5h-3c-.827,0-1.5,.673-1.5,1.5v1c0,.827,.673,1.5,1.5,1.5h3c.827,0,1.5-.673,1.5-1.5v-1Z"/>
</svg>
