<?xml version="1.0" encoding="UTF-8"?>
<svg xmlns="http://www.w3.org/2000/svg" id="Layer_1" data-name="Layer 1" viewBox="0 0 24 24">
  <path d="M20,0h-4c-2.206,0-4,1.794-4,4v3c0,2.206,1.794,4,4,4h2.197l2.463,1.642c.36,.24,.775,.361,1.192,.361,.347,0,.695-.084,1.013-.254,.7-.375,1.135-1.1,1.135-1.894V4c0-2.206-1.794-4-4-4Zm2,10.855c0,.022,0,.089-.078,.13-.079,.042-.134,.005-.152-.007l-2.715-1.81c-.164-.109-.357-.168-.555-.168h-2.5c-1.103,0-2-.897-2-2v-3c0-1.103,.897-2,2-2h4c1.103,0,2,.897,2,2v6.855ZM.307,6.221c-.398-.383-.411-1.016-.028-1.414,.384-.399,1.017-.41,1.414-.028l1.307,1.257V3c0-1.654,1.346-3,3-3h3c.552,0,1,.448,1,1s-.448,1-1,1h-3c-.551,0-1,.449-1,1v3.029l1.307-1.25c.398-.382,1.03-.371,1.414,.028,.383,.398,.371,1.031-.028,1.414l-2.301,2.212c-.379,.379-.882,.569-1.387,.569-.51,0-1.021-.194-1.411-.583L.307,6.221Zm23.386,11.559c.398,.383,.411,1.016,.028,1.414-.196,.205-.458,.307-.721,.307-.25,0-.499-.093-.693-.279l-1.307-1.257v3.036c0,1.654-1.346,3-3,3h-3c-.552,0-1-.448-1-1s.448-1,1-1h3c.551,0,1-.449,1-1v-3.029l-1.307,1.25c-.397,.383-1.03,.372-1.414-.028-.383-.398-.371-1.031,.028-1.414l2.301-2.212c.761-.761,2.024-.76,2.798,.013l2.287,2.199Zm-15.693-6.779H4c-2.206,0-4,1.794-4,4v6.855c0,.794,.435,1.52,1.135,1.894,.318,.17,.666,.254,1.013,.254,.417,0,.832-.121,1.191-.361l2.463-1.642h2.197c2.206,0,4-1.794,4-4v-3c0-2.206-1.794-4-4-4Zm2,7c0,1.103-.897,2-2,2h-2.5c-.197,0-.391,.059-.555,.168l-2.716,1.81c-.018,.012-.074,.049-.151,.007-.078-.042-.078-.108-.078-.13v-6.855c0-1.103,.897-2,2-2h4c1.103,0,2,.897,2,2v3Z"/>
</svg>
