<?xml version="1.0" encoding="UTF-8"?>
<svg xmlns="http://www.w3.org/2000/svg" id="Layer_1" data-name="Layer 1" viewBox="0 0 24 24">
  <path d="M17,0H7C4.243,0,2,2.243,2,5v14c0,2.757,2.243,5,5,5h10c2.757,0,5-2.243,5-5V5c0-2.757-2.243-5-5-5Zm-6,16c-.552,0-1,.447-1,1h-2c0-.553-.448-1-1-1s-1,.447-1,1h-2v-4h2c0,.553,.448,1,1,1s1-.447,1-1h2c0,.553,.448,1,1,1s1-.447,1-1h4c0,.553,.448,1,1,1s1-.447,1-1h2v4H12c0-.553-.448-1-1-1ZM7,8c.552,0,1-.447,1-1h2c0,.553,.448,1,1,1s1-.447,1-1h4c0,.553,.448,1,1,1s1-.447,1-1h2v4h-2c0-.553-.448-1-1-1s-1,.447-1,1h-4c0-.553-.448-1-1-1s-1,.447-1,1h-2c0-.553-.448-1-1-1s-1,.447-1,1h-2V7h2c0,.553,.448,1,1,1Zm0-6h10c1.654,0,3,1.346,3,3h-2c0-.553-.448-1-1-1s-1,.447-1,1h-4c0-.553-.448-1-1-1s-1,.447-1,1h-2c0-.553-.448-1-1-1s-1,.447-1,1h-2c0-1.654,1.346-3,3-3Zm10,20H7c-1.654,0-3-1.346-3-3h2c0,.553,.448,1,1,1s1-.447,1-1h2c0,.553,.448,1,1,1s1-.447,1-1h8c0,1.654-1.346,3-3,3Z"/>
</svg>
