<?xml version="1.0" encoding="UTF-8"?>
<svg xmlns="http://www.w3.org/2000/svg" id="Layer_1" data-name="Layer 1" viewBox="0 0 24 24">
  <path d="M15,16H2V5c0-1.654,1.346-3,3-3h6c.731,0,1.437,.266,1.983,.75,.415,.365,1.046,.327,1.412-.087,.365-.414,.326-1.046-.088-1.412-.913-.807-2.088-1.25-3.308-1.25H5C2.243,0,0,2.243,0,5v14c0,2.757,2.243,5,5,5h6c2.757,0,5-2.243,5-5v-2c0-.552-.447-1-1-1Zm-1,3c0,1.654-1.346,3-3,3H5c-1.654,0-3-1.346-3-3v-1H14v1Zm9-7V7.952c.566-.115,1-.592,1-1.191,0-.454-.248-.871-.646-1.088l-4.496-2.452c-.535-.292-1.181-.292-1.716,0l-4.496,2.452c-.398,.217-.646,.635-.646,1.089,0,.6,.434,1.076,1,1.191v4.048c-.553,0-1,.448-1,1s.447,1,1,1h10c.553,0,1-.448,1-1s-.447-1-1-1Zm-2,0h-2v-4h2v4Zm-6-4h2v4h-2v-4ZM6,20c0-.552,.447-1,1-1h2c.553,0,1,.448,1,1s-.447,1-1,1h-2c-.553,0-1-.448-1-1Z"/>
</svg>
