<?xml version="1.0" encoding="UTF-8"?>
<svg xmlns="http://www.w3.org/2000/svg" id="Layer_1" data-name="Layer 1" viewBox="0 0 24 24">
  <path d="M24,22c0,1.103-.897,2-2,2h-6.146c-1.738,0-3.398-.764-4.556-2.096-3.156-3.635-5.98-6.04-7.557-6.435-2.343-.585-3.742-2.179-3.742-4.263,0-1.775,1.028-2.626,1.854-3.31,.488-.404,.949-.786,1.242-1.355L5.988,.554c.24-.498,.837-.705,1.335-.466,.497,.24,.706,.838,.465,1.335l-2.904,6.012c-.492,.956-1.193,1.537-1.757,2.004-.782,.647-1.128,.968-1.128,1.769,0,1.46,1.211,2.069,2.227,2.323,2.723,.68,6.545,4.717,8.582,7.062,.777,.895,1.888,1.407,3.046,1.407h4.085c-.924,0-1.772-.402-2.326-1.104-1.598-2.023-2.653-4.172-3.584-6.067-.613-1.248-1.191-2.427-1.856-3.441-.789-1.206-.909-2.673-.32-3.924L15.095,.574c.235-.501,.832-.713,1.331-.479,.5,.235,.714,.831,.479,1.331l-3.242,6.889c-.291,.617-.222,1.356,.185,1.977,.731,1.119,1.336,2.351,1.977,3.655,.931,1.895,1.893,3.854,3.359,5.71,.17,.216,.453,.344,.756,.344h2.06c1.103,0,2,.897,2,2Z"/>
</svg>
