<?xml version="1.0" encoding="UTF-8"?>
<svg xmlns="http://www.w3.org/2000/svg" id="Layer_1" data-name="Layer 1" viewBox="0 0 24 24">
  <path d="M21,10h-2V5.021c0-1.072-.572-2.062-1.5-2.598L14,.402c-.928-.536-2.072-.536-3,0l-3.5,2.021c-.928,.536-1.5,1.526-1.5,2.598v4.979h-1c-.859,0-1.672-.373-2.236-1,.221-.247,.484-.46,.783-.625,.483-.268,.658-.876,.39-1.359-.268-.483-.877-.659-1.359-.39C.988,7.506,0,9.184,0,11v8c0,2.757,2.243,5,5,5H21c1.654,0,3-1.346,3-3V13c0-1.654-1.346-3-3-3Zm-5.5-4.989h2c.276,0,.5,.224,.5,.5s-.224,.5-.5,.5h-.5v3.489c0,.276-.224,.5-.5,.5s-.5-.224-.5-.5v-3.489h-.5c-.276,0-.5-.224-.5-.5s.224-.5,.5-.5Zm-4,.489c0-.276,.224-.5,.5-.5h1.5c.276,0,.5,.224,.5,.5s-.224,.5-.5,.5h-1v1.007l1.001,.003c.276,0,.499,.225,.499,.501,0,.276-.225,.499-.501,.499l-.999-.003v1.493c0,.276-.224,.5-.5,.5s-.5-.224-.5-.5V5.5Zm-4.5,4v-3.895c0-.334,.271-.605,.605-.605,.22,0,.422,.119,.529,.311l1.366,2.464v-2.275c0-.276,.224-.5,.5-.5s.5,.224,.5,.5v3.927c0,.316-.256,.573-.573,.573-.208,0-.4-.113-.501-.295l-1.427-2.573v2.368c0,.276-.224,.5-.5,.5s-.5-.224-.5-.5Zm15,11.5c0,.551-.449,1-1,1H5c-1.654,0-3-1.346-3-3V10.997c.854,.64,1.904,1.003,3,1.003H21c.551,0,1,.449,1,1v8Zm-1-14c0-.552,.448-1,1-1h1c.552,0,1,.448,1,1s-.448,1-1,1h-1c-.552,0-1-.448-1-1Zm-2,10c0,.828-.672,1.5-1.5,1.5s-1.5-.672-1.5-1.5,.672-1.5,1.5-1.5,1.5,.672,1.5,1.5Z"/>
</svg>
