<?xml version="1.0" encoding="UTF-8"?>
<svg xmlns="http://www.w3.org/2000/svg" id="Layer_1" data-name="Layer 1" viewBox="0 0 24 24">
  <path d="M15.492,13.899h0c.498,.355,.552,1.063,.135,1.511-.908,.975-2.193,1.589-3.628,1.589s-2.72-.615-3.628-1.589c-.417-.448-.363-1.156,.135-1.511h0c.404-.288,.961-.237,1.296,.129,.546,.596,1.325,.972,2.196,.972s1.65-.376,2.196-.972c.335-.366,.893-.417,1.297-.129Zm-5-4.486c.442-.262,.957-.413,1.508-.413s1.065,.151,1.508,.413c.432,.256,.99,.111,1.282-.297,.327-.458,.226-1.121-.257-1.411-.742-.445-1.605-.705-2.532-.705s-1.791,.26-2.532,.705c-.483,.29-.584,.952-.257,1.411,.292,.409,.85,.553,1.282,.297Zm11.524,5.019c-.073-.556-.378-1.062-.843-1.394l-4.102-2.859c-.456-.318-1.077-.204-1.393,.249-.315,.453-.204,1.076,.248,1.392l4.068,2.94-3.42,4.631c-.856-.157-2.481-.391-4.576-.391s-3.717,.233-4.573,.391l-3.456-4.711,4.102-2.859c.452-.316,.563-.939,.248-1.392-.315-.453-.938-.566-1.393-.249l-4.11,2.865c-.928,.617-1.129,2.077-.423,2.904l3.605,4.881v2.17c0,.552,.447,1,1,1s1-.448,1-1v-1.678c.812-.138,2.226-.322,4-.322s3.188,.184,4,.322v1.678c0,.552,.447,1,1,1s1-.448,1-1v-2.17l3.574-4.841c.355-.434,.517-1,.442-1.556ZM4.515,5.678c.193,.361,.679,.432,.968,.143l1.363-1.437,1.142,2.32c.172,.345,.641,.4,.888,.104,.097-.116,.14-.269,.118-.419l-.729-4.909c-.095-.468-.672-.642-1.009-.304l-1.428,1.428L4.862,.363c-.193-.399-.721-.488-1.034-.175l-.979,.979c-.233,.234-.292,.59-.145,.886l1.812,3.624Zm11.496,1.026l1.142-2.32,1.363,1.437c.289,.289,.775,.217,.968-.143l1.812-3.624c.147-.296,.088-.652-.145-.886l-.979-.979c-.313-.313-.842-.224-1.034,.175l-.966,2.24-1.428-1.428c-.337-.337-.914-.163-1.009,.304l-.729,4.909c-.022,.15,.021,.302,.118,.419,.247,.296,.716,.241,.888-.104Z"/>
</svg>
