<?xml version="1.0" encoding="UTF-8"?>
<svg xmlns="http://www.w3.org/2000/svg" id="Layer_1" data-name="Layer 1" viewBox="0 0 24 24">
  <path d="M18,0c-3.42,0-6,5.159-6,12s2.58,12,6,12,6-5.159,6-12S21.42,0,18,0Zm2.532,16.394l-.334-2.524c-.065-.497-.49-.869-.991-.869l-1.207,.021c.06-.704,1.763-4.86,3.086-7.149,.553,1.668,.914,3.772,.914,6.129,0,2.231-.323,4.237-.827,5.86-.335-.419-.568-.915-.641-1.467Zm-2.532,5.606c-1.888,0-4-4.276-4-10s2.112-10,4-10c.716,0,1.464,.618,2.118,1.695-1.414,1.878-4.118,7.956-4.118,9.305,0,.97,.701,2,2,2h.33l.219,1.655c.17,1.287,.82,2.423,1.808,3.222-.706,1.339-1.551,2.123-2.358,2.123ZM5.8,3.582c1.358,1.679,4.2,8.036,4.2,9.418,0,.97-.701,2-2,2h-.33l-.219,1.655c-.327,2.477-2.458,4.345-4.957,4.345h-.494v2c0,.553-.448,1-1,1s-1-.447-1-1v-3c0-.553,.448-1,1-1h1.494c1.499,0,2.778-1.12,2.974-2.606l.334-2.524c.065-.497,.49-.869,.991-.869h1.207c-.071-.82-2.488-6.595-3.777-8.189C3.262,3.53,2.017,2.539,.598,1.915,.092,1.693-.138,1.104,.084,.598,.307,.092,.896-.138,1.402,.085c1.733,.762,3.254,1.971,4.398,3.497Z"/>
</svg>
