<?xml version="1.0" encoding="UTF-8"?>
<svg xmlns="http://www.w3.org/2000/svg" id="Layer_1" data-name="Layer 1" viewBox="0 0 24 24">
  <path d="M24,5v6c0,.552-.448,1-1,1h-1v1c0,.552-.448,1-1,1s-1-.448-1-1V5c0-1.654-1.346-3-3-3H5c-1.654,0-3,1.346-3,3V13c0,.552-.448,1-1,1s-1-.448-1-1V5C0,2.243,2.243,0,5,0h12c2.414,0,4.434,1.721,4.899,4h1.101c.552,0,1,.448,1,1Zm-7,7c.553,0,1-.448,1-1V5c0-.552-.447-1-1-1H5c-.553,0-1,.448-1,1v6c0,.552,.447,1,1,1h12Zm-7,6.5v3c0,1.381-1.119,2.5-2.5,2.5s-2.5-1.119-2.5-2.5v-3c0-1.381,1.119-2.5,2.5-2.5s2.5,1.119,2.5,2.5Zm-1.6,0c0-.496-.404-.9-.9-.9s-.9,.404-.9,.9v3c0,.496,.404,.9,.9,.9s.9-.404,.9-.9v-3Zm7.6,0v3c0,1.381-1.119,2.5-2.5,2.5s-2.5-1.119-2.5-2.5v-3c0-1.381,1.119-2.5,2.5-2.5s2.5,1.119,2.5,2.5Zm-1.6,0c0-.496-.404-.9-.9-.9s-.9,.404-.9,.9v3c0,.496,.404,.9,.9,.9s.9-.404,.9-.9v-3Zm8.35,3c-.69,0-1.25,.56-1.25,1.25s.56,1.25,1.25,1.25,1.25-.56,1.25-1.25-.56-1.25-1.25-1.25Zm-3.25-4.25c0-.69-.56-1.25-1.25-1.25s-1.25,.56-1.25,1.25,.56,1.25,1.25,1.25,1.25-.56,1.25-1.25Zm3.022-1.25c-.27,0-.522,.136-.67,.363l-4.178,6.4c-.347,.532,.034,1.237,.67,1.237,.27,0,.522-.136,.67-.363l4.178-6.4c.347-.532-.034-1.237-.67-1.237Zm-19.383-.018c-.233,0-.456,.094-.618,.262l-1.63,1.682c-.307,.317-.299,.824,.018,1.131,.317,.307,.824,.299,1.131-.018l.36-.372v4.532c0,.442,.358,.8,.8,.8s.8-.358,.8-.8v-6.357c0-.476-.385-.861-.861-.861Z"/>
</svg>
