<?xml version="1.0" encoding="UTF-8"?>
<svg xmlns="http://www.w3.org/2000/svg" id="Layer_1" data-name="Layer 1" viewBox="0 0 24 24">
  <path d="M19.6,3.474c-2.605-.314-5.162-.474-7.6-.474s-4.995,.159-7.6,.474C1.892,3.777,0,5.912,0,8.439v7.121c0,2.527,1.892,4.662,4.4,4.966,2.605,.314,5.162,.474,7.6,.474s4.995-.159,7.6-.474c2.508-.304,4.4-2.438,4.4-4.966v-7.121c0-2.527-1.892-4.662-4.4-4.966Zm2.4,12.087c0,1.517-1.135,2.798-2.64,2.979-2.526,.306-5.002,.46-7.36,.46s-4.834-.154-7.36-.46c-1.505-.182-2.64-1.463-2.64-2.979v-7.121c0-1.517,1.135-2.798,2.64-2.979,2.526-.306,5.002-.46,7.36-.46s4.834,.154,7.36,.46c1.505,.182,2.64,1.463,2.64,2.979v7.121Zm-1-6.811v6.332c0,.507-.411,.918-.918,.918-.355,0-.678-.205-.83-.526l-1.751-3.705v3.481c0,.414-.336,.75-.75,.75s-.75-.336-.75-.75v-6.329c0-.508,.413-.919,.921-.916,.354,.002,.674,.207,.824,.528l1.755,3.749v-3.532c0-.414,.336-.75,.75-.75s.75,.336,.75,.75Zm-8.5-.75h-1.75c-.414,0-.75,.336-.75,.75v6.5c0,.414,.336,.75,.75,.75s.75-.336,.75-.75v-2.25h1c1.381,0,2.5-1.119,2.5-2.5s-1.119-2.5-2.5-2.5Zm0,3.5h-1v-2h1c.551,0,1,.449,1,1s-.449,1-1,1Zm-3.76-2.542l-1.113,5.467c-.126,.647-.687,1.575-1.628,1.575s-1.51-.97-1.618-1.531l-1.175-5.504c-.106-.497,.273-.966,.781-.966,.377,0,.702,.263,.781,.632,0,0,1.211,5.632,1.231,5.676,.02-.047,1.136-5.663,1.136-5.663,.074-.374,.402-.644,.784-.644h.038c.505,0,.884,.463,.783,.958Z"/>
</svg>
