<?xml version="1.0" encoding="UTF-8"?>
<svg xmlns="http://www.w3.org/2000/svg" id="Layer_1" data-name="Layer 1" viewBox="0 0 24 24">
  <path d="M13.651,11.998l2.678-2.016c.885-.743,.888-2.218,.008-2.965l-2.969-2.64c-.865-.819-2.407-.126-2.368,1.064v4.562l-2.399-1.804c-.442-.331-1.068-.243-1.4,.198-.332,.441-.243,1.068,.198,1.4l2.926,2.2-2.926,2.201c-.441,.332-.53,.959-.198,1.4,.333,.441,.959,.531,1.4,.198l2.399-1.806v4.564c-.038,1.19,1.501,1.884,2.368,1.064l2.972-2.642c.895-.791,.886-2.217-.066-3.011l-2.622-1.972Zm-.651-5.313l2.067,1.747-2.067,1.556v-3.303Zm0,10.589v-3.263l1.988,1.495-1.988,1.768ZM12,0C5.383,0,0,5.383,0,12s5.383,12,12,12,12-5.383,12-12S18.617,0,12,0Zm0,22c-5.514,0-10-4.486-10-10S6.486,2,12,2s10,4.486,10,10-4.486,10-10,10Z"/>
</svg>
