<?xml version="1.0" encoding="UTF-8"?>
<svg xmlns="http://www.w3.org/2000/svg" id="Layer_1" data-name="Layer 1" viewBox="0 0 24 24">
  <path d="M20.402,17c-1.513,0-2.672,.947-3.402,1.784-.73-.837-1.89-1.784-3.402-1.784-1.983,0-3.598,1.57-3.598,3.5s1.614,3.5,3.598,3.5c1.513,0,2.672-.947,3.402-1.784,.73,.837,1.89,1.784,3.402,1.784,1.983,0,3.598-1.57,3.598-3.5s-1.614-3.5-3.598-3.5Zm-6.805,5c-.881,0-1.598-.673-1.598-1.5s.717-1.5,1.598-1.5c.931,0,1.759,.859,2.221,1.5-.462,.641-1.29,1.5-2.221,1.5Zm6.805,0c-.931,0-1.759-.859-2.221-1.5,.462-.641,1.29-1.5,2.221-1.5,.881,0,1.598,.673,1.598,1.5s-.717,1.5-1.598,1.5Zm-1.402-20h-6.528c-.154,0-.309-.037-.446-.105L8.869,.316c-.414-.207-.878-.316-1.341-.316h-2.528C2.243,0,0,2.243,0,5v12c0,2.757,2.243,5,5,5h2c.553,0,1-.447,1-1s-.447-1-1-1h-2c-1.654,0-3-1.346-3-3V8H22v6.5c0,.553,.447,1,1,1s1-.447,1-1V7c0-2.757-2.243-5-5-5ZM2,5c0-1.654,1.346-3,3-3h2.528c.154,0,.309,.037,.446,.105l3.156,1.578c.414,.207,.878,.316,1.341,.316h6.528c1.302,0,2.402,.839,2.816,2H2v-1Z"/>
</svg>
