<?xml version="1.0" encoding="UTF-8"?>
<svg xmlns="http://www.w3.org/2000/svg" id="Layer_1" data-name="Layer 1" viewBox="0 0 24 24">
  <path d="M17,0H7C4.243,0,2,2.243,2,5v14c0,2.757,2.243,5,5,5h10c2.757,0,5-2.243,5-5V5c0-2.757-2.243-5-5-5Zm3,19c0,1.654-1.346,3-3,3H7c-1.654,0-3-1.346-3-3V5c0-.425,.092-.829,.252-1.196l1.056,1.016c.193,.187,.443,.28,.693,.28,.262,0,.524-.103,.721-.307,.383-.397,.371-1.031-.027-1.414l-1.07-1.03c.414-.216,.877-.35,1.376-.35h10c.425,0,.829,.092,1.196,.252l-1.016,1.056c-.383,.398-.371,1.031,.027,1.414,.194,.187,.443,.279,.693,.279,.263,0,.524-.103,.721-.307l1.029-1.07c.216,.414,.349,.877,.349,1.375v14Zm-5.861-3.519c.227,.757-.34,1.519-1.13,1.519h-1.829c-.79,0-1.357-.762-1.13-1.519l.757-2.524c.171-.569,.694-.958,1.287-.958s1.117,.389,1.287,.958l.757,2.524ZM9.558,6.186c.395,.387,.4,1.02,.014,1.415-.195,.2-.455,.3-.714,.3-.253,0-.505-.095-.7-.286l-.714-.7c-.395-.387-.4-1.02-.014-1.415,.385-.395,1.018-.399,1.414-.014l.714,.7Zm.735,3.521c-.391-.391-.391-1.023,0-1.414s1.023-.391,1.414,0l.293,.293,.293-.293c.391-.391,1.023-.391,1.414,0s.391,1.023,0,1.414l-1,1c-.195,.195-.451,.293-.707,.293s-.512-.098-.707-.293l-1-1Zm6.207-4.277c.395,.387,.4,1.02,.014,1.414l-.7,.714c-.195,.2-.455,.3-.714,.3-.253,0-.506-.095-.7-.286-.395-.387-.4-1.02-.014-1.414l.7-.714c.386-.396,1.021-.4,1.414-.014Z"/>
</svg>
