<?xml version="1.0" encoding="UTF-8"?>
<svg xmlns="http://www.w3.org/2000/svg" id="Layer_1" data-name="Layer 1" viewBox="0 0 24 24">
  <path d="M23,14c0-5.506-4.07-10.066-9.357-10.863,.224-.323,.357-.714,.357-1.137,0-1.105-.895-2-2-2s-2,.895-2,2c0,.423,.133,.814,.357,1.137C5.07,3.934,1,8.494,1,14c-.552,0-1,.447-1,1s.448,1,1,1H3.979c-1.257,1.005-2.265,2.327-2.842,3.898l-.998,2.719c-.19,.519,.076,1.093,.594,1.283,.505,.19,1.094-.071,1.284-.594l.998-2.719c1.007-2.744,3.648-4.588,6.571-4.588h3.914c.63,0,1.142,.513,1.142,1.143,0,.564-.421,1.051-.981,1.13l-5.161,.737c-.546,.078-.926,.585-.848,1.132,.079,.547,.586,.927,1.131,.849l5.16-.737c.598-.085,1.135-.343,1.573-.713,.022-.016,3.798-3.286,3.798-3.286,.402-.362,1.079-.32,1.426,.1,.362,.416,.321,1.052-.079,1.407l-5.312,4.558c-.419,.359-.467,.991-.107,1.41,.361,.42,.993,.466,1.41,.107l5.324-4.568c.942-.836,1.228-2.144,.827-3.268h.197c.552,0,1-.447,1-1s-.448-1-1-1Zm-20,0c0-4.963,4.038-9,9-9s9,4.037,9,9H3Z"/>
</svg>
