<?xml version="1.0" encoding="UTF-8"?>
<svg xmlns="http://www.w3.org/2000/svg" id="Layer_1" data-name="Layer 1" viewBox="0 0 24 24">
  <path d="M12,8.5c1.933,0,3.5,1.567,3.5,3.5,0,.048-.012,.093-.014,.141-2.201-1.83-4.669-2.392-6.004-2.563,.637-.662,1.527-1.078,2.518-1.078Zm-3.5,3.5c0,1.933,1.567,3.5,3.5,3.5,1.115,0,2.097-.531,2.738-1.344-2.475-2.43-5.739-2.638-6.188-2.655-.024,.164-.05,.328-.05,.498Zm15.5-5v10c0,2.757-2.243,5-5,5H5c-2.757,0-5-2.243-5-5V7C0,4.243,2.243,2,5,2h14c2.757,0,5,2.243,5,5ZM2,7v4.983c.005-.73,.339-1.403,.92-1.848l7.183-5.493h0c1.116-.854,2.678-.854,3.794,0l7.183,5.493c.581,.445,.915,1.118,.92,1.848V7c0-1.654-1.346-3-3-3H5c-1.654,0-3,1.346-3,3Zm17.865,4.724l-7.183-5.493c-.401-.307-.963-.308-1.365,0l-7.183,5.493c-.193,.199-.194,.353,0,.553l7.183,5.493c.401,.307,.963,.307,1.366,0l7.182-5.493c.193-.199,.194-.353,0-.553Zm2.135,5.276v-4.983c-.005,.73-.339,1.403-.92,1.848l-7.183,5.493c-.559,.427-1.228,.64-1.897,.64s-1.339-.213-1.897-.64L2.92,13.865c-.581-.445-.915-1.118-.92-1.848v4.983c0,1.654,1.346,3,3,3h14c1.654,0,3-1.346,3-3Z"/>
</svg>
