<?xml version="1.0" encoding="UTF-8"?>
<svg xmlns="http://www.w3.org/2000/svg" id="Layer_1" data-name="Layer 1" viewBox="0 0 24 24">
  <path d="M17,2.868V1c0-.552,.447-1,1-1s1,.448,1,1v1.868c0,.349,.186,.678,.485,.857l2.087,1.252c1.588,.952,2.428,2.343,2.428,4.022,0,.552-.447,1-1,1s-1-.448-1-1c0-.965-.477-1.72-1.457-2.308l-2.087-1.252c-.898-.539-1.456-1.524-1.456-2.572Zm-1.572,5.276l1.602,.961c.599,.359,.971,1.016,.971,1.715v.18c0,.552,.447,1,1,1s1-.448,1-1v-.18c0-1.397-.744-2.711-1.941-3.43l-1.602-.961c-.898-.54-1.457-1.525-1.457-2.573v-.856c0-.552-.447-1-1-1s-1,.448-1,1v.856c0,1.746,.931,3.389,2.428,4.288Zm7.572,5.856c-.553,0-1,.448-1,1v4c0,.552,.447,1,1,1s1-.448,1-1v-4c0-.552-.447-1-1-1Zm-8,5c0,.552-.447,1-1,1H2.5c-1.379,0-2.5-1.122-2.5-2.5v-1c0-1.378,1.121-2.5,2.5-2.5h7.5c.553,0,1,.448,1,1s-.447,1-1,1h-1v2h5c.553,0,1,.448,1,1Zm-8-3H2.5c-.275,0-.5,.224-.5,.5v1c0,.276,.225,.5,.5,.5H7v-2Zm13,2.586v-3.586c0-.552-.447-1-1-1h-3.5c-.026,0-.049,.009-.075,.011L1.707,.293C1.316-.098,.684-.098,.293,.293S-.098,1.316,.293,1.707L22.293,23.707c.195,.195,.451,.293,.707,.293s.512-.098,.707-.293c.391-.391,.391-1.023,0-1.414l-3.707-3.707Z"/>
</svg>
