<?xml version="1.0" encoding="UTF-8"?>
<svg xmlns="http://www.w3.org/2000/svg" id="Layer_1" data-name="Layer 1" viewBox="0 0 24 24">
  <path d="M5.5,9c.828,0,1.5,.672,1.5,1.5s-.672,1.5-1.5,1.5-1.5-.672-1.5-1.5,.672-1.5,1.5-1.5Zm2.723,4.697c-.223,.275-.485,.515-.779,.712-.277,.186-.444,.498-.444,.831v4.81c0,.267-.104,.518-.292,.707l-1.209,1.21-1.056-1.046,.693-.693c.389-.388,.391-1.018,.005-1.409l-.724-.735,.825-.914c.357-.395,.341-1-.035-1.377l-.975-.975c-.062-.062-.131-.115-.207-.159-1.349-.78-1.993-1.751-2.025-3.055-.038-1.541,.944-2.979,2.335-3.419,1.216-.388,2.176-.103,2.768,.203,.491,.253,1.094,.061,1.348-.43,.253-.491,.061-1.094-.43-1.348-1.31-.676-2.832-.793-4.291-.332C1.476,6.994-.058,9.204,.002,11.653c.048,1.972,1.026,3.542,2.906,4.669l.213,.213-.453,.502c-.581,.581-.584,1.528-.008,2.113l.359,.364-.347,.347c-.284,.284-.44,.662-.439,1.063s.158,.779,.444,1.063l1.412,1.399c.78,.772,2.046,.77,2.822-.007l1.209-1.21c.566-.566,.878-1.32,.878-2.121v-4.31c.285-.234,.545-.498,.778-.786,.348-.429,.281-1.059-.148-1.406-.429-.348-1.059-.281-1.406,.148ZM20,0h-6.107c-2.103,0-4.117,.647-5.826,1.872l-1.149,.824c-.449,.322-.552,.947-.23,1.396,.321,.449,.947,.551,1.396,.23l1.149-.824c1.367-.98,2.979-1.498,4.661-1.498h6.107c1.103,0,2,.897,2,2v5c0,1.103-.897,2-2,2h-6.857c-.63,0-1.143-.512-1.143-1.142,0-.564,.422-1.051,.981-1.131l5.161-.737c.547-.078,.927-.584,.849-1.131-.078-.546-.588-.93-1.132-.848l-5.161,.737c-1.538,.22-2.698,1.557-2.698,3.11,0,1.732,1.41,3.142,3.143,3.142h6.857c2.206,0,4-1.794,4-4V4c0-2.206-1.794-4-4-4Z"/>
</svg>
