<?xml version="1.0" encoding="UTF-8"?>
<svg xmlns="http://www.w3.org/2000/svg" id="Layer_1" data-name="Layer 1" viewBox="0 0 24 24">
  <path d="M15,9.5c0,1.381-1.119,2.5-2.5,2.5s-2.5-1.119-2.5-2.5,1.119-2.5,2.5-2.5,2.5,1.119,2.5,2.5Zm-1,9.5h-2c-.552,0-1-.448-1-1v-1c0-1.103,.897-2,2-2,.553,0,1-.447,1-1s-.447-1-1-1c-2.206,0-4,1.794-4,4v1c0,1.302,.839,2.402,2,2.816v2.184c0,.553,.447,1,1,1s1-.447,1-1v-2h1c.553,0,1-.447,1-1s-.447-1-1-1Zm6-9c1.381,0,2.5-1.119,2.5-2.5s-1.119-2.5-2.5-2.5-2.5,1.119-2.5,2.5,1.119,2.5,2.5,2.5Zm4,5v2c0,1.105-.608,2.062-1.5,2.583v3.417c0,.553-.447,1-1,1s-1-.447-1-1v-3h-1v3c0,.553-.447,1-1,1s-1-.447-1-1v-3.417c-.892-.52-1.5-1.477-1.5-2.583v-2c0-2.206,1.794-4,4-4s4,1.794,4,4Zm-6,2c0,.552,.448,1,1,1h2c.552,0,1-.448,1-1v-2c0-1.103-.897-2-2-2s-2,.897-2,2v2ZM5.5,9c-1.381,0-2.5,1.119-2.5,2.5s1.119,2.5,2.5,2.5,2.5-1.119,2.5-2.5-1.119-2.5-2.5-2.5Zm1.5,11h-2c-.552,0-1-.448-1-1v-.5c0-.827,.673-1.5,1.5-1.5h.5c.553,0,1-.447,1-1s-.447-1-1-1h-.5c-1.93,0-3.5,1.57-3.5,3.5v.5c0,1.302,.839,2.402,2,2.816v1.184c0,.553,.447,1,1,1s1-.447,1-1v-1h1c.553,0,1-.447,1-1s-.447-1-1-1ZM12,5c0,.553,.447,1,1,1s1-.447,1-1V1.5c0-.827-.673-1.5-1.5-1.5h-3.5c-.553,0-1,.447-1,1s.447,1,1,1h1.53l-3.143,3.006c-.066,.063-.173,.063-.238-.004l-.749-.747c-.846-.846-2.223-.846-3.068,0L.293,7.293c-.391,.391-.391,1.023,0,1.414s1.023,.391,1.414,0l3.038-3.038c.057-.057,.184-.058,.24,0l.748,.746c.827,.829,2.188,.845,3.035,.035l3.231-3.089v1.638Z"/>
</svg>
