<?xml version="1.0" encoding="UTF-8"?>
<svg xmlns="http://www.w3.org/2000/svg" id="Layer_1" data-name="Layer 1" viewBox="0 0 24 24">
  <path d="M24,23c0,.553-.448,1-1,1H1c-.552,0-1-.447-1-1s.448-1,1-1H23c.552,0,1,.447,1,1Zm-1.723-9.69c-1.363,1.427-5.091,4.746-10.275,4.747-5.185,0-8.916-3.32-10.279-4.747-.383-.4-1.015-.415-1.414-.032-.399,.381-.414,1.014-.032,1.413,1.541,1.613,5.767,5.363,11.721,5.366h.002s.003,0,.004,0h.002c5.953-.003,10.177-3.753,11.717-5.366,.381-.399,.367-1.032-.033-1.414-.399-.38-1.033-.367-1.414,.033Zm-11.506,1.181c.647,.678,1.816,.677,2.463,0l2.476-2.476c.391-.391,.391-1.023,0-1.414s-1.023-.391-1.414,0l-1.294,1.294-.002-4.896c0-.552-.448-1-1-1h0c-.552,0-1,.448-1,1l.002,4.893-1.292-1.292c-.391-.391-1.023-.391-1.414,0s-.391,1.023,0,1.414l2.475,2.475Zm6.937-10.092l1.293-1.293v4.895c0,.552,.448,1,1,1s1-.448,1-1V3.105l1.293,1.293c.195,.195,.451,.293,.707,.293s.512-.098,.707-.293c.391-.391,.391-1.023,0-1.414l-2.476-2.476c-.657-.658-1.806-.658-2.463,0l-2.476,2.476c-.391,.391-.391,1.023,0,1.414s1.023,.391,1.414,0ZM1.707,4.398l1.293-1.293v4.895c0,.552,.448,1,1,1s1-.448,1-1V3.105l1.293,1.293c.195,.195,.451,.293,.707,.293s.512-.098,.707-.293c.391-.391,.391-1.023,0-1.414L5.231,.509C4.574-.149,3.426-.149,2.769,.509L.293,2.984c-.391,.391-.391,1.023,0,1.414s1.023,.391,1.414,0Z"/>
</svg>
