<?xml version="1.0" encoding="UTF-8"?>
<svg xmlns="http://www.w3.org/2000/svg" id="Layer_1" data-name="Layer 1" viewBox="0 0 24 24">
  <path d="M23,22h-4.935l1.921-14.419c.088-.662-.087-1.319-.493-1.849-.395-.516-.964-.848-1.604-.947l.211-1.44c.178-1.364-.787-2.621-2.151-2.801L12.08,.032c-.663-.09-1.32,.087-1.851,.495-.531,.407-.871,.997-.955,1.644l-.212,1.441-.143-.019c-1.367-.184-2.625,.782-2.807,2.148L3.947,22H1c-.552,0-1,.447-1,1s.448,1,1,1H23c.552,0,1-.447,1-1s-.448-1-1-1ZM11.255,2.445c.023-.179,.13-.285,.191-.333,.061-.047,.193-.121,.37-.099l3.87,.513c.272,.036,.465,.288,.432,.544l-.212,1.446-4.862-.644,.21-1.428Zm-3.161,3.559c.037-.273,.287-.471,.562-.43l8.917,1.181c.335,.096,.425,.213,.43,.562l-1.956,14.683h-1.076l.581-3.98c.073-.547-.312-1.05-.86-1.123-.547-.073-1.05,.312-1.123,.86l-.619,4.243h-1.01l.638-4.374c.073-.547-.312-1.05-.86-1.123-.547-.073-1.05,.312-1.123,.86l-.677,4.637h-1.01l.696-4.768c.073-.547-.312-1.05-.86-1.123-.547-.073-1.05,.312-1.123,.86l-.734,5.031h-.923l2.13-15.996Zm3.454,4.099l.197-1.487c.073-.547,.575-.932,1.123-.86,.548,.073,.933,.575,.86,1.123l-.197,1.487c-.036,.274-.288,.466-.561,.43l-.991-.131c-.274-.036-.466-.288-.43-.561Zm-2.974-.394l.197-1.487c.073-.547,.575-.932,1.123-.86,.548,.073,.933,.575,.86,1.123l-.197,1.487c-.036,.274-.288,.466-.561,.43l-.991-.131c-.274-.036-.466-.288-.43-.561Zm2.397,4.847l.197-1.487c.073-.547,.575-.932,1.123-.86,.547,.073,.932,.575,.86,1.123l-.197,1.487c-.036,.274-.288,.466-.561,.43l-.991-.131c-.274-.036-.466-.288-.43-.561Zm-2.974-.394l.197-1.487c.073-.547,.575-.932,1.123-.86,.547,.073,.932,.575,.86,1.123l-.197,1.487c-.036,.274-.288,.466-.561,.43l-.991-.131c-.274-.036-.466-.288-.43-.561Zm6.525-3.664l.197-1.487c.073-.548,.575-.933,1.123-.86,.548,.073,.933,.575,.86,1.123l-.197,1.487c-.036,.274-.288,.466-.561,.43l-.991-.131c-.274-.036-.466-.288-.43-.561Zm-.577,4.453l.197-1.487c.073-.548,.575-.933,1.123-.86,.547,.073,.932,.575,.86,1.123l-.197,1.487c-.036,.274-.288,.466-.561,.43l-.991-.131c-.274-.036-.466-.288-.43-.561Z"/>
</svg>
