<?xml version="1.0" encoding="UTF-8"?>
<svg xmlns="http://www.w3.org/2000/svg" id="Layer_1" data-name="Layer 1" viewBox="0 0 24 24">
  <path d="M20,17c-.553,0-1,.447-1,1s-.448,1-1,1h-2v-.5c0-1.379-1.121-2.5-2.5-2.5h-2c-1.379,0-2.5,1.121-2.5,2.5v.5h-2v-.5c0-1.379-1.121-2.5-2.5-2.5H2.5c-1.379,0-2.5,1.121-2.5,2.5v3c0,1.379,1.121,2.5,2.5,2.5h2c1.379,0,2.5-1.121,2.5-2.5v-.5h2v.5c0,1.379,1.121,2.5,2.5,2.5h2c1.379,0,2.5-1.121,2.5-2.5v-.5h2c1.654,0,3-1.346,3-3,0-.553-.447-1-1-1Zm-15,4.5c0,.275-.225,.5-.5,.5H2.5c-.275,0-.5-.225-.5-.5v-3c0-.275,.225-.5,.5-.5h2c.275,0,.5,.225,.5,.5v3Zm9,0c0,.275-.225,.5-.5,.5h-2c-.275,0-.5-.225-.5-.5v-3c0-.275,.225-.5,.5-.5h2c.275,0,.5,.225,.5,.5v3Zm7.5-13h-3c-1.379,0-2.5,1.122-2.5,2.5v2c0,1.379,1.121,2.5,2.5,2.5h3c1.379,0,2.5-1.121,2.5-2.5v-2c0-1.378-1.121-2.5-2.5-2.5Zm.5,4.5c0,.275-.225,.5-.5,.5h-3c-.275,0-.5-.225-.5-.5v-2c0-.276,.225-.5,.5-.5h3c.275,0,.5,.224,.5,.5v2ZM2.5,8h2c1.379,0,2.5-1.122,2.5-2.5v-.5h2v.5c0,1.378,1.121,2.5,2.5,2.5h2c1.379,0,2.5-1.122,2.5-2.5v-.5h2c.552,0,1,.449,1,1s.447,1,1,1,1-.448,1-1c0-1.654-1.346-3-3-3h-2v-.5c0-1.378-1.121-2.5-2.5-2.5h-2c-1.379,0-2.5,1.122-2.5,2.5v.5h-2v-.5c0-1.378-1.121-2.5-2.5-2.5H2.5C1.121,0,0,1.122,0,2.5v3c0,1.378,1.121,2.5,2.5,2.5ZM11,2.5c0-.276,.225-.5,.5-.5h2c.275,0,.5,.224,.5,.5v3c0,.276-.225,.5-.5,.5h-2c-.275,0-.5-.224-.5-.5V2.5ZM2,2.5c0-.276,.225-.5,.5-.5h2c.275,0,.5,.224,.5,.5v3c0,.276-.225,.5-.5,.5H2.5c-.275,0-.5-.224-.5-.5V2.5Z"/>
</svg>
