<?xml version="1.0" encoding="UTF-8"?>
<svg xmlns="http://www.w3.org/2000/svg" id="Layer_1" data-name="Layer 1" viewBox="0 0 24 24">
  <path d="M17,0H7C4.243,0,2,2.243,2,5v15c0,2.206,1.794,4,4,4h11c2.757,0,5-2.243,5-5V5c0-2.757-2.243-5-5-5ZM7,2h10c1.654,0,3,1.346,3,3v11H6c-.732,0-1.409,.212-2,.556V5c0-1.654,1.346-3,3-3Zm10,20H6c-1.103,0-2-.897-2-2s.897-2,2-2h14v1c0,1.654-1.346,3-3,3ZM6.275,12.963c.358,0,.669-.245,.753-.593l.097-.401h2.148l.08,.359c.082,.371,.412,.635,.792,.635,.521,0,.907-.483,.791-.991l-1.04-4.581c-.311-1.853-2.97-1.844-3.303-.04l-1.072,4.664c-.112,.485,.257,.948,.755,.948Zm1.881-5.272c.019-.068,.05-.122,.097-.122,.014,.01,.057,.063,.082,.176l.583,2.624h-1.407l.646-2.678Zm3.345,1.509c0-.442,.358-.8,.8-.8h.4c.442,0,.8,.358,.8,.8s-.358,.8-.8,.8h-.4c-.442,0-.8-.358-.8-.8Zm2.684,1.749l2.329-3.349h-1.763c-.442,0-.8-.358-.8-.8s.358-.8,.8-.8h2.444c.721,0,1.306,.585,1.306,1.306,0,.266-.082,.527-.234,.745l-2.329,3.35h1.763c.442,0,.8,.358,.8,.8s-.358,.8-.8,.8h-2.444c-.721,0-1.306-.585-1.306-1.306,0-.266,.082-.526,.234-.745Z"/>
</svg>
