<?xml version="1.0" encoding="UTF-8"?>
<svg xmlns="http://www.w3.org/2000/svg" id="Layer_1" data-name="Layer 1" viewBox="0 0 24 24">
  <path d="M21.831,14.311l-5.721-4.693,.534-2.4c.236-1.064,.356-2.159,.356-3.254V1c0-.553-.447-1-1-1s-1,.447-1,1v1.1c-1.33,.247-2.353,.935-3,1.511-.647-.576-1.67-1.264-3-1.511V1c0-.553-.448-1-1-1s-1,.447-1,1V3.963c0,1.093,.12,2.188,.357,3.254l.533,2.4L2.156,14.321c-1.278,1.086-1.533,2.945-.594,4.324,2.275,3.342,6.274,5.417,10.438,5.417s8.163-2.075,10.438-5.417c.939-1.379,.685-3.237-.606-4.335ZM11.191,5.65c.187,.258,.487,.408,.805,.41h.005c.316,0,.615-.152,.804-.405,.01-.013,.838-1.082,2.183-1.49-.014,.881-.108,1.761-.298,2.618l-.493,2.217h-4.396l-.492-2.217c-.191-.859-.285-1.738-.298-2.618,1.345,.407,2.173,1.476,2.18,1.485Zm9.594,11.87c-1.908,2.802-5.274,4.542-8.785,4.542s-6.877-1.74-8.785-4.542c-.363-.533-.262-1.253,.222-1.663l5.92-4.857h5.285l5.907,4.846c.496,.422,.598,1.143,.235,1.675Z"/>
</svg>
