<?xml version="1.0" encoding="UTF-8"?>
<svg xmlns="http://www.w3.org/2000/svg" id="Layer_1" data-name="Layer 1" viewBox="0 0 24 24">
  <path d="M22,11H5.449L21.504,6.83c1.053-.273,1.688-1.319,1.435-2.426l-.35-1.254c-.423-2.181-2.817-3.64-4.946-3.012L2.973,4.06C.881,4.622-.394,6.79,.136,8.908l.864,3.223v6.869c0,2.757,2.243,5,5,5h13c2.757,0,5-2.243,5-5v-6c0-1.103-.897-2-2-2ZM11.444,3.866l-2.681,4.208-2.687,.698,2.677-4.187,2.691-.719Zm5.813-1.553l-2.645,4.242-3.007,.781,2.698-4.234,2.954-.789Zm3.745,2.582l-3.577,.929,2.222-3.564c.024,.013,.05,.018,.073,.032,.473,.287,.797,.743,.928,1.339l.354,1.264ZM3.49,5.991l2.398-.641-2.661,4.161-.803,.209-.353-1.312c-.262-1.051,.375-2.135,1.419-2.416Zm18.51,13.009c0,1.654-1.346,3-3,3H6c-1.654,0-3-1.346-3-3v-6H22v6Z"/>
</svg>
