<?xml version="1.0" encoding="UTF-8"?>
<svg xmlns="http://www.w3.org/2000/svg" id="Layer_1" data-name="Layer 1" viewBox="0 0 24 24">
  <path d="M7,24h-2c-2.757,0-5-2.243-5-5v-7C0,5.383,5.383,0,12,0s12,5.383,12,12c0,.731-.066,1.465-.198,2.181-.1,.543-.613,.909-1.164,.803-.543-.1-.902-.621-.803-1.164,.109-.597,.165-1.208,.165-1.819,0-5.514-4.486-10-10-10S2,6.486,2,12v7c0,1.654,1.346,3,3,3h2c.552,0,1,.447,1,1s-.448,1-1,1ZM17,8c0-.552-.448-1-1-1H8c-.552,0-1,.448-1,1s.448,1,1,1h8c.552,0,1-.448,1-1Zm-3.5,4c0-.552-.447-1-1-1h-4.5c-.552,0-1,.448-1,1s.448,1,1,1h4.5c.553,0,1-.448,1-1Zm-2.5,4c0-.553-.448-1-1-1h-2c-.552,0-1,.447-1,1s.448,1,1,1h2c.552,0,1-.447,1-1Zm7.53-3.623l5.226,8.96c.689,1.181-.163,2.663-1.53,2.663H11.774c-1.367,0-2.218-1.483-1.53-2.663l5.226-8.96c.683-1.171,2.376-1.171,3.059,0Zm-.53,9.623h0c0-.552-.448-1-1-1h0c-.552,0-1,.448-1,1h0c0,.552,.448,1,1,1h0c.552,0,1-.448,1-1Zm-1-2h0c.552,0,1-.448,1-1v-3c0-.552-.448-1-1-1h0c-.552,0-1,.448-1,1v3c0,.552,.448,1,1,1Z"/>
</svg>
