<?xml version="1.0" encoding="UTF-8"?>
<svg xmlns="http://www.w3.org/2000/svg" id="Layer_1" data-name="Layer 1" viewBox="0 0 24 24">
  <path d="M7,19c0,1.105-.895,2-2,2s-2-.895-2-2,.895-2,2-2,2,.895,2,2Zm12-2c-1.105,0-2,.895-2,2s.895,2,2,2,2-.895,2-2-.895-2-2-2Zm-10.465-5.458l-1.921,1.878c-.89,.871-2.338,.871-3.229,0l-1.913-1.871c-1.957-1.958-1.957-5.129-.008-7.079,1.862-1.939,5.21-1.94,7.07,0,1.949,1.95,1.949,5.122,0,7.071Zm-1.414-5.657c-1.116-1.163-3.126-1.164-4.242,0-1.17,1.169-1.17,3.073,0,4.243l1.905,1.863c.121,.119,.311,.118,.432,0l1.913-1.871c1.162-1.162,1.162-3.065-.008-4.235Zm-2.121,.616c-.828,0-1.5,.672-1.5,1.5s.672,1.5,1.5,1.5,1.5-.672,1.5-1.5-.672-1.5-1.5-1.5Zm17.535,5.042l-1.921,1.878c-.89,.871-2.338,.871-3.229,0l-1.913-1.871c-1.957-1.958-1.957-5.129-.008-7.079,1.862-1.939,5.21-1.94,7.07,0,1.949,1.95,1.949,5.122,0,7.071Zm-1.414-5.657c-1.116-1.163-3.126-1.164-4.242,0-1.17,1.169-1.17,3.073,0,4.243l1.905,1.863c.122,.119,.311,.118,.432,0l1.913-1.871c1.162-1.162,1.162-3.065-.008-4.235Zm-2.121,.616c-.828,0-1.5,.672-1.5,1.5s.672,1.5,1.5,1.5,1.5-.672,1.5-1.5-.672-1.5-1.5-1.5Zm-5,11.5h-4c-.553,0-1,.448-1,1s.447,1,1,1h4c.553,0,1-.448,1-1s-.447-1-1-1Z"/>
</svg>
