<?xml version="1.0" encoding="UTF-8"?>
<svg xmlns="http://www.w3.org/2000/svg" id="Layer_1" data-name="Layer 1" viewBox="0 0 24 24">
  <path d="M3,2.5c0-1.381,1.119-2.5,2.5-2.5s2.5,1.119,2.5,2.5-1.119,2.5-2.5,2.5-2.5-1.119-2.5-2.5ZM22.954,22h-4.954c-.553,0-1,.447-1,1s.447,1,1,1h4.954c.553,0,1-.447,1-1s-.447-1-1-1Zm0-4h-4.954c-.553,0-1,.447-1,1s.447,1,1,1h4.954c.553,0,1-.447,1-1s-.447-1-1-1Zm0-4h-4.954c-.553,0-1,.447-1,1s.447,1,1,1h4.954c.553,0,1-.447,1-1s-.447-1-1-1Zm-8.954,8h-5c-.552,0-1,.447-1,1s.448,1,1,1h5c.553,0,1-.447,1-1s-.447-1-1-1Zm0-4h-5c-.552,0-1,.447-1,1s.448,1,1,1h5c.553,0,1-.447,1-1s-.447-1-1-1Zm-9,4H1c-.552,0-1,.447-1,1s.448,1,1,1H5c.552,0,1-.447,1-1s-.448-1-1-1ZM23,2c-.6,0-1.195,.128-1.751,.377l-2.813,1.259c-.581,.399-.581,1.329,0,1.729l3.565,1.885v3.75c0,.553,.447,1,1,1s1-.447,1-1V3c0-.553-.447-1-1-1ZM9.53,15.242c.134,.537,.679,.863,1.213,.728,.536-.134,.861-.677,.728-1.212l-.5-2c-.111-.445-.511-.758-.97-.758h-2v-4h4c.552,0,1-.447,1-1s-.448-1-1-1H6.314c-1.601,0-3.116,.774-4.051,2.069L.192,10.911c-.325,.446-.227,1.071,.219,1.396,.178,.13,.384,.192,.588,.192,.309,0,.613-.143,.809-.411,0,0,2.155-2.927,2.192-2.972v3.76l-1.47,5.881c-.134,.535,.192,1.078,.728,1.212,.522,.135,1.081-.187,1.213-.728l1.311-5.242h3.438l.311,1.242Z"/>
</svg>
