<?xml version="1.0" encoding="UTF-8"?>
<svg xmlns="http://www.w3.org/2000/svg" id="Layer_1" data-name="Layer 1" viewBox="0 0 24 24">
  <path d="M24,23c0,.553-.448,1-1,1h-5.625c-.374,0-.717-.209-.888-.541-.172-.332-.144-.732,.072-1.037l3.842-5.422h-1.283c-.651,0-1.264-.318-1.638-.852-.374-.534-.465-1.219-.242-1.831l3.597-9.905-5.406,6.084c-.437,.49-1.084,.73-1.732,.658-.649-.078-1.22-.469-1.528-1.046l-2.169-4.072v4.874c0,.646-.314,1.255-.841,1.63-.527,.373-1.206,.471-1.814,.26l-3.164-1.099,2.254,3.132c.44,.612,.5,1.41,.155,2.081-.342,.669-1.024,1.086-1.779,1.086h-1.137l3.598,4.364c.246,.298,.298,.712,.133,1.062-.165,.35-.517,.573-.904,.573H1c-.552,0-1-.447-1-1s.448-1,1-1h3.379l-3.055-3.706c-.35-.416-.424-.989-.188-1.489,.227-.493,.714-.805,1.267-.805h2.407L1.236,11.027c-.287-.467-.298-.949-.073-1.354,.306-.537,.961-.796,1.53-.605l5.307,1.843V3.333c0-.834,.684-1.333,1.344-1.333,.38,0,.729,.159,.982,.449,.05,.058,3.608,6.719,3.608,6.719,0,0,7.871-8.851,7.919-8.888,.587-.459,1.479-.296,1.903,.292,.242,.333,.31,.751,.185,1.142l-4.824,13.286h2.382c.543,0,1.017,.287,1.268,.768,.251,.475,.222,1.023-.08,1.463l-3.379,4.77h3.691c.552,0,1,.447,1,1Zm-8.462-4h-1.538v-3.5c0-.229-.155-.428-.377-.484-.22-.059-.453,.045-.562,.245l-1.836,2.464-1.345-1.55c-.136-.159-.358-.219-.553-.144-.196,.072-.327,.26-.327,.469v2.5h-.962c-.189,0-.362,.107-.447,.276-.084,.169-.066,.372,.047,.523l2.85,3.8c.189,.252,.485,.4,.8,.4h1c.315,0,.611-.148,.8-.4l2.85-3.8c.114-.151,.132-.354,.047-.523-.085-.169-.258-.276-.447-.276Z"/>
</svg>
