<?xml version="1.0" encoding="UTF-8"?>
<svg xmlns="http://www.w3.org/2000/svg" id="Layer_1" data-name="Layer 1" viewBox="0 0 24 24">
  <path d="m22.942,3.714c-.672-.572-1.56-.815-2.439-.674-.216.035-.42.102-.617.184-.344-1.277-1.501-2.224-2.886-2.224-.537,0-1.034.153-1.471.401-.532-.839-1.464-1.401-2.529-1.401-1.384,0-2.541.947-2.885,2.224-.197-.082-.402-.149-.617-.184-.88-.142-1.768.102-2.439.674-.672.571-1.058,1.404-1.058,2.286v8.699l-.87-.811c-1.06-.989-2.699-1.183-3.872-.332-1.578,1.145-1.657,3.374-.32,4.627l4.458,4.298c1.677,1.617,3.916,2.521,6.246,2.521h7.357c2.761,0,5-2.239,5-5V6c0-.882-.386-1.715-1.058-2.286Zm-3.458,11.672l2.516-2.378v4.705l-2.516-2.327Zm-4.931,4.662l2.066,1.953h-4.132l2.066-1.953Zm-4.72,1.711c-.646-.172-1.262-.436-1.834-.786v-1.035l7.498-6.937h3.6l-9.263,8.758Zm2.719-8.758l-4.553,4.213v-4.213h4.553Zm8.272-7.985c.301-.05.595.03.822.223.224.19.353.469.353.763v5h-.36s-.004,0-.006,0h-1.634v-4.893c0-.538.362-1.018.825-1.093Zm-3.825-2.015c.552,0,1,.448,1,1v7h-2v-7c0-.552.448-1,1-1Zm-5,0c0-.552.448-1,1-1s1,.448,1,1v8h-2V3Zm-3.647,1.237c.228-.193.52-.273.822-.223.463.075.825.555.825,1.093v5.893h-2v-6c0-.294.129-.572.353-.763ZM2.316,15.732c-.402-.378-.424-1.013-.046-1.416.376-.402,1.009-.423,1.409-.047l2.32,2.166v2.848l-3.684-3.551Zm17.162,6.219l-3.47-3.28,2.019-1.909,3.717,3.439c-.402.916-1.249,1.586-2.266,1.75Z"/>
</svg>
