<?xml version="1.0" encoding="UTF-8"?>
<svg xmlns="http://www.w3.org/2000/svg" id="Layer_1" data-name="Layer 1" viewBox="0 0 24 24">
  <path d="M23.235,16.016l-6.997,7.659c-.197,.216-.468,.325-.738,.325-.241,0-.482-.087-.675-.262-.407-.372-.436-1.005-.063-1.413l6.989-7.65c.359-.402,.327-1.04-.081-1.411-.391-.38-1.07-.341-1.428,.066l-4.433,4.872c-.387,1.066-1.335,1.883-2.506,2.05l-5.161,.737c-.548,.075-1.054-.302-1.132-.849s.302-1.054,.849-1.132l5.161-.737c.56-.079,.98-.565,.98-1.13,0-.63-.513-1.143-1.143-1.143H4c-1.103,0-2,.897-2,2v5c0,.553-.447,1-1,1s-1-.447-1-1v-5c0-2.206,1.794-4,4-4H12.857c1.14,0,2.131,.617,2.682,1.528l3.224-3.544c1.065-1.221,3.075-1.313,4.254-.199,1.214,1.106,1.312,3.004,.218,4.23ZM3,6c-.828,0-1.5,.672-1.5,1.5s.672,1.5,1.5,1.5,1.5-.672,1.5-1.5-.672-1.5-1.5-1.5Zm5,0c-.828,0-1.5,.672-1.5,1.5s.672,1.5,1.5,1.5,1.5-.672,1.5-1.5-.672-1.5-1.5-1.5Zm6.5,1.5c0-.828-.672-1.5-1.5-1.5s-1.5,.672-1.5,1.5,.672,1.5,1.5,1.5,1.5-.672,1.5-1.5ZM5.665,12h4.671c.54,0,.863-.513,.529-.86-.668-.693-1.699-1.14-2.864-1.14s-2.196,.446-2.864,1.14c-.334,.347-.011,.86,.529,.86Zm6.85-1.954c.41,.574,.551,1.274,.396,1.954h2.424c.54,0,.863-.513,.529-.86-.668-.693-1.699-1.14-2.864-1.14-.167,0-.324,.029-.485,.046ZM.665,12H3.089c-.156-.679-.014-1.38,.396-1.954-.161-.018-.318-.046-.485-.046-1.165,0-2.196,.446-2.864,1.14-.334,.347-.011,.86,.529,.86ZM6.638,3.518l-.392,1.239c-.127,.359,.323,.684,.629,.465l1.128-.745,1.147,.737c.31,.215,.756-.116,.623-.473l-.408-1.224,.986-.792c.298-.232,.107-.738-.268-.725h-1.25l-.443-1.224c-.119-.35-.662-.35-.781,0l-.443,1.224h-1.25c-.374-.013-.566,.491-.27,.724l.991,.795Zm5.326,.633l-.298,.942c-.096,.273,.245,.52,.478,.353l.858-.566,.872,.56c.235,.163,.575-.088,.474-.36l-.31-.931,.75-.602c.227-.176,.081-.561-.204-.551h-.951l-.336-.931c-.09-.266-.503-.266-.594,0l-.336,.931h-.951c-.284-.01-.43,.374-.205,.55l.753,.604ZM1.966,4.152l-.298,.942c-.096,.273,.245,.52,.478,.353l.858-.566,.872,.56c.235,.163,.575-.088,.474-.36l-.31-.931,.749-.602c.227-.176,.081-.561-.204-.551h-.951l-.336-.931c-.09-.266-.503-.266-.594,0l-.336,.931h-.951c-.284-.01-.43,.374-.205,.55l.753,.604Z"/>
</svg>
