<?xml version="1.0" encoding="UTF-8"?>
<svg xmlns="http://www.w3.org/2000/svg" id="Layer_1" data-name="Layer 1" viewBox="0 0 24 24">
  <path d="M23.994,17.11c-.057,.511-.49,.89-.993,.89-.036,0-.073-.002-.111-.006-1.452-.161-2.795-.654-3.95-1.426-1.033,.727-2.295,1.256-3.829,1.426-.038,.004-.075,.006-.111,.006-.503,0-.937-.378-.993-.89-.061-.549,.335-1.043,.884-1.104,.965-.107,1.782-.393,2.476-.789-.474-.517-.891-1.098-1.241-1.734-.267-.484-.09-1.092,.394-1.358,.484-.267,1.093-.09,1.358,.394,.193,.35,.531,.881,1.047,1.425,1.151-1.286,1.714-2.878,1.942-3.943h-5.865c-.553,0-1-.448-1-1s.447-1,1-1h3v-1c0-.552,.447-1,1-1s1,.448,1,1v1h3c.553,0,1,.448,1,1s-.447,1-1,1h-.096c-.242,1.431-.974,3.478-2.419,5.153,.715,.408,1.572,.737,2.626,.853,.549,.061,.944,.555,.884,1.104ZM12.615,1.212c.243,.189,.385,.48,.385,.788V22c0,.308-.142,.599-.385,.788-.178,.139-.395,.212-.615,.212-.081,0-.162-.01-.242-.03-2.053-.513-5.477-2.405-6.888-4.97h-1.37c-1.93,0-3.5-1.57-3.5-3.5v-5c0-1.93,1.57-3.5,3.5-3.5h1.37C6.281,3.435,9.705,1.543,11.758,1.03c.297-.076,.613-.008,.857,.182Zm-1.615,2.195c-1.769,.774-3.898,2.281-4.571,3.964-.152,.379-.52,.628-.929,.628H3.5c-.827,0-1.5,.673-1.5,1.5v5c0,.827,.673,1.5,1.5,1.5h2c.409,0,.776,.249,.929,.628,.673,1.684,2.803,3.19,4.571,3.964V3.407Z"/>
</svg>
