<?xml version="1.0" encoding="UTF-8"?>
<svg xmlns="http://www.w3.org/2000/svg" id="Layer_1" data-name="Layer 1" viewBox="0 0 24 24">
  <path d="M12,10c-3.86,0-7,3.14-7,7s3.14,7,7,7,7-3.14,7-7-3.14-7-7-7Zm0,12c-2.757,0-5-2.243-5-5s2.243-5,5-5,5,2.243,5,5-2.243,5-5,5Zm2.707-6.293l-1.293,1.293,1.293,1.293c.391,.391,.391,1.023,0,1.414-.195,.195-.451,.293-.707,.293s-.512-.098-.707-.293l-1.293-1.293-1.293,1.293c-.195,.195-.451,.293-.707,.293s-.512-.098-.707-.293c-.391-.391-.391-1.023,0-1.414l1.293-1.293-1.293-1.293c-.391-.391-.391-1.023,0-1.414s1.023-.391,1.414,0l1.293,1.293,1.293-1.293c.391-.391,1.023-.391,1.414,0s.391,1.023,0,1.414ZM24,4V12c0,1.692-1.072,3.208-2.667,3.772-.11,.039-.223,.058-.333,.058-.412,0-.798-.257-.943-.667-.184-.521,.089-1.092,.61-1.276,.797-.282,1.333-1.04,1.333-1.886V4c0-1.103-.897-2-2-2h-5c-1.103,0-2,.897-2,2v3c0,.552-.448,1-1,1s-1-.448-1-1v-3c0-1.103-.897-2-2-2H4c-1.103,0-2,.897-2,2V12c0,.847,.536,1.604,1.333,1.886,.521,.184,.794,.755,.61,1.276-.145,.411-.531,.667-.943,.667-.11,0-.223-.019-.333-.058-1.595-.563-2.667-2.08-2.667-3.772V4C0,1.794,1.794,0,4,0h5c1.2,0,2.266,.542,3,1.382,.734-.84,1.8-1.382,3-1.382h5c2.206,0,4,1.794,4,4ZM4,5c0-.552,.448-1,1-1h3c.552,0,1,.448,1,1s-.448,1-1,1h-3c-.552,0-1-.448-1-1Zm16,0c0,.552-.448,1-1,1h-3c-.552,0-1-.448-1-1s.448-1,1-1h3c.552,0,1,.448,1,1ZM5,10c-.552,0-1-.448-1-1s.448-1,1-1h3c.552,0,1,.448,1,1s-.448,1-1,1h-3Zm15-1c0,.552-.448,1-1,1h-3c-.552,0-1-.448-1-1s.448-1,1-1h3c.552,0,1,.448,1,1Z"/>
</svg>
