<?xml version="1.0" encoding="UTF-8"?>
<svg xmlns="http://www.w3.org/2000/svg" id="Layer_1" data-name="Layer 1" viewBox="0 0 24 24">
  <path d="M15.381,17.839c.261,.486,.079,1.093-.407,1.354-.996,.535-1.997,.807-2.974,.807s-1.978-.271-2.974-.807c-.486-.262-.668-.868-.407-1.354s.867-.67,1.354-.407c.482,.26,1.226,.568,2.026,.568s1.544-.309,2.026-.568c.486-.263,1.093-.079,1.354,.407Zm-4.4-4.134c.103-.352-.237-.674-.586-.561-.389,.126-.892,.356-1.396,.356s-1.007-.23-1.396-.356c-.349-.113-.689,.209-.586,.561,.262,.892,.922,1.795,1.981,1.795s1.719-.903,1.981-1.795Zm13.019-6.806V15c0,1.597-1.258,2.895-2.833,2.983-1.59,3.657-5.172,6.017-9.167,6.017s-7.577-2.36-9.167-6.017c-1.575-.089-2.833-1.386-2.833-2.983V6.899C0,4.763,.832,2.753,2.343,1.243l.95-.95c.391-.391,1.023-.391,1.414,0s.391,1.023,0,1.414l-.95,.95c-1.133,1.133-1.757,2.64-1.757,4.243V15c0,.552,.449,1,1,1s1-.448,1-1c0,0,.012-8.043,.013-8.067,.015-.662,.239-1.32,.688-1.856l2.661-2.771c.383-.399,1.017-.41,1.414-.028,.398,.383,.411,1.016,.028,1.414l-2.616,2.721c-.13,.157-.191,.369-.188,.586,.013,.221,.095,.49,.254,.669,.366,.409,.998,.443,1.406,.077l2.725-2.507c1.026-.944,1.615-2.285,1.615-3.68v-.559c0-.552,.448-1,1-1s1,.448,1,1v.559c0,1.152-.294,2.275-.824,3.276l3.173,2.92c.398,.357,1.03,.323,1.397-.086,.328-.367,.337-.928,.021-1.305l-2.487-2.584c-.383-.398-.371-1.031,.028-1.414,.398-.382,1.031-.371,1.414,.028l2.533,2.634c.46,.547,.693,1.2,.723,1.854,.005,.04,.024,8.118,.024,8.118,0,.552,.449,1,1,1s1-.448,1-1V6.899c0-1.603-.624-3.109-1.757-4.243l-.95-.95c-.391-.391-.391-1.023,0-1.414s1.023-.391,1.414,0l.95,.95c1.511,1.511,2.343,3.52,2.343,5.657Zm-4.777,10.504c-.738-.547-1.223-1.417-1.223-2.404v-5.186c-.323,.114-.658,.185-.998,.185-.712,0-1.427-.251-1.998-.763l-3.018-2.777c-.082,.084-.16,.172-.247,.252l-2.734,2.516c-.577,.517-1.296,.771-2.011,.771-.339,0-.673-.071-.994-.184v5.187c0,.987-.485,1.857-1.223,2.404,1.319,2.797,4.109,4.596,7.223,4.596s5.904-1.799,7.223-4.596Zm-2.827-4.259c-.389,.126-.892,.356-1.396,.356s-1.007-.23-1.396-.356c-.349-.113-.689,.209-.586,.561,.262,.892,.922,1.795,1.981,1.795s1.719-.903,1.981-1.795c.103-.352-.237-.674-.586-.561Z"/>
</svg>
