<?xml version="1.0" encoding="UTF-8"?>
<svg xmlns="http://www.w3.org/2000/svg" id="Layer_1" data-name="Layer 1" viewBox="0 0 24 24">
  <path d="M24,20c0,1.654-1.346,3-3,3,0,.553-.447,1-1,1s-1-.447-1-1h-.268c-1.067,0-2.063-.574-2.598-1.499-.277-.479-.113-1.09,.364-1.366,.48-.279,1.091-.113,1.366,.364,.179,.31,.511,.501,.867,.501h2.268c.552,0,1-.448,1-1,0-.379-.271-.698-.645-.761l-3.04-.506c-1.342-.224-2.315-1.374-2.315-2.733,0-1.654,1.346-3,3-3,0-.552,.447-1,1-1s1,.448,1,1h.268c1.067,0,2.063,.574,2.598,1.499,.277,.479,.113,1.09-.364,1.366-.481,.278-1.091,.112-1.366-.364-.179-.31-.511-.501-.867-.501h-2.268c-.552,0-1,.448-1,1,0,.379,.271,.698,.645,.761l3.04,.506c1.342,.224,2.315,1.374,2.315,2.733Zm-9.017,2.638c.1,.543-.26,1.064-.803,1.164-.716,.132-1.449,.198-2.181,.198h0s0,0,0,0c-6.616,0-11.999-5.383-11.999-12C-.004,5.361,5.43-.033,12.06,.003c5.767,.029,10.701,4.146,11.742,9.817,.1,.543-.26,1.064-.803,1.164-.548,.104-1.063-.26-1.164-.803-.074-.405-.181-.796-.301-1.181h-4.784s-.002,0-.003,0c-.001,0-.002,0-.003,0H7.972c-.292,.953-.472,1.961-.472,3s.179,2.048,.47,3h5.03c.553,0,1,.447,1,1s-.447,1-1,1h-4.227c1.212,2.468,2.941,4.319,3.611,4.983,.482-.018,.964-.061,1.436-.148,.542-.105,1.063,.26,1.164,.803ZM5.5,12c0-1.042,.157-2.044,.403-3H2.461c-.299,.948-.461,1.955-.461,3s.163,2.052,.461,3h3.442c-.246-.956-.403-1.958-.403-3Zm3.278-5h6.452c-1.022-2.08-2.414-3.722-3.229-4.586-.812,.862-2.199,2.503-3.223,4.586ZM14.594,2.341c.943,1.169,2.038,2.772,2.831,4.659h3.238c-1.318-2.283-3.5-3.971-6.068-4.659ZM3.353,7h3.225c.787-1.875,1.87-3.475,2.811-4.642-2.57,.697-4.728,2.389-6.036,4.642Zm6.036,14.642c-.94-1.167-2.024-2.767-2.811-4.642H3.353c1.308,2.253,3.466,3.945,6.035,4.642Z"/>
</svg>
