<?xml version="1.0" encoding="UTF-8"?>
<svg xmlns="http://www.w3.org/2000/svg" id="Layer_1" data-name="Layer 1" viewBox="0 0 24 24">
  <path d="M16,12c2.206,0,4,1.794,4,4s-1.794,4-4,4-4-1.794-4-4,1.794-4,4-4Zm3.429-3.229c-.496-.238-1.096-.024-1.332,.474-.237,.499-.024,1.096,.475,1.333,2.083,.989,3.429,3.118,3.429,5.423,0,3.309-2.691,6-6,6H8c-3.309,0-6-2.691-6-6,0-2.305,1.346-4.434,3.429-5.423,.499-.237,.711-.833,.474-1.333-.237-.499-.834-.712-1.333-.474C1.794,10.089,0,12.927,0,16c0,4.411,3.589,8,8,8h8c4.411,0,8-3.589,8-8,0-3.073-1.794-5.911-4.571-7.229ZM7,5C7,2.239,9.239,0,12,0s5,2.239,5,5-2.239,5-5,5-5-2.239-5-5Zm2.048,.173c.085,1.508,1.313,2.734,2.821,2.822,.389,.023,.76-.031,1.104-.146,.359-.12,.359-.621,.006-.755-.368-.14-.707-.381-.973-.727-.615-.799-.615-1.935,0-2.733,.266-.346,.605-.587,.973-.727,.357-.136,.349-.638-.013-.758-.29-.096-.599-.148-.922-.148-1.714,0-3.093,1.438-2.995,3.173Z"/>
</svg>
