<?xml version="1.0" encoding="UTF-8"?>
<svg xmlns="http://www.w3.org/2000/svg" id="Layer_1" data-name="Layer 1" viewBox="0 0 24 24">
  <path d="M12,0C5.383,0,0,5.383,0,12s5.383,12,12,12,12-5.383,12-12S18.617,0,12,0Zm0,22c-5.514,0-10-4.486-10-10S6.486,2,12,2s10,4.486,10,10-4.486,10-10,10Zm2.337-15.056c-.447-.88-1.351-1.444-2.337-1.444-.989,.003-1.874,.573-2.306,1.437,0,0-3.396,6.394-3.404,6.413-.443,.97-.24,2.099,.525,2.884,.725,.728,1.819,.966,2.787,.561,.124-.063,1.622-.829,2.396-1.225,.932,.48,2.035,1.054,2.255,1.179,.35,.167,.728,.251,1.105,.251,.354,0,.71-.073,1.042-.22,.632-.279,1.116-.788,1.365-1.432,.248-.645,.23-1.349-.047-1.975-.626-1.447-3.286-6.256-3.383-6.429Zm1.563,7.685c-.057,.145-.165,.259-.307,.321-.152,.067-.327,.068-.399,.036-.297-.175-2.332-1.222-2.737-1.43-.144-.074-.3-.11-.457-.11-.156,0-.312,.037-.455,.11,0,0-2.677,1.37-2.777,1.423-.106,.045-.353,.026-.527-.148-.177-.182-.229-.436-.132-.649,.183-.339,.839-1.575,3.363-6.327,.151-.302,.428-.336,.54-.336,.135,.018,.39,.03,.559,.363,.027,.049,2.727,4.927,3.317,6.292,.064,.146,.068,.308,.013,.455Z"/>
</svg>
