<?xml version="1.0" encoding="UTF-8"?>
<svg xmlns="http://www.w3.org/2000/svg" id="Layer_1" data-name="Layer 1" viewBox="0 0 24 24">
  <path d="M23,7v9c0,2.757-2.243,5-5,5H8.775l-4.479,2.67c-.634,.423-1.485,.444-2.163,.078-.7-.374-1.134-1.1-1.134-1.894V7c0-1.779,.958-3.439,2.5-4.33,.478-.278,1.089-.113,1.366,.364,.276,.479,.113,1.09-.365,1.366-.925,.535-1.5,1.531-1.5,2.6v14.854c-.038,.084,.18,.203,.23,.124l4.757-2.838c.155-.092,.332-.141,.512-.141h9.5c1.654,0,3-1.346,3-3V7c0-1.068-.575-2.064-1.5-2.6-.478-.276-.642-.888-.365-1.366,.277-.478,.888-.643,1.366-.364,1.542,.891,2.5,2.551,2.5,4.33ZM6.565,4.642C6.907,2.404,8.615,.589,10.815,.125c1.658-.353,3.353,.052,4.647,1.102,1.295,1.05,2.038,2.607,2.038,4.273,0,1.898-.967,3.635-2.587,4.646-.254,.158-.413,.469-.413,.808,0,1.148-.897,2.046-2,2.046h-1c-1.103,0-2-.897-2-2,0-.386-.153-.692-.399-.845-1.874-1.163-2.869-3.326-2.535-5.514Zm3.588,3.813c.347,.215,.624,.52,.846,.863v-2.425c-.4-.212-.734-.532-.935-.939-.218-.44,.143-.954,.634-.954h2.602c.491,0,.852,.514,.634,.954-.201,.407-.535,.727-.935,.939v2.434c.224-.349,.503-.658,.854-.877,1.031-.643,1.646-1.746,1.646-2.949,.042-1.874-1.623-3.542-3.492-3.501-1.677-.038-3.22,1.27-3.465,2.944-.216,1.416,.401,2.761,1.611,3.512Z"/>
</svg>
