<?xml version="1.0" encoding="UTF-8"?>
<svg xmlns="http://www.w3.org/2000/svg" id="Layer_1" data-name="Layer 1" viewBox="0 0 24 24">
  <path d="m21.002,15.519c-.164-.041-1.661-.354-2.28-.502-.485-1.243-1.571-2.207-2.938-2.48l-1.785-.357v-3.18c0-1.474-.81-2.75-2-3.444V1c0-.553-.448-1-1-1s-1,.447-1,1v4h-6V1c0-.553-.448-1-1-1s-1,.447-1,1v4.556c-1.19.694-2,1.97-2,3.444v8c0,3.859,3.14,7,7,7h8c1.474,0,2.75-.81,3.444-2h2.274c1.797,0,3.27-1.457,3.282-3.249.011-1.552-1.109-2.76-2.998-3.232ZM2,9c0-1.103.897-2,2-2h1.803l-3.803,3.479v-1.479Zm0,7.729v-3.539s6.713-6.164,6.736-6.191h1.264c.692,0,1.303.354,1.662.89L2,16.729Zm.443,2.306l9.557-8.744v3.229l-7.918,7.521c-.708-.513-1.278-1.201-1.639-2.007Zm4.557,2.965c-.316,0-.623-.037-.924-.093l2.714-2.578,2.877,2.671h-4.667Zm8,0h-.395l-4.363-4.051,1.867-1.774,4.576,4.183c.072.066.157.107.241.148-.226.857-1,1.494-1.927,1.494Zm2-4.066l-3.436-3.14.575-.546,1.254.25c.931.187,1.607,1.011,1.607,1.961v1.475Zm3.718,2.066h-1.718v-2.867c.332.073,1.372.289,1.518.325.679.171,1.488.53,1.482,1.279-.005.685-.592,1.263-1.282,1.263Z"/>
</svg>
