<?xml version="1.0" encoding="UTF-8"?>
<svg xmlns="http://www.w3.org/2000/svg" id="Layer_1" data-name="Layer 1" viewBox="0 0 24 24">
  <path d="M18,2V1c0-.552-.447-1-1-1s-1,.448-1,1v1H8V1c0-.552-.448-1-1-1s-1,.448-1,1v1C2.691,2,0,4.691,0,8v10c0,3.309,2.691,6,6,6h12c3.309,0,6-2.691,6-6V8c0-3.309-2.691-6-6-6ZM6,4h12c2.206,0,4,1.794,4,4H2c0-2.206,1.794-4,4-4Zm12,18H6c-2.206,0-4-1.794-4-4V10H22v8c0,2.206-1.794,4-4,4ZM7,14c0-.553,.448-1,1-1h5.586l-.293-.293c-.391-.391-.391-1.023,0-1.414s1.023-.391,1.414,0l2,2c.286,.286,.372,.716,.217,1.09-.154,.374-.52,.617-.924,.617H8c-.552,0-1-.447-1-1Zm10,4c0,.553-.447,1-1,1h-5.586l.293,.293c.391,.391,.391,1.023,0,1.414-.195,.195-.451,.293-.707,.293s-.512-.098-.707-.293l-2-2c-.286-.286-.372-.716-.217-1.09s.52-.617,.924-.617h8c.553,0,1,.447,1,1Z"/>
</svg>
