<?xml version="1.0" encoding="UTF-8"?>
<svg xmlns="http://www.w3.org/2000/svg" id="Layer_1" data-name="Layer 1" viewBox="0 0 24 24">
  <path d="M17.501,11c1.335,0,2.591-.521,3.535-1.465l1.268-1.267c.975-.975,.975-2.562,0-3.536l-1.269-1.268c-.944-.944-2.2-1.465-3.535-1.465h-4.5V1c0-.553-.447-1-1-1s-1,.447-1,1v1H6c-2.206,0-4,1.794-4,4v1c0,2.206,1.794,4,4,4h5v2H6.5c-1.335,0-2.591,.521-3.535,1.465l-1.269,1.268c-.975,.975-.975,2.562,0,3.536l1.268,1.267c.944,.944,2.2,1.465,3.535,1.465h4.501v1c0,.553,.447,1,1,1s1-.447,1-1v-1h5c2.206,0,4-1.794,4-4v-1c0-2.206-1.794-4-4-4h-5v-2h4.501Zm-2.577,6.489l-1.867,1.963h0c-.751,.746-2.075,.733-2.827-.015l-1.187-1.24c-.369-.388-.367-.997,.004-1.382,.394-.41,1.051-.408,1.443,.003l1.161,1.211,1.837-1.932c.392-.404,1.039-.405,1.432-.003,.379,.387,.38,1.006,.003,1.395Zm-10.546,1.632l-1.268-1.267c-.195-.195-.195-.513,0-.708l1.269-1.268c.559-.559,1.332-.879,2.121-.879h1.194c-.43,.738-.694,1.584-.694,2.5s.271,1.765,.708,2.5h-1.209c-.789,0-1.562-.32-2.121-.879Zm15.622-2.121v1c0,1.103-.897,2-2,2h-1.708c.438-.735,.708-1.58,.708-2.5s-.264-1.762-.694-2.5h1.694c1.103,0,2,.897,2,2Zm-3.689-13h1.189c.789,0,1.562,.32,2.121,.879l1.269,1.268c.195,.195,.195,.513,0,.708l-1.268,1.267c-.559,.559-1.332,.879-2.121,.879h-1.202c.435-.736,.701-1.582,.701-2.5s-.256-1.765-.689-2.5ZM6,9c-1.103,0-2-.897-2-2v-1c0-1.103,.897-2,2-2h1.689c-.433,.735-.689,1.584-.689,2.5s.266,1.764,.701,2.5h-1.701Zm3.793-.292c-.391-.391-.391-1.023,0-1.414l.793-.793-.793-.793c-.391-.391-.391-1.023,0-1.414s1.023-.391,1.414,0l.793,.793,.793-.793c.391-.391,1.023-.391,1.414,0s.391,1.023,0,1.414l-.793,.793,.793,.793c.391,.391,.391,1.023,0,1.414s-1.023,.391-1.414,0l-.793-.793-.793,.793c-.391,.391-1.023,.391-1.414,0Z"/>
</svg>
