<?xml version="1.0" encoding="UTF-8"?>
<svg xmlns="http://www.w3.org/2000/svg" id="Layer_1" data-name="Layer 1" viewBox="0 0 24 24">
  <path d="M12,12h0c-3.314,0-6,2.686-6,6h0c0,3.314,2.686,6,6,6h0c3.314,0,6-2.686,6-6h0c0-3.314-2.686-6-6-6Zm4,6c0,.74-.215,1.424-.567,2.019l-5.453-5.452c.595-.351,1.28-.567,2.019-.567,2.206,0,4,1.794,4,4Zm-8,0c0-.74,.215-1.424,.567-2.019l5.453,5.452c-.595,.351-1.28,.567-2.019,.567-2.206,0-4-1.794-4-4Zm13.423,.374c-.154,.086-.32,.126-.484,.126-.352,0-.693-.186-.875-.515-.268-.483-.094-1.092,.389-1.359,1.045-.58,1.647-1.728,1.534-2.924-.149-1.565-1.405-2.702-2.986-2.702v1c0,.553-.448,1-1,1s-1-.447-1-1v-1c0-1.103,.897-2,2-2,0-3.859-3.14-7-7-7s-7,3.141-7,7c1.103,0,2,.897,2,2v1c0,.553-.448,1-1,1s-1-.447-1-1v-1c-1.581,0-2.836,1.137-2.985,2.702-.114,1.196,.488,2.344,1.533,2.924,.483,.268,.657,.876,.389,1.359-.183,.329-.524,.515-.875,.515-.164,0-.331-.04-.484-.126C.836,17.408-.166,15.5,.023,13.513c.178-1.865,1.357-3.385,2.977-4.088v-.425C3,4.037,7.038,0,12,0s9,4.037,9,9v.425c1.619,.702,2.799,2.222,2.977,4.088,.189,1.987-.813,3.896-2.554,4.861Z"/>
</svg>
