<?xml version="1.0" encoding="UTF-8"?>
<svg xmlns="http://www.w3.org/2000/svg" id="Layer_1" data-name="Layer 1" viewBox="0 0 24 24">
  <path d="m17.772,7.649l2.82-2.826c.282.11.587.176.908.176,1.381,0,2.5-1.119,2.5-2.5s-1.119-2.5-2.5-2.5-2.5,1.119-2.5,2.5c0,.322.066.627.177.91l-2.815,2.82-2.917-2.939c-.39-.393-1.024-.395-1.414-.005-.393.389-.395,1.022-.006,1.414l2.924,2.945-5.231,5.241-4.133-4.159.796-.796c.391-.391.391-1.023,0-1.414s-1.023-.391-1.414,0l-3,3c-.391.391-.391,1.023,0,1.414.195.195.451.293.707.293s.512-.098.707-.293l.79-.79,2.283,2.297-4.374,4.388c-.665.661-1.031,1.541-1.033,2.478,0,.627.176,1.223.483,1.752l-1.237,1.237c-.391.391-.391,1.023,0,1.414.195.195.451.293.707.293s.512-.098.707-.293l1.223-1.223c.554.335,1.178.512,1.807.512.895,0,1.789-.339,2.472-1.017l4.369-4.385,3.005,3.024c.849.854,1.979,1.325,3.184,1.327h.008c1.201,0,2.331-.468,3.182-1.318l1.697-1.698c1.748-1.748,1.754-4.598.012-6.353l-4.892-4.929Zm-1.413,1.416l2.129,2.145-5.234,5.234-2.125-2.139,5.23-5.24Zm-10.563,11.499c-.583.582-1.534.579-2.119-.004l-.189-.189c-.284-.284-.439-.661-.439-1.063,0-.402.158-.779.446-1.065l4.37-4.385,2.304,2.319-4.373,4.388Zm15.443-3.047l-1.697,1.698c-.473.472-1.101.732-1.768.732h-.005c-.669,0-1.297-.263-1.769-.737l-1.337-1.346,5.234-5.234,1.348,1.358c.968.975.965,2.558-.006,3.529Z"/>
</svg>
