<?xml version="1.0" encoding="UTF-8"?>
<svg xmlns="http://www.w3.org/2000/svg" id="Layer_1" data-name="Layer 1" viewBox="0 0 24 24">
  <path d="M1,9.5c0-1.381,1.119-2.5,2.5-2.5s2.5,1.119,2.5,2.5-1.119,2.5-2.5,2.5-2.5-1.119-2.5-2.5Zm19.5,2.5c1.381,0,2.5-1.119,2.5-2.5s-1.119-2.5-2.5-2.5-2.5,1.119-2.5,2.5,1.119,2.5,2.5,2.5Zm3.5,4.107v5.893c0,1.103-.897,2-2,2h-2c-1.103,0-2-.897-2-2v-4.918l-.876,.7c-.177,.142-.397,.219-.624,.219h-2.5c-.553,0-1-.448-1-1s.447-1,1-1h2.149s3.013-2.371,3.08-2.403c.649-.477,1.458-.689,2.266-.557,1.428,.232,2.504,1.551,2.504,3.066Zm-2,0c0-.537-.362-1.017-.825-1.093-.592-.117-1.189,.381-1.175,.986v6h2v-5.893Zm-8,3.893h-4c-1.103,0-2,.897-2,2v1c0,.552,.447,1,1,1s1-.448,1-1v-1h4v1c0,.552,.447,1,1,1s1-.448,1-1v-1c0-1.103-.897-2-2-2Zm-4-2h-2.5c-.227,0-.447-.077-.624-.219l-.876-.7v4.918c0,1.103-.897,2-2,2H2c-1.103,0-2-.897-2-2v-5.893c0-1.516,1.076-2.834,2.503-3.066,.776-.129,1.549,.064,2.184,.5,.081,.035,3.164,2.46,3.164,2.46h2.149c.553,0,1,.448,1,1s-.447,1-1,1Zm-6-2c.014-.606-.583-1.103-1.176-.986-.462,.076-.824,.556-.824,1.093v5.893h2v-6ZM8.049,7.367c.257-1.653,1.584-3.011,3.227-3.302h0c1.178-.209,2.383,.105,3.293,.869,.91,.762,1.432,1.88,1.432,3.066,0,1.413-.76,2.734-1.983,3.447-.323,.188-.517,.513-.517,.867v.686c0,.552-.447,1-1,1h-1c-.553,0-1-.448-1-1v-.682c0-.349-.216-.689-.578-.909-1.387-.842-2.122-2.429-1.873-4.043Zm2.911,2.333c.427,.259,.776,.594,1.034,.979,.255-.387,.601-.718,1.015-.96,.621-.361,.991-1.004,.991-1.719,.023-1.22-1.167-2.218-2.375-1.966-.802,.142-1.474,.832-1.6,1.64-.127,.822,.23,1.6,.935,2.027Zm1.04-6.7c.553,0,1-.448,1-1V1c0-.552-.447-1-1-1s-1,.448-1,1v1c0,.552,.447,1,1,1Zm4,1c.256,0,.512-.098,.707-.293l.7-.7c.391-.391,.391-1.023,0-1.414s-1.023-.391-1.414,0l-.7,.7c-.391,.391-.391,1.023,0,1.414,.195,.195,.451,.293,.707,.293Zm-8.707-.293c.391,.391,1.023,.391,1.414,0s.391-1.023,0-1.414l-.7-.7c-.391-.391-1.023-.391-1.414,0s-.391,1.023,0,1.414l.7,.7Z"/>
</svg>
