<?xml version="1.0" encoding="UTF-8"?>
<svg xmlns="http://www.w3.org/2000/svg" id="Layer_1" data-name="Layer 1" viewBox="0 0 24 24">
  <path d="M18,17c0,.552-.447,1-1,1h-3c-.553,0-1-.448-1-1s.447-1,1-1h3c.553,0,1,.448,1,1Zm-1-4h-3c-.553,0-1,.448-1,1s.447,1,1,1h3c.553,0,1-.448,1-1s-.447-1-1-1Zm0-5h-3c-.553,0-1,.448-1,1s.447,1,1,1h3c.553,0,1-.448,1-1s-.447-1-1-1Zm-7,0h-1v-1c0-.552-.447-1-1-1s-1,.448-1,1v1h-1c-.553,0-1,.448-1,1s.447,1,1,1h1v1c0,.552,.447,1,1,1s1-.448,1-1v-1h1c.553,0,1-.448,1-1s-.447-1-1-1Zm.207,5.293c-.391-.391-1.023-.391-1.414,0l-.793,.793-.793-.793c-.391-.391-1.023-.391-1.414,0s-.391,1.023,0,1.414l.793,.793-.793,.793c-.391,.391-.391,1.023,0,1.414,.195,.195,.451,.293,.707,.293s.512-.098,.707-.293l.793-.793,.793,.793c.195,.195,.451,.293,.707,.293s.512-.098,.707-.293c.391-.391,.391-1.023,0-1.414l-.793-.793,.793-.793c.391-.391,.391-1.023,0-1.414Zm13.793-5.293v10c0,2.757-2.243,5-5,5H5c-2.757,0-5-2.243-5-5V6C0,3.243,2.243,1,5,1h2.528c.463,0,.927,.109,1.341,.316l3.156,1.578c.138,.069,.292,.105,.446,.105h6.528c2.757,0,5,2.243,5,5Zm-2,0c0-1.654-1.346-3-3-3h-6.528c-.463,0-.927-.109-1.341-.316l-3.156-1.578c-.138-.069-.292-.105-.446-.105h-2.528c-1.654,0-3,1.346-3,3v12c0,1.654,1.346,3,3,3h14c1.654,0,3-1.346,3-3V8Z"/>
</svg>
