<?xml version="1.0" encoding="UTF-8"?>
<svg xmlns="http://www.w3.org/2000/svg" id="Layer_1" data-name="Layer 1" viewBox="0 0 24 24">
  <path d="M24,16.229c0-1.057-.397-2.063-1.108-2.842,.017-.139,.024-.273,.024-.408,0-2.194-1.785-3.979-3.979-3.979-.892,0-1.747,.302-2.438,.839-.69-.537-1.545-.839-2.438-.839-2.194,0-3.979,1.785-3.979,3.979,0,.135,.008,.271,.024,.408-.71,.778-1.108,1.785-1.108,2.842,0,1.08,.41,2.1,1.142,2.881-.039,.218-.058,.429-.058,.64,0,2.344,1.907,4.25,4.25,4.25,.766,0,1.512-.211,2.167-.604,.654,.394,1.401,.604,2.167,.604,2.343,0,4.25-1.906,4.25-4.25,0-.211-.019-.422-.058-.64,.732-.781,1.142-1.801,1.142-2.881Zm-11.917,3.521c0-.193,.039-.396,.125-.656,.132-.4-.001-.842-.334-1.102-.555-.434-.874-1.076-.874-1.763,0-.662,.302-1.291,.829-1.726,.306-.251,.426-.668,.324-1.045-.047-.188-.069-.34-.069-.479,0-1.092,.888-1.979,1.979-1.979,.551,0,1.065,.244,1.438,.646v10.017c-.353,.219-.755,.338-1.167,.338-1.241,0-2.25-1.01-2.25-2.25Zm9.042-1.758c-.333,.26-.466,.701-.334,1.102,.086,.261,.125,.463,.125,.656,0,1.24-1.009,2.25-2.25,2.25-.411,0-.814-.118-1.167-.338V11.646c.373-.402,.887-.646,1.438-.646,1.091,0,1.979,.888,1.979,1.979,0,.131-.02,.273-.061,.445-.002,.007-.004,.014-.006,.021-.116,.386,.011,.803,.322,1.059,.527,.435,.829,1.063,.829,1.726,0,.687-.319,1.329-.874,1.763ZM2.48,3.194c-1.887,2.832,2.331,7.451,5.121,9.734,.427,.35,.49,.979,.141,1.407-.198,.241-.485,.366-.774,.366-.223,0-.447-.074-.633-.227C2.025,10.949-1.687,5.843,.816,2.086c.44-.661,1.059-1.196,1.789-1.548,1.627-.783,3.38-.714,4.809,.184,.422,.265,.783,.593,1.086,.959,.304-.366,.664-.694,1.086-.959,1.431-.897,3.184-.965,4.809-.184,.729,.352,1.348,.887,1.789,1.549,.797,1.195,1.012,2.59,.64,4.146-.11,.459-.52,.768-.972,.768-.077,0-.155-.009-.234-.027-.537-.129-.868-.668-.74-1.205,.241-1.007,.124-1.849-.359-2.572-.246-.369-.579-.656-.992-.854-.993-.478-2.041-.452-2.877,.074-.721,.453-1.151,1.194-1.151,1.982,0,.553-.448,1-1,1s-1-.447-1-1c0-.788-.43-1.529-1.151-1.982-.835-.526-1.884-.554-2.877-.074-.413,.198-.746,.485-.991,.854Z"/>
</svg>
