<?xml version="1.0" encoding="UTF-8"?>
<svg xmlns="http://www.w3.org/2000/svg" id="Layer_1" data-name="Layer 1" viewBox="0 0 24 24">
  <path d="m24,7v10c0,1.219-.444,2.394-1.25,3.307-.367.416-.999.453-1.411.088-.415-.366-.454-.998-.089-1.412.483-.548.75-1.252.75-1.984V7c0-1.654-1.346-3-3-3H5c-1.654,0-3,1.346-3,3v10c0,1.654,1.346,3,3,3h6c.553,0,1,.448,1,1s-.447,1-1,1h-6c-2.757,0-5-2.243-5-5V7C0,4.243,2.243,2,5,2h14c2.757,0,5,2.243,5,5Zm-18,2h12c.553,0,1-.448,1-1s-.447-1-1-1H6c-.553,0-1,.448-1,1s.447,1,1,1Zm14.5,7c0,1.255-.593,2.363-1.5,3.097v4.25c0,.623-.791.89-1.169.395l-1.331-1.743-1.331,1.743c-.378.495-1.169.228-1.169-.395v-4.25c-.907-.734-1.5-1.842-1.5-3.097,0-2.206,1.794-4,4-4s4,1.794,4,4Zm-6,0c0,1.103.897,2,2,2s2-.897,2-2-.897-2-2-2-2,.897-2,2Zm-2.5-4c0-.552-.447-1-1-1h-5c-.553,0-1,.448-1,1s.447,1,1,1h5c.553,0,1-.448,1-1Zm-6,3c-.553,0-1,.448-1,1s.447,1,1,1h3c.553,0,1-.448,1-1s-.447-1-1-1h-3Z"/>
</svg>
