<?xml version="1.0" encoding="UTF-8"?>
<svg xmlns="http://www.w3.org/2000/svg" id="Layer_1" data-name="Layer 1" viewBox="0 0 24 24">
  <path d="M19.445,19.418l-1.289,1.289c-.187,.187-.444,.293-.707,.293h-2.449v-4h1v1.006c0,.422,.179,.826,.491,1.11,.312,.283,.737,.427,1.155,.383,.771-.075,1.354-.727,1.354-1.515v-1.484c0-1.379-1.121-2.5-2.5-2.5h-3.5V7.5c0-.829-.671-1.5-1.5-1.5s-1.5,.671-1.5,1.5v6.851c-1.178,.564-2,1.758-2,3.149v3c0,1.93,1.57,3.5,3.5,3.5h6.034c1.054,0,2.085-.427,2.829-1.172l1.246-1.246c.597-.597,.597-1.567,0-2.164-.578-.578-1.586-.578-2.164,0Zm-6.445-2.418v5h-1.5c-.827,0-1.5-.673-1.5-1.5v-3c0-.827,.673-1.5,1.5-1.5h1.769c-.171,.294-.269,.636-.269,1Zm10.4-6.267c-.455,.612-1.445,1.82-2.97,3.046-.432,.346-1.062,.276-1.406-.152-.346-.431-.277-1.06,.152-1.406,1.004-.807,1.743-1.607,2.203-2.158-.789,.143-5.348,.728-5.379,.728-.248,0-.488-.092-.673-.26-.208-.189-.327-.458-.327-.74v-1.579c0-.282,.119-.551,.327-.74,.21-.189,.493-.28,.769-.255,2.659,.256,4.901,.662,5.492,.773-1.804-2.791-3.96-4.793-5.423-5.748-.241-.157-.484-.237-.724-.237h-.008c-.272,.002-.651,.059-.912,.319l-1.099,1.099c-.76,.76-2.086,.76-2.846,0l-1.099-1.099c-.429-.429-1.197-.376-1.585-.121-1.476,.964-3.689,3.101-5.457,5.771,.53-.099,2.257-.409,4.453-.655,.28-.035,.566,.059,.778,.248,.212,.19,.333,.461,.333,.746v1.376c0,.285-.121,.556-.333,.746-.184,.165-.422,.254-.667,.254-.037,0-3.71-.505-4.389-.629,.676,.81,2.004,2.215,3.899,3.337,.475,.281,.632,.895,.351,1.37-.187,.315-.52,.49-.861,.49-.173,0-.349-.045-.509-.14-2.64-1.563-4.298-3.578-4.889-4.372-.754-1.013-.807-2.357-.134-3.424C2.569,3.987,5.192,1.578,6.799,.528c.529-.345,1.184-.528,1.893-.528,.832,0,1.613,.323,2.2,.909l1.1,1.1,1.116-1.099C13.692,.324,14.492,.011,15.419,.004c.616-.024,1.259,.184,1.839,.562,1.713,1.119,4.265,3.483,6.289,6.764,.656,1.064,.599,2.4-.146,3.404Z"/>
</svg>
