<?xml version="1.0" encoding="UTF-8"?>
<svg xmlns="http://www.w3.org/2000/svg" id="Layer_1" data-name="Layer 1" viewBox="0 0 24 24">
  <path d="M20.439,22.656c.189,.519-.077,1.093-.596,1.283-.113,.042-.229,.062-.344,.062-.408,0-.791-.251-.939-.657L12,5.411l-3.508,9.589h4.508c.553,0,1,.448,1,1s-.447,1-1,1H7.76l-1.097,3H15c.553,0,1,.448,1,1s-.447,1-1,1H5.931l-.492,1.344c-.19,.519-.766,.784-1.283,.595-.519-.189-.785-.764-.596-1.283L10.597,3.423c-.368-.363-.597-.866-.597-1.423,0-1.105,.895-2,2-2s2,.895,2,2c0,.557-.229,1.061-.597,1.423l7.036,19.233ZM6.804,6c.745,.019,1.26-.86,.864-1.501-.437-.755-.668-1.619-.668-2.499,0-.281,.023-.561,.069-.834,.092-.545-.275-1.061-.82-1.152-.556-.091-1.062,.276-1.152,.82-.064,.382-.097,.774-.097,1.166,0,1.231,.324,2.442,.938,3.501,.186,.32,.521,.499,.866,.499Zm9.893-.135c.47,.274,1.088,.118,1.366-.364,.613-1.059,.938-2.27,.938-3.501,0-.392-.032-.784-.097-1.166-.092-.544-.6-.912-1.152-.82-.545,.092-.912,.607-.82,1.152,.046,.273,.069,.553,.069,.834,0,.88-.231,1.744-.668,2.499-.277,.478-.113,1.09,.364,1.366Zm1.153,2.974c-.42,.359-.469,.991-.109,1.41,.361,.421,.992,.467,1.41,.109,2.446-2.094,3.85-5.141,3.85-8.359,0-.371-.019-.738-.055-1.101-.055-.549-.534-.947-1.096-.895-.549,.056-.95,.546-.895,1.096,.03,.296,.045,.596,.045,.899,0,2.633-1.148,5.126-3.15,6.839Zm-13,1.52c.418,.357,1.049,.312,1.41-.109,.359-.419,.311-1.051-.109-1.41-2.002-1.713-3.15-4.207-3.15-6.839,0-.304,.015-.604,.045-.899C3.101,.551,2.699,.061,2.15,.005c-.553-.053-1.041,.346-1.096,.895-.036,.362-.055,.729-.055,1.101,0,3.218,1.403,6.265,3.85,8.359Z"/>
</svg>
