<?xml version="1.0" encoding="UTF-8"?>
<svg xmlns="http://www.w3.org/2000/svg" id="Layer_1" data-name="Layer 1" viewBox="0 0 24 24">
  <path d="m8,8c0,2.206,1.794,4,4,4s4-1.794,4-4-1.794-4-4-4-4,1.794-4,4Zm6,0c0,1.103-.897,2-2,2s-2-.897-2-2,.897-2,2-2,2,.897,2,2ZM.015,9.171c-.094-.544.271-1.062.814-1.156,1.419-.246,2.706-1.203,3.441-2.56.351-.647.658-1.209.801-1.456C6.498,1.532,9.153,0,12,0s5.502,1.532,6.929,3.999c.143.247.45.808.801,1.456.735,1.356,2.021,2.313,3.441,2.56.544.094.909.612.814,1.156-.084.486-.507.829-.984.829-.057,0-.114-.005-.172-.015-2.017-.35-3.833-1.688-4.858-3.578-.338-.626-.635-1.168-.773-1.406-1.071-1.852-3.063-3.001-5.198-3.001s-4.127,1.15-5.198,3.001c-.139.239-.435.781-.773,1.406-1.025,1.891-2.841,3.229-4.858,3.578-.543.09-1.062-.271-1.156-.814Zm21.547,6.01c-.315-.24-.808-.239-1.123,0-.705.536-1.548.819-2.439.819s-1.734-.283-2.438-.819c-.315-.24-.808-.24-1.123,0-1.409,1.072-3.469,1.072-4.877,0-.315-.24-.808-.24-1.123,0-1.409,1.072-3.469,1.072-4.877,0-.315-.24-.808-.24-1.123,0-.254.193-.86.613-.86.613-.165.121-.359.207-.579.207-.552,0-1-.448-1-1,0-.332.172-.612.421-.793,0,0,.563-.432.807-.618,1.026-.781,2.518-.781,3.545,0,.706.537,1.748.537,2.455,0,1.026-.781,2.518-.781,3.545,0,.706.537,1.748.537,2.455,0,1.026-.781,2.518-.781,3.545,0,.706.537,1.748.537,2.455,0,1.026-.781,2.518-.781,3.545,0,.244.186.806.618.806.618.249.182.421.462.421.793,0,.552-.448,1-1,1-.221,0-.414-.086-.579-.207,0,0-.606-.419-.859-.613ZM3,19.5c0,.828-.672,1.5-1.5,1.5s-1.5-.672-1.5-1.5.672-1.5,1.5-1.5,1.5.672,1.5,1.5Zm5,3c0,.828-.672,1.5-1.5,1.5s-1.5-.672-1.5-1.5.672-1.5,1.5-1.5,1.5.672,1.5,1.5Zm11,0c0,.828-.672,1.5-1.5,1.5s-1.5-.672-1.5-1.5.672-1.5,1.5-1.5,1.5.672,1.5,1.5Zm-5.5-3c0,.828-.672,1.5-1.5,1.5s-1.5-.672-1.5-1.5.672-1.5,1.5-1.5,1.5.672,1.5,1.5Zm10.5,0c0,.828-.672,1.5-1.5,1.5s-1.5-.672-1.5-1.5.672-1.5,1.5-1.5,1.5.672,1.5,1.5Z"/>
</svg>
