<?xml version="1.0" encoding="UTF-8"?>
<svg xmlns="http://www.w3.org/2000/svg" id="Layer_1" data-name="Layer 1" viewBox="0 0 24 24">
  <path d="M24,5v3c0,2.757-2.243,5-5,5h-4c-.553,0-1-.447-1-1s.447-1,1-1h4c1.654,0,3-1.346,3-3v-3c0-1.654-1.346-3-3-3H5c-1.654,0-3,1.346-3,3v3c0,1.067,.575,2.063,1.501,2.6,.478,.276,.642,.888,.364,1.366-.275,.478-.887,.642-1.366,.364-1.541-.892-2.499-2.551-2.499-4.33v-3C0,2.243,2.243,0,5,0h14c2.757,0,5,2.243,5,5Zm-13.9,2.2V3.8c0-.442-.358-.8-.8-.8s-.8,.358-.8,.8v3.4c0,.442,.358,.8,.8,.8s.8-.358,.8-.8Zm-4.595,1.8c.442,0,.8-.358,.8-.8v-3.601h.395c.442,0,.8-.358,.8-.8s-.358-.8-.8-.8h-2.4c-.442,0-.8,.358-.8,.8s.358,.8,.8,.8h.405v3.601c0,.442,.358,.8,.8,.8Zm6.795,0c-.442,0-.8-.358-.8-.8V3.8c0-.442,.358-.8,.8-.8h1.45c1.243,0,2.25,1.007,2.25,2.25s-1.007,2.25-2.25,2.25h-.65v.7c0,.442-.358,.8-.8,.8Zm.8-3.1h.65c.358,0,.65-.292,.65-.65s-.292-.65-.65-.65h-.65v1.3Zm5.51-1.433c.115,0,.296,.07,.486,.171,.333,.177,.741,.117,.985-.171l.028-.033c.317-.375,.217-.95-.214-1.185-.369-.202-.827-.381-1.285-.381-1.245,0-2.185,.884-2.185,2.056,0,1.283,1.117,1.817,1.933,2.208,.734,.352,1.042,.539,1.042,.792,0,.519-.664,.534-.739,.534-.242,0-.539-.124-.799-.275-.311-.18-.708-.098-.947,.17l-.028,.032c-.324,.363-.245,.94,.176,1.184,.431,.249,1.001,.489,1.599,.489,1.134,0,2.339-.748,2.339-2.134,0-1.303-1.128-1.842-1.951-2.235-.618-.296-1.023-.509-1.023-.765,0-.443,.525-.456,.585-.456Zm-1.854,14.085l-4.756-1.783v-4.661c0-1.516-1.076-2.835-2.503-3.067-1.777-.333-3.538,1.156-3.497,2.96v7.563l-1.015-.808c-.008-.006-.017-.007-.025-.013-1.211-1.052-3.048-.974-4.152,.208-1.13,1.208-1.066,3.11,.13,4.23,.328,.296,.753,.862,1.252,.818,.9,0,1.342-1.095,.694-1.72l-.568-.548c-.403-.378-.424-1.013-.046-1.416,.375-.402,1.008-.421,1.41-.048,.01,.009,1.771,1.414,1.771,1.414,.475,.38,1.112,.45,1.66,.187,.548-.265,.889-.807,.889-1.415V12c-.011-.605,.575-1.104,1.175-.985,.463,.075,.825,.555,.825,1.093v5.354c0,.417,.259,.79,.648,.937l5.405,2.026c1.11,.416,1.872,1.449,1.941,2.634,.031,.531,.472,.941,.997,.941,.02,0,.039,0,.06-.002,.551-.032,.972-.505,.939-1.057-.115-1.973-1.386-3.696-3.235-4.39Z"/>
</svg>
