<?xml version="1.0" encoding="UTF-8"?>
<svg xmlns="http://www.w3.org/2000/svg" id="Layer_1" data-name="Layer 1" viewBox="0 0 24 24">
  <path d="M13.584,17.826c.293,.293,.378,.743,.204,1.12-.665,1.441-1.275,2.44-1.839,3.003-2.604,2.716-7.295,2.716-9.898,0-2.716-2.604-2.716-7.295,0-9.899,.563-.564,1.562-1.174,3.003-1.839,.377-.174,.827-.089,1.12,.204h0c.491,.491,.337,1.323-.294,1.614-1.508,.696-2.148,1.166-2.415,1.434-1.94,1.862-1.94,5.209,0,7.071,1.862,1.94,5.209,1.94,7.07,0,.267-.267,.738-.907,1.434-2.416,.291-.63,1.123-.784,1.614-.294Zm-8.683-3.13c.552-.552,1.965-1.117,3.229-1.541,.36-.121,.757-.027,1.026,.242l1.39,1.39c.269,.269,.362,.665,.242,1.025-.424,1.264-.988,2.677-1.539,3.23-.601,.599-1.388,.898-2.175,.898s-1.574-.3-2.173-.898h0c-1.197-1.199-1.197-3.149,0-4.347Zm1.415,2.933c.418,.419,1.1,.418,1.518,0,.239-.244,.684-1.314,1.118-2.636-1.321,.435-2.392,.879-2.637,1.118-.418,.418-.418,1.1,0,1.519Zm8.487-7.069l-1.362-1.362c-.268-.268-.362-.664-.242-1.024,.425-1.276,.996-2.715,1.555-3.273,1.162-1.161,3.187-1.161,4.347,0,1.198,1.198,1.198,3.148,0,4.346-.558,.558-1.998,1.13-3.273,1.555-.36,.12-.756,.026-1.024-.242Zm.25-1.609c1.32-.435,2.389-.879,2.634-1.118,.418-.418,.418-1.099,0-1.518-.401-.417-1.119-.416-1.519,0-.252,.258-.702,1.384-1.115,2.635Zm6.897-6.9c-2.606-2.716-7.293-2.716-9.898,0-.564,.564-1.174,1.563-1.839,3.003-.174,.377-.089,.827,.204,1.12h0c.491,.491,1.323,.337,1.614-.293,.696-1.508,1.167-2.148,1.435-2.416,1.861-1.94,5.209-1.939,7.07,0,1.94,1.862,1.94,5.21,0,7.072-.267,.267-.907,.737-2.415,1.434-.63,.291-.784,1.123-.294,1.614,.293,.293,.743,.378,1.12,.204,1.441-.665,2.44-1.275,3.003-1.838,2.716-2.606,2.716-7.294,0-9.899ZM8.707,7.293c-.391-.391-1.023-.391-1.414,0s-.391,1.023,0,1.414l8,8c.391,.391,1.023,.391,1.414,0s.391-1.023,0-1.414L8.707,7.293Z"/>
</svg>
