<?xml version="1.0" encoding="UTF-8"?>
<svg xmlns="http://www.w3.org/2000/svg" id="Layer_1" data-name="Layer 1" viewBox="0 0 24 24">
  <path d="M19,2h-1V1c0-.552-.447-1-1-1s-1,.448-1,1v1H8V1c0-.552-.447-1-1-1s-1,.448-1,1v1h-1C2.243,2,0,4.243,0,7v12c0,2.757,2.243,5,5,5h14c2.757,0,5-2.243,5-5V7c0-2.757-2.243-5-5-5ZM5,4h14c1.654,0,3,1.346,3,3v1H2v-1c0-1.654,1.346-3,3-3Zm14,18H5c-1.654,0-3-1.346-3-3V10H22v9c0,1.654-1.346,3-3,3Zm-2.689-3.47c-.87,1.477-2.477,2.47-4.311,2.47-1.104,0-2.161-.37-3.018-1.018l-.816,.816c-.43,.43-1.165,.125-1.165-.483v-2.695c0-.343,.278-.62,.621-.62h2.695c.608,0,.913,.735,.483,1.165l-.374,.374c.468,.29,1.008,.461,1.575,.461,1.104,0,2.063-.603,2.581-1.495,.18-.31,.507-.505,.866-.505,.784,0,1.262,.855,.864,1.53Zm.689-6.846v2.695c0,.343-.278,.621-.621,.621h-2.695c-.608,0-.913-.735-.483-1.166l.374-.374c-.468-.29-1.008-.461-1.575-.461-1.104,0-2.063,.603-2.581,1.495-.18,.31-.507,.505-.866,.505-.784,0-1.262-.855-.864-1.53,.87-1.477,2.477-2.47,4.311-2.47,1.104,0,2.161,.37,3.018,1.018l.817-.817c.43-.43,1.165-.125,1.165,.483Z"/>
</svg>
