<?xml version="1.0" encoding="UTF-8"?>
<svg xmlns="http://www.w3.org/2000/svg" id="Layer_1" data-name="Layer 1" viewBox="0 0 24 24">
  <path d="M24,10v4c0,.553-.447,1-1,1s-1-.447-1-1v-2.586l-2.828,2.828c-.756,.756-1.172,1.761-1.172,2.829v5.929c0,.553-.447,1-1,1s-1-.447-1-1v-5.929c0-1.603,.624-3.109,1.758-4.243l2.828-2.828h-2.586c-.553,0-1-.447-1-1s.447-1,1-1h4c1.103,0,2,.897,2,2Zm-7.793-6.586L13.379,.586c-.756-.756-2.072-.756-2.829,0l-2.829,2.828c-.391,.391-.391,1.023,0,1.414s1.023,.391,1.414,0l1.864-1.864V23c0,.553,.448,1,1,1s1-.447,1-1V3.035l1.793,1.793c.391,.391,1.023,.391,1.414,0s.391-1.023,0-1.414ZM3.453,10h2.547c.552,0,1-.447,1-1s-.448-1-1-1H2.039C.936,8,.039,8.897,.039,10v4c0,.553,.448,1,1,1s1-.447,1-1v-2.586l2.828,2.828c.756,.756,1.172,1.761,1.172,2.829v5.929c0,.553,.448,1,1,1s1-.447,1-1v-5.929c0-1.602-.624-3.108-1.757-4.243l-2.828-2.828Z"/>
</svg>
