<?xml version="1.0" encoding="UTF-8"?>
<svg xmlns="http://www.w3.org/2000/svg" id="Layer_1" data-name="Layer 1" viewBox="0 0 24 24">
  <path d="M19,4h-.101c-.465-2.279-2.484-4-4.899-4H5C2.243,0,0,2.243,0,5v12.855c-.054,1.663,1.984,2.755,3.339,1.787l2.967-1.978c.69,1.937,2.523,3.336,4.694,3.336h5.697l3.963,2.642c1.356,.967,3.393-.124,3.34-1.787V9c0-2.757-2.243-5-5-5ZM2.229,17.978c-.05,.08-.268-.039-.229-.123V5c0-1.654,1.346-3,3-3H14c1.654,0,3,1.346,3,3v7c0,1.654-1.346,3-3,3H7c-.198-.001-.383,.078-.555,.168l-4.216,2.81Zm19.771,3.877c.039,.086-.183,.202-.23,.123l-4.215-2.81c-.164-.109-.357-.168-.555-.168h-6c-1.302,0-2.402-.839-2.816-2h5.816c2.757,0,5-2.243,5-5V6c1.654,0,3,1.346,3,3v12.855ZM10.088,12c.358,0,.669-.245,.753-.593l.097-.401h2.148l.08,.358c.082,.371,.412,.636,.792,.636,.521,0,.907-.483,.791-.991l-1.04-4.581c-.311-1.853-2.97-1.844-3.303-.04l-1.072,4.664c-.112,.485,.257,.948,.755,.948Zm1.881-5.272c.019-.068,.05-.122,.097-.122,.014,.01,.057,.063,.082,.176l.583,2.624h-1.407l.646-2.678Zm-5.951,5.26c-1.05-.105-1.839-.978-1.991-2.006-.018-.119-.142-.982,.8-.982,.827,0,.788,.907,.814,.978,.093,.246,.331,.422,.609,.422,.358,0,.65-.292,.65-.65v-3.95c0-.442,.358-.8,.8-.8s.8,.358,.8,.8v3.95c0,1.319-1.135,2.373-2.482,2.238Z"/>
</svg>
