<?xml version="1.0" encoding="UTF-8"?>
<svg xmlns="http://www.w3.org/2000/svg" id="Layer_1" data-name="Layer 1" viewBox="0 0 24 24">
  <path d="m23.977,6.523c.02-.436-.094-.875-.372-1.234l-2.714-3.504c-.591-.763-1.481-1.254-2.443-1.348L14.061.009c-.732-.076-1.459.303-1.822.957-.363.654-.304,1.46.151,2.053l.832,1.086-1.347,2.23c-.472.852-.404,1.909.171,2.692.501.682,1.164,1.254,1.971,1.701.808.446,1.826.71,2.669.772.902,0,1.746-.492,2.17-1.259l1.275-2.108s1.85.175,1.87.177v2.691c0,.552.447,1,1,1s1-.448,1-1c0,0-.018-4.439-.023-4.477Zm-6.852,2.717c-.096.174-.268.273-.475.259-.553-.04-1.113-.216-1.666-.521-.552-.305-.998-.687-1.327-1.135-.116-.158-.129-.365-.052-.506l.923-1.527.546.712c.593.772,1.488,1.269,2.456,1.362l.392.038-.797,1.319Zm.597-3.348c-.418-.04-.805-.254-1.061-.588l-2.512-3.277,4.105.398c.415.041.8.253,1.055.583l2.541,3.28-4.129-.396Zm1.271,7.09c-.482-.271-1.091-.103-1.363.379-.609,1.079-1.914,1.762-3.724,1.996.275-.212.548-.442.807-.705.388-.393.384-1.026-.01-1.414-.392-.387-1.026-.384-1.414.01-.221.224-.45.424-.681.596-1.007.747-1.607,1.942-1.607,3.197v3.458c0,.586.12,1.078.307,1.5h-2.602c.178-.413.295-.888.295-1.455v-3.461c0-1.253-.598-2.446-1.599-3.191-1.46-1.086-2.602-3.076-3.488-6.083-.124-.422-.042-.869.226-1.226.278-.372.703-.584,1.166-.584h.005c1.037.002,2.342,0,3.69.003.553,0,1-.448,1-1s-.448-1-1-1c-1.355,0-2.65,0-3.685-.003h-.011c-1.099,0-2.106.504-2.766,1.384-.651.868-.85,1.958-.544,2.992.068.231.142.444.213.664-1.271.367-2.208,1.527-2.208,2.914,0,2.451,1.855,5.291,7,5.482v3.109c0,1.288-1.056,1.446-1.5,1.455h-.5c-.553,0-1,.448-1,1s.447,1,1,1h10c.553,0,1-.448,1-1s-.447-1-1-1c0,0-.463.001-.536,0-.44-.009-1.464-.213-1.464-1.5v-3.06c4.085-.152,5.742-1.982,6.371-3.095.271-.481.102-1.091-.379-1.362Zm-16.992-1.028c0-.529.4-.949.91-1.018.848,1.979,1.884,3.437,3.133,4.423-2.947-.39-4.043-1.94-4.043-3.405Zm14.686-.455c.061.004-.061,0,0,0h0Z"/>
</svg>
