<?xml version="1.0" encoding="UTF-8"?>
<svg xmlns="http://www.w3.org/2000/svg" id="Layer_1" data-name="Layer 1" viewBox="0 0 24 24">
  <path d="M24.002,13c0,.553-.448,1-1,1-1.673,0-3.282-.706-4.416-1.937l-2.813-3.059c-.543-.605-.813-1.374-.769-2.173,.016-.29,.086-.566,.18-.832h-5.184c-1.654,0-3-1.346-3-3s1.346-3,3-3h9.879c1.342,0,2.667,.45,3.731,1.269,.438,.337,.52,.965,.183,1.402-.337,.437-.964,.52-1.402,.184-.716-.551-1.608-.854-2.511-.854H10c-.551,0-1,.448-1,1s.449,1,1,1c0,0,8.041,.011,8.062,.013,.663,.014,1.324,.238,1.86,.689l2.771,2.661c.398,.383,.41,1.016,.027,1.414-.382,.398-1.015,.41-1.414,.027l-2.721-2.616c-.904-.711-2.14,.627-1.332,1.474l2.804,3.048c.755,.82,1.829,1.291,2.944,1.291,.552,0,1,.447,1,1Zm-10,5h-5.184c.094-.266,.164-.542,.18-.832,.044-.799-.226-1.567-.769-2.173l-2.813-3.059c-1.133-1.23-2.743-1.937-4.416-1.937-.552,0-1,.447-1,1s.448,1,1,1c1.115,0,2.188,.471,2.944,1.291l2.804,3.048c.809,.847-.429,2.183-1.332,1.474l-2.721-2.616c-.397-.383-1.031-.37-1.414,.027-.383,.398-.371,1.031,.027,1.414l2.771,2.661c.542,.455,1.209,.682,1.879,.692,.015,0,8.043,.009,8.043,.009,.551,0,1,.448,1,1s-.449,1-1,1H4.123c-.903,0-1.795-.304-2.511-.854-.438-.337-1.066-.254-1.402,.184-.337,.438-.255,1.065,.183,1.402,1.064,.818,2.389,1.269,3.731,1.269H14.002c1.654,0,3-1.346,3-3s-1.346-3-3-3Zm-2.649-1.997c.379,.307,.915,.307,1.295,0,1.089-.882,3.171-2.779,3.171-4.403,0-1.16-.855-2.1-1.909-2.1s-1.909,.94-1.909,2.1c0-1.16-.855-2.1-1.909-2.1s-1.909,.94-1.909,2.1c0,1.624,2.082,3.521,3.171,4.403Z"/>
</svg>
