<?xml version="1.0" encoding="UTF-8"?>
<svg xmlns="http://www.w3.org/2000/svg" id="Layer_1" data-name="Layer 1" viewBox="0 0 24 24">
  <path d="M22.966,6h-1.249c-.468,0-.925,.137-1.315,.395l-2.428,1.605-.141-.141c-.501-.501-1.285-.575-1.869-.185l-.49,.326-4-1.5,.022-.042c.29-.552,.137-1.233-.362-1.607l-1.134-.851,.586-.586c.265-.265,.414-.625,.414-1,0-.781-.633-1.414-1.414-1.414h-.586l-.456-.445c-.365-.356-.855-.555-1.364-.555h-.484c-.612-.019-.93,.787-.493,1.202l1.297,1.298h-.495c-.453,0-.865,.296-.975,.735-.103,.412,.067,.83,.405,1.055l1.065,.71-3.5,3h-1.25c-.414,0-.75,.336-.75,.75,0,.162,.053,.32,.15,.45l.753,1.004c.246,.328,.012,.796-.398,.796h-.19c-.726,0-1.315,.589-1.315,1.315,0,.439,.172,.861,.478,1.176,.317,.326,.753,.509,1.207,.509h1.815c.09,.998,.302,2.009,.384,2.846,.058,.595,.241,1.166,.538,1.685l2.578,2.969,.026,1.258c.014,.69,.578,1.242,1.268,1.242,.467,0,.896-.256,1.117-.668l.744-1.384c1.949-1.692,1.846-4.051,1.846-4.051l2.5-1.897,1-2h.09c.779,0,1.41-.631,1.41-1.41v-2.59h2l-.587,.629c-.585,.433-.585,1.308,0,1.741,.248,.272,.552,.658,.963,.629,.372,0,.703-.238,.821-.592l.576-1.728c.15-.45,.224-.922,.217-1.396l-.016-1.283h1.026c.574,0,1.036-.484,.998-1.067-.034-.531-.499-.933-1.032-.933Zm-6.966,6.063c-.552,.143-1.027,.518-1.289,1.042l-.792,1.583-2.129,1.616c-.523,.397-.818,1.024-.789,1.68,0,.014,.008,1.44-1.159,2.454-.033,.028-.064,.058-.095,.088-.067-.12-.146-.233-.237-.338l-2.429-2.797c-.112-.234-.181-.482-.207-.741-.043-.442-.34-2.356-.382-2.83-.093-1.029-.954-1.818-1.987-1.82,.088-.118,.166-.245,.234-.381,.291-.582,.341-1.235,.161-1.833,.143-.072,.278-.162,.402-.268l3.5-3c.19-.163,.345-.357,.46-.572l.247,.185c-.067,.359-.036,.733,.097,1.081,.204,.536,.629,.959,1.167,1.161l4,1.5c.228,.085,.465,.127,.702,.127,.178,0,.355-.024,.527-.071,0,.023-.001,2.134-.001,2.134Z"/>
</svg>
