<?xml version="1.0" encoding="UTF-8"?>
<svg xmlns="http://www.w3.org/2000/svg" id="Layer_1" data-name="Layer 1" viewBox="0 0 24 24">
  <path d="M10.234,10.267c.973,.953,2.559,.952,3.531,0,1.466-1.369,3.383-3.056,3.234-5.267,.056-2.688-2.313-5.055-5-5-2.687-.055-5.056,2.312-5,5-.152,2.195,1.77,3.902,3.234,5.267Zm-.355-7.388c.566-.567,1.32-.879,2.121-.879,1.612-.033,3.033,1.387,3,3,.145,1.567-1.692,2.851-2.633,3.837-.203,.198-.531,.198-.734,0-.945-.989-2.775-2.276-2.633-3.837,0-.802,.312-1.555,.879-2.121Zm.621,2.121c0-.828,.672-1.5,1.5-1.5s1.5,.672,1.5,1.5-.672,1.5-1.5,1.5-1.5-.672-1.5-1.5Zm1.5,8c.553,0,1,.447,1,1v2c0,.553-.447,1-1,1s-1-.447-1-1v-2c0-.553,.447-1,1-1Zm10.828,9.215c-.952,1.135-2.348,1.785-3.829,1.785H5.001c-1.48,0-2.875-.65-3.827-1.783C.221,21.083-.18,19.597,.075,18.139L1.476,10.138c.304-1.739,1.521-3.204,3.174-3.822,.521-.194,1.094,.069,1.287,.586s-.069,1.093-.586,1.287c-.992,.371-1.723,1.25-1.904,2.293l-1.4,8.001c-.153,.874,.087,1.767,.658,2.446,.572,.681,1.409,1.07,2.297,1.07h5.999v-2c0-.553,.447-1,1-1s1,.447,1,1v2h5.999c.889,0,1.727-.391,2.298-1.071s.811-1.573,.656-2.449l-1.407-7.999c-.183-1.04-.91-1.917-1.898-2.289-.517-.195-.778-.771-.583-1.288,.194-.518,.771-.777,1.288-.584,1.646,.62,2.858,2.082,3.164,3.814l1.407,8c.256,1.459-.143,2.946-1.096,4.081Z"/>
</svg>
