<?xml version="1.0" encoding="UTF-8"?>
<svg xmlns="http://www.w3.org/2000/svg" id="Layer_1" data-name="Layer 1" viewBox="0 0 24 24">
  <path d="M8.318,21.933c.313,.455,.198,1.078-.256,1.391-.652,.449-1.346,.676-2.062,.676-3.42,0-6-5.159-6-12S2.58,0,6,0c.716,0,1.41,.228,2.062,.676,.455,.313,.569,.936,.256,1.391-.314,.454-.936,.569-1.391,.256-.316-.218-.619-.324-.927-.324-1.888,0-4,4.276-4,10s2.112,10,4,10c.308,0,.611-.106,.927-.324,.455-.313,1.077-.198,1.391,.256Zm15.024-4.688c-.733,1.099-1.958,1.755-3.275,1.755h-6.067c-.553,0-1-.448-1-1s.447-1,1-1h6.067c.647,0,1.25-.324,1.612-.866,.352-.527,.417-1.158,.179-1.732-.354-.852-.841-1.653-1.411-2.402h-7.447c-.552,0-1-.448-1-1V6.249c-.015-.613,.597-1.113,1.194-.981,4.73,.939,8.758,4.146,10.512,8.367,.491,1.184,.355,2.533-.363,3.609Zm-4.805-7.245c-1.316-1.099-2.865-1.962-4.537-2.47v2.47h4.537Zm-3.162,11.297c-.461,.466-.924,.703-1.375,.703-1.888,0-4-4.276-4-10S12.112,2,14,2c.775,0,1.592,.705,2.299,1.984,.267,.483,.874,.659,1.358,.391,.483-.267,.659-.875,.392-1.359-1.075-1.945-2.513-3.016-4.049-3.016-2.092,0-3.866,1.936-4.931,5h-3.069c-.552,0-1,.448-1,1s.448,1,1,1h2.512c-.203,.935-.347,1.94-.429,3h-3.083c-.552,0-1,.448-1,1s.448,1,1,1h3c0,1.807,.184,3.492,.512,5h-2.512c-.552,0-1,.448-1,1s.448,1,1,1h3.069c1.065,3.064,2.839,5,4.931,5,.991,0,1.958-.448,2.797-1.296,.389-.393,.385-1.025-.008-1.414-.392-.389-1.026-.385-1.414,.008Z"/>
</svg>
