<?xml version="1.0" encoding="UTF-8"?>
<svg xmlns="http://www.w3.org/2000/svg" id="Layer_1" data-name="Layer 1" viewBox="0 0 24 24">
  <path d="M24,20v.482c0,1.938-1.577,3.519-3.516,3.522h-.005c-.929,0-1.802-.361-2.459-1.018-.658-.657-1.021-1.531-1.021-2.461s.361-1.803,1.019-2.459l2.79-2.79c1.584-1.584,1.597-4.174,.029-5.774L14.927,3.469c-.379-.386-.382-1.003-.007-1.393l1.702-1.769c.383-.398,1.016-.409,1.414-.027,.398,.383,.41,1.016,.027,1.414l-1.029,1.069,1.38,1.409,1.019-1.019c.391-.391,1.023-.391,1.414,0s.391,1.023,0,1.414l-1.034,1.034,1.4,1.429,1.079-1.079c.391-.391,1.023-.391,1.414,0s.391,1.023,0,1.414l-1.129,1.129c1.986,2.394,1.88,5.963-.355,8.199l-2.79,2.79c-.279,.279-.433,.65-.433,1.045s.154,.767,.434,1.046,.65,.433,1.045,.433h.003c.837-.002,1.519-.685,1.519-1.522v-.482c0-.553,.447-1,1-1s1,.447,1,1Zm-9-6c-.996,0-1.946-.29-2.757-.829L1.707,23.707c-.195,.195-.451,.293-.707,.293s-.512-.098-.707-.293c-.391-.391-.391-1.023,0-1.414L10.829,11.757c-1.278-1.932-1.073-4.563,.614-6.271l-2.961-3.053c-.535-.554-1.396-.583-1.963-.066-.355,.324-.527,.713-.519,1.112v.521c0,.552-.448,1-1,1s-1-.448-1-1v-.5c-.02-.955,.39-1.899,1.125-2.568,1.419-1.292,3.505-1.225,4.794,.112l9.221,9.505c.383,.395,.375,1.024-.017,1.41l-.594,.583c-.938,.938-2.193,1.458-3.529,1.458Zm-2.699-3.715l1.927-1.927-1.393-1.436c-.883,.92-1.054,2.266-.534,3.362Zm4.709,.942l-1.39-1.433-1.898,1.898c1.068,.484,2.403,.339,3.288-.465Z"/>
</svg>
