<?xml version="1.0" encoding="UTF-8"?>
<svg xmlns="http://www.w3.org/2000/svg" id="Layer_1" data-name="Layer 1" viewBox="0 0 24 24">
  <path d="m13,15v5c0,.552-.448,1-1,1s-1-.448-1-1v-4h-.75c-1.243,0-2.25-1.007-2.25-2.25,0-.799.419-1.496,1.047-1.895-.028-.114-.047-.232-.047-.355,0-.828.672-1.5,1.5-1.5.198,0,.385.04.558.11.173-.638.75-1.11,1.442-1.11.534,0,.999.28,1.265.7.218-.124.467-.2.735-.2.828,0,1.5.672,1.5,1.5,1.105,0,2,.895,2,2s-.895,2-2,2h-3Zm-1.617-11.514c.046,0,.094-.003.141-.01.547-.077.928-.583.851-1.129l-.205-1.458c-.077-.547-.588-.931-1.13-.851-.547.077-.928.583-.851,1.13l.205,1.457c.07.5.499.861.989.861Zm5.042.452c.106.036.214.053.32.053.417,0,.806-.263.947-.68l.472-1.395c.176-.523-.105-1.091-.628-1.268-.525-.178-1.091.105-1.268.628l-.471,1.394c-.177.523.104,1.091.627,1.268Zm4.82,2.845c.257,0,.513-.098.709-.294l1.038-1.043c.39-.392.389-1.024-.003-1.414s-1.024-.389-1.414.003l-1.039,1.043c-.389.392-.388,1.025.003,1.415.195.194.45.291.706.291Zm-15.709-1.768c.194.281.506.431.823.431.196,0,.395-.058.568-.178.454-.314.568-.937.253-1.391l-.837-1.209c-.314-.455-.937-.568-1.391-.254s-.568.937-.254,1.391l.838,1.21Zm-2.247,2.472l-1.285-.716c-.482-.269-1.091-.096-1.361.386-.269.482-.096,1.092.386,1.361l1.287.716c.154.086.321.126.485.126.351,0,.692-.185.875-.514.269-.482.096-1.091-.387-1.36Zm17.238,1.201c-2.132-2.847-5.642-4.193-9.164-3.513-3.625.701-6.518,3.612-7.198,7.244-.468,2.499.39,5.271,2.353,7.606.311.37.482.83.482,1.294v1.68c0,.552.448,1,1,1s1-.448,1-1v-1.68c0-.935-.338-1.852-.951-2.582-1.576-1.875-2.275-4.044-1.918-5.951.53-2.832,2.786-5.102,5.612-5.648,2.76-.537,5.515.519,7.207,2.777.909,1.124,2.737,5.057,3.016,6.083h-.771c-.512,0-.94.386-.995.895l-.225,2.13c-.149,1.125-1.117,1.975-2.253,1.975h-.223c-1.299,0-2,1.03-2,2,0,.552.448,1,1,1s1-.448,1-1h.511c.093,0,.183-.013.269-.037,1.888-.249,3.424-1.749,3.682-3.702l.133-1.261h.087c1.181,0,1.818-.937,1.818-1.818,0-1.192-2.383-6.148-3.473-7.493Z"/>
</svg>
