<?xml version="1.0" encoding="UTF-8"?>
<svg xmlns="http://www.w3.org/2000/svg" id="Layer_1" data-name="Layer 1" viewBox="0 0 24 24">
  <path d="M21,6c-1.326-.994-2.794-1.783-4.355-2.338l-2.153-.766,.004-.616c.003-.487-.239-.942-.644-1.212-.51-.34-1.179-.322-1.67,.046l-1.181,.886h-1l-.92-1.329c-.297-.43-.781-.671-1.281-.671-.308-.016-.681,.151-.968,.26-.597,.228-.999,.799-1,1.438,0,.468,.177,1.266-.024,1.34-.024,.009-.049,.013-.075,.013-.206,0-.454-.269-.674-.583-.222-.318-.577-.492-.937-.492-.213,0-.428,.061-.62,.188-.314,.209-.502,.561-.502,.938v2.396l-1.284,.963c-.45,.338-.716,.868-.716,1.431,0,.678,.383,1.297,.989,1.6,.417,.204,.953,.534,1.433,.506h2.578v1c0,.552,.448,1,1,1h1v1c0,.5,.5,1,1,1v1.257c0,.796,.316,1.559,.879,2.121l1.121,1.121v1s-.961,.586-1.5,1c-.586,.45-.673,1.315-.175,1.86,.354,.388,1.093,.94,1.502,1.271,.628,.509,1.55,.498,2.14-.07,.777-.749,1.878-2.416,2.322-4.16,.366-1.315,.856-2.232,2.212-2.401,.382-.048,2.5-1.383,2.5-4.5v-.5c.341-.341,1.489-1.12,2.269-1.758,.464-.38,.732-.947,.732-1.548v-.694c0-1.105-.896-2-2-2Zm-1.098,3.534c-.636,.472-1.039,.775-1.317,1.052-.525,.489-.629,1.231-.586,1.914,0,1.61-.806,2.358-1.087,2.569-2.637,.51-3.298,2.882-3.564,3.839-.111,.435-.276,.866-.467,1.268,.077-.214,.118-.442,.118-.677v-1c0-.53-.211-1.039-.586-1.414l-1.121-1.121c-.189-.189-.293-.44-.293-.707v-1.257c0-.74-.402-1.387-1-1.732v-.268c0-1.105-.895-2-2-2,0-1.105-.895-2-2-2H3.472l-.283-.142,1.011-.758c.504-.378,.8-.971,.8-1.6v-.568c.221,.075,.465,.12,.732,.12,.26,0,.515-.045,.759-.133,1.288-.468,1.424-1.694,1.399-2.451l.465,.672c.374,.54,.988,.862,1.644,.862h1c.433,0,.854-.14,1.2-.4l.342-.257c.15,.656,.626,1.204,1.279,1.437l2.153,.766c1.373,.488,2.66,1.179,3.826,2.054,.346,.26,.767,.4,1.2,.4v.694c-.314,.258-.712,.554-1.098,.84Z"/>
</svg>
