<?xml version="1.0" encoding="UTF-8"?>
<svg xmlns="http://www.w3.org/2000/svg" id="Layer_1" data-name="Layer 1" viewBox="0 0 24 24">
  <path d="M13.628,11.183c.407-.79,.5-2.061,.13-3.416-.119-.434-.56-.701-.999-.603l-2.694,.599c-.542,.12-.822,.727-.56,1.216,.517,.964,1.07,1.839,1.674,2.398-3.119,1.375-6.179,6.286-6.179,9.003,0,.979,.303,1.777,.901,2.374,1.261,1.257,3.48,1.251,5.636,1.245,0,0,1.236,0,1.392,0,2,0,3.999-.079,5.169-1.246,.598-.597,.901-1.395,.901-2.374,0-2.599-2.619-8.162-5.372-9.198Zm3.058,10.155c-.674,.672-2.559,.667-4.218,.661h-.938c-1.659,.01-3.544,.011-4.218-.661-.135-.134-.313-.379-.313-.957,0-2.413,3.559-7.381,5.762-7.381,1.347,0,4.238,5.036,4.238,7.381,0,.578-.179,.823-.313,.957ZM9.634,1.22c-.121-.539,.217-1.074,.756-1.195,.539-.124,1.074,.217,1.195,.756,.076,.337,.283,.652,.6,.91,.659,.536,1.118,1.282,1.293,2.101,.115,.54-.24,1.027-.769,1.187-.709,.214-1.086-.299-1.187-.769-.079-.369-.297-.722-.6-.968-.668-.543-1.113-1.243-1.289-2.021ZM5.369,3.74c-.87-.708-1.369-1.707-1.369-2.74,0-.552,.448-1,1-1s1,.448,1,1c0,.436,.224,.858,.631,1.189,.857,.698,1.369,1.749,1.369,2.811,0,.552-.448,1-1,1s-1-.448-1-1c0-.46-.242-.942-.631-1.26Zm11,0c-.87-.708-1.369-1.707-1.369-2.74,0-.552,.448-1,1-1s1,.448,1,1c0,.436,.224,.858,.631,1.189,.857,.698,1.369,1.749,1.369,2.811,0,.552-.448,1-1,1s-1-.448-1-1c0-.46-.242-.942-.631-1.26ZM2,20.78c0,.696,.233,1.044,.86,1.286,.515,.199,.772,.777,.573,1.293-.153,.397-.532,.641-.933,.641-.12,0-.241-.022-.36-.067-1.4-.54-2.14-1.63-2.14-3.152,0-2.714,1.74-7.57,4.396-8.567-.001-.002-.002-.003-.003-.005,0-.002,0-.002,.002-.004-.319-.469-.565-1.097-.725-1.758-.123-.508,.239-1.009,.757-1.083l1.594-.228c.552-.079,1.047,.354,1.034,.911-.014,.59-.09,1.231-.214,1.784-.077,.344-.228,.661-.432,.949-.197,.278-.397,.598-.571,.826-.004,.005-.009,.002-.013,.007-.134,.201-.335,.358-.588,.42-1.606,.393-3.237,4.424-3.237,6.748Zm22-.042c0,1.577-.791,2.685-2.288,3.206-.109,.038-.22,.056-.329,.056-.414,0-.801-.259-.944-.672-.182-.521,.094-1.091,.616-1.273,.689-.24,.945-.597,.945-1.317,0-2.146-1.278-5.492-2.662-6.433-.263-.179-.461-.431-.623-.704-.218-.369-.45-.728-.693-1.074-.328-.465-.515-1.022-.471-1.589,.035-.452,.09-.817,.167-1.137,.125-.525,.668-.831,1.361-.591l1.344,.466c.539,.187,.768,.819,.483,1.314-.293,.51-.638,.988-1.003,1.355,2.442,1.171,4.098,5.539,4.098,8.395Z"/>
</svg>
