<?xml version="1.0" encoding="UTF-8"?>
<svg xmlns="http://www.w3.org/2000/svg" id="Layer_1" data-name="Layer 1" viewBox="0 0 24 24">
  <path d="M22,4V15.929s-.01,.003-.01,.003c-.065-.827-.424-1.365-.735-1.682-.474-.484-1.122-.75-1.826-.75-.878,.055-1.75,.291-2.911,.646-.623,.184-2.518,.744-2.518,3.086,0,.182-.036,.334-.089,.461-.236-.327-.56-.67-.997-1.107-.68-.661-1.53-1.136-2.463-1.161-.554,0-1.079,.191-1.497,.531-.623-.601-1.467-.955-2.362-.955h-.592c-.024-.363,.054-.739,.326-.998l.676-.676c.21-.21,.49-.326,.788-.326,1.108,.401,2.375,.954,5.306,.987,1.445,0,2.521-.876,2.821-2.209,.644-.332,1.084-1.004,1.084-1.778v-1.365c0-.617-.213-1.186-.57-1.635h.65c1.159,0,2.278-.484,3.071-1.327,.457-.487,.818-.925,1.075-1.306,.189-.231,.475-.367,.774-.367M14.395,1c-.992,0-1.959,.34-2.706,.992-1.644,1.436-3.387,3.609-4.399,5.449-.193,.351-.29,.746-.29,1.147v.033c0,.494,.405,.854,.853,.854,.277,.029,.898-.37,1.147-.474l1-.5v1s0,1,1,1,1-1,1-1v-1s-.56-1.102-.5-1.5c.5-2,2-3,2-3-.025,.15-.531,2.566-.5,2.635,0,.754,.611,1.365,1.365,1.365,.351,0,.635,.284,.635,.635v1.365s-1,0-1,1c0,.907-.568,.987-.904,.987-3.865-.071-4.269-1.001-5.096-.987-.894-.042-1.779,.272-2.412,.912l-.676,.676c-.584,.584-.912,1.376-.912,2.202,.069,.468-.23,.942-.715,.933-.397-.02-1.081-.407-1.483-.39-.521,0-1.005,.338-1.165,.865l-.638,2.109v1l2.009,1.519c.505,.34,1.212,.163,1.491-.396l1.133-2.592c.223-.51,.726-.839,1.283-.839h.676c.547,0,1.044,.317,1.272,.815,.345,.755,.852,1.816,1.136,2.185-.062,.244-.501,.696-.952,1.108-.4,.376-.037,.976,.477,.895,.61,0,1.209-.189,1.685-.579,.502-.406,.79-.712,.79-1.424l-.894-2.045c-.13-.915,.968-.434,1.394,.045q1,1,1,2c.002,.359,.541,.824,.952,.806,.45,.016,.794-.366,.885-.806,0,0,1.664-.768,1.664-2.768,0-1,.716-1.032,1.394-1.264s1.83-.442,1.83-.442c.336-.07,.78-.031,.775,.706-.007,.318-.15,1.563-.5,2.268-.208,.419-1.321,.497-1.99,.506-.327,.004-.628,.171-.81,.443l-.364,.547c-.219,.329-.336,.715-.336,1.109v.894c0,.552,.448,1,1,1h1c.882,0,1.574-.262,2.303-1.05,.168-.027,1.75-.217,2.79-.342,.95-.081,1.239-1.442,.413-1.908-.687-.41-1.515-.701-1.515-.701v-1l.52-.137c.878-.232,1.489-1.026,1.489-1.934V4c0-1.105-.895-2-2-2-.944,0-1.833,.445-2.4,1.2-.218,.335-.56,.735-.907,1.103-.419,.445-1.002,.697-1.613,.697h-1.08v-1s2-1,2-2.487c0,0,0-.513-.5-.513-.4,0-3.105,0-3.105,0Z"/>
</svg>
