<?xml version="1.0" encoding="UTF-8"?>
<svg xmlns="http://www.w3.org/2000/svg" id="Layer_1" data-name="Layer 1" viewBox="0 0 24 24">
  <path d="m24,18c0,3.309-2.691,6-6,6-.553,0-1-.448-1-1s.447-1,1-1c2.206,0,4-1.794,4-4,0-.552.447-1,1-1s1,.448,1,1Zm-6.714,2.193c-.535.536-1.236.811-1.942.811-.56,0-1.122-.173-1.606-.524-.338-.245-1.796-1.435-2.015-1.609-.284.074-.575.125-.877.125-.01,0-.02,0-.029,0-.943-.007-1.825-.386-2.48-1.064-1.506-1.558-2.417-2.808-3.679-4.538-.406-.558-.855-1.174-1.38-1.876-1.613-2.163-1.686-5.01-.246-7.071L.293,1.707C-.098,1.316-.098.684.293.293S1.316-.098,1.707.293l2.741,2.741c2.022-1.412,4.784-1.392,7.102.239,2.674,1.88,4.347,3.252,6.395,5.245.674.656,1.048,1.535,1.055,2.476.002.27-.035.532-.092.789.176.218,1.331,1.626,1.571,1.955.795,1.095.676,2.588-.285,3.55l-2.907,2.906Zm-5.4-3.63l4.698-4.518c.266-.266.419-.64.416-1.038-.003-.401-.162-.776-.449-1.056-1.964-1.91-3.573-3.23-6.15-5.042-.783-.551-1.766-.912-2.746-.912-1.029,0-2.058.397-2.856,1.389-1.083,1.343-1.049,3.418.082,4.933.529.709.982,1.331,1.393,1.895,1.259,1.727,2.091,2.868,3.5,4.327.28.29.656.451,1.06.455h.012c.395,0,.765-.153,1.042-.432Zm3.986,2.216l2.907-2.906c.261-.261.295-.666.08-.961-.221-.305-1-1.25-1.032-1.288l-4.299,4.135c.055.045,1.069.874,1.384,1.102.293.214.698.18.96-.082Zm-6.372-10.779c-.828,0-1.5.672-1.5,1.5s.672,1.5,1.5,1.5,1.5-.672,1.5-1.5-.672-1.5-1.5-1.5Z"/>
</svg>
