<?xml version="1.0" encoding="UTF-8"?>
<svg xmlns="http://www.w3.org/2000/svg" id="Layer_1" data-name="Layer 1" viewBox="0 0 24 24">
  <path d="M17.762,9c-1.67,0-3.141,.335-4.238,.893V4.5c0-2.298-3.401-3.5-6.762-3.5S0,2.202,0,4.5V20.5c0,2.298,3.401,3.5,6.762,3.5,2.236,0,4.484-.535,5.742-1.568,1.089,.957,2.995,1.568,5.258,1.568,3.557,0,6.238-1.505,6.238-3.5V12.5c0-1.995-2.682-3.5-6.238-3.5Zm4.238,7.5c0,.515-1.65,1.5-4.238,1.5s-4.238-.985-4.238-1.5v-1.393c1.097,.558,2.569,.893,4.238,.893s3.141-.335,4.238-.893v1.393ZM11.523,8.5c0,.386-1.638,1.5-4.762,1.5s-4.762-1.114-4.762-1.5v-1.45c1.283,.627,3.026,.95,4.762,.95s3.479-.323,4.762-.95v1.45Zm-4.762,3.5c1.736,0,3.479-.323,4.762-.95v1.45c0,.386-1.638,1.5-4.762,1.5s-4.762-1.114-4.762-1.5v-1.45c1.283,.627,3.026,.95,4.762,.95Zm-4.762,3.05c1.283,.627,3.026,.95,4.762,.95s3.479-.323,4.762-.95v1.45c0,.386-1.638,1.5-4.762,1.5s-4.762-1.114-4.762-1.5v-1.45Zm15.762-4.05c2.588,0,4.238,.985,4.238,1.5s-1.65,1.5-4.238,1.5-4.238-.985-4.238-1.5,1.65-1.5,4.238-1.5ZM6.762,3c3.124,0,4.762,1.114,4.762,1.5s-1.638,1.5-4.762,1.5-4.762-1.114-4.762-1.5,1.638-1.5,4.762-1.5Zm0,19c-3.124,0-4.762-1.114-4.762-1.5v-1.45c1.283,.627,3.026,.95,4.762,.95s3.479-.323,4.762-.95v1.45c0,.386-1.638,1.5-4.762,1.5Zm11,0c-2.588,0-4.238-.985-4.238-1.5v-1.393c1.097,.558,2.569,.893,4.238,.893s3.141-.335,4.238-.893v1.393c0,.515-1.65,1.5-4.238,1.5ZM15.588,3.953c-.388-.393-.384-1.026,.01-1.414l1.984-1.959c.771-.771,2.033-.771,2.812,.004l2.003,1.951c.396,.385,.404,1.018,.02,1.414-.387,.395-1.019,.404-1.414,.019l-1.003-.976V7c0,.552-.447,1-1,1s-1-.448-1-1V2.98c-.391,.316-1.119,1.345-1.7,1.27-.258,0-.516-.099-.712-.297Z"/>
</svg>
