<?xml version="1.0" encoding="UTF-8"?>
<svg xmlns="http://www.w3.org/2000/svg" id="Layer_1" data-name="Layer 1" viewBox="0 0 24 24">
  <path d="M10,20H5c-1.654,0-3-1.346-3-3V8H22v2c0,.553,.448,1,1,1s1-.447,1-1v-3c0-2.757-2.243-5-5-5h-6.528c-.154,0-.31-.036-.447-.105L8.869,.316c-.415-.207-.878-.316-1.341-.316h-2.528C2.243,0,0,2.243,0,5v12c0,2.757,2.243,5,5,5h5c.552,0,1-.447,1-1s-.448-1-1-1ZM5,2h2.528c.154,0,.31,.036,.447,.105l3.156,1.578c.415,.207,.878,.316,1.341,.316h6.528c1.302,0,2.402,.839,2.816,2H2v-1c0-1.654,1.346-3,3-3Zm14.565,8.462c-.584-.517-1.133-.49-1.412-.429-.272,.062-.774,.268-1.073,.964-.319,.747-.472,1.586-.607,2.327-.073,.398-.18,.988-.3,1.349-.05-.13-.095-.258-.124-.339-.047-.134-.089-.252-.126-.341-.252-.606-.738-.989-1.299-1.023-.547-.024-1.066,.276-1.379,.829-.507,.897-1.245,2.968-1.245,4.169,0,3.17,2.5,5.999,5.967,5.999,2.057,0,4.01-1.145,5.157-3.044,1.907-3.159,.71-6.679-3.558-10.461Zm1.846,9.428c-.387,.64-.918,1.154-1.518,1.514,.21-.72-.006-1.547-.567-2.108l-.769-1.097c-.308-.308-.807-.308-1.115,0l-.77,1.096c-.585,.585-.791,1.46-.532,2.202-1.273-.673-2.141-2.002-2.141-3.529,0-.47,.234-1.347,.514-2.111,.293,.568,.75,1.111,1.511,1.111,1.817,0,2.163-1.898,2.416-3.285,.08-.437,.161-.882,.273-1.292,3.152,2.937,4.008,5.329,2.698,7.499Z"/>
</svg>
