<?xml version="1.0" encoding="UTF-8"?>
<svg xmlns="http://www.w3.org/2000/svg" id="Layer_1" data-name="Layer 1" viewBox="0 0 24 24">
  <path d="M23,19H11.73l5.005-4.838,5.701-2.762c.496-.241,.704-.839,.464-1.336-.241-.497-.84-.704-1.337-.464l-5.845,2.832c-.095,.046-.183,.107-.259,.181l-3.228,3.121-4.238-4.733h5.005c.553,0,1-.448,1-1s-.447-1-1-1c0,0-8.041,.011-8.063,.013-.653-.008-1.311,.192-1.855,.631-.623,.502-1.003,1.218-1.071,2.015-.068,.797,.186,1.566,.712,2.165l4.527,5.176H1c-.553,0-1,.447-1,1s.447,1,1,1H23c.553,0,1-.447,1-1s-.447-1-1-1ZM4.004,11.829c.021-.249,.14-.472,.334-.628,.167-.135,.369-.201,.569-.201,.245,0,.488,.099,.662,.29l5.224,5.834-.623,.603c-.195,.186-.451,.292-.72,.272-.272-.01-.524-.127-.697-.318l-4.526-5.175c-.165-.188-.244-.427-.223-.676ZM1,5.5c0-1.381,1.119-2.5,2.5-2.5s2.5,1.119,2.5,2.5-1.119,2.5-2.5,2.5-2.5-1.119-2.5-2.5Z"/>
</svg>
