<?xml version="1.0" encoding="UTF-8"?>
<svg xmlns="http://www.w3.org/2000/svg" id="Layer_1" data-name="Layer 1" viewBox="0 0 24 24">
  <path d="M20.688,19.274l2.759-1.379c.345-.173,.56-.527,.553-.913-.007-.385-.235-.732-.586-.892,0,0-8.736-3.972-8.768-3.982-.678-.231-1.428-.068-2.004,.431-.588,.509-.798,1.338-.497,2.202l3.944,8.675c.159,.351,.506,.579,.892,.586h.019c.378,0,.725-.214,.895-.553l1.38-2.76,3.019,3.019c.195,.195,.451,.293,.707,.293s.512-.098,.707-.293c.391-.391,.391-1.023,0-1.414l-3.019-3.019Zm-3.645,1.405l-3.03-6.668,6.667,3.032-2.126,1.062c-.193,.097-.351,.254-.447,.447l-1.063,2.126ZM11.992,5.126c-.063,.499-.488,.874-.992,.874s-.929-.375-.992-.874c-.138-1.087-.841-2.073-1.881-2.64-1.663-.956-4.306-.451-5.43,1.255C.222,7.457,4.863,13.294,9.59,17.163c.213,.174,.455,.306,.719,.392,.525,.171,.812,.735,.641,1.261-.137,.422-.529,.69-.951,.69-.622-.059-1.19-.422-1.676-.795C2.692,14.101-2.181,7.457,1.031,2.633c.554-.831,1.333-1.505,2.252-1.948,1.927-.927,4.041-.91,5.798,.045,.772,.42,1.424,.997,1.918,1.675,.494-.678,1.146-1.255,1.918-1.675,1.756-.955,3.871-.972,5.798-.045,.92,.443,1.699,1.117,2.252,1.949,1.109,1.665,1.877,4.56-.763,8.887-.287,.473-.903,.623-1.375,.333-.471-.287-.62-.903-.333-1.374,1.679-2.752,1.95-5.02,.805-6.737-1.124-1.708-3.766-2.211-5.43-1.256-1.041,.566-1.744,1.553-1.881,2.64Z"/>
</svg>
