<?xml version="1.0" encoding="UTF-8"?>
<svg xmlns="http://www.w3.org/2000/svg" id="Layer_1" data-name="Layer 1" viewBox="0 0 24 24">
  <path d="M16.52,12.346c1.565-1.323,2.48-3.272,2.48-5.346,0-2.119-.944-4.101-2.592-5.438C14.762,.226,12.604-.287,10.49,.159c-2.614,.55-4.752,2.672-5.321,5.28-.566,2.604,.336,5.238,2.313,6.909l-2.387,8.051c-.436,1.787,1.066,3.649,2.904,3.601h8.027c1.879,.026,3.35-1.808,2.885-3.676l-2.393-7.978Zm.265,9.292c-.186,.23-.462,.362-.757,.362H8c-.563,.036-1.08-.598-.968-1.104l2.564-8.641c.124-.418-.037-.868-.397-1.112-1.707-1.157-2.521-3.229-2.075-5.277,.403-1.852,1.922-3.358,3.778-3.749,.361-.076,.725-.113,1.084-.113,1.151,0,2.265,.385,3.161,1.113,1.178,.955,1.853,2.371,1.853,3.885,0,1.66-.822,3.208-2.199,4.142-.361,.245-.521,.696-.396,1.115l2.572,8.566c.062,.289-.008,.585-.192,.815Z"/>
</svg>
