<?xml version="1.0" encoding="UTF-8"?>
<svg xmlns="http://www.w3.org/2000/svg" id="Layer_1" data-name="Layer 1" viewBox="0 0 24 24">
  <path d="M12,3c0-1.657-1.343-3-3-3H3C1.343,0,0,1.343,0,3V11.604c-.034,1.081,1.289,1.79,2.171,1.162,.091-.055,2.564-1.721,2.656-1.766h4.173c1.657,0,3-1.343,3-3V3Zm-2.5,.129c0,.34-.276,.616-.616,.616h-.316c-.121,1.275-.617,2.731-1.607,3.866,.542,.329,1.192,.564,1.984,.639,.315,.03,.555,.296,.555,.613v.021c0,.366-.316,.648-.68,.613-1.137-.109-2.059-.489-2.808-1.022-.753,.538-1.686,.915-2.832,1.022-.364,.034-.679-.248-.679-.614v-.021c0-.321,.248-.584,.568-.614,.788-.075,1.438-.307,1.977-.635-.329-.377-.605-.79-.83-1.22-.215-.411,.09-.903,.553-.903,.228,0,.44,.123,.545,.325,.185,.352,.415,.69,.692,1,.818-.92,1.192-2.108,1.303-3.071H3.116c-.34,0-.616-.276-.616-.616v-.021c0-.34,.276-.616,.616-.616h2.257v-.384c0-.34,.276-.616,.616-.616h.021c.34,0,.616,.276,.616,.616v.384h2.257c.34,0,.616,.276,.616,.616v.021Zm8.52,10.834l.811,3.437h-1.757l.787-3.437c.009-.037,.041-.063,.079-.063s.071,.026,.079,.063Zm2.98-2.963h-6c-1.657,0-3,1.343-3,3v5c0,1.657,1.343,3,3,3h4.173c.096,.047,2.565,1.71,2.656,1.766,.882,.628,2.205-.082,2.171-1.162V14c0-1.657-1.343-3-3-3Zm-.878,9.5h-.002c-.326,0-.609-.225-.682-.543l-.265-1.157h-2.409l-.274,1.161c-.075,.316-.356,.539-.681,.539h0c-.451,0-.784-.421-.681-.86l1.413-5.993c.201-.866,1.137-1.406,2.056-1.021,.439,.184,.734,.606,.842,1.07l1.363,5.948c.1,.438-.232,.856-.682,.856ZM14,1c0-.553,.448-1,1-1h2c2.206,0,4,1.794,4,4v2.029l1.307-1.25c.398-.383,1.031-.37,1.414,.027,.383,.398,.371,1.031-.028,1.414l-2.301,2.212c-.767,.766-2.029,.756-2.798-.013l-2.287-2.199c-.398-.383-.411-1.016-.028-1.414,.383-.397,1.017-.41,1.414-.027l1.307,1.257v-2.036c0-1.103-.897-2-2-2h-2c-.552,0-1-.447-1-1Z"/>
</svg>
