<?xml version="1.0" encoding="UTF-8"?>
<svg xmlns="http://www.w3.org/2000/svg" id="Layer_1" data-name="Layer 1" viewBox="0 0 24 24">
  <path d="M0,7V3c0-.552,.447-1,1-1s1,.448,1,1v2.375C4.199,2.061,7.942,0,12,0c6.617,0,12,5.383,12,12,0,.552-.447,1-1,1s-1-.448-1-1c0-5.514-4.486-10-10-10-3.585,0-6.862,1.94-8.637,5h2.637c.553,0,1,.448,1,1s-.447,1-1,1H2c-1.103,0-2-.897-2-2Zm12,15c-5.15,0-9.545-3.993-10.004-9.09-.05-.55-.539-.951-1.086-.906-.55,.05-.956,.536-.906,1.086,.551,6.118,5.82,10.91,11.996,10.91,.553,0,1-.448,1-1s-.447-1-1-1Zm12-4v3c0,1.654-1.346,3-3,3s-3-1.346-3-3v-3c0-1.654,1.346-3,3-3s3,1.346,3,3Zm-2,0c0-.551-.448-1-1-1s-1,.449-1,1v3c0,.551,.448,1,1,1s1-.449,1-1v-3ZM12,6c-.553,0-1,.448-1,1v4h-3c-.553,0-1,.448-1,1s.447,1,1,1h4c.553,0,1-.448,1-1V7c0-.552-.447-1-1-1Zm4.324,9.083c-.407-.168-.878-.077-1.217,.262l-1.839,1.972c-.377,.404-.354,1.037,.05,1.414s1.036,.354,1.413-.049l.269-.289v4.606c0,.552,.447,1,1,1s1-.448,1-1v-6.905c0-.444-.266-.841-.676-1.011Z"/>
</svg>
