<?xml version="1.0" encoding="UTF-8"?>
<svg xmlns="http://www.w3.org/2000/svg" id="Layer_1" data-name="Layer 1" viewBox="0 0 24 24">
  <path d="M12,15c3.229,0,5.863-2.566,5.988-5.765,.389-.895,1.012-2.445,1.012-4.735,0-3.092-3.629-4.5-7-4.5S5,1.408,5,4.5c0,2.289,.622,3.839,1.012,4.734,.124,3.2,2.758,5.766,5.988,5.766Zm0-2c-2.006,0-3.655-1.488-3.941-3.416,1.452-.737,2.733-1.427,3.941-2.195,1.175,.745,2.451,1.438,3.941,2.195-.285,1.928-1.935,3.417-3.941,3.417Zm0-11c2.458,0,5,.936,5,2.5,0,1.329-.25,2.351-.52,3.116-3.029-1.555-5.03-2.802-7.518-5.111,.885-.328,1.969-.505,3.037-.505Zm-4.73,1.659c1.026,.972,1.973,1.775,2.929,2.49-.833,.496-1.713,.972-2.68,1.467-.269-.765-.52-1.787-.52-3.116,0-.305,.097-.586,.27-.841Zm13.73,19.341c0,.553-.447,1-1,1s-1-.447-1-1c0-1.928-1.147-3.781-2.996-4.836-.002,0-.002-.001-.004-.002v4.838c0,.553-.447,1-1,1s-1-.447-1-1v-3.446c-.682,.315-1.392,.446-2,.446s-1.321-.13-2-.44v3.44c0,.553-.448,1-1,1s-1-.447-1-1v-4.838s-.003,.001-.004,.002c-1.848,1.055-2.996,2.908-2.996,4.836,0,.553-.448,1-1,1s-1-.447-1-1c0-2.645,1.534-5.163,4.004-6.572,1.541-.878,2.394-.228,2.839,.473,.517,.812,1.484,1.1,2.156,1.1s1.64-.288,2.156-1.1c.445-.701,1.302-1.348,2.839-.474,2.471,1.41,4.005,3.929,4.005,6.573Z"/>
</svg>
