<?xml version="1.0" encoding="UTF-8"?>
<svg xmlns="http://www.w3.org/2000/svg" id="Layer_1" data-name="Layer 1" viewBox="0 0 24 24">
  <path d="M17.063,9.694c-5.102-2.71-6.156-3.27-6.415-3.399l.002-.004c-.97-.444-2.099-.241-2.883,.525-.729,.725-.967,1.817-.562,2.787,.063,.125,.829,1.622,1.225,2.396-.48,.932-1.054,2.036-1.179,2.255-.324,.677-.335,1.46-.031,2.147,.279,.632,.788,1.116,1.432,1.365,.303,.116,.618,.174,.933,.174,.355,0,.71-.074,1.042-.221,1.447-.626,6.256-3.286,6.429-3.383,.883-.449,1.429-1.342,1.426-2.332-.003-.989-.555-1.879-1.419-2.312Zm-.944,2.876c-.049,.027-4.927,2.727-6.292,3.317-.147,.064-.308,.067-.455,.013-.145-.057-.259-.165-.321-.307-.068-.154-.066-.327-.036-.399,.175-.297,1.222-2.333,1.43-2.737,.147-.287,.147-.626,0-.913,0,0-1.37-2.677-1.423-2.776-.045-.108-.027-.353,.148-.527,.121-.118,.273-.18,.425-.18,.069,0,.139,.013,.204,.04,.472,.25,6.327,3.36,6.347,3.371,.302,.151,.336,.429,.336,.541,0,.112-.031,.389-.363,.559ZM12,0C5.383,0,0,5.383,0,12s5.383,12,12,12,12-5.383,12-12S18.617,0,12,0Zm0,22c-5.514,0-10-4.486-10-10S6.486,2,12,2s10,4.486,10,10-4.486,10-10,10Z"/>
</svg>
