<?xml version="1.0" encoding="UTF-8"?>
<svg xmlns="http://www.w3.org/2000/svg" id="Layer_1" data-name="Layer 1" viewBox="0 0 24 24">
  <path d="m19,5h-2.101c-.465-2.279-2.484-4-4.899-4h-7C2.243,1,0,3.243,0,6v9c0,1.881,1.309,3.452,3.061,3.877-.038.205-.061.412-.061.623,0,1.93,1.57,3.5,3.5,3.5s3.5-1.57,3.5-3.5c0-.169-.017-.335-.041-.5h4.082c-.024.165-.041.331-.041.5,0,1.93,1.57,3.5,3.5,3.5s3.5-1.57,3.5-3.5c0-.211-.024-.418-.061-.623,1.752-.425,3.061-1.996,3.061-3.877v-5c0-2.757-2.243-5-5-5Zm3,5v1h-5v-4h2c1.654,0,3,1.346,3,3ZM2,15V6c0-1.654,1.346-3,3-3h7c1.654,0,3,1.346,3,3v11H4c-1.103,0-2-.897-2-2Zm6,4.5c0,.827-.673,1.5-1.5,1.5s-1.5-.673-1.5-1.5c0-.189.039-.356.093-.5h2.815c.054.144.093.311.093.5Zm9.5,1.5c-.827,0-1.5-.673-1.5-1.5,0-.189.039-.356.093-.5h2.815c.054.144.093.311.093.5,0,.827-.673,1.5-1.5,1.5Zm2.5-4h-3v-4h5v2c0,1.103-.897,2-2,2Zm-13.206-3.417c.52.298,1.114.447,1.708.447.607,0,1.214-.156,1.741-.467,1.101-.648,1.757-1.785,1.757-3.04,0-.907-.343-1.762-.968-2.416,0,0-1.115-1.508-1.154-1.546-.76-.743-1.996-.743-2.756,0-.039.038-1.16,1.552-1.16,1.552-.622.649-.962,1.502-.962,2.41,0,1.273.671,2.417,1.794,3.06Zm.639-4.113c.036-.036,1.067-1.429,1.067-1.429,0,0,1.025,1.386,1.061,1.422.283.284.439.66.439,1.061,0,.547-.282,1.027-.773,1.317-.43.252-1.008.255-1.439.007-.5-.286-.788-.769-.788-1.324,0-.401.154-.775.433-1.054Z"/>
</svg>
