<?xml version="1.0" encoding="UTF-8"?>
<svg xmlns="http://www.w3.org/2000/svg" id="Layer_1" data-name="Layer 1" viewBox="0 0 24 24">
  <path d="M20,18c0,.553-.448,1-1,1H9.557c-2.535,0-4.67-1.898-4.966-4.415L3.215,2.883c-.059-.503-.486-.883-.993-.883H1c-.552,0-1-.448-1-1S.448,0,1,0h1.222c1.521,0,2.801,1.139,2.979,2.649l.041,.351h3.258c.552,0,1,.448,1,1s-.448,1-1,1h-3.022l.941,8h4.081c.552,0,1,.447,1,1s-.448,1-1,1h-3.763c.416,1.174,1.528,2,2.82,2h9.443c.552,0,1,.447,1,1Zm-13,2c-1.105,0-2,.895-2,2s.895,2,2,2,2-.895,2-2-.895-2-2-2Zm10,0c-1.105,0-2,.895-2,2s.895,2,2,2,2-.895,2-2-.895-2-2-2Zm7-14.515v4.041c0,1.072-.572,2.062-1.5,2.598l-3.5,2.021c-.928,.536-2.072,.536-3,0l-3.5-2.021c-.928-.536-1.5-1.526-1.5-2.598V5.485c0-1.072,.572-2.062,1.5-2.598l3.5-2.021c.928-.536,2.072-.536,3,0l3.5,2.021c.928,.536,1.5,1.526,1.5,2.598Zm-8.5,.015c0-.276-.224-.5-.5-.5s-.5,.224-.5,.5v2.275l-1.376-2.481c-.101-.182-.293-.295-.501-.295h-.051c-.316,0-.573,.256-.573,.573v3.927c0,.276,.224,.5,.5,.5s.5-.224,.5-.5v-2.368l1.427,2.573c.101,.182,.293,.295,.501,.295,.316,0,.573-.256,.573-.573v-3.927Zm2,1.507v-1.007h1c.276,0,.5-.224,.5-.5s-.224-.5-.5-.5h-1.5c-.276,0-.5,.224-.5,.5v4c0,.276,.224,.5,.5,.5s.5-.224,.5-.5v-1.493l.999,.003c.276,0,.501-.222,.501-.499,0-.276-.222-.501-.499-.501l-1.001-.003Zm5.5-1.496c0-.276-.224-.5-.5-.5h-2c-.276,0-.5,.224-.5,.5s.224,.5,.5,.5h.5v3.489c0,.276,.224,.5,.5,.5s.5-.224,.5-.5v-3.489h.5c.276,0,.5-.224,.5-.5Z"/>
</svg>
