<?xml version="1.0" encoding="UTF-8"?>
<svg xmlns="http://www.w3.org/2000/svg" id="Layer_1" data-name="Layer 1" viewBox="0 0 24 24">
  <path d="M3,3c0-1.105,.895-2,2-2s2,.895,2,2-.895,2-2,2-2-.895-2-2Zm9,2c1.381,0,2.5-1.119,2.5-2.5s-1.119-2.5-2.5-2.5-2.5,1.119-2.5,2.5,1.119,2.5,2.5,2.5Zm7,0c1.105,0,2-.895,2-2s-.895-2-2-2-2,.895-2,2,.895,2,2,2Zm-6.999,19s0,0,0,0c0,0,0,0,0,0,0,0,0,0,0,0s0,0,0,0c0,0,0,0,0,0,0,0,0,0,0,0-6.252,0-11.389-4.691-11.95-10.91-.049-.55,.356-1.036,.906-1.086,.563-.048,1.037,.356,1.086,.906,.065,.725,.213,1.422,.419,2.09h3.44c-.159-.616-.283-1.249-.347-1.903-.054-.55,.349-1.039,.898-1.092,.553-.05,1.039,.349,1.092,.898,.07,.722,.227,1.422,.434,2.097h8.044c.207-.675,.364-1.375,.434-2.097,.053-.55,.54-.949,1.092-.898,.55,.053,.952,.542,.898,1.092-.063,.654-.188,1.287-.347,1.903h3.44c.207-.668,.354-1.365,.419-2.09,.05-.55,.526-.956,1.086-.906,.55,.05,.956,.536,.906,1.086-.561,6.219-5.698,10.909-11.95,10.91Zm-3.223-7c1.023,2.079,2.409,3.723,3.221,4.586,.813-.863,2.198-2.507,3.221-4.586h-6.443Zm.627,4.657c-.944-1.169-2.037-2.769-2.829-4.657H3.332c1.308,2.283,3.48,3.972,6.073,4.657Zm11.263-4.657h-3.244c-.792,1.889-1.885,3.488-2.829,4.657,2.593-.685,4.765-2.374,6.073-4.657Zm-12.019-7.063c.518,.193,1.094-.067,1.288-.586,.303-.808,1.132-1.351,2.063-1.351s1.761,.543,2.063,1.351c.193,.524,.784,.777,1.288,.586,.517-.194,.779-.771,.585-1.287-.594-1.585-2.176-2.649-3.937-2.649s-3.343,1.064-3.937,2.649c-.194,.517,.068,1.093,.585,1.287Zm9.703-3.889c-.546,.082-.923,.591-.841,1.138,.082,.546,.589,.915,1.137,.841,1.011-.15,2.074,.413,2.416,1.324,.193,.524,.784,.777,1.288,.586,.517-.194,.779-.771,.585-1.287-.594-1.585-2.176-2.649-3.937-2.649-.22,0-.437,.017-.648,.048ZM1.649,9.937c.504,.192,1.094-.062,1.288-.586,.341-.912,1.405-1.479,2.416-1.324,.546,.075,1.055-.295,1.137-.841,.082-.547-.294-1.056-.841-1.138-.211-.031-.428-.048-.648-.048-1.761,0-3.343,1.064-3.937,2.649-.194,.517,.068,1.093,.585,1.287Z"/>
</svg>
