<?xml version="1.0" encoding="UTF-8"?>
<svg xmlns="http://www.w3.org/2000/svg" id="Layer_1" data-name="Layer 1" viewBox="0 0 24 24">
  <path d="m23.772,6.463c-.522-.54-1.395-1.278-2.268-1.278-.73,0-1.454.514-1.979.999.259-.74.647-1.458,1.187-2.19.748.022,1.944-.054,2.586-.696.654-.654.722-1.892.697-2.636-.012-.36-.299-.646-.659-.658-.744-.025-1.982.043-2.636.697-.629.629-.715,1.792-.698,2.543-.392.378-.742.763-1.046,1.152-.067-.617-.239-1.275-.659-1.695-.617-.617-1.756-.713-2.507-.7-.436.007-.783.354-.79.79-.013.751.083,1.89.7,2.507.55.55,1.504.681,2.239.695-.585,1.168-.852,2.336-.92,3.427l-2.113-.826c-.194-1.035-.744-1.839-1.586-2.261-1.554-.777-3.452-.148-4.225,1.394l-1.013,1.955c-1.997-.672-3.359-2.19-3.371-2.205-.261-.303-.677-.421-1.055-.301-.38.119-.654.453-.696.849-.003.025-.036.355-.04.896-.727-.589-1.161-1.071-1.17-1.083-.275-.312-.715-.421-1.104-.274-.389.147-.647.519-.647.935,0,4.993,1.336,8.371,3.242,10.5H1c-1,0-1,1-1,1,0,2.228,1.41,3.335,2.108,3.871,0,0,.634.508,1.634-.492.612-.612,1.53-1.637,2.152-2.341,1.294.656,2.668.962,3.98.962,1.369,0,2.656-.533,3.623-1.501.968-.968,1.5-2.255,1.499-3.625l-.005-5.558,2.039-.764c.071,1.343.368,2.522.64,3.316.202.589.882.857,1.44.579.483-.241.694-.807.5-1.311-.281-.73-.61-1.859-.61-3.136,0-.903.056-1.71.188-2.473.514.544,1.411,1.331,2.317,1.331.873,0,1.746-.737,2.268-1.278.303-.314.303-.804,0-1.118Zm-11.689,12.622c-.59.59-1.374.915-2.208.915-3.435,0-7.082-2.459-7.762-9.168,1.174.875,2.832,1.828,4.765,2.14.97.157,1.92-.324,2.375-1.196l1.626-3.138c.285-.568.979-.8,1.546-.514.491.246.564.933.564,1.32l.007,7.433c0,.834-.324,1.619-.913,2.209Z"/>
</svg>
