<?xml version="1.0" encoding="UTF-8"?>
<svg xmlns="http://www.w3.org/2000/svg" id="Layer_1" data-name="Layer 1" viewBox="0 0 24 24">
  <path d="M23.525,4.423c-.536-1.229-1.374-2.186-2.301-2.624-.69-.334-1.518-.39-2.239-.154l-.933-.933C17.342,0,16.299-.178,15.423,.177c-.451,.182-.566,.773-.223,1.117l.849,.849c.392,.392,.885,.612,1.395,.681-.128,.191-.226,.406-.287,.628-2.967,3.772-6.31,4.474-6.736,4.549-3.762,.034-6.909,2.993-7.178,6.764-.148,2.078-.333,4.101-.462,5.433-.104,1.081-.787,1.785-1.743,1.804h-.038c-.552,0-1,.447-1,1s.448,1,1,1c2.075,0,6-1.463,6-7,0-.553-.448-1-1-1-.385,0-.719,.217-.886,.535,.042-.531,.084-1.078,.124-1.629,.196-2.806,2.582-4.955,5.386-4.914,.152-.019,3.202-.446,6.376-3.42v3.927l-2.871,2.154c-.639,.478-1.065,1.212-1.171,2.016-.384,2.919-3.443,3.322-3.568,3.337-.586,.052-1.015,.67-.86,1.236l.811,3.242c.223,.893,1.021,1.516,1.94,1.516h2.719c.553,0,1-.447,1-1s-.447-1-1-1h-2.719l-.562-2.249c1.682-.531,3.842-1.933,4.222-4.82,.036-.272,.177-.519,.388-.676l1.851-1.388c.286,.832,.904,1.518,1.719,1.832,1.028,.397,1.926,1.095,2.184,1.695,.162,.379,.531,.606,.919,.606,.132,0,.266-.025,.394-.081,.508-.217,.743-.805,.525-1.312-.713-1.665-2.706-2.544-3.302-2.773-.369-.143-.617-.545-.617-1V7.144c.912,.409,1.844,.713,2.594,.834,.275,.045,.527,.067,.757,.067,.759,0,1.258-.248,1.484-.736,.305-.642,.187-1.747-.31-2.886Zm-1.611,1.58c-.624-.101-1.511-.398-2.313-.779-.464-.207-.748-.775-.521-1.238,.199-.454,.842-.609,1.289-.38,.643,.259,1.44,1.562,1.581,2.403l-.035-.006Z"/>
</svg>
