<?xml version="1.0" encoding="UTF-8"?>
<svg xmlns="http://www.w3.org/2000/svg" id="Layer_1" data-name="Layer 1" viewBox="0 0 24 24">
  <path d="M7,23c0,.552-.448,1-1,1h-1c-2.757,0-5-2.243-5-5V9.724c0-1.665,.824-3.214,2.203-4.145L9.203,.855c1.699-1.146,3.895-1.146,5.593,0l7,4.724c.315,.213,.607,.462,.865,.74,.376,.405,.353,1.037-.052,1.413-.405,.375-1.037,.353-1.413-.052-.155-.167-.329-.315-.519-.443L13.678,2.513c-1.019-.688-2.336-.688-3.356,0L3.322,7.237c-.828,.559-1.322,1.488-1.322,2.487v9.276c0,1.654,1.346,3,3,3h1c.552,0,1,.448,1,1Zm10.937-10.046c-.586,.586-.586,1.536,0,2.121s1.536,.586,2.121,0c.586-.586,.586-1.536,0-2.121s-1.536-.586-2.121,0Zm4.45,5.45c-1.168,1.168-2.786,1.739-4.413,1.584l-3.133,3.133c-.566,.566-1.32,.878-2.121,.878h-1.71c-1.099,0-1.996-.893-2-1.991l-.009-1.988c-.001-.403,.154-.781,.438-1.066,.284-.284,.661-.441,1.062-.441h.49l.004-.511c.006-.821,.679-1.489,1.5-1.489h.761v-.393c-.71-2.31,.136-4.763,2.138-6.15,1.803-1.251,4.244-1.288,6.072-.094,2.92,1.798,3.394,6.167,.922,8.525Zm-.408-4.253c-.111-1.071-.682-1.993-1.608-2.598-1.154-.755-2.697-.728-3.839,.062-1.307,.906-1.841,2.524-1.33,4.026,.035,.104,.053,.212,.053,.322v1.55c0,.552-.448,1-1,1h-1.265l-.007,1.007c-.004,.549-.451,.993-1,.993h-.98l.006,1.486h1.71c.268,0,.519-.104,.708-.293l3.487-3.487c.236-.235,.574-.338,.901-.274,1.15,.227,2.331-.13,3.158-.957,.749-.749,1.116-1.784,1.006-2.839Z"/>
</svg>
