<?xml version="1.0" encoding="UTF-8"?>
<svg xmlns="http://www.w3.org/2000/svg" id="Layer_1" data-name="Layer 1" viewBox="0 0 24 24">
  <path d="M13,7c.552,0,1,.447,1,1s-.448,1-1,1H5c-.552,0-1-.447-1-1s.448-1,1-1H13Zm10.632,13.744c-.185,.321-.521,.501-.868,.501-.169,0-.341-.043-.498-.134l-.977-.563c-.605,.652-1.393,1.126-2.289,1.331v1.121c0,.553-.448,1-1,1s-1-.447-1-1v-1.121c-.896-.205-1.685-.678-2.289-1.331l-.977,.563c-.157,.091-.329,.134-.498,.134-.346,0-.683-.18-.868-.501-.275-.479-.111-1.09,.368-1.365l.983-.566c-.129-.418-.218-.853-.218-1.313s.089-.895,.218-1.313l-.983-.566c-.479-.275-.643-.887-.368-1.365,.276-.479,.889-.643,1.366-.367l.977,.563c.605-.652,1.393-1.126,2.289-1.331v-1.121c0-.553,.448-1,1-1s1,.447,1,1v1.121c.896,.205,1.685,.678,2.289,1.331l.977-.563c.478-.276,1.089-.111,1.366,.367,.275,.479,.111,1.09-.368,1.365l-.983,.566c.129,.418,.218,.853,.218,1.313s-.089,.895-.218,1.313l.983,.566c.479,.275,.643,.887,.368,1.365Zm-3.132-3.244c0-1.379-1.122-2.5-2.5-2.5s-2.5,1.121-2.5,2.5,1.122,2.5,2.5,2.5,2.5-1.121,2.5-2.5Zm-9.5,4.5H5c-1.654,0-3-1.346-3-3V7c0-1.654,1.346-3,3-3h1c.552,0,1-.447,1-1s.449-1,1-1h2c.551,0,1,.448,1,1s.448,1,1,1h1c1.654,0,3,1.346,3,3v1c0,.553,.448,1,1,1s1-.447,1-1v-1c0-2.757-2.243-5-5-5h-.171c-.413-1.164-1.525-2-2.829-2h-2c-1.304,0-2.416,.836-2.829,2h-.171C2.243,2,0,4.243,0,7v12c0,2.757,2.243,5,5,5h6c.552,0,1-.447,1-1s-.448-1-1-1Zm0-11H5c-.552,0-1,.447-1,1s.448,1,1,1h6c.552,0,1-.447,1-1s-.448-1-1-1Zm-2,6c.552,0,1-.447,1-1s-.448-1-1-1H5c-.552,0-1,.447-1,1s.448,1,1,1h4Z"/>
</svg>
