<?xml version="1.0" encoding="UTF-8"?>
<svg xmlns="http://www.w3.org/2000/svg" id="Layer_1" data-name="Layer 1" viewBox="0 0 24 24">
  <path d="M22.874,16.618l-3.122-2.498c-.944-.755-2.018-1.275-3.191-1.547-1.131-.262-2.841-.573-4.561-.573-2.267,0-3.993,.529-4.849,.855l-3.999-3.073c-.112-.108-.122-.204-.035-.333l2.396-2.828c.264,.233,.607,.379,.987,.379h.924c.774,1.763,2.531,3,4.576,3s3.802-1.237,4.576-3h.924c.828,0,1.5-.672,1.5-1.5v-1c0-.828-.672-1.5-1.5-1.5h-.924c-.774-1.763-2.531-3-4.576-3s-3.802,1.237-4.576,3h-.924c-.667,0-1.225,.438-1.421,1.04L1.591,8.156c-.818,.929-.655,2.478,.343,3.212l4.066,3.125v4.507c0,.553,.448,1,1,1s1-.447,1-1v-4.328c.741-.266,2.172-.672,4-.672,1.482,0,2.972,.266,4,.499v4.501c0,.553,.448,1,1,1s1-.447,1-1v-3.676c.285,.149,3.294,2.603,3.624,2.856,.239,.191,.376,.477,.376,.781v4.039c0,.553,.448,1,1,1s1-.447,1-1v-4.039c0-.915-.41-1.769-1.126-2.343ZM12,2c1.654,0,3,1.346,3,3s-1.346,3-3,3-3-1.346-3-3,1.346-3,3-3Zm8,21c0,.553-.448,1-1,1H1c-.552,0-1-.447-1-1s.448-1,1-1H19c.552,0,1,.447,1,1Z"/>
</svg>
