<?xml version="1.0" encoding="UTF-8"?>
<svg xmlns="http://www.w3.org/2000/svg" id="Layer_1" data-name="Layer 1" viewBox="0 0 24 24">
  <path d="M14.5,13c-1.381,0-2.5,1.119-2.5,2.5v3c0,1.381,1.119,2.5,2.5,2.5s2.5-1.119,2.5-2.5v-3c0-1.381-1.119-2.5-2.5-2.5Zm.9,5.5c0,.496-.404,.9-.9,.9s-.9-.404-.9-.9v-3c0-.496,.404-.9,.9-.9s.9,.404,.9,.9v3Zm-7.801-2.966v2.936c0,.479,.36,.897,.838,.929,.374,.025,.705-.18,.863-.488,.132-.258,.409-.409,.699-.409,.606,0,.989,.647,.703,1.181-.414,.771-1.222,1.3-2.154,1.317-1.401,.027-2.547-1.154-2.547-2.555v-2.886c0-1.401,1.146-2.581,2.547-2.555,.932,.018,1.74,.546,2.154,1.317,.287,.534-.097,1.181-.703,1.181-.29,0-.567-.151-.699-.409-.158-.308-.488-.514-.863-.489-.478,.032-.838,.45-.838,.929Zm12.401,7.133h1.346c.361,0,.654,.293,.654,.654v.025c0,.361-.293,.654-.654,.654h-2.692c-.361,0-.654-.293-.654-.654,0-1.506,2.667-2.346,2.667-3.346,0-.375-.31-.678-.687-.666-.248,.007-.457,.157-.566,.366-.005,.01-.01,.024-.015,.042-.091,.344-.392,.592-.748,.592h0c-.374,0-.664-.332-.607-.702,.002-.012,.004-.023,.006-.032,.194-.88,.948-1.566,1.878-1.599,1.138-.04,2.073,.87,2.073,1.999,0,1.423-1.425,2.141-2,2.667Zm4-10.167c0,1.42-.399,2.803-1.154,3.999-.295,.467-.913,.606-1.379,.312-.467-.295-.607-.913-.312-1.38,.553-.876,.846-1.89,.846-2.931,0-2.615-1.858-4.883-4.417-5.394-.958-.191-1.745-.801-2.158-1.673-1.182-2.494-3.818-3.827-6.567-3.329-2.407,.441-4.369,2.44-4.771,4.862-.122,.735-.114,1.469,.024,2.181,.192,.989-.177,2.048-.963,2.763-.729,.662-1.146,1.606-1.146,2.59,0,1.17,.582,2.259,1.557,2.911,.458,.308,.582,.929,.274,1.388-.309,.462-.935,.579-1.388,.274-1.53-1.024-2.443-2.734-2.443-4.573,0-1.546,.656-3.029,1.801-4.07,.273-.248,.405-.593,.346-.901-.184-.946-.195-1.919-.033-2.89C2.66,3.35,5.225,.737,8.497,.138c3.592-.66,7.183,1.167,8.735,4.438,.14,.296,.41,.503,.742,.569,3.492,.696,6.026,3.789,6.026,7.354Z"/>
</svg>
