<?xml version="1.0" encoding="UTF-8"?>
<svg xmlns="http://www.w3.org/2000/svg" id="Layer_1" data-name="Layer 1" viewBox="0 0 24 24">
  <path d="M0,2.5C0,1.119,1.119,0,2.5,0s2.5,1.119,2.5,2.5-1.119,2.5-2.5,2.5S0,3.881,0,2.5Zm17.5,2.5c1.381,0,2.5-1.119,2.5-2.5s-1.119-2.5-2.5-2.5-2.5,1.119-2.5,2.5,1.119,2.5,2.5,2.5Zm5.947,18.895c-.144,.072-.296,.105-.446,.105-.367,0-.72-.202-.896-.553l-2.354-4.708-5.199-2.684c-1.184-.671-1.775-2.025-1.474-3.311l.806-3.31-3.151,1.803c-.289,.165-.643,.175-.94,.028l-3.585-1.775,1.216,4.195c.204,.82,.081,1.631-.335,2.321-.193,.321-.444,.592-.731,.815l1.606,5.915c.145,.533-.17,1.083-.703,1.227-.088,.024-.176,.036-.263,.036-.44,0-.844-.293-.964-.738l-1.575-5.799c-.537-.007-1.064-.157-1.534-.446-.694-.427-1.177-1.101-1.359-1.895L.084,9.663c-.21-.926,0-1.84,.566-2.548,.566-.708,1.411-1.114,2.317-1.114,.532,0,1.51,.403,1.527,.412l5.708,2.825,4.707-2.694c.661-.374,1.431-.568,2.159-.558,.901,.01,1.733,.425,2.282,1.14,.549,.714,.737,1.625,.515,2.498l-.173,.682,3.784,2.045c.486,.263,.667,.87,.404,1.355-.181,.334-.525,.524-.881,.524-.161,0-.323-.039-.475-.12l-3.341-1.806-.874,3.439,2.65,1.368c.188,.097,.341,.252,.436,.441l2.5,5c.247,.494,.047,1.095-.447,1.342ZM5.493,14.205s-1.586-5.471-1.589-5.48c-.11-.427-.495-.725-.937-.725-.295,0-.571,.132-.755,.363-.185,.231-.253,.528-.188,.817l1.482,5.457c.071,.307,.234,.533,.468,.677s.508,.188,.775,.121c.264-.065,.486-.229,.626-.461,.14-.232,.182-.505,.116-.769Zm12.271-5.861c-.173-.225-.435-.355-.718-.358-.261-.009-.529,.056-.788,.15l-1.235,5.073c-.098,.42,.099,.871,.482,1.088l.979,.505,1.442-5.672c.07-.274,.011-.561-.162-.786Zm-3.787,8.968c-.529-.159-1.086,.143-1.244,.673l-1.41,4.73c-.158,.529,.144,1.086,.673,1.244,.095,.028,.191,.042,.286,.042,.431,0,.829-.281,.958-.715l1.41-4.73c.158-.529-.144-1.086-.673-1.244Z"/>
</svg>
