<?xml version="1.0" encoding="UTF-8"?>
<svg xmlns="http://www.w3.org/2000/svg" id="Layer_1" data-name="Layer 1" viewBox="0 0 24 24">
  <path d="M22.251,22.229c1.08-1.086,1.749-2.581,1.749-4.229,0-3.309-2.691-6-6-6-3.308,0-5.999,2.692-6,6,0,3.309,2.691,6,6,6,1.66,0,3.165-.679,4.251-1.771Zm-.251-4.229c0,.74-.216,1.424-.567,2.019l-5.452-5.453c.595-.351,1.279-.567,2.019-.567,2.206,0,4,1.794,4,4Zm-8,0c0-.74,.216-1.424,.567-2.019l5.452,5.453c-.595,.351-1.279,.567-2.019,.567-2.206,0-4-1.794-4-4Zm-5-6c3.309,0,6-2.691,6-6S12.309,0,9,0,3,2.691,3,6s2.691,6,6,6Zm0-10c2.206,0,4,1.794,4,4s-1.794,4-4,4-4-1.794-4-4,1.794-4,4-4Zm1.992,13.187c-.068,.547-.563,.938-1.116,.868-.287-.036-.579-.054-.876-.054-3.859,0-7,3.14-7,7,0,.552-.447,1-1,1s-1-.448-1-1c0-4.962,4.037-9,9-9,.377,0,.755,.023,1.124,.07,.549,.069,.937,.568,.868,1.117Z"/>
</svg>
