<?xml version="1.0" encoding="UTF-8"?>
<svg xmlns="http://www.w3.org/2000/svg" id="Layer_1" data-name="Layer 1" viewBox="0 0 24 24">
  <path d="m19,0H5C2.243,0,0,2.243,0,5v14c0,2.757,2.243,5,5,5h11.343c1.336,0,2.591-.52,3.535-1.464l2.657-2.657c.944-.944,1.464-2.199,1.464-3.535V5c0-2.757-2.243-5-5-5ZM2,19V5c0-1.654,1.346-3,3-3h14c1.654,0,3,1.346,3,3v10h-4c-1.654,0-3,1.346-3,3v4H5c-1.654,0-3-1.346-3-3Zm16.464,2.122c-.408.408-.914.678-1.464.8v-3.922c0-.552.449-1,1-1h3.92c-.125.55-.397,1.063-.798,1.465l-2.657,2.657ZM6.012,5h-1.342c-.345,0-.625.28-.625.625v4.819c0,.345.28.625.625.625s.625-.28.625-.625v-1.471l.717-.003c1.109,0,2.012-.891,2.012-1.985s-.902-1.985-2.012-1.985Zm0,2.72l-.71.003-.005-1.473h.715c.413,0,.762.336.762.735s-.349.735-.762.735Zm6.738-2.12v4.673c0,.402-.326.727-.727.727-.287,0-.548-.169-.665-.432l-1.158-2.609v2.441c0,.331-.269.6-.6.6s-.6-.269-.6-.6v-4.673c0-.401.325-.727.727-.727.288,0,.548.17.665.432l1.158,2.615v-2.447c0-.331.269-.6.6-.6s.6.269.6.6Zm1.25,3.483v-2.164c0-1.037.823-1.911,1.861-1.919.482-.004.923.175,1.257.471.405.359.145,1.029-.396,1.029h-.046c-.144,0-.279-.057-.389-.149-.143-.119-.332-.18-.544-.138-.319.064-.541.358-.541.683v2.228c0,.388.328.7.721.673.358-.024.629-.338.629-.697v-.351h-.112c-.311,0-.562-.252-.562-.562s.252-.562.562-.562h.75c.311,0,.562.252.562.562v.938c0,1.023-.82,1.855-1.839,1.875-1.051.02-1.911-.866-1.911-1.917Z"/>
</svg>
