<?xml version="1.0" encoding="UTF-8"?>
<svg xmlns="http://www.w3.org/2000/svg" id="Layer_1" data-name="Layer 1" viewBox="0 0 24 24">
  <path d="M3.929,7.464c0,1.95,1.586,3.536,3.536,3.536s3.536-1.586,3.536-3.536-1.586-3.536-3.536-3.536-3.536,1.586-3.536,3.536Zm5.071,0c0,.847-.689,1.536-1.536,1.536s-1.536-.689-1.536-1.536,.689-1.536,1.536-1.536,1.536,.689,1.536,1.536Zm9.669,8.302c.41,.37,.443,1.002,.073,1.412-.369,.411-1.001,.443-1.412,.073l-4.438-4c-.417-.368-1.06-.374-1.49-.009-.476,.387-.538,1.15-.131,1.61l4.019,5.81c.464,.671,.709,1.458,.709,2.273,0,.552-.448,1.032-1,1.032s-1-.416-1-.968c0-.473-.123-.866-.354-1.201l-1.563-2.262c-.651,.299-1.36,.463-2.083,.463H5c-2.757,0-5-2.243-5-5V7.5C0,3.364,3.364,0,7.5,0s7.5,3.364,7.5,7.5v1c0,.552-.448,1-1,1s-1-.448-1-1v-1c0-3.033-2.467-5.5-5.5-5.5S2,4.467,2,7.5v7.5c0,1.654,1.346,3,3,3h5c.313,0,.617-.063,.912-.158l-1.225-1.774c-1.061-1.241-.899-3.229,.421-4.35,1.185-1.006,2.954-.987,4.117,.042l4.444,4.005Zm5.331,.962v6.272c0,.552-.448,1-1,1s-1-.448-1-1v-6.272c0-2.137-.832-4.146-2.343-5.657l-2.364-2.364c-.391-.391-.391-1.023,0-1.414s1.023-.391,1.414,0l2.364,2.364c1.889,1.889,2.929,4.4,2.929,7.071Z"/>
</svg>
