<?xml version="1.0" encoding="UTF-8"?>
<svg xmlns="http://www.w3.org/2000/svg" id="Layer_1" data-name="Layer 1" viewBox="0 0 24 24">
  <path d="M11,10.414v1.586c0,.552,.447,1,1,1h1.586c1.068,0,2.073-.417,2.828-1.172l6.707-6.707c.566-.567,.879-1.32,.879-2.122s-.313-1.555-.879-2.121c-1.17-1.17-3.072-1.17-4.242,0l-6.707,6.707c-.756,.755-1.172,1.76-1.172,2.828Zm2,0c0-.526,.214-1.042,.586-1.414l6.707-6.707c.391-.39,1.023-.39,1.414,0,.189,.188,.293,.439,.293,.707s-.104,.518-.293,.707l-6.707,6.707c-.378,.378-.88,.586-1.414,.586h-.586v-.586Zm11-.414v6c0,2.206-1.794,4-4,4h-2.853l-3.847,3.18c-.361,.322-.824,.484-1.292,.484-.476,0-.955-.168-1.337-.508l-3.749-3.156h-2.923c-2.206,0-4-1.794-4-4V4C0,1.794,1.794,0,4,0H14c.553,0,1,.448,1,1s-.447,1-1,1H4c-1.103,0-2,.897-2,2v12c0,1.103,.897,2,2,2h3.288c.235,0,.464,.083,.645,.235l4.048,3.409,4.171-3.415c.179-.148,.404-.229,.637-.229h3.212c1.103,0,2-.897,2-2v-6c0-.552,.447-1,1-1s1,.448,1,1Z"/>
</svg>
