<?xml version="1.0" encoding="UTF-8"?>
<svg xmlns="http://www.w3.org/2000/svg" id="Layer_1" data-name="Layer 1" viewBox="0 0 24 24">
  <path d="M18,8.402c1.273,1.368,2,3.17,2,5.098v1.5c0,.552,.447,1,1,1s1-.448,1-1v-1.5c0-3.103-1.493-5.94-4-7.724v-.776c0-2.757-2.243-5-5-5h-2c-2.757,0-5,2.243-5,5v.776c-2.507,1.784-4,4.621-4,7.724v9.5c0,.552,.447,1,1,1s1-.448,1-1V13.5c0-1.928,.727-3.73,2-5.098v3.598c0,3.309,2.691,6,6,6s6-2.691,6-6v-3.598Zm-2,3.598c0,1.158-.502,2.194-1.291,2.925-.752-.577-1.687-.925-2.709-.925s-1.957,.348-2.709,.925c-.789-.731-1.291-1.767-1.291-2.925V5c0-1.654,1.346-3,3-3h2c1.654,0,3,1.346,3,3v7ZM1.92,4.607l-.438-1.097-1.099-.463c-.512-.195-.497-.984,.021-1.16l1.082-.41L1.92,.393C2.106-.122,2.894-.122,3.08,.393l.436,1.09,1.09,.436c.515,.186,.515,.975,0,1.161l-1.09,.436-.436,1.09c-.186,.515-.975,.515-1.161,0ZM24,21c0,.307-.187,.583-.472,.697l-1.308,.523-.523,1.308c-.223,.618-1.17,.618-1.393,0l-.526-1.316-1.318-.556c-.614-.235-.597-1.181,.026-1.392l1.299-.492,.52-1.301c.223-.618,1.17-.618,1.393,0l.523,1.308,1.308,.523c.285,.114,.472,.39,.472,.697Z"/>
</svg>
