<?xml version="1.0" encoding="UTF-8"?>
<svg xmlns="http://www.w3.org/2000/svg" id="Layer_1" data-name="Layer 1" viewBox="0 0 24 24">
  <path d="M15.932,1.664c-.344-.973-1.797-.782-1.926,.225-.18,1.615-.85,3.11-4.506,3.11H4C1.794,5,0,6.794,0,9v2c0,1.529,.872,2.844,2.135,3.517l2.941,6.627c.5,1.127,1.619,1.855,2.853,1.855,1.056,0,2.032-.527,2.61-1.411s.672-1.988,.25-2.957l-1.582-3.633h.292c3.656,0,4.326,1.495,4.506,3.11,.157,1.215,1.964,1.107,1.994-.11V2c-.021-.112-.036-.226-.068-.336Zm-6.976,17.767c.154,.353,.121,.74-.09,1.062-.452,.693-1.625,.598-1.961-.16l-2.367-5.333h2.488l1.93,4.432Zm.544-6.432H4c-1.103,0-2-.897-2-2v-2c0-1.103,.897-2,2-2h5.5c1.923,0,3.421-.397,4.5-1.173V14.173c-1.079-.776-2.577-1.173-4.5-1.173Zm12.157,2.657c-.195,.195-.451,.293-.707,.293s-.512-.098-.707-.293c-.391-.391-.391-1.023,0-1.414,2.339-2.339,2.339-6.146,0-8.485-.391-.391-.391-1.023,0-1.414s1.023-.391,1.414,0c3.119,3.119,3.119,8.194,0,11.313Zm-2.94-2.536c-.195,.195-.451,.293-.707,.293s-.512-.098-.707-.293c-.391-.391-.391-1.023,0-1.414,.941-.941,.941-2.473,0-3.414-.391-.391-.391-1.023,0-1.414s1.023-.391,1.414,0c1.721,1.721,1.721,4.521,0,6.242Z"/>
</svg>
