<?xml version="1.0" encoding="UTF-8"?>
<svg xmlns="http://www.w3.org/2000/svg" id="Layer_1" data-name="Layer 1" viewBox="0 0 24 24">
  <path d="M19,4h-.101c-.465-2.279-2.484-4-4.899-4H5C2.243,0,0,2.243,0,5v12.855c-.053,1.663,1.984,2.754,3.34,1.787l2.967-1.978c.69,1.937,2.523,3.336,4.694,3.336h5.697l3.963,2.642c1.356,.967,3.393-.124,3.34-1.787V9c0-2.757-2.243-5-5-5ZM2.23,17.978c-.049,.079-.269-.037-.23-.123V5c0-1.654,1.346-3,3-3H14c1.654,0,3,1.346,3,3v7c0,1.654-1.346,3-3,3H7c-.198-.001-.383,.078-.555,.168l-4.215,2.81Zm19.77,3.877c.039,.086-.185,.203-.23,.123l-4.215-2.81c-.164-.109-.357-.168-.555-.168h-6c-1.302,0-2.402-.839-2.816-2h5.816c2.757,0,5-2.243,5-5V6c1.654,0,3,1.346,3,3v12.855ZM7.7,12h-1.7c-.552,0-1-.448-1-1V6c0-.552,.448-1,1-1h1.7c.442,0,.8,.358,.8,.8s-.358,.8-.8,.8h-1.101v1.101h1.101c.442,0,.8,.358,.8,.8s-.358,.8-.8,.8h-1.101v1.101h1.101c.442,0,.8,.358,.8,.8s-.358,.8-.8,.8Zm2.076-.966c-.33-.294-.36-.799-.066-1.129,.294-.332,.799-.36,1.129-.067,.271,.238,.864,.619,1.289,.619,.075,0,.739-.015,.739-.534,0-.253-.308-.44-1.042-.792-.815-.39-1.933-.925-1.933-2.208,0-1.172,.939-2.056,2.185-2.056,.938,0,1.877,.757,2.056,.908,.337,.286,.378,.791,.092,1.128-.285,.336-.788,.377-1.126,.093-.298-.25-.791-.53-1.021-.53-.06,0-.585,.013-.585,.457,0,.256,.405,.469,1.024,.765,.823,.394,1.95,.934,1.95,2.235,0,1.386-1.205,2.133-2.339,2.133-1.168,0-2.234-.917-2.352-1.022Z"/>
</svg>
