<?xml version="1.0" encoding="UTF-8"?>
<svg xmlns="http://www.w3.org/2000/svg" id="Layer_1" data-name="Layer 1" viewBox="0 0 24 24">
  <path d="m12,15c-.552,0-1-.448-1-1v-4c0-.552.448-1,1-1s1,.448,1,1v4c0,.552-.448,1-1,1Zm-4-6c-.552,0-1,.448-1,1,0,.26-.232.513-.579.631l-2.485.845c-1.158.393-1.936,1.408-1.936,2.524,0,.552.448,1,1,1s1-.448,1-1c0-.26.232-.513.579-.631l2.485-.845c1.158-.393,1.936-1.408,1.936-2.524,0-.552-.448-1-1-1Zm12,5c0,.552.447,1,1,1s1-.448,1-1c0-1.117-.777-2.131-1.936-2.524l-2.486-.845c-.346-.118-.578-.371-.578-.631,0-.552-.447-1-1-1s-1,.448-1,1c0,1.117.777,2.131,1.936,2.524l2.486.845c.346.118.578.371.578.631Zm-14.5,4c0-1.105-.895-2-2-2s-2,.895-2,2,.895,2,2,2,2-.895,2-2Zm-2,3c-2.035,0-3.138,1.208-3.257,1.346-.361.418-.315,1.05.103,1.411.418.361,1.049.315,1.411-.103.005-.007.615-.654,1.743-.654,1.11,0,1.71.62,1.752.664.197.223.472.336.749.336.231,0,.464-.08.653-.243.418-.361.464-.993.103-1.411-.119-.138-1.222-1.346-3.257-1.346Zm17-5c-1.105,0-2,.895-2,2s.895,2,2,2,2-.895,2-2-.895-2-2-2Zm3.257,6.347c-.119-.138-1.221-1.347-3.257-1.347s-3.138,1.208-3.257,1.347c-.356.413-.311,1.03.097,1.393.407.363,1.035.326,1.407-.075.024-.027.626-.665,1.753-.665,1.11,0,1.711.619,1.752.664.197.222.472.336.748.336.231,0,.465-.08.653-.243.418-.361.465-.992.104-1.41Zm-13.757-4.347c0,1.105.895,2,2,2s2-.895,2-2-.895-2-2-2-2,.895-2,2Zm2,3c-2.035,0-3.138,1.208-3.257,1.346-.361.418-.315,1.05.103,1.411.418.361,1.049.315,1.411-.103.005-.007.615-.654,1.743-.654,1.11,0,1.711.619,1.752.664.197.222.472.336.748.336.231,0,.465-.08.653-.243.418-.361.465-.992.104-1.41-.119-.138-1.221-1.347-3.257-1.347Zm0-17c1.105,0,2-.895,2-2s-.895-2-2-2-2,.895-2,2,.895,2,2,2Zm-1.743,3.654c.005-.007.615-.654,1.743-.654,1.11,0,1.711.619,1.752.664.197.222.472.336.748.336.231,0,.465-.08.653-.243.418-.361.465-.992.104-1.41-.119-.138-1.221-1.347-3.257-1.347s-3.138,1.208-3.257,1.346c-.361.418-.315,1.05.103,1.411s1.049.314,1.411-.103Z"/>
</svg>
