<?xml version="1.0" encoding="UTF-8"?>
<svg xmlns="http://www.w3.org/2000/svg" id="Layer_1" data-name="Layer 1" viewBox="0 0 24 24">
  <path d="M24,12c.002-1.948-1.604-3.53-3.552-3.5,1.398-1.354,1.416-3.608,.037-4.986-1.376-1.377-3.631-1.361-4.986,.038,.031-1.947-1.552-3.553-3.5-3.552-1.948-.002-3.53,1.604-3.5,3.552-1.354-1.398-3.608-1.416-4.986-.037-1.377,1.376-1.361,3.631,.038,4.986-1.947-.031-3.553,1.552-3.552,3.5-.002,1.948,1.604,3.53,3.552,3.5-1.398,1.354-1.416,3.608-.037,4.986,1.376,1.377,3.631,1.361,4.986-.038-.031,1.947,1.552,3.553,3.5,3.552,1.948,.002,3.53-1.604,3.5-3.552,1.354,1.398,3.608,1.416,4.986,.037,1.377-1.376,1.361-3.631-.038-4.986,1.947,.031,3.553-1.552,3.552-3.5Zm-7.05-7.071c.585-.584,1.537-.584,2.121,0s.585,1.537,0,2.122c.217-.176-1.825,1.508-4.356,2.743-.152-.186-.322-.356-.508-.508,1.222-2.513,2.934-4.596,2.743-4.356ZM3.5,13.5c-.827,0-1.5-.673-1.5-1.5s.672-1.499,1.499-1.5c.19,.021,2.586,.303,5.019,1.14-.006,.236-.006,.484,0,.72-2.647,.913-5.325,1.174-5.019,1.14Zm3.55,5.571c-.585,.584-1.537,.584-2.121,0s-.585-1.537,0-2.122c-.217,.176,1.825-1.508,4.356-2.743,.152,.186,.322,.356,.508,.508-1.222,2.513-2.934,4.596-2.743,4.356Zm2.235-9.278c-2.513-1.222-4.596-2.934-4.356-2.743-.584-.585-.584-1.537,0-2.121s1.537-.585,2.122,0c-.176-.217,1.508,1.825,2.743,4.356-.186,.152-.356,.322-.508,.508Zm1.215-6.293c-.027-1.945,3.026-1.946,3,0-.021,.19-.303,2.586-1.14,5.019-.236-.006-.484-.006-.72,0-.913-2.647-1.174-5.325-1.14-5.019Zm1.5,7c.827,0,1.5,.673,1.5,1.5s-.673,1.5-1.5,1.5-1.5-.673-1.5-1.5,.673-1.5,1.5-1.5Zm1.5,10c0,.827-.673,1.5-1.5,1.5s-1.499-.672-1.5-1.499c.021-.19,.303-2.586,1.14-5.019,.236,.006,.484,.006,.72,0,.913,2.647,1.174,5.325,1.14,5.019Zm5.571-1.429c-.585,.585-1.537,.585-2.122,0,.176,.217-1.508-1.825-2.743-4.356,.186-.152,.356-.322,.508-.508,2.513,1.222,4.596,2.934,4.356,2.743,.584,.585,.584,1.537,0,2.121Zm1.43-5.571c-.19-.021-2.586-.303-5.019-1.14,.006-.236,.006-.484,0-.72,2.647-.913,5.325-1.174,5.019-1.14,.827,0,1.5,.673,1.5,1.5s-.672,1.499-1.499,1.5Z"/>
</svg>
