<?xml version="1.0" encoding="UTF-8"?>
<svg xmlns="http://www.w3.org/2000/svg" id="Layer_1" data-name="Layer 1" viewBox="0 0 24 24">
  <path d="m13,1c0-.552.447-1,1-1h2c2.206,0,4,1.794,4,4v1.971l1.293-1.293c.391-.391,1.023-.391,1.414,0s.391,1.023,0,1.414l-2.346,2.346c-.375.375-.868.563-1.361.563s-.986-.188-1.361-.563l-2.346-2.346c-.391-.391-.391-1.023,0-1.414s1.023-.391,1.414,0l1.293,1.293v-1.971c0-1.103-.897-2-2-2h-2c-.553,0-1-.448-1-1Zm-3,21h-2c-1.103,0-2-.897-2-2v-1.971l1.293,1.293c.195.195.451.293.707.293s.512-.098.707-.293c.391-.391.391-1.023,0-1.414l-2.346-2.346c-.75-.751-1.973-.751-2.723,0l-2.346,2.346c-.391.391-.391,1.023,0,1.414s1.023.391,1.414,0l1.293-1.293v1.971c0,2.206,1.794,4,4,4h2c.553,0,1-.448,1-1s-.447-1-1-1Zm1-16.5c0,1.899-.968,3.636-2.588,4.647-.254.158-.412.468-.412.807,0,1.149-.897,2.046-2,2.046h-1c-1.103,0-2-.897-2-2,0-.386-.153-.693-.4-.846C.727,8.992-.269,6.829.065,4.643.408,2.403,2.115.588,4.314.125c1.66-.349,3.354.052,4.648,1.102,1.295,1.05,2.037,2.607,2.037,4.273Zm-2,0c0-1.06-.473-2.051-1.297-2.72-.634-.514-1.394-.781-2.196-.781-.257,0-.518.027-.78.083-1.366.288-2.471,1.465-2.685,2.863-.216,1.414.402,2.759,1.612,3.51.347.216.623.521.846.864v-2.425c-.4-.212-.734-.532-.935-.939-.218-.44.143-.954.634-.954h2.602c.491,0,.852.514.634.954-.201.407-.535.727-.935.939v2.434c.224-.349.503-.658.854-.877,1.031-.643,1.646-1.746,1.646-2.95Zm15,11c0,1.899-.968,3.636-2.588,4.647-.254.158-.412.468-.412.807,0,1.149-.897,2.046-2,2.046h-1c-1.103,0-2-.897-2-2,0-.386-.153-.693-.4-.846-1.873-1.162-2.868-3.325-2.534-5.511.343-2.239,2.05-4.055,4.249-4.518,1.66-.35,3.354.052,4.648,1.102,1.295,1.05,2.037,2.607,2.037,4.273Zm-2,0c0-1.06-.473-2.051-1.297-2.72-.634-.514-1.394-.781-2.196-.781-.257,0-.518.027-.78.083-1.366.288-2.471,1.465-2.685,2.863-.216,1.414.402,2.759,1.612,3.51.347.216.623.521.846.864v-2.425c-.4-.212-.734-.532-.935-.939-.218-.44.143-.954.634-.954h2.602c.491,0,.852.514.634.954-.201.407-.535.727-.935.939v2.434c.224-.349.503-.658.854-.877,1.031-.643,1.646-1.746,1.646-2.95Z"/>
</svg>
