<?xml version="1.0" encoding="UTF-8"?>
<svg xmlns="http://www.w3.org/2000/svg" id="Layer_1" data-name="Layer 1" viewBox="0 0 24 24">
  <path d="M20.522,12.57c-1.022-.306-1.855-.506-2.589-.682-1.804-.433-2.696-.647-3.933-1.809V3c.065-1.925-1.855-3.364-3.67-2.93-.061,.014-4.536,1.93-4.536,1.93h-1.794C1.794,2,0,3.794,0,6v15.5c0,1.379,1.122,2.5,2.5,2.5H6.5c1.378,0,2.5-1.121,2.5-2.5v-1.113l3.606,1.202c.455,.152,.922,.252,1.394,.32v1.092c0,.553,.448,1,1,1s1-.447,1-1v-1h2v1c0,.553,.448,1,1,1s1-.447,1-1v-1h2v1c0,.553,.448,1,1,1s1-.447,1-1v-5c0-2.236-1.204-4.822-3.478-5.43ZM2,6c0-1.103,.897-2,2-2h2v2c0,.551-.449,1-1,1H2v-1ZM6.5,22H2.5c-.276,0-.5-.225-.5-.5v-1.5H7v1.5c0,.275-.224,.5-.5,.5Zm15.5-2h-6.864c-.646,0-1.285-.104-1.897-.308l-3.844-1.281c-.816-.272-1.667-.411-2.53-.411H2V9h3c1.654,0,3-1.346,3-3V3.229l2.84-1.221c.593-.081,1.189,.337,1.16,.992v6.698l-1.498,.86c-.479,.275-.644,.886-.369,1.365,.185,.322,.521,.502,.868,.502,.169,0,.34-.042,.497-.133l1.211-.695c.524,.482,1.02,.851,1.51,1.128l-.752,1.316c-.274,.479-.107,1.09,.372,1.364,.156,.09,.327,.132,.495,.132,.347,0,.685-.181,.869-.504l.887-1.552c.429,.123,.882,.232,1.377,.351,.709,.17,1.513,.363,2.511,.661,1.266,.339,2.022,2.049,2.022,3.506v2Z"/>
</svg>
