<?xml version="1.0" encoding="UTF-8"?>
<svg xmlns="http://www.w3.org/2000/svg" id="Layer_1" data-name="Layer 1" viewBox="0 0 24 24">
  <path d="M21,10h-1V5c0-2.757-2.243-5-5-5h-6c-2.757,0-5,2.243-5,5v5h-1c-1.654,0-3,1.346-3,3v6c0,2.757,2.243,5,5,5h14c2.757,0,5-2.243,5-5v-6c0-1.654-1.346-3-3-3Zm-15,2h2.5v10h-2.5V12Zm4.5,0h3v10h-3V12Zm5,0h2.5v10h-2.5V12ZM9,2h6c1.654,0,3,1.346,3,3v5H6V5c0-1.654,1.346-3,3-3ZM2,19v-6c0-.552,.448-1,1-1h1v9.816c-1.161-.414-2-1.514-2-2.816Zm20,0c0,1.302-.839,2.402-2,2.816V12h1c.552,0,1,.448,1,1v6Z"/>
</svg>
