<?xml version="1.0" encoding="UTF-8"?>
<svg xmlns="http://www.w3.org/2000/svg" id="Layer_1" data-name="Layer 1" viewBox="0 0 24 24">
  <path d="M21.823,6.461c-.577-1.766-2.055-3.029-3.823-3.365v-.096c0-.552-.448-1-1-1s-1,.448-1,1H8c0-.552-.448-1-1-1s-1,.448-1,1v.096c-1.767,.336-3.246,1.599-3.823,3.365C.37,11.997,0,17.661,0,18.875c0,1.723,1.402,3.125,3.125,3.125,2.534,0,4.943-4.158,5.863-6.357,.163-.391,.526-.643,.926-.643h4.173c.399,0,.763,.252,.926,.643,.919,2.199,3.328,6.357,5.862,6.357,1.723,0,3.125-1.402,3.125-3.125,0-1.214-.37-6.878-2.177-12.414Zm-.948,13.539c-.962,0-2.915-2.492-4.017-5.129-.475-1.137-1.562-1.871-2.771-1.871h-4.173c-1.209,0-2.296,.734-2.771,1.871-1.103,2.637-3.055,5.129-4.018,5.129-.62,0-1.125-.505-1.125-1.125,0-1.146,.353-6.508,2.079-11.792,.407-1.246,1.554-2.083,2.854-2.083h10.134c1.301,0,2.448,.837,2.854,2.083,1.726,5.284,2.079,10.646,2.079,11.792,0,.62-.505,1.125-1.125,1.125ZM9,9.5c0,.828-.672,1.5-1.5,1.5s-1.5-.672-1.5-1.5,.672-1.5,1.5-1.5,1.5,.672,1.5,1.5Zm9,0c0,.828-.672,1.5-1.5,1.5s-1.5-.672-1.5-1.5,.672-1.5,1.5-1.5,1.5,.672,1.5,1.5Z"/>
</svg>
