<?xml version="1.0" encoding="UTF-8"?>
<svg xmlns="http://www.w3.org/2000/svg" id="Layer_1" data-name="Layer 1" viewBox="0 0 24 24">
  <path d="M15.5,14h-3.229l-1.481-.864c-.153-.089-.327-.136-.504-.136h-1.786c-1.378,0-2.5,1.122-2.5,2.5v5.5c0,1.654,1.346,3,3,3h6c1.654,0,3-1.346,3-3v-4.5c0-1.378-1.121-2.5-2.5-2.5Zm-.5,8h-6c-.551,0-1-.449-1-1v-4h8v4c0,.551-.448,1-1,1Zm-3.5-13c-.428,0-.839,.115-1.204,.317l.499,.499c.437,.437,.128,1.184-.49,1.184h-2.594c-.393,0-.711-.318-.711-.711v-2.594c0-.618,.747-.927,1.184-.49l.666,.666c.761-.555,1.684-.871,2.65-.871,2.225,0,4.14,1.659,4.455,3.858,.09,.597-.389,1.147-.991,1.142-.489,0-.917-.359-.989-.858-.175-1.221-1.239-2.142-2.475-2.142Zm12.5,3.5c0,2.107-.895,4.129-2.453,5.548-.406,.372-1.039,.342-1.412-.067-.372-.408-.342-1.041,.066-1.413,1.144-1.04,1.799-2.523,1.799-4.068,0-2.614-1.857-4.882-4.417-5.394-.958-.191-1.744-.8-2.158-1.673-1.183-2.494-3.823-3.834-6.567-3.329-2.407,.44-4.369,2.439-4.771,4.862-.122,.735-.114,1.469,.024,2.181,.191,.989-.178,2.047-.963,2.761-.729,.663-1.146,1.607-1.146,2.591,0,1.405,.502,2.417,1.581,3.186,.45,.32,.554,.945,.233,1.395-.322,.452-.95,.552-1.395,.233-1.605-1.145-2.419-2.764-2.419-4.814,0-1.546,.656-3.03,1.801-4.07,.273-.248,.405-.593,.345-.901-.183-.947-.194-1.919-.033-2.89C2.66,3.349,5.226,.736,8.497,.137c3.592-.658,7.185,1.168,8.734,4.439,.141,.295,.411,.502,.742,.569,3.492,.697,6.026,3.79,6.026,7.354Z"/>
</svg>
