<?xml version="1.0" encoding="UTF-8"?>
<svg xmlns="http://www.w3.org/2000/svg" id="Layer_1" data-name="Layer 1" viewBox="0 0 24 24">
  <path d="M22.979,9.682c0,1.509-.502,2.913-.986,4.271-.499,1.395-1.014,2.837-1.014,4.443v2.104c0,1.93-1.57,3.5-3.5,3.5-.736,0-1.449-.232-2.062-.672-.448-.321-.552-.946-.229-1.396,.321-.449,.945-.553,1.396-.229,.188,.136,.498,.297,.896,.297,.827,0,1.5-.673,1.5-1.5v-2.104c0-1.952,.601-3.633,1.13-5.116,.447-1.253,.87-2.436,.87-3.599,0-1.461-.563-1.682-2.5-1.682-1.19,.046-2.317-.858-3.338-1-.35,0-1.162,.107-1.162,1.104,0,.625,.526,1.241,1.136,1.955,.231,.271,.467,.548,.686,.836,.334,.44,.249,1.067-.19,1.401-.439,.335-1.068,.25-1.401-.19-.196-.259-.408-.506-.615-.748-.757-.887-1.614-1.892-1.614-3.254,0-2.037,1.591-3.104,3.162-3.104,1.144-.044,2.297,.913,3.338,1,1.347,0,4.5,0,4.5,3.682Zm-4.387-5.541c.611-.017,1.103-.86,1.099-1.883-.004-1.023-.502-1.634-1.112-1.617-.611,.017-1.103,.655-1.099,1.678,.004,1.023,.502,1.838,1.113,1.821Zm2.845,1.359c.526-.015,.949-.737,.946-1.614-.003-.877-.432-1.4-.958-1.386-.526,.015-.95,.562-.946,1.438s.432,1.576,.958,1.561Zm1.927-.5c-.349,.01-.63,.374-.628,.959s.287,1.05,.636,1.041,.63-.491,.628-1.076c-.002-.585-.287-.934-.636-.924Zm-12.364,6.5v3c0,1.381-1.119,2.5-2.5,2.5s-2.5-1.119-2.5-2.5v-3c0-1.381,1.119-2.5,2.5-2.5s2.5,1.119,2.5,2.5Zm-1.6,0c0-.496-.404-.9-.9-.9s-.9,.404-.9,.9v3c0,.496,.404,.9,.9,.9s.9-.404,.9-.9v-3Zm-6.963-.895c.374-.025,.705,.181,.863,.489,.132,.258,.409,.409,.699,.409,.606,0,.989-.647,.703-1.181-.414-.771-1.222-1.3-2.154-1.317-1.401-.027-2.547,1.154-2.547,2.555v2.886c0,1.401,1.146,2.581,2.547,2.555,.932-.018,1.74-.546,2.154-1.317,.287-.534-.097-1.181-.703-1.181-.29,0-.567,.151-.699,.409-.158,.308-.488,.514-.863,.488-.478-.032-.838-.45-.838-.929v-2.936c0-.479,.36-.897,.838-.929Zm13.563,8.741v-.025c0-.361-.293-.654-.654-.654h-1.346c.575-.526,2-1.244,2-2.667,0-1.129-.935-2.039-2.073-1.999-.931,.033-1.684,.719-1.878,1.599-.002,.009-.004,.02-.006,.032-.057,.369,.233,.702,.607,.702h0c.356,0,.657-.247,.748-.592,.005-.018,.01-.032,.015-.042,.109-.21,.318-.359,.566-.366,.378-.011,.687,.291,.687,.666,0,1-2.667,1.84-2.667,3.346,0,.361,.293,.654,.654,.654h2.692c.361,0,.654-.293,.654-.654ZM11.999,5.493c.955-.112,1.608-1.502,1.459-3.105C13.309,.785,12.444-.102,11.489,.009s-1.638,1.181-1.489,2.784c.149,1.603,1.044,2.811,1.999,2.699Zm3.593-1.993c.611-.017,1.103-.86,1.099-1.883-.004-1.023-.502-1.634-1.112-1.617-.611,.017-1.103,.655-1.099,1.678,.004,1.023,.502,1.838,1.113,1.821Z"/>
</svg>
