<?xml version="1.0" encoding="UTF-8"?>
<svg xmlns="http://www.w3.org/2000/svg" id="Layer_1" data-name="Layer 1" viewBox="0 0 24 24">
  <path d="M22.828,1.62c-.737-.568-1.676-.757-2.573-.52-1.019,.266-2.228,.899-3.253,.9C14.002,1.952,10.066-.027,7.002,0,4.95,0,2.94,.813,1.616,1.496c-.997,.514-1.616,1.534-1.616,2.663V23c0,.553,.448,1,1,1s1-.447,1-1v-5.438c.893-.511,2.981-1.562,5-1.562,3,.049,6.937,2.027,10,2,1.804,0,3.713-.437,5.107-1.167,1.203-.63,1.893-1.644,1.893-2.78l.002-10.049c0-.941-.428-1.811-1.174-2.384Zm-.828,12.433c0,.479-.446,.812-.82,1.009-1.122,.588-2.685,.938-4.18,.938-3-.049-6.936-2.027-10-2-1.892,0-3.748,.698-5,1.302V4.158c0-.376,.204-.716,.532-.885,.923-.476,2.731-1.273,4.47-1.273,3,.048,6.937,2.027,10,2,1.019,0,1.966-.343,2.803-.646,.337-.122,.659-.24,.962-.32,.401-.106,.7,.062,.842,.171,.25,.192,.394,.483,.394,.799l-.002,10.049ZM13,6c0,.552-.448,1-1,1s-1-.448-1-1,.448-1,1-1,1,.448,1,1Zm0,6c0,.552-.448,1-1,1s-1-.448-1-1,.448-1,1-1,1,.448,1,1Zm-2.765-2.059c.26,.487,.076,1.093-.412,1.353-.487,.26-1.093,.076-1.353-.412s-.076-1.093,.412-1.353c.487-.26,1.093-.076,1.353,.412Zm5.294-2.824c.26,.487,.076,1.093-.412,1.353-.487,.26-1.093,.076-1.353-.412-.26-.487-.076-1.093,.412-1.353s1.093-.076,1.353,.412Zm0,3.765c-.26,.487-.866,.672-1.353,.412-.487-.26-.672-.866-.412-1.353s.866-.672,1.353-.412c.487,.26,.672,.866,.412,1.353Zm-5.294-2.823c-.26,.487-.866,.672-1.353,.412-.487-.26-.672-.866-.412-1.353s.866-.672,1.353-.412,.672,.866,.412,1.353Z"/>
</svg>
