<?xml version="1.0" encoding="UTF-8"?>
<svg xmlns="http://www.w3.org/2000/svg" id="Layer_1" data-name="Layer 1" viewBox="0 0 24 24">
  <path d="M23.697,18.335l-2.153-3.335c1.141,0,1.859-1.012,1.211-1.952l-2.755-4.048c1.032,.043,1.745-.669,1.129-1.526l-2.664-3.042c-.355-.402-.904-.505-1.379-.346-.048-.048-2.94-3.121-2.94-3.121-.541-.613-1.323-.964-2.146-.964s-1.605,.352-2.116,.931l-2.988,3.151c-.471-.151-1.011-.048-1.362,.349l-2.664,3.042c-.616,.858,.098,1.569,1.129,1.526L1.245,13.048c-.648,.94,.07,1.952,1.211,1.952L.303,18.335c-.777,1.128,.03,2.665,1.4,2.665H6v2c0,.552,.447,1,1,1s1-.448,1-1v-2h3v2c0,.552,.447,1,1,1s1-.448,1-1v-2h3v2c0,.552,.447,1,1,1s1-.448,1-1v-2h4.297c1.37,0,2.177-1.537,1.4-2.665Zm-6.9,.665h-3.797v-7c0-.552-.447-1-1-1s-1,.448-1,1v7h-3.797c-1.37,0-2.177-1.537-1.4-2.665l2.153-3.335c-1.141,0-1.859-1.012-1.211-1.952l2.755-4.048c-1.032,.043-1.745-.669-1.129-1.526l2.664-3.042c.509-.575,1.423-.575,1.931,0l2.697,3.042c.615,.857-.132,1.569-1.163,1.526l2.739,4.048c.648,.94,.02,1.952-1.122,1.952l2.079,3.335c.777,1.128-.03,2.665-1.4,2.665Z"/>
</svg>
