<?xml version="1.0" encoding="UTF-8"?>
<svg xmlns="http://www.w3.org/2000/svg" id="Layer_1" data-name="Layer 1" viewBox="0 0 24 24">
  <path d="M4.618,13.958c.171-.569,.694-.958,1.287-.958s1.117,.389,1.287,.958l.757,2.524c.227,.757-.34,1.519-1.13,1.519h-1.829c-.79,0-1.357-.762-1.13-1.519l.757-2.524Zm8.382-3.958c-1.654,0-3-1.346-3-3V2.023c-.16-.016-.322-.023-.485-.023h-2.515v1c0,.553-.448,1-1,1s-1-.447-1-1v-1c-1.654,0-3,1.346-3,3v14c0,1.654,1.346,3,3,3h4c.552,0,1,.447,1,1s-.448,1-1,1H5c-2.757,0-5-2.243-5-5V5C0,2.243,2.243,0,5,0h4.515c1.871,0,3.628,.729,4.95,2.051l3.485,3.484c.888,.889,1.521,2.001,1.833,3.217,.077,.3,.011,.617-.179,.861s-.481,.387-.79,.387h-5.813Zm0-2h4.338c-.219-.383-.489-.736-.803-1.051l-3.485-3.484c-.318-.318-.671-.588-1.05-.806V7c0,.552,.449,1,1,1Zm-7,0c.552,0,1-.447,1-1v-1c0-.553-.448-1-1-1s-1,.447-1,1v1c0,.553,.448,1,1,1Zm-1,3c0,.553,.448,1,1,1s1-.447,1-1v-1c0-.553-.448-1-1-1s-1,.447-1,1v1Zm13,6.5c-.828,0-1.5,.672-1.5,1.5s.672,1.5,1.5,1.5,1.5-.672,1.5-1.5-.672-1.5-1.5-1.5Zm6-1.297v3.797c0,2.206-1.794,4-4,4h-4c-2.206,0-4-1.794-4-4v-4c0-2.206,1.794-4,4-4h3.796c.801,0,1.555,.312,2.122,.879l1.203,1.203c.567,.566,.879,1.32,.879,2.121Zm-2,0c0-.263-.107-.521-.293-.707l-1.203-1.203c-.139-.138-.316-.213-.504-.253v.96c0,.552-.448,1-1,1h-2c-.552,0-1-.448-1-1v-1c-1.103,0-2,.897-2,2v4c0,1.103,.897,2,2,2h4c1.103,0,2-.897,2-2v-3.797Z"/>
</svg>
