<?xml version="1.0" encoding="UTF-8"?>
<svg xmlns="http://www.w3.org/2000/svg" id="Layer_1" data-name="Layer 1" viewBox="0 0 24 24">
  <path d="M12,0C5.383,0,0,5.383,0,12s5.383,12,12,12,12-5.383,12-12S18.617,0,12,0Zm0,22c-5.514,0-10-4.486-10-10S6.486,2,12,2s10,4.486,10,10-4.486,10-10,10Zm4.402-14.779c-.688-.304-1.47-.294-2.226,.071-.153,.091-1.248,.66-2.178,1.139-.777-.397-2.29-1.17-2.464-1.256-.901-.374-1.993-.136-2.727,.6-.759,.777-.962,1.906-.519,2.876,.008,.019,3.393,6.392,3.393,6.392,.443,.886,1.328,1.456,2.317,1.458,.986,0,1.89-.563,2.32-1.413,.113-.204,2.773-5.013,3.396-6.453,.281-.634,.299-1.338,.051-1.982-.249-.645-.733-1.153-1.364-1.432Zm-.519,2.613c-.587,1.358-3.286,6.236-3.33,6.316-.152,.299-.427,.332-.54,.332h-.002c-.112,0-.389-.034-.552-.357-2.515-4.735-3.169-5.967-3.352-6.306-.097-.213-.045-.467,.125-.642,.181-.182,.426-.203,.467-.187,.168,.084,2.845,1.454,2.845,1.454,.286,.147,.626,.146,.912,0,.405-.208,2.44-1.255,2.66-1.389,.148-.071,.321-.073,.478-.004,.141,.062,.249,.176,.306,.321,.056,.147,.052,.309-.017,.462Z"/>
</svg>
