<?xml version="1.0" encoding="UTF-8"?>
<svg xmlns="http://www.w3.org/2000/svg" id="Layer_1" data-name="Layer 1" viewBox="0 0 24 24">
  <path d="M23,9h-1v-2c0-2.206-1.794-4-4-4h-3l-1.615-2.427c-.765-.765-2.005-.765-2.769,0l-1.615,2.427h-3c-2.206,0-4,1.794-4,4v2H1c-.552,0-1,.448-1,1s.448,1,1,1h7v11h-2c-.552,0-1,.448-1,1s.448,1,1,1h12c.552,0,1-.448,1-1s-.448-1-1-1h-2V11h7c.552,0,1-.448,1-1s-.448-1-1-1Zm-9,13h-4V11h4v11Zm6-13h-2v-1c0-.552-.448-1-1-1s-1,.448-1,1v1h-3v-1c0-.552-.448-1-1-1s-1,.448-1,1v1h-3v-1c0-.552-.448-1-1-1s-1,.448-1,1v1h-2v-2c0-1.103,.897-2,2-2h12c1.103,0,2,.897,2,2v2Z"/>
</svg>
