<?xml version="1.0" encoding="UTF-8"?>
<svg xmlns="http://www.w3.org/2000/svg" id="Layer_1" data-name="Layer 1" viewBox="0 0 24 24">
  <path d="M2.5,19h1c1.378,0,2.5-1.121,2.5-2.5v-7.673L11.307,1.592c.326-.445,.23-1.071-.215-1.398-.446-.327-1.071-.229-1.398,.215,0,0-5.541,7.561-5.56,7.592h-1.134c-1.654,0-3,1.346-3,3v5.5c0,1.379,1.122,2.5,2.5,2.5Zm-.5-8c0-.552,.449-1,1-1h1v6.5c0,.275-.224,.5-.5,.5h-1c-.276,0-.5-.225-.5-.5v-5.5Zm19-3h-1.134c-.019-.031-5.56-7.592-5.56-7.592-.328-.444-.953-.542-1.398-.215-.445,.327-.542,.953-.215,1.398l5.307,7.235v7.673c0,1.379,1.121,2.5,2.5,2.5h1c1.379,0,2.5-1.121,2.5-2.5v-5.5c0-1.654-1.346-3-3-3Zm1,8.5c0,.275-.225,.5-.5,.5h-1c-.275,0-.5-.225-.5-.5v-6.5h1c.552,0,1,.448,1,1v5.5Zm1.744,5.065c.369,.41,.335,1.043-.076,1.412-.733,.659-1.681,1.022-2.668,1.022-1.13,0-2.221-.479-3-1.236-.779,.757-1.87,1.236-3,1.236s-2.221-.479-3-1.235c-.779,.757-1.87,1.235-3,1.235s-2.221-.479-3-1.235c-.779,.757-1.869,1.235-3,1.235-.987,0-1.935-.363-2.668-1.022-.411-.369-.444-1.002-.075-1.412,.369-.41,1.002-.443,1.412-.076,.366,.329,.839,.511,1.332,.511,.89,0,1.793-.586,2.057-1.333,.323-.856,1.563-.856,1.886,0,.264,.747,1.167,1.333,2.057,1.333s1.793-.586,2.057-1.333c.323-.856,1.563-.856,1.886,0,.264,.747,1.167,1.333,2.057,1.333s1.793-.586,2.058-1.333c.322-.857,1.563-.856,1.885,0,.265,.747,1.169,1.333,2.058,1.333,.492,0,.966-.182,1.332-.511,.408-.367,1.04-.337,1.412,.076Z"/>
</svg>
