<?xml version="1.0" encoding="UTF-8"?>
<svg xmlns="http://www.w3.org/2000/svg" id="Layer_1" data-name="Layer 1" viewBox="0 0 24 24">
  <path d="M19.949,5.535l-3.484-3.484c-1.322-1.322-3.08-2.051-4.95-2.051H7C4.243,0,2,2.243,2,5v14c0,2.757,2.243,5,5,5h10c2.757,0,5-2.243,5-5V10.485c0-1.87-.729-3.628-2.051-4.95Zm-1.414,1.414c.315,.315,.564,.675,.781,1.051h-4.316c-.552,0-1-.448-1-1V2.684c.376,.217,.736,.466,1.051,.781l3.484,3.484Zm1.465,12.051c0,1.654-1.346,3-3,3H7c-1.654,0-3-1.346-3-3V5c0-1.654,1.346-3,3-3h4.515c.165,0,.323,.032,.485,.047V7c0,1.654,1.346,3,3,3h4.953c.016,.162,.047,.32,.047,.485v8.515Zm-4.787-5.467c-.587-1.508-2.035-2.533-3.713-2.533-2.206,0-4,1.794-4,4,0,.069,.002,.138,.006,.206-.885,.386-1.506,1.269-1.506,2.294,0,1.379,1.122,2.5,2.5,2.5h6.25c1.792,0,3.25-1.458,3.25-3.25,0-1.635-1.214-2.991-2.787-3.217Zm-.463,4.467h-6.25c-.276,0-.5-.225-.5-.5s.224-.5,.565-.508c.345,.039,.688-.097,.906-.368,.217-.272,.277-.638,.158-.965-.089-.247-.129-.45-.129-.659,0-1.103,.897-2,2-2,.984,0,1.81,.709,1.965,1.687,.085,.539,.624,.904,1.174,.827,.724-.1,1.361,.51,1.361,1.236,0,.689-.561,1.25-1.25,1.25Z"/>
</svg>
