<?xml version="1.0" encoding="UTF-8"?>
<svg xmlns="http://www.w3.org/2000/svg" id="Layer_1" data-name="Layer 1" viewBox="0 0 24 24">
  <path d="M8.551,12.4v-.8h-.251c-.442,0-.8-.358-.8-.8s.358-.8,.8-.8h.418c.444-1.55,1.803-2.731,3.482-2.797,1.303-.051,2.461,.562,3.178,1.525,.391,.525,.014,1.272-.641,1.272h-.04c-.235,0-.449-.118-.589-.307-.422-.571-1.109-.933-1.882-.89-.796,.044-1.459,.527-1.809,1.197h1.282c.442,0,.8,.358,.8,.8s-.358,.8-.8,.8h-1.549v.8h1.549c.442,0,.8,.358,.8,.8s-.358,.8-.8,.8h-1.282c.349,.67,1.012,1.152,1.809,1.197,.773,.043,1.459-.319,1.882-.89,.146-.198,.383-.307,.629-.307,.655,0,1.032,.747,.641,1.272-.717,.963-1.875,1.576-3.179,1.525-1.679-.065-3.038-1.247-3.482-2.797h-.418c-.442,0-.8-.358-.8-.8s.358-.8,.8-.8h.251ZM23.472,2.696L21.228,.314c-.379-.403-1.013-.42-1.414-.042-.402,.379-.421,1.012-.042,1.414l1.239,1.314H12C7.038,3,3,7.038,3,12c0,.761,.095,1.518,.284,2.249,.135,.539,.696,.857,1.217,.72,.535-.138,.857-.683,.719-1.218-.146-.568-.22-1.158-.22-1.751,0-3.86,3.14-7,7-7h9.01l-1.238,1.314c-.378,.402-.36,1.035,.042,1.414,.401,.378,1.034,.36,1.414-.042l2.223-2.36c.731-.731,.731-1.92,.021-2.63Zm-3.973,6.336c-.535,.138-.856,.683-.719,1.218,.146,.568,.22,1.157,.22,1.75,0,3.859-3.14,7-7,7H2.99l1.238-1.314c.378-.402,.36-1.035-.042-1.413-.401-.38-1.035-.36-1.414,.042l-2.222,2.359c-.355,.354-.55,.825-.55,1.326s.195,.973,.528,1.304l2.244,2.382c.197,.209,.462,.314,.728,.314,.246,0,.493-.09,.686-.272,.402-.378,.421-1.011,.042-1.413l-1.238-1.314H12c4.962,0,9-4.037,9-9,0-.762-.095-1.519-.284-2.25-.138-.534-.68-.855-1.218-.719Z"/>
</svg>
