<?xml version="1.0" encoding="UTF-8"?>
<svg xmlns="http://www.w3.org/2000/svg" id="Layer_1" data-name="Layer 1" viewBox="0 0 24 24">
  <path d="M19,0H5C2.243,0,0,2.243,0,5v14c0,2.757,2.243,5,5,5h14c2.757,0,5-2.243,5-5V5c0-2.757-2.243-5-5-5Zm3,19c0,1.654-1.346,3-3,3H5c-1.654,0-3-1.346-3-3V5c0-1.654,1.346-3,3-3h14c1.654,0,3,1.346,3,3v14Zm-6.341-8.523l-1.432-3.024v2.801c0,.412-.334,.747-.747,.747s-.747-.334-.747-.747V4.914c0-.505,.409-.914,.914-.914,.354,0,.675,.204,.827,.524l1.433,3.031v-2.808c0-.412,.334-.747,.747-.747s.747,.334,.747,.747v5.339c0,.505-.409,.915-.915,.915-.353,0-.675-.204-.827-.523ZM9.018,3.846c-1.289,0-2.333,1.045-2.333,2.333v2.602c0,1.289,1.045,2.333,2.333,2.333s2.333-1.045,2.333-2.333v-2.602c0-1.289-1.045-2.333-2.333-2.333Zm.733,4.936c0,.404-.329,.733-.733,.733s-.733-.329-.733-.733v-2.602c0-.404,.329-.733,.733-.733s.733,.329,.733,.733v2.602Zm3.348,5.018v5.4c0,.442-.358,.8-.8,.8s-.8-.358-.8-.8v-5.4c0-.442,.358-.8,.8-.8s.8,.358,.8,.8Zm5.884,1.173c-.137-1.136-1.135-1.973-2.279-1.973h-1.228c-.618,0-.976,.358-.976,.8v5.4c0,.442,.358,.8,.8,.8s.8-.358,.8-.8v-1.7h.413l.718,1.973c.115,.316,.416,.527,.752,.527,.555,0,.942-.552,.752-1.074l-.674-1.853c.636-.458,1.028-1.235,.923-2.1Zm-2.233,.927h-.65v-1.3h.65c.358,0,.65,.292,.65,.65s-.292,.65-.65,.65Zm-9.434-2.697c-.445,.242-.765,.679-.875,1.186l-1.072,4.664c-.112,.485,.257,.948,.755,.948,.358,0,.669-.245,.753-.593l.097-.401h2.148l.086,.387c.083,.384,.444,.636,.832,.607,.497,0,.865-.461,.755-.946l-1.051-4.626c-.213-1.129-1.438-1.774-2.428-1.225Zm.043,4.203l.646-2.678c.019-.068,.05-.122,.097-.122,.014,.01,.057,.063,.082,.176l.583,2.624h-1.407Z"/>
</svg>
