<?xml version="1.0" encoding="UTF-8"?>
<svg xmlns="http://www.w3.org/2000/svg" id="Layer_1" data-name="Layer 1" viewBox="0 0 24 24">
  <path d="M18,10c1.302,0,2.402-.839,2.816-2h1.184c.552,0,1-.448,1-1v-3c0-.552-.448-1-1-1h-.382l.776-1.553c.155-.31,.138-.678-.044-.973s-.504-.475-.851-.475H6C3.794,0,2,1.794,2,4v2c0,2.206,1.794,4,4,4h4.057l-1.52,4.054c-.437,1.164-1.565,1.946-2.809,1.946H2v-3c0-.553-.448-1-1-1s-1,.447-1,1v8c0,.553,.448,1,1,1s1-.447,1-1v-3h3.728c2.073,0,3.954-1.304,4.682-3.244l1.784-4.756h5.807ZM4,6v-2c0-1.103,.897-2,2-2h13.882l-.776,1.553c-.069,.139-.105,.292-.105,.447v3c0,.552-.449,1-1,1H6c-1.103,0-2-.897-2-2Zm19.662,12.389c-.842-1.266-2.761-3.389-6.162-3.389s-5.32,2.123-6.161,3.388c-.45,.675-.451,1.548,0,2.224,.842,1.266,2.762,3.389,6.162,3.389s5.32-2.123,6.162-3.389c.449-.675,.449-1.548,0-2.223Zm-1.665,1.115c-.757,1.139-2.152,2.496-4.497,2.496s-3.739-1.357-4.496-2.504c.757-1.139,2.151-2.496,4.496-2.496s3.739,1.357,4.497,2.496v.008Zm-3.022-.004c0,.829-.671,1.5-1.5,1.5s-1.5-.671-1.5-1.5,.671-1.5,1.5-1.5,1.5,.671,1.5,1.5Z"/>
</svg>
