<?xml version="1.0" encoding="UTF-8"?>
<svg xmlns="http://www.w3.org/2000/svg" id="Layer_1" data-name="Layer 1" viewBox="0 0 24 24">
  <path d="M10.513,1.5c0-.828,.672-1.5,1.5-1.5s1.5,.672,1.5,1.5-.672,1.5-1.5,1.5-1.5-.672-1.5-1.5Zm1.487,19.5c-.828,0-1.5,.672-1.5,1.5s.672,1.5,1.5,1.5,1.5-.672,1.5-1.5-.672-1.5-1.5-1.5Zm10.506-10.494c-.828,0-1.5,.672-1.5,1.5s.672,1.5,1.5,1.5,1.5-.672,1.5-1.5-.672-1.5-1.5-1.5ZM3.006,11.994c0-.828-.672-1.5-1.5-1.5S.006,11.165,.006,11.994s.672,1.5,1.5,1.5,1.5-.672,1.5-1.5Zm18.784,4.1c-.712-.424-1.632-.191-2.056,.52-.424,.712-.191,1.632,.52,2.056,.712,.424,1.632,.191,2.057-.52,.424-.712,.191-1.632-.521-2.056ZM3.758,5.33c-.712-.424-1.632-.191-2.057,.52-.424,.712-.191,1.632,.521,2.057,.712,.424,1.632,.191,2.056-.52,.424-.712,.191-1.632-.52-2.057Zm3.634-1.057c.712-.424,.945-1.345,.52-2.057-.424-.712-1.345-.945-2.056-.52-.712,.424-.945,1.345-.52,2.057,.424,.712,1.345,.945,2.056,.52Zm9.227,15.455c-.712,.424-.945,1.345-.52,2.056,.424,.712,1.345,.945,2.056,.52,.712-.424,.945-1.345,.521-2.056-.424-.712-1.345-.945-2.057-.52Zm-14.398-3.634c-.712,.424-.945,1.345-.521,2.056,.424,.712,1.345,.945,2.057,.52,.712-.424,.945-1.345,.52-2.056-.424-.712-1.345-.945-2.056-.52ZM21.79,7.907c.712-.424,.945-1.345,.521-2.057-.424-.712-1.345-.945-2.057-.52-.712,.424-.945,1.345-.52,2.057,.424,.712,1.345,.945,2.056,.52Zm-3.634-6.211c-.712-.424-1.632-.191-2.056,.52-.424,.712-.191,1.632,.52,2.057,.712,.424,1.632,.191,2.057-.52,.424-.712,.191-1.632-.521-2.057ZM7.393,19.728c-.712-.424-1.632-.191-2.056,.52-.424,.712-.191,1.632,.52,2.056,.712,.424,1.632,.191,2.056-.52,.424-.712,.191-1.632-.52-2.056Zm10.607-6.228v-4.7c0-.442-.358-.8-.8-.8s-.8,.358-.8,.8v4.7c0,.496-.404,.9-.9,.9s-.9-.404-.9-.9v-4.7c0-.442-.358-.8-.8-.8s-.8,.358-.8,.8v4.557c0,1.308,.941,2.499,2.242,2.63,1.496,.15,2.758-1.021,2.758-2.487Zm-7,1.7c0-.442-.358-.8-.8-.8h-2.101v-1.601h2.101c.442,0,.8-.358,.8-.8s-.358-.8-.8-.8h-2.101v-1.601h2.101c.442,0,.8-.358,.8-.8s-.358-.8-.8-.8h-2.7c-.552,0-1,.448-1,1v6c0,.552,.448,1,1,1h2.7c.442,0,.8-.358,.8-.8Z"/>
</svg>
