<?xml version="1.0" encoding="UTF-8"?>
<svg xmlns="http://www.w3.org/2000/svg" id="Layer_1" data-name="Layer 1" viewBox="0 0 24 24">
  <path d="M19.5,0H4.5C2.019,0,0,2.019,0,4.5v5.501c0,1.473,.867,2.829,2.264,3.539,1.688,.858,2.736,2.567,2.736,4.46v5c0,.553,.448,1,1,1s1-.447,1-1v-5c0-1.604,.779-3.123,2.084-4.062,.448-.322,.55-.947,.228-1.396s-.947-.552-1.396-.228c-.784,.565-1.423,1.285-1.907,2.094-.663-1.11-1.632-2.037-2.839-2.65-.722-.367-1.17-1.041-1.17-1.757v-3.001H22v2c0,.552,.448,1,1,1s1-.448,1-1V4.5c0-2.481-2.019-4.5-4.5-4.5Zm-6.5,2h3.5v3h-3.5V2Zm-2,3h-3.5V2h3.5v3Zm-9-.5c0-1.378,1.122-2.5,2.5-2.5h1v3H2v-.5Zm16.5,.5V2h1c1.378,0,2.5,1.122,2.5,2.5v.5h-3.5Zm-1.5,5c-3.86,0-7,3.141-7,7s3.14,7,7,7,7-3.141,7-7-3.14-7-7-7Zm0,12c-2.757,0-5-2.243-5-5s2.243-5,5-5,5,2.243,5,5-2.243,5-5,5Zm3.221-6.212c.383,.398,.37,1.031-.029,1.414l-2.212,2.124c-.452,.446-1.052,.671-1.653,.671s-1.204-.225-1.664-.674l-1.132-1.108c-.395-.387-.401-1.02-.015-1.414,.387-.395,1.02-.401,1.414-.016l1.132,1.108c.144,.141,.379,.142,.522,0l2.223-2.134c.398-.381,1.031-.37,1.414,.029Z"/>
</svg>
