<?xml version="1.0" encoding="UTF-8"?>
<svg xmlns="http://www.w3.org/2000/svg" id="Layer_1" data-name="Layer 1" viewBox="0 0 24 24">
  <path d="M12.836,.028C9.364-.203,5.96,1.066,3.509,3.521,1.057,5.977-.211,9.378,.03,12.854c.44,6.354,6.065,11.146,13.083,11.146h5.887c2.757,0,5-2.243,5-5v-6.66C24,5.861,19.096,.454,12.836,.028Zm9.164,18.972c0,1.654-1.346,3-3,3h-5.887c-6.052,0-10.715-3.904-11.088-9.284-.201-2.899,.855-5.735,2.899-7.781,1.882-1.885,4.435-2.934,7.092-2.934,.228,0,.457,.008,.685,.023,5.215,.354,9.299,4.885,9.299,10.315v6.66Zm-4.56-8.38c.13,.36,.02,.77-.27,1.02l-2.17,1.77,.9,2.73c.12,.37,0,.78-.31,1.01-.31,.24-.73,.25-1.06,.04l-2.52-1.64-2.48,1.66c-.15,.1-.33,.15-.51,.15v-.01c-.19,0-.39-.06-.55-.18-.31-.23-.44-.64-.32-1.01l.86-2.76-2.18-1.77c-.29-.25-.4-.65-.27-1.01,.13-.36,.48-.6,.86-.6h2.75l.97-2.61c.13-.36,.48-.6,.86-.6s.73,.24,.86,.6l.97,2.61h2.75c.38,0,.73,.24,.86,.6Z"/>
</svg>
