<?xml version="1.0" encoding="UTF-8"?>
<svg xmlns="http://www.w3.org/2000/svg" id="Layer_1" data-name="Layer 1" viewBox="0 0 24 24">
  <path d="M17.477,10.326l1.799-1.799,.536,4.482-2.288-2.289-.047-.394Zm-12.752-1.799l-.536,4.482,2.288-2.289,.047-.394-1.799-1.799Zm16.263,10.961h0c-.152,.152-.327,.265-.512,.349,.034,1.021-.299,2.025-.981,2.799-.764,.867-1.866,1.364-3.021,1.364H7.527c-1.156,0-2.257-.497-3.021-1.364-.686-.779-1.02-1.79-.98-2.818-.18-.084-.351-.194-.5-.343h0c-.683-.683-.683-1.791,0-2.475l4.096-4.096c.42-.42,1-.579,1.544-.483l1.921-1.921-1.959-1.959c-.544,.096-1.124-.063-1.544-.483L3.019,3.994c-.683-.683-.683-1.791,0-2.475s1.791-.683,2.475,0l1.49,1.49L9.626,.847c1.375-1.125,3.372-1.125,4.747,0l2.642,2.162,1.49-1.49c.683-.683,1.791-.683,2.475,0s.683,1.791,0,2.475l-4.064,4.064c-.42,.42-1,.579-1.544,.483l-1.959,1.959,1.921,1.921c.544-.096,1.124,.063,1.544,.483l4.109,4.109c.683,.683,.683,1.791,0,2.475ZM12,9.086l1.959-1.959c-.096-.544,.063-1.124,.483-1.544l1.152-1.152-2.488-2.036c-.642-.524-1.572-.524-2.214,0l-2.488,2.036,1.152,1.152c.42,.42,.579,1,.483,1.544l1.959,1.959Zm6.483,10.632l-.038-.297-4.042-4.042c-.42-.42-.58-1-.483-1.544l-1.921-1.921-1.921,1.921c.096,.544-.063,1.124-.483,1.544l-4.042,4.042-.038,.297c-.075,.586,.1,1.152,.49,1.596,.391,.442,.931,.687,1.521,.687h2.473v-3c0-1.105,.895-2,2-2s2,.895,2,2v3h2.473c.59,0,1.13-.244,1.521-.687,.39-.443,.564-1.01,.49-1.596Z"/>
</svg>
