<?xml version="1.0" encoding="UTF-8"?>
<svg xmlns="http://www.w3.org/2000/svg" id="Layer_1" data-name="Layer 1" viewBox="0 0 24 24">
  <path d="M5,1c0,.552-.447,1-1,1-1.103,0-2,.897-2,2,0,.552-.447,1-1,1s-1-.448-1-1C0,1.794,1.794,0,4,0c.553,0,1,.448,1,1ZM1,13c.553,0,1-.448,1-1v-4c0-.552-.447-1-1-1s-1,.448-1,1v4c0,.552,.447,1,1,1Zm3,5c-1.103,0-2-.897-2-2,0-.553-.447-1-1-1s-1,.447-1,1c0,2.206,1.794,4,4,4,.553,0,1-.447,1-1s-.447-1-1-1ZM16,2c1.103,0,2,.897,2,2,0,.552,.447,1,1,1s1-.448,1-1c0-2.206-1.794-4-4-4-.553,0-1,.448-1,1s.447,1,1,1Zm-8,0h4c.553,0,1-.448,1-1s-.447-1-1-1h-4c-.553,0-1,.448-1,1s.447,1,1,1Zm11.5,14h-1.5v-1.5c0-.553-.447-1-1-1s-1,.447-1,1v1.5h-1.5c-.553,0-1,.447-1,1s.447,1,1,1h1.5v1.5c0,.553,.447,1,1,1s1-.447,1-1v-1.5h1.5c.553,0,1-.447,1-1s-.447-1-1-1Zm4.5,1c0,3.859-3.141,7-7,7-2.785,0-5.188-1.639-6.315-4h-2.685c-.553,0-1-.447-1-1s.447-1,1-1h2.08c-.047-.328-.08-.66-.08-1,0-3.859,3.141-7,7-7,.34,0,.672,.033,1,.08v-2.08c0-.552,.447-1,1-1s1,.448,1,1v2.685c2.361,1.126,4,3.53,4,6.315Zm-2,0c0-2.757-2.243-5-5-5s-5,2.243-5,5,2.243,5,5,5,5-2.243,5-5Z"/>
</svg>
