<?xml version="1.0" encoding="UTF-8"?>
<svg xmlns="http://www.w3.org/2000/svg" id="Layer_1" data-name="Layer 1" viewBox="0 0 24 24">
  <path d="M8.5,12c3.032,0,5.5-2.467,5.5-5.5S11.532,1,8.5,1,3,3.467,3,6.5s2.468,5.5,5.5,5.5Zm0-9c1.93,0,3.5,1.57,3.5,3.5s-1.57,3.5-3.5,3.5-3.5-1.57-3.5-3.5,1.57-3.5,3.5-3.5Zm15.273,18.196c.29,.612,.247,1.318-.115,1.891-.361,.572-.981,.914-1.658,.914h-7c-.553,0-1-.448-1-1s.447-1,1-1h6.929l-1.787-2.933c-1.557-2.904-4.739-4.481-7.934-3.978-.943,.149-1.831,.471-2.635,.937l2.369,6.637c.187,.52-.085,1.092-.605,1.278-.507,.185-1.093-.081-1.277-.606l-2.143-6.005c-.215,.224-.422,.456-.611,.708l-3.918,5.259c-.633,.702-1.53,.878-2.295,.515-.765-.364-1.194-1.17-1.069-2.008L1.514,12.836c.09-.545,.607-.913,1.15-.822,.545,.09,.913,.605,.822,1.15l-1.426,8.572,3.643-4.897c1.513-2.011,3.711-3.333,6.192-3.725,4.038-.639,8.052,1.356,9.982,4.961l1.847,3.029c.018,.03,.034,.06,.049,.092Zm-2.854-13.803c.186-.515,.975-.515,1.161,0l.436,1.09,1.09,.436c.515,.186,.515,.975,0,1.161l-1.09,.436-.436,1.09c-.186,.515-.975,.515-1.161,0l-.438-1.097-1.099-.463c-.512-.195-.497-.984,.021-1.16l1.082-.41,.433-1.084ZM15,2.952c.006-.307,.198-.579,.484-.687l1.299-.492,.52-1.301c.223-.618,1.17-.618,1.393,0l.523,1.308,1.308,.523c.618,.223,.618,1.17,0,1.393l-1.308,.523-.523,1.308c-.223,.618-1.17,.618-1.393,0l-.526-1.316-1.318-.556c-.283-.119-.464-.398-.459-.705Z"/>
</svg>
