<?xml version="1.0" encoding="UTF-8"?>
<svg xmlns="http://www.w3.org/2000/svg" id="Layer_1" data-name="Layer 1" viewBox="0 0 24 24">
  <path d="M19,2H5C2.243,2,0,4.243,0,7v10c0,2.757,2.243,5,5,5h14c2.757,0,5-2.243,5-5V7c0-2.757-2.243-5-5-5ZM2,8.765h2.195l-2.195,1.56v-1.56Zm0-1.765c0-.426,.092-.83,.253-1.197l1.917,1.362H2v-.165Zm8.979-3c-.073,.024-.147,.048-.213,.095l-3.238,2.301v-2.396h3.451Zm-5.05,0v2.452l-2.662-1.892c.49-.349,1.086-.56,1.733-.56h.929Zm16.071,13c0,1.654-1.346,3-3,3H5c-1.654,0-3-1.346-3-3v-5.034c.205,.077,.428,.014,.612-.112l3.316-2.357v1.715c0,.441,.358,.8,.8,.8s.8-.358,.8-.8v-1.66l3.238,2.301c.141,.1,.303,.147,.463,.147,.251,0,.497-.117,.653-.336,.256-.36,.171-.86-.188-1.116l-2.511-1.784h2.025c.441,0,.8-.358,.8-.8s-.358-.8-.8-.8h-1.999l2.485-1.766c.359-.256,.444-.756,.188-1.116-.103-.145-.25-.232-.407-.283h7.524c1.654,0,3,1.346,3,3v10Zm-7.5-6c-.552,0-1-.448-1-1s.448-1,1-1,1,.448,1,1-.448,1-1,1Zm3.5,2c0,.552-.448,1-1,1s-1-.448-1-1,.448-1,1-1,1,.448,1,1Zm-10,4c0,.552-.448,1-1,1s-1-.448-1-1,.448-1,1-1,1,.448,1,1Zm8,0c0,.552-.448,1-1,1s-1-.448-1-1,.448-1,1-1,1,.448,1,1Zm4.5-7c0,.552-.448,1-1,1s-1-.448-1-1,.448-1,1-1,1,.448,1,1Zm-2.5-3c0,.552-.448,1-1,1s-1-.448-1-1,.448-1,1-1,1,.448,1,1Z"/>
</svg>
