<?xml version="1.0" encoding="UTF-8"?>
<svg xmlns="http://www.w3.org/2000/svg" id="Layer_1" data-name="Layer 1" viewBox="0 0 24 24">
  <path d="M12,5.5c0-.828,.672-1.5,1.5-1.5s1.5,.672,1.5,1.5-.672,1.5-1.5,1.5-1.5-.672-1.5-1.5ZM.618,6.912c-.776-.777-.778-2.043-.006-2.822l1.399-1.412c.283-.285,.66-.443,1.062-.444h.004c.399,0,.776,.156,1.06,.438l.348,.347,.363-.358c.587-.578,1.535-.573,2.114,.007l.502,.453,.214-.213C8.805,1.028,10.375,.05,12.347,.002c2.433-.062,4.66,1.474,5.375,3.729,.555,1.751,.27,3.579-.782,5.015-1.033,1.412-2.692,2.254-4.439,2.254-1.652,0-3.2-.739-4.241-2H3.949c-.802,0-1.555-.312-2.121-.878l-1.21-1.209Zm1.414-1.414l1.21,1.209c.188,.188,.439,.292,.707,.292h4.811c.334,0,.646,.167,.831,.443,.652,.975,1.74,1.557,2.909,1.557,1.111,0,2.168-.537,2.826-1.435,.671-.916,.849-2.093,.489-3.229-.44-1.39-1.874-2.349-3.42-2.334-1.304,.032-2.274,.676-3.056,2.025-.043,.076-1.133,1.181-1.133,1.181-.376,.376-.983,.392-1.377,.035l-.914-.825-.734,.724c-.39,.387-1.021,.385-1.409-.005l-.694-.693-1.046,1.056ZM23.236,14.014l-5.914,6.638c-1.895,2.128-4.616,3.348-7.467,3.348H4c-2.206,0-4-1.794-4-4v-4c0-2.206,1.794-4,4-4H12.857c1.139,0,2.139,.609,2.689,1.519l3.217-3.534c1.061-1.221,3.087-1.314,4.254-.199,1.213,1.106,1.312,3.003,.219,4.229Zm-1.566-2.75c-.393-.368-1.072-.345-1.427,.066l-4.427,4.865c-.386,1.07-1.339,1.89-2.514,2.058l-5.161,.737c-.548,.076-1.054-.302-1.132-.848-.078-.547,.302-1.053,.849-1.131l5.161-.737c.559-.08,.98-.566,.98-1.131,0-.63-.513-1.142-1.143-1.142H4c-1.103,0-2,.897-2,2v4c0,1.103,.897,2,2,2h5.855c2.28,0,4.457-.976,5.973-2.678l5.915-6.639c.367-.412,.334-1.048-.073-1.419Z"/>
</svg>
