<?xml version="1.0" encoding="UTF-8"?>
<svg xmlns="http://www.w3.org/2000/svg" id="Layer_1" data-name="Layer 1" viewBox="0 0 24 24">
  <path d="M13,12.5c0,1.858-1.28,3.411-3,3.858v6.642c0,.552-.448,1-1,1s-1-.448-1-1v-6.642c-1.72-.447-3-2-3-3.858v-3.5c0-.552,.448-1,1-1s1,.448,1,1v3.5c0,.737,.405,1.375,1,1.722v-5.222c0-.552,.448-1,1-1s1,.448,1,1v5.222c.595-.347,1-.985,1-1.722v-3.5c0-.552,.448-1,1-1s1,.448,1,1v3.5Zm-.089,9.459c-.007,0-.013,.001-.02,.002-.506,.045-.891,.472-.891,.98v.013c0,.583,.503,1.048,1.084,.99l.02-.002c.508-.052,.896-.479,.896-.99v-.013c0-.586-.505-1.033-1.089-.98Zm3.696-13.729c-.939,.85-2.486,3.027-2.606,6.102-.039,1.705,.469,3.601,1.998,5.462v3.207c0,.552,.447,1,1,1s1-.448,1-1V8.737c-.004-.629-.857-1.004-1.392-.507ZM12,0C5.383,0,0,5.383,0,12c0,3.593,1.59,6.967,4.363,9.257,.424,.35,1.054,.293,1.408-.134,.352-.426,.292-1.056-.134-1.408-2.311-1.909-3.637-4.721-3.637-7.715C2,6.486,6.486,2,12,2s10,4.486,10,10c0,2.144-.668,4.187-1.932,5.908-.326,.445-.23,1.071,.215,1.398,.446,.328,1.071,.23,1.398-.214,1.517-2.068,2.318-4.52,2.318-7.092C24,5.383,18.617,0,12,0Z"/>
</svg>
