<?xml version="1.0" encoding="UTF-8"?>
<svg xmlns="http://www.w3.org/2000/svg" id="Layer_1" data-name="Layer 1" viewBox="0 0 24 24">
  <path d="M10.336,10.366c.459,.449,1.061,.674,1.664,.674s1.205-.225,1.663-.673l1.872-1.831c.944-.944,1.465-2.2,1.465-3.536s-.521-2.592-1.465-3.536c-.945-.944-2.2-1.464-3.535-1.464s-2.592,.52-3.535,1.464c-.944,.944-1.465,2.2-1.465,3.536s.523,2.595,1.48,3.551l1.856,1.815Zm-.457-7.488c.565-.566,1.319-.878,2.121-.878s1.555,.312,2.121,.879c.566,.566,.879,1.319,.879,2.121s-.312,1.555-.871,2.114l-1.864,1.824c-.146,.143-.384,.142-.529,0l-1.849-1.808c-.572-.571-.887-1.327-.887-2.129s.312-1.555,.879-2.122Zm13.121,3.122c-.553,0-1,.448-1,1h-2.5c-.553,0-1,.448-1,1s.447,1,1,1h2.5v7h-2.258c-.526,0-1.042-.213-1.414-.586l-2.621-2.621c-.391-.391-1.023-.391-1.414,0s-.391,1.023,0,1.414l2.621,2.621c.744,.745,1.774,1.172,2.828,1.172h2.258v3H10v-1.757c0-1.068-.416-2.073-1.172-2.829l-2.242-2.242c-.755-.756-1.76-1.172-2.829-1.172h-1.757v-4h2.5c.552,0,1-.448,1-1s-.448-1-1-1H2c0-.552-.448-1-1-1s-1,.448-1,1V23c0,.552,.448,1,1,1s1-.448,1-1H22c0,.552,.447,1,1,1s1-.448,1-1V7c0-.552-.447-1-1-1ZM2,15h1.757c.534,0,1.037,.208,1.415,.586l2.242,2.242c.378,.378,.586,.88,.586,1.415v1.757H2v-6ZM10.5,5c0-.828,.672-1.5,1.5-1.5s1.5,.672,1.5,1.5-.672,1.5-1.5,1.5-1.5-.672-1.5-1.5Z"/>
</svg>
