<?xml version="1.0" encoding="UTF-8"?>
<svg xmlns="http://www.w3.org/2000/svg" id="Layer_1" data-name="Layer 1" viewBox="0 0 24 24">
  <path d="M.999,19.919c-.471,0-.89-.334-.981-.813-.103-.542,.253-1.065,.795-1.169,2.634-.501,3.187-4.049,3.187-6.937,0-.393,.033-.786,.098-1.167,.092-.544,.608-.911,1.153-.818,.544,.092,.911,.608,.818,1.153-.046,.271-.069,.551-.069,.833,0,6.6-2.617,8.483-4.813,8.901-.063,.012-.126,.018-.188,.018Zm0-4.919c.552,0,1-.447,1-1v-3C2,6.038,6.038,2,11,2c1.963,0,3.83,.624,5.399,1.804,.442,.332,1.068,.243,1.4-.198,.332-.441,.243-1.068-.198-1.4C15.683,.763,13.401,0,11,0,4.935,0,0,4.935,0,11v3c0,.553,.448,1,1,1ZM11,4c-1.985,0-3.885,.85-5.213,2.333-.368,.411-.333,1.043,.078,1.412,.412,.37,1.044,.334,1.412-.078,.949-1.059,2.307-1.667,3.724-1.667,1.432,0,2.799,.619,3.75,1.697,.198,.224,.473,.338,.75,.338,.235,0,.471-.083,.661-.25,.414-.365,.454-.997,.088-1.412-1.331-1.509-3.244-2.374-5.25-2.374Zm8.55,4.188c.139,.421,.53,.688,.95,.688,.104,0,.209-.017,.313-.051,.524-.173,.81-.738,.637-1.263-.236-.717-.548-1.412-.927-2.064-.278-.479-.889-.641-1.367-.363-.478,.277-.64,.889-.363,1.367,.31,.533,.564,1.101,.757,1.687Zm4.45,8.812c0,3.859-3.14,7-7,7s-7-3.141-7-7,3.14-7,7-7,7,3.141,7,7Zm-2,0c0-2.757-2.243-5-5-5s-5,2.243-5,5,2.243,5,5,5,5-2.243,5-5Zm-14.5,.5c-.347,0-.638,.188-.817,.456-1.078,1.497-2.314,3.185-5.458,4.082-.531,.152-.838,.706-.687,1.236,.125,.439,.526,.726,.961,.726,.091,0,.184-.013,.275-.038,3.812-1.09,5.36-3.273,6.522-4.888,.119-.164,.203-.356,.203-.574,0-.552-.448-1-1-1Zm11.308-1.741l-2.223,2.134c-.144,.143-.378,.142-.522,0l-1.132-1.108c-.395-.386-1.027-.379-1.414,.016s-.38,1.027,.015,1.414l1.132,1.108c.459,.449,1.062,.674,1.664,.674s1.201-.225,1.653-.671l2.212-2.124c.398-.383,.412-1.016,.029-1.414-.382-.399-1.016-.41-1.414-.029Zm-8.808-4.759c0-.545,.763-1.104,1.26-.984,.533,.131,1.078-.195,1.21-.731s-.195-1.078-.731-1.21c-1.625-.403-3.74,.968-3.74,2.925l.006,1.001c0,.552,.448,.999,1,.999,.517-.026,1-.449,1-1.001l-.006-.999Z"/>
</svg>
