<?xml version="1.0" encoding="UTF-8"?>
<svg xmlns="http://www.w3.org/2000/svg" id="Layer_1" data-name="Layer 1" viewBox="0 0 24 24">
  <path d="M10.02,1.298c-.11-.541,.24-1.069,.782-1.178,.786-.159,1.61-.159,2.396,0,.541,.109,.892,.637,.782,1.178-.097,.475-.514,.802-.979,.802-.066,0-.132-.006-.199-.02-.526-.106-1.077-.106-1.604,0-.539,.111-1.069-.24-1.178-.782Zm3.98,15.702c0,3.859-3.14,7-7,7S0,20.859,0,17c0-2.785,1.639-5.188,4-6.315v-.685c0-1.105,.895-2,2-2v-1c0-.552,.448-1,1-1s1,.448,1,1v1c1.105,0,2,.895,2,2v.685c2.361,1.126,4,3.53,4,6.315Zm-2,0c0-2.757-2.243-5-5-5s-5,2.243-5,5,2.243,5,5,5,5-2.243,5-5Zm3.667-12.6c.164,.376,.532,.601,.918,.601,.133,0,.269-.027,.398-.084,.507-.221,.738-.81,.518-1.316-.239-.547-.558-1.055-.948-1.509-.361-.419-.992-.465-1.41-.106-.419,.36-.467,.991-.107,1.41,.261,.303,.474,.641,.632,1.005Zm4.333,6.285v-.685c0-1.105-.895-2-2-2v-1c0-.552-.447-1-1-1s-1,.448-1,1v1c-1.105,0-2,.895-2,2v.964c0,.269,.129,.513,.3,.802,.316,.427,.865,.572,1.375,.424,.884-.256,1.864-.276,2.903,.077,1.721,.584,3.05,2.081,3.35,3.874,.525,3.134-1.89,5.859-4.928,5.859-.517,0-1.011-.086-1.477-.237-.414-.134-.875-.011-1.123,.347-.004,.006-.008,.011-.012,.017-.391,.561-.153,1.337,.499,1.545,.851,.272,1.772,.385,2.729,.302,3.222-.28,5.917-2.853,6.326-6.061,.403-3.164-1.327-5.979-3.942-7.227ZM7.016,4.917c.13,.057,.266,.084,.4,.084,.385,0,.753-.225,.917-.6,.176-.403,.417-.774,.718-1.102,.373-.408,.345-1.04-.062-1.413-.408-.373-1.042-.345-1.413,.062-.449,.491-.811,1.046-1.075,1.652-.221,.506,.01,1.096,.516,1.317Z"/>
</svg>
