<?xml version="1.0" encoding="UTF-8"?>
<svg xmlns="http://www.w3.org/2000/svg" id="Layer_1" data-name="Layer 1" viewBox="0 0 24 24">
  <path d="M22,15.184v-7.184c0-2.757-2.243-5-5-5H7c-2.757,0-5,2.243-5,5v7.184c-1.161,.414-2,1.514-2,2.816,0,1.654,1.346,3,3,3H21c1.654,0,3-1.346,3-3,0-1.302-.839-2.402-2-2.816ZM7,5h10c1.654,0,3,1.346,3,3v7h-4.5c-.265,0-.52,.105-.707,.293l-.707,.707h-4.172l-.707-.707c-.188-.188-.442-.293-.707-.293H4v-7c0-1.654,1.346-3,3-3Zm14,14H3c-.551,0-1-.449-1-1s.449-1,1-1h5.086l.707,.707c.188,.188,.442,.293,.707,.293h5c.265,0,.52-.105,.707-.293l.707-.707h5.086c.551,0,1,.449,1,1s-.449,1-1,1ZM8.337,10.751c-.391-.391-.391-1.023,0-1.414l2.256-2.256c.775-.775,2.038-.775,2.812,0l2.257,2.257c.391,.391,.391,1.023,0,1.414-.195,.195-.451,.293-.707,.293s-.512-.098-.707-.293l-1.249-1.249v3.497c0,.552-.448,1-1,1s-1-.448-1-1v-3.506l-1.249,1.257c-.391,.391-1.023,.391-1.414,0Z"/>
</svg>
