<?xml version="1.0" encoding="UTF-8"?>
<svg xmlns="http://www.w3.org/2000/svg" id="Layer_1" data-name="Layer 1" viewBox="0 0 24 24">
  <path d="M19,4h-.101c-.465-2.279-2.484-4-4.899-4H5C2.243,0,0,2.243,0,5v12.854c-.053,1.663,1.984,2.753,3.339,1.788l2.967-1.978c.69,1.937,2.523,3.336,4.694,3.336h5.697l3.964,2.643c1.355,.968,3.392-.126,3.339-1.788V9c0-2.757-2.243-5-5-5ZM2.23,17.979c-.051,.079-.269-.04-.23-.124V5c0-1.654,1.346-3,3-3H14c1.654,0,3,1.346,3,3v7c0,1.654-1.346,3-3,3H7c-.198-.001-.383,.078-.555,.168l-4.215,2.811Zm19.77,3.876c.04,.084-.182,.203-.23,.124l-4.215-2.811c-.164-.109-.357-.168-.555-.168h-6c-1.302,0-2.402-.839-2.816-2h5.816c2.757,0,5-2.243,5-5V6c1.654,0,3,1.346,3,3v12.854ZM10,9.622v-3.822c0-.442,.358-.8,.8-.8h0c.442,0,.8,.358,.8,.8v3.95c0,.358,.292,.65,.65,.65s.65-.292,.65-.65v-3.95c0-.442,.358-.8,.8-.8h0c.442,0,.8,.358,.8,.8v3.95c0,1.319-1.135,2.373-2.482,2.238-1.171-.117-2.018-1.19-2.018-2.367Zm-2.77,1.852c.115,.316,.416,.527,.752,.527,.555,0,.942-.552,.752-1.074l-.674-1.853c.636-.458,1.028-1.235,.923-2.1-.137-1.136-1.135-1.973-2.279-1.973h-1.228c-.618,0-.976,.358-.976,.8v5.4c0,.442,.358,.8,.8,.8s.8-.358,.8-.8v-1.7h.413l.718,1.973Zm-1.13-4.873h.65c.358,0,.65,.292,.65,.65s-.292,.65-.65,.65h-.65v-1.3Z"/>
</svg>
