<?xml version="1.0" encoding="UTF-8"?>
<svg xmlns="http://www.w3.org/2000/svg" id="Layer_1" data-name="Layer 1" viewBox="0 0 24 24">
  <path d="M3.165,5.177c-.531-.533-1.324-.693-2.019-.406-.696,.286-1.146,.958-1.146,1.711v11.035c0,.753,.45,1.425,1.146,1.712,.229,.094,.469,.14,.707,.14,.483,0,.957-.19,1.312-.549l5.074-5.119c.483-.434,.761-1.054,.761-1.701,0-.661-.269-1.268-.719-1.672L3.165,5.177Zm3.697,7.074l-4.862,4.903V6.843l4.902,4.932c.066,.06,.098,.133,.098,.225,0,.08-.035,.157-.138,.252Zm15.993-7.48c-.696-.287-1.488-.127-2.019,.406l-5.077,5.113c-.489,.441-.758,1.048-.758,1.709,0,.647,.277,1.268,.718,1.66l5.116,5.16c.356,.358,.83,.549,1.313,.549,.237,0,.477-.046,.707-.14,.696-.287,1.146-.959,1.146-1.712V6.481c0-.753-.45-1.425-1.146-1.711Zm-.854,12.384l-4.904-4.944c-.061-.054-.096-.131-.096-.211,0-.092,.032-.165,.138-.262l4.862-4.895v10.312ZM13,1V23c0,.553-.448,1-1,1s-1-.447-1-1V1c0-.553,.448-1,1-1s1,.447,1,1Z"/>
</svg>
