<?xml version="1.0" encoding="UTF-8"?>
<svg xmlns="http://www.w3.org/2000/svg" id="Layer_1" data-name="Layer 1" viewBox="0 0 24 24">
  <path d="M23.337,10.401c.878,.841,.878,2.356,0,3.198l-1.63,1.63c-.391,.391-1.023,.391-1.414,0-.391-.39-.391-1.023,0-1.414l.815-.815h-2.108c-.552,0-1-.448-1-1s.448-1,1-1h2.108l-.815-.815c-.391-.391-.391-1.024,0-1.414,.391-.391,1.023-.391,1.414,0l1.63,1.631Zm-6.337-5.401h4.108l-.815,.815c-.391,.391-.391,1.024,0,1.414,.391,.391,1.023,.391,1.414,0l1.63-1.63c.878-.842,.878-2.356,0-3.198l-1.63-1.631c-.391-.391-1.023-.391-1.414,0-.391,.39-.391,1.023,0,1.414l.815,.815h-4.108c-.552,0-1,.448-1,1s.448,1,1,1Zm4.707,11.771c-.391-.391-1.023-.391-1.414,0-.391,.39-.391,1.023,0,1.414l.815,.815h-4.108c-.552,0-1,.448-1,1s.448,1,1,1h4.108l-.815,.815c-.391,.391-.391,1.024,0,1.414,.391,.391,1.023,.391,1.414,0l1.63-1.63c.878-.842,.878-2.356,0-3.198l-1.63-1.631Zm-5.707-4.771c0,3.092-.891,5.655-1.639,7.26-.787,1.691-1.957,2.195-3.072,2.195-.489,0-.967-.097-1.398-.233C4.957,19.663,1.465,15.08,.816,14.177c-1.027-1.399-1.027-2.955,0-4.354,.65-.903,4.142-5.486,9.076-7.046,1.415-.447,3.338-.469,4.47,1.962,.748,1.605,1.639,4.168,1.639,7.26Zm-2.662-4.342c-1.946,.512-3.338,2.258-3.338,4.342s1.392,3.83,3.338,4.342c.181-.595,.338-1.252,.456-1.956-1.034-.306-1.794-1.253-1.794-2.386s.759-2.08,1.794-2.386c-.118-.704-.274-1.361-.456-1.956Zm-.79,10.758c.027-.058,.055-.127,.083-.188-2.712-.801-4.631-3.285-4.631-6.228s1.919-5.427,4.631-6.228c-.028-.061-.056-.129-.083-.188-.47-1.01-.987-1.237-2.054-.9-4.332,1.369-7.47,5.494-8.055,6.307-.523,.716-.524,1.301,0,2.018,.584,.813,3.723,4.938,8.054,6.307,1.066,.337,1.584,.11,2.054-.9Z"/>
</svg>
