<?xml version="1.0" encoding="UTF-8"?>
<svg xmlns="http://www.w3.org/2000/svg" id="Layer_1" data-name="Layer 1" viewBox="0 0 24 24">
  <path d="M14,2.5c0-1.381,1.119-2.5,2.5-2.5s2.5,1.119,2.5,2.5-1.119,2.5-2.5,2.5-2.5-1.119-2.5-2.5Zm9.866,11.001c-.279,.482-.897,.638-1.367,.365l-2.28-1.319c-.34-.196-.633-.476-.847-.806l-.759-1.175-1.401,5.269,1.523,.865c.78,.443,1.265,1.276,1.265,2.174v4.127c0,.552-.448,1-1,1s-1-.448-1-1v-4.127c0-.179-.097-.346-.253-.435l-4.229-2.403c-1.148-.652-1.74-2.006-1.439-3.292l1.014-4.333c-.183,.076-.364,.158-.537,.254l-2.346,1.295c-.087,.048-.158,.121-.203,.209l-.553,1.005c-.266,.484-.874,.661-1.358,.394-.484-.266-.661-.874-.394-1.358l.54-.98c.215-.419,.566-.781,1.002-1.021l2.345-1.295c1.13-.625,2.415-.937,3.704-.913,1.723,0,3.31,.864,4.246,2.311l1.513,2.343c.042,.065,.101,.121,.169,.16l2.281,1.32c.478,.277,.641,.889,.365,1.367Zm-8.409,1.335l1.63-6.227c-.516-.379-1.132-.609-1.794-.609h-.05l-1.217,5.2c-.1,.428,.097,.879,.48,1.097l.95,.54Zm-6.102,3.54l-.96,1.935c-.598,1.223-2.082,1.711-3.272,1.132l-3.728-1.787c-1.235-.592-1.749-2.078-1.144-3.306l.966-1.948c.428-.87,1.301-1.375,2.21-1.375,.249,0,.499,.053,.745,.132l.03-.065c.352-.755,1.251-1.079,2.003-.721l1.582,.751c.745,.354,1.064,1.241,.716,1.988l-.049,.105c1.051,.662,1.463,2.017,.902,3.158Zm-1.772-1.237c-.029-.083-.092-.196-.235-.265l-3.722-1.8c-.221-.098-.472-.048-.614,.211l-.969,1.954c-.1,.28-.039,.456,.217,.614l3.728,1.787c.22,.097,.471,.047,.613-.212l.962-1.941c.067-.137,.048-.265,.02-.348Zm5.456,.436c-.533-.152-1.084,.161-1.232,.693l-.251,.898-1.474,3.439c-.218,.508,.018,1.096,.525,1.313,.495,.217,1.096-.012,1.313-.525l1.5-3.5c.031-.051,.288-1.005,.313-1.086,.149-.532-.162-1.083-.693-1.232Z"/>
</svg>
