<?xml version="1.0" encoding="UTF-8"?>
<svg xmlns="http://www.w3.org/2000/svg" id="Layer_1" data-name="Layer 1" viewBox="0 0 24 24">
  <path d="M20,19c0,1.105-.895,2-2,2s-2-.895-2-2,.895-2,2-2,2,.895,2,2Zm4-1.5v3c0,1.93-1.57,3.5-3.5,3.5h-5c-1.93,0-3.5-1.57-3.5-3.5v-3c0-1.733,1.269-3.166,2.925-3.442l.775-1.166c.371-.557,.996-.892,1.665-.892h1.268c.67,0,1.295,.335,1.665,.892l.775,1.166c1.656,.276,2.925,1.709,2.925,3.442Zm-2,0c0-.827-.673-1.5-1.5-1.5h-5c-.827,0-1.5,.673-1.5,1.5v3c0,.827,.673,1.5,1.5,1.5h5c.827,0,1.5-.673,1.5-1.5v-3Zm2-10.5v4c0,.552-.447,1-1,1s-1-.448-1-1v-3H2v9c0,1.654,1.346,3,3,3h4c.552,0,1,.448,1,1s-.448,1-1,1H5c-2.757,0-5-2.243-5-5V5C0,2.243,2.243,0,5,0h2.528c.463,0,.927,.109,1.341,.316l3.156,1.578c.138,.069,.293,.105,.447,.105h6.528c2.757,0,5,2.243,5,5ZM2,6H21.816c-.414-1.161-1.514-2-2.816-2h-6.528c-.463,0-.927-.109-1.341-.316l-3.156-1.578c-.138-.069-.293-.105-.447-.105h-2.528c-1.654,0-3,1.346-3,3v1Z"/>
</svg>
