<?xml version="1.0" encoding="UTF-8"?>
<svg xmlns="http://www.w3.org/2000/svg" id="Layer_1" data-name="Layer 1" viewBox="0 0 24 24">
  <path d="M22.44,11.036c1.135-1.248,1.692-2.932,1.531-4.622-.277-2.908-2.783-5.206-5.788-5.395-.062-.004-1.183-.019-1.183-.019,0-.552-.447-1-1-1s-1,.448-1,1h-6.459C5.154,1,2.086,2.872,.535,5.884c-.772,1.499-.702,3.264,.187,4.721,.915,1.5,2.503,2.395,4.25,2.395h11.028v2.133c-1.804,.451-3,2.114-3,4.367,0,2.649,1.645,4.5,4,4.5s4-1.851,4-4.5c0-2.253-1.196-3.916-3-4.367v-2.133c1.687,0,3.305-.716,4.44-1.964Zm-7.44,8.464c0-.878,.283-1.793,1-2.232v4.464c-.717-.439-1-1.354-1-2.232Zm4,0c0,.878-.283,1.793-1,2.232v-4.464c.717,.439,1,1.354,1,2.232Zm-1.215-16.5c.133,0,.26,.024,.39,.035,.465,.086,.825,.475,.825,.965,0,.551-.448,1-1,1h-7c-.551,0-1-.449-1-1s.449-1,1-1h6.785ZM4.972,11c-1.044,0-1.995-.537-2.543-1.436-.53-.87-.573-1.877-.116-2.764,1.151-2.234,3.376-3.646,5.863-3.775-.107,.307-.176,.632-.176,.975,0,1.654,1.346,3,3,3h7c1.52,0,2.766-1.14,2.96-2.607,.56,.608,.94,1.366,1.021,2.211,.108,1.146-.254,2.243-1.021,3.086-.758,.833-1.836,1.31-2.961,1.31H4.972Z"/>
</svg>
