<?xml version="1.0" encoding="UTF-8"?>
<svg xmlns="http://www.w3.org/2000/svg" id="Layer_1" data-name="Layer 1" viewBox="0 0 24 24">
  <path d="M12.193,10h5.807c1.302,0,2.402-.839,2.816-2h1.184c.552,0,1-.448,1-1v-3c0-.552-.448-1-1-1h-.382l.776-1.553c.155-.31,.138-.678-.044-.973s-.504-.475-.851-.475H6C3.794,0,2,1.794,2,4v2c0,2.206,1.794,4,4,4h4.057l-1.52,4.054c-.437,1.164-1.565,1.946-2.809,1.946H2v-3c0-.553-.448-1-1-1s-1,.447-1,1v8c0,.553,.448,1,1,1s1-.447,1-1v-3h3.728c2.073,0,3.954-1.304,4.682-3.244l1.784-4.756ZM4,6v-2c0-1.103,.897-2,2-2h13.882l-.776,1.553c-.069,.139-.105,.292-.105,.447v3c0,.552-.449,1-1,1H6c-1.103,0-2-.897-2-2Zm19.756,15.337l-5.197-8.458c-.683-1.171-2.376-1.171-3.059,0l-5.256,8.458c-.689,1.181,.163,2.663,1.53,2.663h10.453c1.367,0,2.218-1.483,1.53-2.663Zm-6.756,1.663c-.552,0-1-.448-1-1s.448-1,1-1,1,.448,1,1-.448,1-1,1Zm1-4c0,.552-.448,1-1,1s-1-.448-1-1v-3c0-.552,.448-1,1-1s1,.448,1,1v3Z"/>
</svg>
