<?xml version="1.0" encoding="UTF-8"?>
<svg xmlns="http://www.w3.org/2000/svg" id="Layer_1" data-name="Layer 1" viewBox="0 0 24 24">
  <path d="M22,8c-.231-2.769-2.85-4.857-3-5-.297-1.401-.497-2.075-1-2-.664,.175-1,1.5-1,3-.011,1.06-.451,1-1,1-.927,0-2-1.5-2-1.5l.073-.578c.193-.578-.135-1.2-.721-1.367l-1.566-.488c-.603-.173-1.265-.006-1.714,.444l-1.072,1.489c-1.083,0-2.136,.382-2.965,1.08-.911,.643-1.508,1.719-2.005,2.69-.935,.316-1.865,.706-2.694,1.227-.839,.527-1.336,1.46-1.336,2.451,.022,.661,.256,1.593,.462,2.194,.523,1.102,1.538,2.357,1.538,3.857,0,1,.7,1.502,1.419,1.502,.433,0,.873-.182,1.17-.548,2.845,.071,2.933-1.954,5.911-1.952,1.401-.045,2.047,.529,3.271,.501,.268,0,.537-.017,.807-.044,.31-.04,.406,.227,.448,.523,.096,.703,.453,1.34,1.057,1.712,.16,.098,.558,.303,.728,.403,.465,.274,.99,.419,1.524,.419,.503-.011,.998-.124,1.51-.192,.837-.129,1.544-.656,1.958-1.395,1.045-1.862,2.196-3.428,2.196-5.939,0-1.028-1.181-2.867-2-3.487Zm-1.482,7.65c-.284,.393-.45,1.097-.977,1.194-.356,.055-.735,.111-1.073,.159-.495,.003-1.288-.29-1.461-.796-.095-.69-.366-1.246-.805-1.652-.421-.388-.978-.602-1.569-.602-.537,.028-1.174,.112-1.631-.061-.743-.261-1.585-.393-2.503-.393-2.109,0-3.262,.771-4.104,1.333-.629,.432-1.009,.644-1.808,.619-.231,0-.457,.04-.669,.115-.211-1.222-.792-2.241-1.24-3.026-.434-.721-.512-.987-.679-2.094,0-.312,.153-.602,.4-.757,.597-.375,1.34-.71,2.271-1.025,.475-.161,.872-.494,1.113-.934,.38-.716,.842-1.664,1.54-2.122,.466-.393,1.061-.609,1.676-.609,.643,0,1.247-.309,1.623-.831l.805-1.118,.59,.183-.002,.016c-.063,.5,.065,1.005,.358,1.414,.501,.738,2.032,2.464,3.816,2.338,1.195,0,2.078-.546,2.511-1.491,.774,.896,1.238,1.826,1.307,2.656,.047,.566,.333,1.085,.786,1.428,.414,.313,1.148,1.493,1.207,1.893,0,1.618-.654,2.741-1.482,4.163Zm.825,5.206s0,.006,0,.009c-.075,.712-.296,2.135-1.209,2.135-1.021,0-1.494-.909-1.737-1.747-.134-.46,.167-.934,.64-1.013l1.375-.229c.51-.085,.971,.329,.932,.845Z"/>
</svg>
