<?xml version="1.0" encoding="UTF-8"?>
<svg xmlns="http://www.w3.org/2000/svg" id="Layer_1" data-name="Layer 1" viewBox="0 0 24 24">
  <path d="M16,2h-7c-.553,0-1,.447-1,1s.447,1,1,1h7c2.968,0,5.439,2.166,5.917,5H10.457C5.266,9,.905,12.715,.081,17.878c-.076,.45-.308,1.823,.617,2.916,.676,.801,1.772,1.206,3.259,1.206h15.043c2.757,0,5-2.243,5-5v-7c0-4.411-3.589-8-8-8Zm6,15c0,1.654-1.346,3-3,3H3.957c-.858,0-1.457-.172-1.732-.497-.324-.385-.213-1.045-.161-1.355,.661-4.142,4.191-7.147,8.394-7.147h11.543v6Zm-11-1.5c0-.828,.672-1.5,1.5-1.5s1.5,.672,1.5,1.5-.672,1.5-1.5,1.5-1.5-.672-1.5-1.5Z"/>
</svg>
