<?xml version="1.0" encoding="UTF-8"?>
<svg xmlns="http://www.w3.org/2000/svg" id="Layer_1" data-name="Layer 1" viewBox="0 0 24 24">
  <path d="M24,19c0,.553-.447,1-1,1h-4c-.553,0-1-.447-1-1s.447-1,1-1h4c.553,0,1,.447,1,1ZM8.25,6c-.69,0-1.25,.56-1.25,1.25s.56,1.25,1.25,1.25,1.25-.56,1.25-1.25-.56-1.25-1.25-1.25Zm-3.5,2.5c.69,0,1.25-.56,1.25-1.25s-.56-1.25-1.25-1.25-1.25,.56-1.25,1.25,.56,1.25,1.25,1.25Zm10.25,7.5c-.553,0-1,.447-1,1v1H1c-.552,0-1,.447-1,1s.448,1,1,1H14v1c0,.553,.447,1,1,1s1-.447,1-1v-4c0-.553-.447-1-1-1Zm4.25-10c-.69,0-1.25,.56-1.25,1.25s.56,1.25,1.25,1.25,1.25-.56,1.25-1.25-.56-1.25-1.25-1.25Zm-3.5,2.5c.69,0,1.25-.56,1.25-1.25s-.56-1.25-1.25-1.25-1.25,.56-1.25,1.25,.56,1.25,1.25,1.25Zm1.75,6.5c-2.317,0-4.349-1.222-5.5-3.052-1.151,1.83-3.183,3.052-5.5,3.052-3.584,0-6.5-2.916-6.5-6.5S2.916,2,6.5,2c2.317,0,4.349,1.222,5.5,3.052,1.151-1.83,3.183-3.052,5.5-3.052,3.584,0,6.5,2.916,6.5,6.5s-2.916,6.5-6.5,6.5Zm-6.5-6.5c0-2.481-2.019-4.5-4.5-4.5S2,6.019,2,8.5s2.019,4.5,4.5,4.5,4.5-2.019,4.5-4.5Zm11,0c0-2.481-2.019-4.5-4.5-4.5s-4.5,2.019-4.5,4.5,2.019,4.5,4.5,4.5,4.5-2.019,4.5-4.5Zm-3.439,1.061c-.584,.584-1.537,.584-2.121,0-.391-.391-1.023-.391-1.414,0s-.391,1.023,0,1.414c.683,.683,1.578,1.023,2.475,1.023s1.792-.341,2.475-1.023c.391-.391,.391-1.023,0-1.414s-1.023-.391-1.414,0Zm-14.536,.465c-.39,.391-.39,1.024,0,1.414,.39,.391,1.023,.391,1.414,0,.565-.566,1.555-.566,2.12,0,.195,.195,.452,.293,.708,.293s.512-.098,.707-.293c.391-.39,.391-1.023,0-1.414-1.321-1.322-3.629-1.322-4.95,0Z"/>
</svg>
