<?xml version="1.0" encoding="UTF-8"?>
<svg xmlns="http://www.w3.org/2000/svg" id="Layer_1" data-name="Layer 1" viewBox="0 0 24 24">
  <path d="M19,4h-.101c-.465-2.279-2.484-4-4.899-4H5C2.243,0,0,2.243,0,5v12.855c-.053,1.663,1.984,2.754,3.34,1.787l2.967-1.978c.69,1.937,2.523,3.336,4.694,3.336h5.697l3.963,2.642c1.356,.967,3.393-.124,3.34-1.787V9c0-2.757-2.243-5-5-5ZM2.23,17.978c-.047,.08-.269-.037-.23-.123V5c0-1.654,1.346-3,3-3H14c1.654,0,3,1.346,3,3v7c0,1.654-1.346,3-3,3H7c-.198-.001-.383,.078-.555,.168l-4.215,2.81Zm19.77,3.877c.04,.086-.184,.202-.23,.123l-4.215-2.81c-.164-.109-.357-.168-.555-.168h-6c-1.302,0-2.402-.839-2.816-2h5.816c2.757,0,5-2.243,5-5V6c1.654,0,3,1.346,3,3v12.855ZM10.8,12c.442,0,.8-.358,.8-.8v-1.7h.413l.718,1.973c.115,.316,.416,.527,.752,.527,.555,0,.942-.552,.752-1.074l-.674-1.853c.636-.458,1.028-1.235,.923-2.1-.137-1.136-1.135-1.973-2.279-1.973h-1.047c-.71,0-1.157,.448-1.157,1v5.2c0,.442,.358,.8,.8,.8Zm.8-5.4h.65c.358,0,.65,.292,.65,.65s-.292,.65-.65,.65h-.65v-1.3Zm-5,4.6c0,.442-.358,.8-.8,.8h0c-.442,0-.8-.358-.8-.8V5.8c0-.442,.358-.8,.8-.8h0c.442,0,.8,.358,.8,.8v1.7l1.105-2.091c.133-.251,.394-.409,.678-.409,.57,0,.941,.6,.686,1.11l-1.097,2.198,1.161,2.595c.23,.515-.147,1.097-.711,1.097-.305,0-.582-.178-.709-.456l-1.114-2.444v2.1Z"/>
</svg>
