<?xml version="1.0" encoding="UTF-8"?>
<svg xmlns="http://www.w3.org/2000/svg" id="Layer_1" data-name="Layer 1" viewBox="0 0 24 24">
  <path d="M20,3h-4.424c-.774-1.763-2.531-3-4.576-3H5C2.243,0,0,2.243,0,5v14c0,2.757,2.243,5,5,5h6c2.757,0,5-2.243,5-5v-3h4c2.206,0,4-1.794,4-4V7c0-2.206-1.794-4-4-4Zm0,2c1.103,0,2,.897,2,2h-6v-2h4Zm-6,14c0,1.654-1.346,3-3,3H5c-1.654,0-3-1.346-3-3v-1H14v1Zm0-3H2V5c0-1.654,1.346-3,3-3h6c1.654,0,3,1.346,3,3v11Zm6-2h-4v-5h6v3c0,1.103-.897,2-2,2Zm-7.818-7.599c.404,.376,.427,1.009,.051,1.413l-3.128,3.36c-1.041,1.089-2.847,1.092-3.885,.026l-1.427-1.428c-.391-.391-.391-1.024,0-1.414,.391-.391,1.023-.391,1.414,0l1.427,1.427c.276,.276,.757,.275,1.031,0l3.103-3.334c.378-.404,1.01-.426,1.414-.051Zm-6.182,13.599c0-.552,.447-1,1-1h2c.553,0,1,.448,1,1s-.447,1-1,1h-2c-.553,0-1-.448-1-1Z"/>
</svg>
