<?xml version="1.0" encoding="UTF-8"?>
<svg xmlns="http://www.w3.org/2000/svg" id="Layer_1" data-name="Layer 1" viewBox="0 0 24 24">
  <path d="M8.52,13.801c.329-1.623,1.792-2.801,3.48-2.801s3.15,1.178,3.48,2.801c.109,.541-.24,1.069-.781,1.179-.528,.111-1.072-.236-1.18-.781-.139-.684-.792-1.199-1.52-1.199s-1.381,.515-1.52,1.199c-.11,.542-.639,.893-1.179,.781-.542-.11-.891-.638-.781-1.179Zm3.48-3.801c1.103,0,2-.897,2-2s-.897-2-2-2-2,.897-2,2,.897,2,2,2Zm11.747,5.086c-.403,.678-1.31,1.568-2.572,2.309,1.074,.72,1.092,2.46,.035,3.203-.687,.511-1.757,1.057-2.977,1.315,.02,.354-.046,.71-.219,1.03-.555,1.061-1.728,1.047-2.812,1.057-1.029,0-2.178-.141-3.213-.592-1.525,.666-3.297,.656-4.57,.516-.614-.067-1.158-.434-1.455-.981-.174-.32-.239-.677-.219-1.031-1.207-.259-2.27-.804-2.955-1.313-1.052-.739-1.043-2.466,.019-3.192-1.245-.737-2.148-1.631-2.557-2.319-.559-.893-.145-2.188,.833-2.581-.252-.287-.477-.624-.627-1.027C-.155,9.829-.043,7.907,.16,6.585c.086-.569,.448-1.052,.965-1.292,.275-.126,.571-.167,.862-.137-.029-.557,.046-1.127,.298-1.682C2.97,1.967,4.296,.896,5.288,.262c.462-.295,1.037-.343,1.539-.126,.518,.224,.891,.695,.998,1.26,.261,1.378,.422,3.919-1.018,6.455-.782,5.362,.964,8.403,2.072,9.684,1.064,1.231,2.227,1.793,3.11,1.947,.883-.154,2.046-.716,3.11-1.948,1.107-1.281,2.856-4.344,2.073-9.707-1.419-2.529-1.258-5.058-.998-6.431,.106-.566,.479-1.039,.998-1.262,.501-.216,1.076-.167,1.535,.129,.986,.633,2.306,1.705,2.987,3.212,.251,.554,.325,1.123,.296,1.68,.29-.03,.587,.011,.862,.138,.519,.239,.879,.723,.965,1.292,.202,1.321,.314,3.244-.299,4.893-.15,.403-.383,.725-.636,1.012,.485,.196,.858,.599,1.024,1.1,.166,.5,.107,1.045-.16,1.496ZM4.84,7.251c1.211-1.855,1.252-3.78,1.095-5.01-.625,.455-1.423,1.169-1.83,2.061-.407,.895,.199,2.145,.735,2.949Zm-2.507,3.53c.133,.404,.626,.784,1.157,1.065,.387-.071,.782-.129,1.168-.169-.037-.245,.013-.526-.062-.765-.605-1.825-1.714-2.929-2.525-3.529-.104,.938-.146,2.299,.262,3.397Zm2.455,5.384c.254-.122,.512-.234,.781-.341-.253-.636-.476-1.355-.642-2.163-1.06,.102-2.196,.375-2.824,.594,.397,.514,1.346,1.339,2.685,1.911Zm2.614,2.716c-.303-.338-.605-.745-.93-1.26-1.174,.443-2.061,1.005-2.473,1.388,.544,.402,1.526,.864,2.59,.999,.227-.358,.502-.739,.812-1.127Zm3.931,2.618c-.649-.22-1.84-.828-2.451-1.271-.498,.639-.868,1.259-1.108,1.722,.891,.087,2.419,.087,3.559-.451Zm4.899,.448c-.325-.588-.722-1.169-1.146-1.711-.608,.439-1.795,1.044-2.441,1.263,1.148,.521,2.714,.535,3.587,.448Zm2.914-14.706c.531-.808,1.128-2.056,.727-2.94h0c-.401-.888-1.189-1.599-1.809-2.054-.155,1.228-.114,3.144,1.082,4.994Zm.869,11.753c-.421-.365-1.313-.926-2.509-1.374-.329,.521-.63,.928-.939,1.271,.286,.357,.559,.727,.809,1.12,1.029-.128,2.039-.57,2.639-1.016Zm1.88-4.739c-.623-.214-1.776-.488-2.845-.592-.166,.807-.389,1.526-.642,2.161,.266,.105,.522,.216,.775,.337,1.365-.582,2.316-1.401,2.711-1.906Zm.012-6.871c-.392,.29-.853,.701-1.294,1.251-.538,.684-.915,1.38-1.26,2.329-.006,.244-.017,.483-.033,.716,.391,.041,.794,.1,1.187,.172,.49-.296,1.015-.666,1.137-1.07,.409-1.098,.367-2.46,.263-3.397Z"/>
</svg>
