<?xml version="1.0" encoding="UTF-8"?>
<svg xmlns="http://www.w3.org/2000/svg" id="Layer_1" data-name="Layer 1" viewBox="0 0 24 24">
  <path d="M18.017,5.536l-3.485-3.485c-1.321-1.322-3.079-2.05-4.949-2.05H5.067C2.311,0,.067,2.243,.067,5v14c0,2.757,2.243,5,5,5h11.5c.647,0,1.279-.123,1.875-.364,.513-.207,.759-.791,.552-1.302-.207-.513-.796-.76-1.302-.551-.357,.145-.735,.218-1.125,.218H5.067c-1.654,0-3-1.346-3-3V5c0-1.654,1.346-3,3-3h4.515c.163,0,.325,.008,.485,.023V7c0,1.654,1.346,3,3,3h5.813c.309,0,.601-.143,.79-.387s.255-.562,.179-.861c-.312-1.217-.945-2.33-1.833-3.217Zm-4.949,2.464c-.551,0-1-.449-1-1V2.659c.379,.218,.732,.487,1.05,.805l3.485,3.486c.314,.314,.584,.667,.804,1.05h-4.339Zm10.933,11.2c0,.442-.358,.8-.8,.8h-2.133c-.442,0-.8-.358-.8-.8v-6.401c0-.442,.358-.8,.8-.8h0c.442,0,.8,.358,.8,.8v5.601s.577,0,1.331,0c.442,0,.802,.358,.802,.8Zm-5.284-.6c.165-.334,.267-.705,.267-1.102v-2.939c0-1.355-1.054-2.509-2.408-2.557-1.422-.05-2.59,1.087-2.59,2.498v2.916c0,1.229,.856,2.319,2.065,2.542,.563,.104,1.084-.002,1.537-.226l.432,.432c.312,.312,.818,.312,1.13,0,.312-.312,.312-.818,0-1.13l-.432-.432Zm-1.333-1.102c0,.496-.404,.9-.9,.9s-.9-.404-.9-.9v-2.999c0-.496,.404-.9,.9-.9s.9,.404,.9,.9v2.999Zm-5.342,.211c.088-.55-.602-.873-.817-.959-.915-.371-1.751-.78-1.753-.78-.692-.484-1.027-1.231-.921-2.049,.111-.845,.674-1.534,1.471-1.796,.839-.277,1.603-.076,2.152,.203,.405,.205,.518,.733,.24,1.093-.203,.263-.559,.358-.863,.225-.306-.134-.71-.226-1.137-.088-.412,.136-.517,.447-.515,.577,.005,.442,.335,.57,.433,.615,.282,.128,.806,.368,1.366,.595,1.461,.591,1.828,1.745,1.685,2.627-.191,1.175-1.215,2.028-2.436,2.028-.664,0-1.301-.196-1.84-.553-.387-.257-.447-.801-.118-1.129l.002-.002c.236-.235,.602-.283,.886-.11,.316,.191,.689,.298,1.07,.298,.604,0,1.031-.404,1.096-.795Z"/>
</svg>
