<?xml version="1.0" encoding="UTF-8"?>
<svg xmlns="http://www.w3.org/2000/svg" id="Layer_1" data-name="Layer 1" viewBox="0 0 24 24">
  <path d="M8,10c.552,0,1-.447,1-1v-1h6v1c0,.553,.447,1,1,1s1-.447,1-1V5c0-.553-.447-1-1-1,0-1.654-1.346-3-3-3h-2c-1.654,0-3,1.346-3,3-.552,0-1,.447-1,1v4c0,.553,.448,1,1,1Zm3-7h2c.552,0,1,.448,1,1v2h-4v-2c0-.552,.449-1,1-1ZM.5,3.5C.5,2.119,1.619,1,3,1s2.5,1.119,2.5,2.5-1.119,2.5-2.5,2.5S.5,4.881,.5,3.5ZM11,13c0,.553-.448,1-1,1h-3.175c-.593,0-1.13-.349-1.369-.888l-1.429-3.208c-.393-.891-.717-.937-1.175-.898-.469,.037-.851,.476-.851,.978v5.517c0,.552,.449,1,1,1,.457,0,.855-.309,.969-.749,.137-.535,.683-.858,1.218-.72,.535,.138,.856,.684,.719,1.218-.254,.988-.984,1.752-1.905,2.078v4.673c0,.553-.448,1-1,1s-1-.447-1-1v-4.684c-1.161-.414-2-1.514-2-2.816v-5.517c0-1.548,1.184-2.854,2.695-2.972,1.449-.112,2.492,.568,3.161,2.085l1.293,2.903h2.851c.552,0,1,.447,1,1Zm13-3.017v5.517c0,1.302-.839,2.402-2,2.816v4.684c0,.553-.447,1-1,1s-1-.447-1-1v-4.672c-.922-.326-1.651-1.091-1.905-2.079-.138-.535,.185-1.08,.72-1.218,.536-.135,1.08,.185,1.218,.72,.113,.441,.511,.749,.968,.749,.552,0,1-.448,1-1v-5.517c0-.502-.382-.94-.852-.978-.45-.035-.782,.007-1.175,.897-.05,.114-1.063,2.39-1.43,3.211-.241,.539-.778,.886-1.368,.886h-3.176c-.553,0-1-.447-1-1s.447-1,1-1h2.852c.43-.965,1.243-2.792,1.29-2.898,.671-1.521,1.693-2.202,3.163-2.09,1.512,.118,2.695,1.424,2.695,2.972Zm-5.5-6.483c0-1.381,1.119-2.5,2.5-2.5s2.5,1.119,2.5,2.5-1.119,2.5-2.5,2.5-2.5-1.119-2.5-2.5Z"/>
</svg>
