<?xml version="1.0" encoding="UTF-8"?>
<svg xmlns="http://www.w3.org/2000/svg" id="Layer_1" data-name="Layer 1" viewBox="0 0 24 24">
  <path d="M24,18c0,2.206-1.794,4-4,4H10c-.553,0-1-.447-1-1s.447-1,1-1h10c1.103,0,2-.897,2-2s-.897-2-2-2H12c-2.206,0-4-1.794-4-4s1.794-4,4-4h3c.553,0,1,.448,1,1s-.447,1-1,1h-3c-1.103,0-2,.897-2,2s.897,2,2,2h8c2.206,0,4,1.794,4,4Zm-5-8c.553,0,1-.448,1-1v-3.75l3.565-1.885c.581-.399,.581-1.329,0-1.729l-2.813-1.259c-.556-.249-1.151-.377-1.751-.377-.553,0-1,.448-1,1V9c0,.552,.447,1,1,1ZM3.5,19c1.381,0,2.5-1.119,2.5-2.5s-1.119-2.5-2.5-2.5-2.5,1.119-2.5,2.5,1.119,2.5,2.5,2.5Zm0,1c-1.681,0-3.144,1.177-3.479,2.797-.111,.541,.235,1.07,.776,1.183,.537,.105,1.069-.236,1.183-.776,.145-.697,.784-1.203,1.521-1.203s1.376,.506,1.521,1.203c.111,.544,.655,.889,1.183,.776,.541-.112,.888-.642,.776-1.183-.336-1.62-1.799-2.797-3.479-2.797Z"/>
</svg>
