<?xml version="1.0" encoding="UTF-8"?>
<svg xmlns="http://www.w3.org/2000/svg" id="Layer_1" data-name="Layer 1" viewBox="0 0 24 24">
  <path d="M22.398,20.571c-1.741-1.668-3.194-3.178-4.398-4.594v-.977c0-.552-.447-1-1-1h-.559c-1.008-1.39-1.769-2.71-2.311-4.026,.489-.066,.871-.468,.871-.974,0-.552-.447-1-1-1h-.526c-.327-1.283-.474-2.596-.474-4v-1c.553,0,1-.448,1-1s-.447-1-1-1c0-.552-.447-1-1-1s-1,.448-1,1c-.553,0-1,.448-1,1s.447,1,1,1v1c0,1.404-.147,2.716-.474,4h-.526c-.553,0-1,.448-1,1,0,.506,.382,.908,.87,.974-.542,1.316-1.303,2.636-2.312,4.026h-.558c-.553,0-1,.448-1,1v.976c-1.208,1.42-2.666,2.936-4.414,4.61-.378,.378-.586,.88-.586,1.414,0,1.103,.897,2,2.002,2l2.687-.005c1.146-.002,2.205-.672,2.694-1.707,.659-1.39,2.079-2.289,3.617-2.289s2.958,.898,3.617,2.288c.489,1.035,1.548,1.705,2.694,1.707l2.688,.005c1.103,0,2-.897,2-2,0-.534-.208-1.036-.602-1.429ZM12,10.066c.473,1.306,1.138,2.6,2.005,3.934h-4.011c.868-1.334,1.533-2.629,2.006-3.934Zm6.315,11.929c-.38,0-.729-.222-.892-.564-.988-2.084-3.117-3.431-5.424-3.431s-4.436,1.347-5.424,3.432c-.162,.342-.512,.563-.892,.563l-2.7,.02c2.311-2.214,4.135-4.173,5.573-6.015h6.885c1.435,1.839,3.254,3.793,5.56,6l-2.687-.005Z"/>
</svg>
