<?xml version="1.0" encoding="UTF-8"?>
<svg xmlns="http://www.w3.org/2000/svg" id="Layer_1" data-name="Layer 1" viewBox="0 0 24 24">
  <path d="M18,5h-4V3c0-1.654-1.346-3-3-3h-1c-1.654,0-3,1.346-3,3v2.295c-2.888,.863-5,3.541-5,6.705v7c0,2.757,2.243,5,5,5h10c2.757,0,5-2.243,5-5V9c0-2.206-1.794-4-4-4Zm2,4v7h-1.5c-.827,0-1.5-.673-1.5-1.5V7h1c1.103,0,2,.897,2,2ZM9,3c0-.552,.449-1,1-1h1c.551,0,1,.448,1,1v2h-3V3ZM4,13h5v4H4v-4Zm13,9H7c-1.654,0-3-1.346-3-3h5c1.103,0,2-.897,2-2v-4c0-1.103-.897-2-2-2H4.101c.465-2.279,2.484-4,4.899-4h6v7.5c0,1.93,1.57,3.5,3.5,3.5h1.5v1c0,1.654-1.346,3-3,3Z"/>
</svg>
