<?xml version="1.0" encoding="UTF-8"?>
<svg xmlns="http://www.w3.org/2000/svg" id="Layer_1" data-name="Layer 1" viewBox="0 0 24 24">
  <path d="M15.921,11.249l-4.121,5.513c-.112,.15-.288,.238-.475,.238-.389,0-.672-.368-.573-.744l.859-3.256h-2.735c-.55,0-.944-.531-.785-1.058l1.812-5.033c.197-.546,.714-.91,1.294-.91h1.568c.623,0,1.052,.623,.831,1.205l-1.064,2.795h2.717c.642,0,1.025,.715,.67,1.249Zm7.338,2.424c.482,.748,.742,1.616,.742,2.517,0,1.773-1.033,3.4-2.612,4.179-1.079,2.345-2.979,3.63-5.389,3.63-1.468,0-2.997-.813-4-2-1.003,1.188-2.532,2-4,2-2.409,0-4.31-1.285-5.389-3.63C1.032,19.591,0,17.964,0,16.191,0,15.29,.259,14.422,.741,13.674,.221,12.868-.052,11.954-.052,11c0-1.085,.379-2.574,2.096-3.747v-.492c0-1.821,1.314-3.209,3.232-3.542C5.647,1.355,7.128,0,8.948,0,9.997,0,11.167,.37,12.003,1.167,12.845,.371,14.016,0,15.026,0h.033c1.814,.016,3.29,1.37,3.663,3.22,1.919,.333,3.233,1.721,3.233,3.542v.492c1.717,1.172,2.096,2.662,2.096,3.747,0,.954-.272,1.868-.793,2.674Zm-2.281-.05c.009-.269,.126-.523,.325-.705,.415-.537,.749-1.267,.749-1.919,0-.613-.164-1.521-1.586-2.319-.314-.177-.51-.51-.51-.872v-1.047c0-1.112-1.11-1.619-2.143-1.619-.553,0-1-.448-1-1,0-1.032-.62-2.134-1.771-2.144h-.02c-.807,0-1.792,.403-2.068,1.297-.13,.418-.517,.704-.954,.704h0c-.438,0-.824-.285-.955-.703-.277-.892-1.281-1.298-2.097-1.298-1.145,0-1.762,1.104-1.762,2.143,0,.552-.447,1-1,1-1.032,0-2.143,.507-2.143,1.619v1.047c0,.361-.195,.695-.51,.872-1.422,.799-1.586,1.707-1.586,2.319,0,.652,.334,1.382,.749,1.919,.199,.182,.316,.436,.325,.705,.01,.27-.091,.531-.276,.726-.481,.502-.747,1.156-.747,1.841,0,1.112,.679,2.088,1.728,2.485,.262,.099,.47,.302,.574,.561,.749,1.859,1.959,2.763,3.699,2.763,1.243,0,2.666-1.073,3.045-2.296,.13-.419,.517-.704,.955-.704s.825,.285,.955,.704c.379,1.223,1.802,2.296,3.045,2.296,1.74,0,2.95-.904,3.699-2.763,.104-.259,.312-.462,.574-.561,1.049-.397,1.728-1.373,1.728-2.485,0-.685-.266-1.338-.747-1.841-.186-.195-.286-.457-.276-.726Z"/>
</svg>
