<?xml version="1.0" encoding="UTF-8"?>
<svg xmlns="http://www.w3.org/2000/svg" id="Layer_1" data-name="Layer 1" viewBox="0 0 24 24">
  <path d="M9.707,19.602c.391,.391,.391,1.023,0,1.414l-2.476,2.476c-.328,.329-.766,.511-1.231,.511s-.903-.182-1.232-.512l-2.475-2.475c-.391-.391-.391-1.023,0-1.414s1.023-.391,1.414,0l1.293,1.293v-4.895c0-.553,.448-1,1-1s1,.447,1,1v4.895l1.293-1.293c.391-.391,1.023-.391,1.414,0Zm9.293-7.102v3c0,1.381-1.119,2.5-2.5,2.5s-2.5-1.119-2.5-2.5v-3c0-1.381,1.119-2.5,2.5-2.5s2.5,1.119,2.5,2.5Zm-1.6,0c0-.496-.404-.9-.9-.9s-.9,.404-.9,.9v3c0,.496,.404,.9,.9,.9s.9-.404,.9-.9v-3Zm-6.963-.895c.374-.025,.705,.181,.863,.489,.132,.258,.409,.409,.699,.409,.606,0,.989-.647,.703-1.181-.414-.771-1.222-1.3-2.154-1.317-1.401-.027-2.547,1.154-2.547,2.555v2.886c0,1.401,1.146,2.581,2.547,2.555,.932-.018,1.74-.546,2.154-1.317,.287-.534-.097-1.181-.703-1.181-.29,0-.567,.151-.699,.409-.158,.308-.488,.514-.863,.488-.478-.032-.838-.45-.838-.929v-2.936c0-.479,.36-.897,.838-.929Zm12.909,8.062h-1.346c.575-.526,2-1.244,2-2.667,0-1.129-.935-2.039-2.073-1.999-.931,.033-1.684,.719-1.878,1.599-.002,.009-.004,.02-.006,.032-.057,.369,.233,.702,.607,.702h0c.356,0,.657-.247,.748-.592,.005-.018,.01-.032,.015-.042,.109-.21,.318-.359,.566-.366,.378-.011,.687,.291,.687,.666,0,1-2.667,1.84-2.667,3.346,0,.361,.293,.654,.654,.654h2.692c.361,0,.654-.293,.654-.654v-.025c0-.361-.293-.654-.654-.654ZM2.589,16.443c-.385-.575-.589-1.247-.589-1.943,0-.983,.418-1.928,1.146-2.59,.786-.715,1.155-1.773,.963-2.763-.138-.712-.146-1.445-.024-2.181,.403-2.422,2.365-4.421,4.771-4.862,2.744-.499,5.385,.835,6.567,3.329,.413,.872,1.2,1.482,2.158,1.673,2.405,.48,4.215,2.523,4.401,4.97,.042,.55,.507,.964,1.073,.921,.551-.042,.963-.522,.921-1.073-.254-3.336-2.723-6.124-6.005-6.778-.331-.066-.602-.273-.742-.569C15.682,1.305,12.089-.521,8.497,.138,5.226,.737,2.66,3.35,2.113,6.639c-.162,.971-.15,1.943,.033,2.89,.06,.309-.073,.653-.346,.901-1.145,1.041-1.801,2.524-1.801,4.07,0,1.094,.32,2.15,.927,3.057,.309,.462,.934,.579,1.387,.274,.459-.308,.582-.929,.275-1.388Z"/>
</svg>
