<?xml version="1.0" encoding="UTF-8"?>
<svg xmlns="http://www.w3.org/2000/svg" id="Layer_1" data-name="Layer 1" viewBox="0 0 24 24">
  <path d="m23.432,5.223l-1.672-2.36c-.908-1.281-2.63-1.681-4.011-.924l-9.128,5.008C7.541,3.686,4.69,1.383,1.104,1.006.564.943.063,1.346.006,1.896c-.059.549.34,1.041.89,1.099,2.959.312,5.2,2.195,5.942,4.931,0,0-4.058,2.229-4.089,2.251C-.182,12.251-.877,16.322,1.198,19.252c1.268,1.789,3.28,2.745,5.322,2.745,1.26,0,2.528-.372,3.642-1.128,1.007,1.294,2.575,2.131,4.337,2.131,3.032,0,5.5-2.468,5.5-5.5,0-1.556-.653-2.96-1.695-3.962l4.679-4.236c1.157-1.05,1.35-2.803.447-4.079ZM2.83,18.096c-1.426-2.014-.963-4.806,1.028-6.253l5.197,7.37c-2.025,1.385-4.803.892-6.225-1.116Zm11.67,2.904c-1.93,0-3.5-1.57-3.5-3.5s1.57-3.5,3.5-3.5,3.5,1.57,3.5,3.5-1.57,3.5-3.5,3.5Zm7.142-13.181l-5.069,4.59c-.64-.262-1.34-.409-2.073-.409-2.503,0-4.617,1.683-5.28,3.975l-3.598-5.102,13.089-7.181c.487-.269,1.096-.126,1.416.326l1.672,2.359c.319.451.251,1.071-.157,1.441Zm-5.642,9.681c0,.828-.672,1.5-1.5,1.5s-1.5-.672-1.5-1.5.672-1.5,1.5-1.5,1.5.672,1.5,1.5Z"/>
</svg>
