<?xml version="1.0" encoding="UTF-8"?>
<svg xmlns="http://www.w3.org/2000/svg" id="Layer_1" data-name="Layer 1" viewBox="0 0 24 24">
  <path d="M17,16c0,.553-.448,1-1,1-1.654,0-3-1.346-3-3,0-.553,.448-1,1-1s1,.447,1,1,.449,1,1,1,1,.447,1,1Zm6,0c0,2.757-2.243,5-5,5h-7v2c0,.553-.448,1-1,1s-1-.447-1-1v-.78c-.826,.503-1.779,.773-2.75,.78-2.895,0-5.25-2.355-5.25-5.25,0-1.694,.834-3.293,2.205-4.272,.588-2.229,2.443-3.938,4.72-4.355,.93-1.32,2.449-2.122,4.076-2.122s3.139,.804,4.071,2.128c1.331,.261,2.504,.993,3.316,2.069,2.117,.61,3.613,2.566,3.613,4.803Zm-2,0c0-1.426-1.014-2.662-2.412-2.94-.267-.053-.5-.212-.647-.44-.571-.89-1.509-1.465-2.575-1.577-.322-.033-.607-.221-.767-.503-.535-.949-1.532-1.539-2.6-1.539-1.076,0-2.075,.589-2.606,1.537-.16,.285-.45,.475-.776,.506-1.768,.171-3.225,1.5-3.543,3.23-.052,.285-.226,.533-.475,.68-.987,.584-1.6,1.655-1.6,2.797,0,1.792,1.458,3.25,3.25,3.25,2.358,.044,4.055-2.704,2.869-4.778-.261-.487-.078-1.093,.409-1.354,.488-.26,1.093-.077,1.354,.409,.405,.755,.619,1.61,.619,2.474,0,.433-.068,.847-.167,1.25h6.667c1.654,0,3-1.346,3-3ZM4.515,5.678c.193,.361,.679,.432,.968,.143l1.363-1.437,1.142,2.32c.172,.345,.641,.4,.888,.104,.097-.116,.14-.269,.118-.419l-.729-4.909c-.095-.468-.672-.642-1.009-.304l-1.428,1.428L4.862,.363c-.193-.399-.721-.488-1.034-.175l-.979,.979c-.234,.234-.292,.59-.145,.886l1.812,3.624Zm11.497,1.026l1.142-2.32,1.363,1.437c.289,.289,.775,.217,.968-.143l1.812-3.624c.147-.296,.088-.652-.145-.886l-.979-.979c-.313-.313-.842-.224-1.034,.175l-.966,2.24-1.428-1.428c-.337-.337-.914-.163-1.009,.304l-.729,4.909c-.022,.15,.021,.302,.118,.419,.247,.296,.716,.241,.888-.104Z"/>
</svg>
