<?xml version="1.0" encoding="UTF-8"?>
<svg xmlns="http://www.w3.org/2000/svg" id="Layer_1" data-name="Layer 1" viewBox="0 0 24 24">
  <path d="m12,0C5.047,0,0,4.606,0,10.952c0,6.463,6.056,13.048,12,13.048s12-6.585,12-13.048C24,4.606,18.953,0,12,0Zm5.683,19.589l-1.608-1.903c-.397-.397-1.075-.116-1.075.445v3.183c-.981.432-1.995.686-3,.686s-2.019-.254-3-.686v-3.183c0-.561-.678-.842-1.075-.445l-1.581,1.927c-1.749-1.5-3.169-3.556-3.868-5.755l2.624-1.211c.532-.266.532-1.026,0-1.292l-3.053-1.363c.286-2.887,1.863-5.213,4.293-6.596l2.534,2.936c.439.384,1.125.072,1.125-.511v-3.666c.64-.099,1.307-.154,2-.154s1.36.055,2,.154v3.666c0,.583.686.895,1.125.511l2.534-2.936c2.439,1.388,4.017,3.725,4.295,6.626l-3.055,1.333c-.532.266-.532,1.026,0,1.292l2.644,1.14c-.688,2.213-2.105,4.288-3.86,5.802Zm-9.183-7.589c-1.381,0-2.5-.895-2.5-2s1.119-2,2.5-2,2.5.895,2.5,2-1.119,2-2.5,2Zm9.5-2c0,1.105-1.119,2-2.5,2s-2.5-.895-2.5-2,1.119-2,2.5-2,2.5.895,2.5,2Zm-2.126,5.089c-.67.931-2.059,1.911-3.868,1.911s-3.208-.98-3.88-1.911c-.335-.465.037-1.089.641-1.089,1.658,0,4.807,0,6.465,0,.604,0,.976.623.641,1.089Z"/>
</svg>
