<?xml version="1.0" encoding="UTF-8"?>
<svg xmlns="http://www.w3.org/2000/svg" id="Layer_1" data-name="Layer 1" viewBox="0 0 24 24">
  <path d="M18,2.5c0-1.381,1.119-2.5,2.5-2.5s2.5,1.119,2.5,2.5-1.119,2.5-2.5,2.5-2.5-1.119-2.5-2.5Zm5.859,11.567c-.187,.314-.52,.489-.86,.489-.174,0-.35-.045-.51-.141l-2.427-1.444-2.081,4.114,2.127,1.226c.913,.526,1.25,1.673,.767,2.609l-1.319,2.562c-.178,.344-.527,.542-.89,.542-.154,0-.311-.036-.457-.111-.491-.253-.684-.856-.431-1.347l1.32-2.562s-4.872-2.78-4.905-2.805c-1.116-.843-1.501-2.325-.937-3.604l2.104-4.032-3.819,2.455c-.465,.299-1.083,.164-1.382-.3-.298-.465-.164-1.083,.3-1.382l5.115-3.289c1.068-.686,2.303-1.049,3.572-1.049h.354c.878,0,1.611,.344,2.064,.968,.479,.66,.572,1.544,.263,2.49-.016,.048-.86,1.726-.86,1.726l2.544,1.514c.475,.282,.63,.896,.348,1.371Zm-7.613,2.018l3.7-7.315c.096-.329,.064-.539,0-.628-.064-.089-.23-.142-.445-.142h-.354c-.253,0-.502,.026-.749,.067l-3.34,6.396c-.153,.354-.04,.825,.301,1.11l.889,.512Zm-6.246,4.944c0,.9-.255,1.61-.759,2.11-.79,.784-1.964,.862-3.238,.862-.159,0-1.524-.002-1.524-.002-1.455,.013-2.832,.022-3.72-.86-.503-.5-.759-1.21-.759-2.11,0-2.334,3.321-6.642,6.068-7.754-.473-.473-.915-1.136-1.332-1.876-.389-.689-.005-1.562,.767-1.734l1.938-.431c.65-.144,1.278,.283,1.414,.934,.284,1.351,.105,2.569-.376,3.254,1.383,1.147,1.521,4.461,1.521,7.607Zm-2,0c0-5.071-.618-5.916-.807-6.053-1.438,.026-5.193,4.307-5.193,6.053,0,.239,.029,.553,.168,.691,.297,.295,1.359,.285,2.296,.28h1.072c.935,.006,1.999,.015,2.296-.28,.139-.138,.168-.452,.168-.691Zm6.428-1.926c-.497-.247-1.095-.042-1.339,.453l-1.485,3c-.245,.495-.042,1.095,.453,1.339,.143,.071,.293,.104,.442,.104,.369,0,.723-.204,.897-.557l1.485-3c.245-.495,.042-1.095-.453-1.339Z"/>
</svg>
