<?xml version="1.0" encoding="UTF-8"?>
<svg xmlns="http://www.w3.org/2000/svg" id="Layer_1" data-name="Layer 1" viewBox="0 0 24 24">
  <path d="M19.848,14.296l-.977-.975c.17-.851,.17-1.791,0-2.642l.978-.972c1.524-1.461,1.525-4.092,0-5.553-1.46-1.523-4.092-1.523-5.551,0l-.977,.974c-.852-.171-1.791-.171-2.643,0l-.977-.973c-1.461-1.524-4.09-1.524-5.553-.001-1.524,1.463-1.522,4.092,.004,5.555l.976,.97c-.17,.851-.17,1.79,0,2.641l-.978,.977c-1.524,1.461-1.525,4.091-.002,5.553,1.463,1.524,4.091,1.523,5.554-.001l.975-.978c.851,.17,1.79,.17,2.642,0l.977,.977c1.461,1.525,4.091,1.526,5.554,.002,.742-.742,1.149-1.728,1.149-2.777,0-1.049-.409-2.035-1.152-2.776ZM15.713,5.569c.716-.748,2.006-.748,2.724,0,.746,.717,.746,2.007,0,2.723l-.318,.317c-.635-1.142-1.581-2.087-2.722-2.724l.316-.315Zm-10.147,2.723c-.748-.716-.749-2.006-.002-2.723,.751-.75,1.974-.75,2.727,.002l.314,.312c-1.141,.636-2.086,1.581-2.722,2.723l-.317-.315Zm2.723,10.143c-.717,.748-2.007,.748-2.725,0-.747-.718-.746-2.007,.002-2.724l.318-.318c.636,1.141,1.581,2.087,2.722,2.723l-.317,.318Zm-1.288-6.435c0-2.757,2.243-5,5-5s5,2.243,5,5-2.243,5-5,5-5-2.243-5-5Zm11.436,6.436c-.717,.747-2.006,.747-2.724-.001l-.318-.318c1.141-.636,2.086-1.581,2.722-2.722l.318,.317c.749,.717,.749,2.007,0,2.724Zm1.564-16.436c0-1.105,.895-2,2-2s2,.895,2,2-.895,2-2,2-2-.895-2-2ZM0,2C0,.895,.895,0,2,0s2,.895,2,2-.895,2-2,2S0,3.105,0,2ZM24,22c0,1.105-.895,2-2,2s-2-.895-2-2,.895-2,2-2,2,.895,2,2Zm-20,0c0,1.105-.895,2-2,2s-2-.895-2-2,.895-2,2-2,2,.895,2,2Z"/>
</svg>
