<?xml version="1.0" encoding="UTF-8"?>
<svg xmlns="http://www.w3.org/2000/svg" id="Layer_1" data-name="Layer 1" viewBox="0 0 24 24">
  <path d="M19,0H5C2.243,0,0,2.243,0,5v14c0,2.757,2.243,5,5,5h14c2.757,0,5-2.243,5-5V5c0-2.757-2.243-5-5-5Zm3,19c0,1.654-1.346,3-3,3H5c-1.654,0-3-1.346-3-3V5c0-1.654,1.346-3,3-3h14c1.654,0,3,1.346,3,3v14Zm-6-11.78c-.624-.328-1.373-.286-1.954,.112l-4.569,3.128c-.195,.133-.348,.307-.478,.496v-2.957c0-.552-.448-1-1-1s-1,.448-1,1v8c0,.553,.448,1,1,1s1-.447,1-1v-2.957c.129,.189,.283,.363,.478,.497l4.569,3.129c.321,.22,.694,.332,1.069,.332,.302,0,.606-.073,.885-.22,.617-.325,1-.958,1-1.651v-6.258c0-.693-.383-1.326-1-1.651Zm-1,7.677l-4.23-2.896,4.23-2.897v5.793Z"/>
</svg>
