<?xml version="1.0" encoding="UTF-8"?>
<svg xmlns="http://www.w3.org/2000/svg" id="Layer_1" data-name="Layer 1" viewBox="0 0 24 24">
  <path d="M21,11V3.529c.426,.352,.923,.711,1.503,1.043,.157,.09,.328,.133,.496,.133,.347,0,.684-.181,.869-.503,.274-.479,.109-1.09-.371-1.364-1.763-1.011-2.632-2.341-2.651-2.371-.005-.008-.282-.467-.846-.467s-.841,.459-.846,.466c-.092,.145-2.309,3.534-7.154,3.534S4.938,.61,4.848,.47c-.006-.01-.271-.47-.848-.47s-.839,.455-.846,.466c-.008,.014-.877,1.354-2.651,2.372C.023,3.112-.142,3.724,.132,4.202c.185,.322,.522,.503,.869,.503,.168,0,.339-.043,.496-.133,.58-.332,1.077-.691,1.503-1.043v7.471c-1.654,0-3,1.346-3,3v1.585c0,1.224,.731,2.331,1.82,2.757,1.932,.755,3.18,2.583,3.18,4.658,0,.553,.448,1,1,1s1-.447,1-1c0-2.757,2.243-5,5-5s5,2.243,5,5c0,.553,.448,1,1,1s1-.447,1-1c0-2.075,1.248-3.903,3.18-4.658,1.089-.426,1.82-1.533,1.82-2.757v-1.585c0-1.654-1.346-3-3-3Zm-2-7.467v7.467h-6V5.956c2.741-.228,4.715-1.358,6-2.423Zm-14,.004c1.285,1.063,3.262,2.195,6,2.422v5.041H5V3.537ZM22,15.585c0,.406-.22,.766-.548,.894-1.491,.583-2.675,1.632-3.452,2.935-1.224-2.04-3.452-3.413-6-3.413s-4.775,1.373-6,3.413c-.777-1.302-1.961-2.352-3.452-2.935-.328-.128-.548-.487-.548-.894v-1.585c0-.552,.449-1,1-1H21c.551,0,1,.448,1,1v1.585Z"/>
</svg>
