<?xml version="1.0" encoding="UTF-8"?>
<svg xmlns="http://www.w3.org/2000/svg" id="Layer_1" data-name="Layer 1" viewBox="0 0 24 24">
  <path d="M8.031,4.445c-.384-.397-.373-1.03,.023-1.414L10.598,.574c.77-.77,2.037-.768,2.816,.012l2.782,2.696c.396,.384,.406,1.018,.021,1.414-.196,.202-.457,.304-.718,.304-.251,0-.502-.094-.696-.282l-1.804-1.748v5.03c0,.553-.447,1-1,1s-1-.447-1-1V2.979l-1.555,1.49c-.397,.384-1.03,.372-1.414-.023Zm14.969,13.555h-4.875c-.039,0-5.211-4.524-5.211-4.524l-.029-.026,1.133-1.044c.278-.262,.641-.405,1.021-.405,.078,0,.526,.025,1.709,.527,.741,.313,1.513,.473,2.292,.473h3.961c.553,0,1-.447,1-1s-.447-1-1-1h-3.961c-.511,0-1.02-.105-1.512-.314-1.615-.686-2.273-.686-2.489-.686-.891,0-1.739,.336-2.383,.94l-.633,.583-.675-.615c-.644-.586-1.478-.909-2.371-.909-.219,0-.883,0-2.501,.686-.495,.209-1.005,.314-1.517,.314H1c-.553,0-1,.447-1,1s.447,1,1,1h3.959c.78,0,1.552-.159,2.295-.473,.919-.389,1.492-.527,1.746-.527,.371,0,.727,.138,1.002,.388l.546,.497-2.069,1.908c-.562,.562-.641,1.426-.189,2.053,.271,.379,.692,.617,1.154,.654,.457,.04,.916-.129,1.217-.433l1.604-1.493,4.027,3.589-3.118,2.434c-.668,.52-1.678,.52-2.346,0l-4.337-3.385c-.176-.138-.393-.212-.615-.212H1c-.553,0-1,.447-1,1s.447,1,1,1H5.531l4.065,3.173c.684,.533,1.537,.827,2.403,.827s1.72-.294,2.403-.827l4.065-3.173h4.531c.553,0,1-.447,1-1s-.447-1-1-1Z"/>
</svg>
