<?xml version="1.0" encoding="UTF-8"?>
<svg xmlns="http://www.w3.org/2000/svg" id="Layer_1" data-name="Layer 1" viewBox="0 0 24 24">
  <path d="M23.756,21.337l-5.226-8.96c-.683-1.171-2.376-1.171-3.059,0l-5.227,8.96c-.689,1.181,.163,2.663,1.53,2.663h10.453c1.367,0,2.218-1.483,1.53-2.663Zm-6.756,1.663c-.552,0-1-.448-1-1s.448-1,1-1,1,.448,1,1-.448,1-1,1Zm1-4c0,.552-.448,1-1,1s-1-.448-1-1v-3c0-.552,.448-1,1-1s1,.448,1,1v3Zm-6.105-4.463l-2.016,3.457-.379,.006c-3.074-.256-5.5-2.861-5.5-6v-3.598c-1.273,1.368-2,3.171-2,5.098v9.5c0,.552-.448,1-1,1s-1-.448-1-1V13.5c0-3.103,1.493-5.94,4-7.724v-.776C4,2.243,6.243,0,9,0h2c2.757,0,5,2.243,5,5v.776c1.646,1.171,2.843,2.801,3.479,4.656-.706-.619-1.649-.983-2.627-.925-.248-.393-.532-.763-.852-1.107v1.23c-.796,.215-1.495,.687-2,1.356V5c0-1.654-1.346-3-3-3h-2c-1.654,0-3,1.346-3,3v7c0,1.183,.526,2.237,1.346,2.97,.744-.55,1.657-.882,2.654-.882,.684,0,1.319,.172,1.895,.449Z"/>
</svg>
