<?xml version="1.0" encoding="UTF-8"?>
<svg xmlns="http://www.w3.org/2000/svg" id="Layer_1" data-name="Layer 1" viewBox="0 0 24 24">
  <path d="M23.535,14.725c-.426-.509-1.07-.776-1.726-.716-4.473,.417-7.209,2.805-8.809,4.979v-3.172c1.161-.414,2-1.514,2-2.816v-.023c.007,.004,.014,.008,.021,.011,1.462,.772,3.281,.21,4.054-1.252,.68-1.288,.326-2.852-.768-3.735,.462-.371,.803-.871,.982-1.45,.236-.766,.161-1.578-.214-2.286-.771-1.463-2.591-2.025-4.054-1.252-.007,.003-.013,.007-.02,.01v-.023c0-1.654-1.346-3-3-3s-3,1.346-3,3v.023c-.007-.004-.014-.008-.021-.011-1.464-.774-3.282-.21-4.054,1.252-.374,.708-.45,1.52-.213,2.286,.179,.579,.52,1.079,.981,1.45-1.094,.883-1.448,2.447-.768,3.735,.772,1.463,2.591,2.025,4.054,1.252,.007-.003,.013-.007,.02-.01v.023c0,1.302,.839,2.402,2,2.816v3.172c-1.6-2.173-4.335-4.561-8.809-4.979-.656-.064-1.301,.207-1.726,.716-.419,.501-.566,1.171-.394,1.792,2.039,7.338,11.52,7.481,11.922,7.483h.013c.402-.002,9.883-.145,11.922-7.483,.173-.621,.025-1.291-.394-1.792ZM15.954,4.781c.488-.256,1.094-.07,1.352,.418,.125,.236,.15,.506,.071,.762-.079,.255-.252,.464-.488,.589-.029,.015-.304,.145-1.543,.421-.131-.423-.339-.812-.609-1.151,.9-.845,1.168-1.012,1.218-1.039Zm-.609,4.25c1.241,.276,1.516,.406,1.543,.42,.488,.257,.675,.864,.417,1.352-.257,.488-.862,.675-1.35,.418-.051-.027-.32-.195-1.22-1.039,.271-.338,.479-.728,.61-1.151ZM6.694,5.198c.179-.339,.527-.533,.887-.533,.157,0,.315,.037,.463,.115,.051,.027,.319,.194,1.219,1.04-.27,.338-.479,.728-.609,1.151-1.239-.276-1.514-.407-1.543-.421-.487-.257-.674-.863-.417-1.351Zm1.352,6.021c-.487,.257-1.094,.07-1.352-.417s-.07-1.094,.416-1.351c.028-.015,.304-.145,1.544-.42,.13,.423,.339,.812,.61,1.151-.901,.844-1.169,1.011-1.219,1.038Zm3.954,2.781c-.551,0-1-.449-1-1,0-.058,.023-.373,.348-1.562,.422,.08,.88,.08,1.303,0,.326,1.189,.349,1.503,.349,1.561,0,.551-.449,1-1,1Zm0-12c.551,0,1,.449,1,1,0,.058-.023,.372-.349,1.561-.422-.079-.881-.08-1.303,0-.325-1.189-.348-1.503-.348-1.561,0-.551,.449-1,1-1Zm-1.5,6c0-.827,.673-1.5,1.5-1.5s1.5,.673,1.5,1.5-.673,1.5-1.5,1.5-1.5-.673-1.5-1.5ZM2.006,16c5.08,.474,7.483,3.883,8.462,5.863-2.497-.347-7.27-1.568-8.462-5.863Zm11.539,5.861c.994-1.979,3.419-5.397,8.457-5.88-1.195,4.301-5.956,5.53-8.457,5.88Z"/>
</svg>
