<?xml version="1.0" encoding="UTF-8"?>
<svg xmlns="http://www.w3.org/2000/svg" id="Layer_1" data-name="Layer 1" viewBox="0 0 24 24">
  <path d="M15.011,17.63c.106-3.89,1.819-5.758,2.11-6.047,.471-.183,.927-.411,1.345-.71,.344,.084,.69,.127,1.034,.127,2.481,0,4.5-2.019,4.5-4.5s-2.019-4.5-4.5-4.5c-.035,0-.091-.051-.235-.2C17.463-.037,14.603-.522,12.309,.652c-.199,.103-.418,.103-.617,0-.845-.433-1.751-.652-2.691-.652-1.612,0-3.127,.639-4.306,1.842-.104,.107-.159,.158-.194,.158C2.019,2,0,4.019,0,6.5s2.019,4.5,4.5,4.5c.344,0,.69-.042,1.034-.127,.42,.301,.875,.535,1.348,.715,.316,.315,2.002,2.182,2.107,6.042-1.313-.36-1.989-.888-1.989-1.13,0-.033,.04-.134,.189-.276,.399-.382,.414-1.015,.033-1.414-.381-.4-1.016-.414-1.414-.033-.668,.638-.809,1.289-.809,1.724,0,1.541,1.586,2.586,3.678,3.11-.74,1.672-2.604,2.224-3.822,2.401-.546,.079-.925,.587-.845,1.134,.072,.497,.5,.855,.988,.855,1.161-.169,4.679-.948,5.698-4.057,.43,.038,.867,.057,1.303,.057s.873-.019,1.303-.057c1.018,3.109,4.537,3.887,5.698,4.057,.488,0,.916-.358,.988-.855,.08-.547-.299-1.055-.845-1.134-1.219-.178-3.083-.73-3.822-2.401,2.092-.523,3.678-1.569,3.678-3.11,0-.435-.141-1.087-.811-1.725-.398-.379-1.033-.364-1.414,.035-.381,.4-.365,1.033,.035,1.414,.149,.143,.189,.242,.189,.275,0,.242-.677,.77-1.989,1.13Zm-2.009,.328c-.318,.024-.646,.042-1.001,.042s-.683-.018-1.001-.042c-.007-2.739-.717-4.715-1.426-6.009,.73-.068,1.451-.26,2.119-.601,.199-.103,.418-.103,.617,0,.669,.342,1.377,.546,2.109,.618-.706,1.294-1.409,3.265-1.417,5.992Zm.219-8.391c-.388-.199-.805-.298-1.221-.298s-.833,.099-1.221,.298c-.56,.287-1.158,.433-1.779,.433-1.207,0-2.082-.54-2.604-.993-.278-.242-.667-.309-1.012-.179-1.729,.661-3.384-.662-3.384-2.328,0-1.378,1.121-2.5,2.5-2.5,.892,0,1.411-.539,1.663-.8,1.199-1.223,3.094-1.549,4.616-.768,.775,.397,1.666,.397,2.441,0,1.525-.781,3.401-.473,4.646,.798,.223,.23,.742,.769,1.634,.769,1.379,0,2.5,1.122,2.5,2.5,0,1.667-1.652,2.989-3.384,2.328-.344-.13-.733-.063-1.012,.179-.522,.453-1.397,.993-2.604,.993-.621,0-1.22-.146-1.779-.433Z"/>
</svg>
