<?xml version="1.0" encoding="UTF-8"?>
<svg xmlns="http://www.w3.org/2000/svg" id="Layer_1" data-name="Layer 1" viewBox="0 0 24 24">
  <path d="m22.316,2.333c-1.229-1.064-3.235-2.333-5.816-2.333H7.5C4.919,0,2.912,1.269,1.684,2.333c-1.07.926-1.684,2.291-1.684,3.743v10.924c0,2.206,1.794,4,4,4h.142c.447,1.721,1.999,3,3.858,3h8c1.859,0,3.411-1.279,3.858-3h.142c2.206,0,4-1.794,4-4V6.076c0-1.453-.613-2.817-1.684-3.743Zm-7.959-.333l-2.357,5.5-2.357-5.5h4.714Zm-6.357,20c-1.103,0-2-.897-2-2v-3h2c.553,0,1-.447,1-1s-.447-1-1-1h-2v-6c0-.552-.448-1-1-1s-1,.448-1,1v10c-1.103,0-2-.897-2-2V6.076c0-.872.361-1.685.992-2.231.972-.841,2.543-1.844,4.508-1.844h.165l-.793.891c-.462.646-.408,1.528.129,2.113l4,3.997v12.999h-3Zm14-5c0,1.103-.897,2-2,2v-10c0-.552-.448-1-1-1s-1,.448-1,1v6h-2c-.553,0-1,.447-1,1s.447,1,1,1h2v3c0,1.103-.897,2-2,2h-3v-12.999l4-3.997c.537-.586.59-1.467.129-2.113l-.793-.891h.165c1.965,0,3.536,1.003,4.508,1.844.631.546.992,1.359.992,2.231v10.924Z"/>
</svg>
