<?xml version="1.0" encoding="UTF-8"?>
<svg xmlns="http://www.w3.org/2000/svg" id="Layer_1" data-name="Layer 1" viewBox="0 0 24 24">
  <path d="M22.242,10.661c-.943-1.309-1.226-1.994-1.242-2.161v-3.679c0-2.247-1.608-4.119-3.825-4.451C13.896-.122,10.104-.122,6.825,.371c-2.216,.332-3.825,2.204-3.825,4.451v3.666c-.017,.18-.298,.866-1.243,2.173-.496,.687-.757,1.497-.757,2.342v5.998c0,2.757,2.243,5,5,5h12c2.757,0,5-2.243,5-5v-5.998c0-.845-.262-1.655-.758-2.341ZM14.539,2.092l-2.539,6.982-2.539-6.982c.829-.06,1.676-.092,2.539-.092s1.71,.032,2.539,.092ZM3,19v-5.998c0-.422,.131-.828,.379-1.171,1.621-2.245,1.621-3.034,1.621-3.332v-3.679c0-1.249,.893-2.289,2.122-2.473,.095-.014,.197-.019,.292-.032l3.586,9.86v9.823H6c-1.654,0-3-1.346-3-3Zm18,0c0,1.654-1.346,3-3,3h-5V12.176l3.585-9.86c.095,.013,.198,.018,.293,.032,1.229,.185,2.122,1.225,2.122,2.473v3.679c0,.466,.168,1.318,1.621,3.332,.248,.343,.379,.749,.379,1.171v5.998Zm-.909-4.462c0,1.084-1.266,2.504-2.095,3.206-.404,.342-.998,.342-1.402,0-.828-.702-2.095-2.122-2.095-3.206,0-.849,.626-1.538,1.398-1.538s1.398,.688,1.398,1.538c0-.849,.626-1.538,1.398-1.538s1.398,.688,1.398,1.538Z"/>
</svg>
