<?xml version="1.0" encoding="UTF-8"?>
<svg xmlns="http://www.w3.org/2000/svg" id="Layer_1" data-name="Layer 1" viewBox="0 0 24 24">
  <path d="M24,12V7c0-.553-.448-1-1-1-.233,0-.438,.092-.609,.226-.304-.628-.711-1.203-1.22-1.683-.625-.591-1.361-1.015-2.171-1.267v-1.276c0-.553-.448-1-1-1s-1,.447-1,1v1.017c-.049,.002-.098-.001-.147,.002l-9.767,1.457c-.695-.931-1.819-1.445-2.953-1.475C1.769,2.873-.201,5.067,.043,7.437l.844,5.849c.141,.978,.992,1.715,1.979,1.715h.134v1c0,.553,.448,1,1,1s1-.447,1-1v-1h.139c.982,0,1.833-.732,1.978-1.703l.236-1.571,4.772,.606c.499,.063,.875,.49,.875,.992v6.676H1c-.552,0-1,.447-1,1s.448,1,1,1H23c.552,0,1-.447,1-1s-.448-1-1-1v-7c.552,0,1-.447,1-1ZM2.866,13l-.836-5.783c-.121-1.152,.886-2.311,2.055-2.216,1.094,0,1.998,1.051,1.938,2.131l-.883,5.868H2.866Zm12.134,7v-6.676c0-1.506-1.126-2.785-2.622-2.977l-4.728-.6,.357-2.369c.037-.337,.003-.678-.052-1.01l9.101-1.362c1.027-.057,2.004,.294,2.742,.99,.775,.733,1.202,1.748,1.202,2.858v11.146h-6Zm4.5-3.5c0,.828-.672,1.5-1.5,1.5s-1.5-.672-1.5-1.5,.672-1.5,1.5-1.5,1.5,.672,1.5,1.5Zm0-4c0,.828-.672,1.5-1.5,1.5s-1.5-.672-1.5-1.5,.672-1.5,1.5-1.5,1.5,.672,1.5,1.5Z"/>
</svg>
