<?xml version="1.0" encoding="UTF-8"?>
<svg xmlns="http://www.w3.org/2000/svg" id="Layer_1" data-name="Layer 1" viewBox="0 0 24 24">
  <path d="M11,15c0,.553-.448,1-1,1H5c-2.757,0-5-2.243-5-5v-3C0,5.243,2.243,3,5,3h14c2.757,0,5,2.243,5,5,0,.553-.447,1-1,1s-1-.447-1-1c0-1.654-1.346-3-3-3H5c-1.654,0-3,1.346-3,3v3c0,1.654,1.346,3,3,3h5c.552,0,1,.447,1,1Zm-2.293-7.707c-.391-.391-1.023-.391-1.414,0l-.793,.793-.793-.793c-.391-.391-1.023-.391-1.414,0s-.391,1.023,0,1.414l.793,.793-.793,.793c-.391,.391-.391,1.023,0,1.414,.195,.195,.451,.293,.707,.293s.512-.098,.707-.293l.793-.793,.793,.793c.195,.195,.451,.293,.707,.293s.512-.098,.707-.293c.391-.391,.391-1.023,0-1.414l-.793-.793,.793-.793c.391-.391,.391-1.023,0-1.414Zm6,1.414c.391-.391,.391-1.023,0-1.414s-1.023-.391-1.414,0l-.793,.793-.793-.793c-.391-.391-1.023-.391-1.414,0s-.391,1.023,0,1.414l.793,.793-.793,.793c-.391,.391-.391,1.023,0,1.414,.195,.195,.451,.293,.707,.293s.512-.098,.707-.293l3-3Zm9.293,9.293v2c0,2.206-1.794,4-4,4h-4c-2.206,0-4-1.794-4-4v-2c0-1.474,.81-2.75,2-3.444v-1.556c0-2.206,1.794-4,4-4s4,1.794,4,4v1.556c1.19,.694,2,1.97,2,3.444Zm-8-4h4v-1c0-1.103-.897-2-2-2s-2,.897-2,2v1Zm6,4c0-1.103-.897-2-2-2h-4c-1.103,0-2,.897-2,2v2c0,1.103,.897,2,2,2h4c1.103,0,2-.897,2-2v-2Zm-4-.5c-.828,0-1.5,.672-1.5,1.5s.672,1.5,1.5,1.5,1.5-.672,1.5-1.5-.672-1.5-1.5-1.5Z"/>
</svg>
