<?xml version="1.0" encoding="UTF-8"?>
<svg xmlns="http://www.w3.org/2000/svg" id="Layer_1" data-name="Layer 1" viewBox="0 0 24 24">
  <path d="M2,8V4C2,1.794,3.794,0,6,0h4.271c.801,0,1.555,.312,2.121,.879l1.729,1.729c.566,.566,.879,1.32,.879,2.121v3.271c0,.552-.447,1-1,1s-1-.448-1-1v-3h-2c-.552,0-1-.448-1-1V2H6c-1.103,0-2,.897-2,2v4c0,.552-.447,1-1,1s-1-.448-1-1Zm21.235,5.015l-6.804,7.637c-1.896,2.128-4.617,3.348-7.467,3.348H4c-2.206,0-4-1.794-4-4v-5c0-2.206,1.794-4,4-4H12.857c1.139,0,2.139,.609,2.689,1.519l3.217-3.534c1.061-1.221,3.087-1.314,4.254-.199,1.214,1.107,1.312,3.005,.218,4.23Zm-1.565-2.752c-.393-.369-1.071-.344-1.427,.067l-4.427,4.865c-.386,1.07-1.339,1.89-2.514,2.058l-5.161,.737c-.548,.077-1.054-.302-1.132-.848-.078-.547,.302-1.053,.849-1.131l5.161-.737c.559-.08,.98-.566,.98-1.131,0-.63-.513-1.142-1.143-1.142H4c-1.103,0-2,.897-2,2v5c0,1.103,.897,2,2,2h4.965c2.279,0,4.456-.976,5.973-2.678l6.805-7.638c.368-.412,.335-1.049-.072-1.421Z"/>
</svg>
