<?xml version="1.0" encoding="UTF-8"?>
<svg xmlns="http://www.w3.org/2000/svg" id="Layer_1" data-name="Layer 1" viewBox="0 0 24 24">
  <path d="M5.184,8h.816l.793,.793-.5,.5c-.391,.391-.391,1.023,0,1.414s1.023,.391,1.414,0l.5-.5,.793,.793v.816c0,.654,.53,1.184,1.184,1.184,.261,0,.52-.079,.723-.242,1.238-.993,2.065-2.402,2.065-4.108h0c1.339-1.479,3.389-4.714,3.92-6.182,.56-1.404-.958-2.921-2.359-2.358-1.462,.527-4.64,2.535-6.145,3.89h-.004c-1.737,0-3.149,.851-4.142,2.094-.162,.203-.241,.462-.241,.722h0c0,.655,.53,1.185,1.184,1.185ZM14.868,2.132c-.591,1.299-2.246,3.916-3.364,5.16l-1.687,1.698-1.805-1.806,1.714-1.703c1.251-1.135,3.833-2.76,5.142-3.349Zm8.367,13.884l-6.997,7.659c-.374,.409-1.006,.435-1.413,.063-.407-.372-.436-1.005-.063-1.413l6.989-7.65c.359-.402,.327-1.04-.081-1.411-.392-.376-1.071-.342-1.427,.066l-4.434,4.873c-.387,1.066-1.335,1.883-2.506,2.05l-5.161,.737c-.548,.075-1.054-.302-1.132-.849s.302-1.054,.849-1.132l5.161-.737c.56-.079,.98-.565,.98-1.13,0-.63-.513-1.143-1.143-1.143H4c-1.103,0-2,.897-2,2v5c0,.553-.447,1-1,1s-1-.447-1-1v-5c0-2.206,1.794-4,4-4H12.857c1.14,0,2.131,.617,2.682,1.528l3.224-3.544c1.062-1.22,3.087-1.317,4.254-.199,1.214,1.106,1.312,3.004,.218,4.23Z"/>
</svg>
