<?xml version="1.0" encoding="UTF-8"?>
<svg xmlns="http://www.w3.org/2000/svg" id="Layer_1" data-name="Layer 1" viewBox="0 0 24 24">
  <path d="M.899,10.983c.53,.101,1.067-.257,1.164-.803,.162-.882,.443-1.73,.833-2.533,.457,.219,.963,.352,1.502,.352,1.93,0,3.5-1.57,3.5-3.5,0-.54-.133-1.045-.352-1.502,.804-.389,1.652-.671,2.533-.833,.543-.1,.903-.621,.803-1.164-.099-.542-.616-.902-1.164-.803-1.258,.231-2.458,.669-3.58,1.284-.515-.298-1.104-.481-1.74-.481C2.469,1,.898,2.57,.898,4.5c0,.636,.184,1.225,.482,1.74C.765,7.361,.328,8.561,.097,9.819c-.1,.543,.259,1.064,.803,1.164ZM4.398,3c.827,0,1.5,.673,1.5,1.5s-.673,1.5-1.5,1.5-1.5-.673-1.5-1.5,.673-1.5,1.5-1.5Zm9.328-.852c.915,.159,1.793,.447,2.625,.85-.219,.457-.352,.962-.352,1.502,0,1.93,1.57,3.5,3.5,3.5,.539,0,1.045-.133,1.502-.352,.389,.803,.672,1.65,.833,2.533,.098,.547,.634,.904,1.164,.803,.543-.1,.902-.621,.803-1.164-.232-1.26-.668-2.461-1.283-3.58,.298-.514,.481-1.103,.481-1.739,0-1.93-1.57-3.5-3.5-3.5-.636,0-1.225,.184-1.74,.482-1.156-.634-2.392-1.078-3.69-1.304-.554-.091-1.062,.27-1.157,.814s.27,1.062,.813,1.157Zm7.273,2.352c0,.827-.673,1.5-1.5,1.5s-1.5-.673-1.5-1.5,.673-1.5,1.5-1.5,1.5,.673,1.5,1.5ZM10.079,21.835c-.882-.162-1.73-.444-2.533-.833,.219-.457,.352-.963,.352-1.502,0-1.93-1.57-3.5-3.5-3.5-.54,0-1.045,.133-1.502,.352-.389-.803-.67-1.651-.833-2.533-.099-.542-.618-.902-1.164-.803-.543,.1-.903,.621-.803,1.164,.231,1.259,.669,2.459,1.283,3.579-.298,.515-.482,1.104-.482,1.74,0,1.93,1.57,3.5,3.5,3.5,.636,0,1.225-.184,1.74-.481,1.121,.615,2.321,1.053,3.58,1.284,.53,.101,1.067-.257,1.164-.803,.1-.543-.259-1.064-.803-1.164Zm-7.181-2.335c0-.827,.673-1.5,1.5-1.5s1.5,.673,1.5,1.5-.673,1.5-1.5,1.5-1.5-.673-1.5-1.5Zm20.101-6.483c-.54-.1-1.063,.261-1.164,.803-.162,.882-.444,1.73-.833,2.533-.457-.219-.962-.352-1.502-.352-1.93,0-3.5,1.57-3.5,3.5,0,.539,.133,1.045,.352,1.502-.832,.403-1.711,.691-2.625,.85-.544,.095-.908,.613-.813,1.157,.093,.548,.625,.909,1.157,.814,1.297-.226,2.534-.67,3.69-1.304,.515,.298,1.104,.482,1.74,.482,1.93,0,3.5-1.57,3.5-3.5,0-.636-.183-1.224-.481-1.739,.615-1.12,1.051-2.32,1.283-3.58,.1-.543-.26-1.064-.803-1.164Zm-3.499,7.983c-.827,0-1.5-.673-1.5-1.5s.673-1.5,1.5-1.5,1.5,.673,1.5,1.5-.673,1.5-1.5,1.5Zm-2.5-9.9c0-1.738-1.317-3.1-3-3.1-.782,0-1.477,.27-2,.727-.523-.457-1.218-.727-2-.727-1.682,0-3,1.362-3,3.1,0,2.504,3.241,5.127,3.611,5.418,.818,.643,1.96,.643,2.779,0,.369-.291,3.61-2.915,3.61-5.418Zm-4.847,3.846c-.091,.072-.214,.072-.305,0-1.4-1.102-2.848-2.842-2.848-3.847,0-.637,.42-1.1,1-1.1,.461,0,1,.262,1,1,0,.552,.448,1,1,1s1-.448,1-1c0-.738,.539-1,1-1,.579,0,1,.463,1,1.1,0,1.004-1.448,2.745-2.847,3.846Z"/>
</svg>
