<?xml version="1.0" encoding="UTF-8"?>
<svg xmlns="http://www.w3.org/2000/svg" id="Layer_1" data-name="Layer 1" viewBox="0 0 24 24">
  <path d="m23.707,23.707c-.195.195-.451.293-.707.293s-.512-.098-.707-.293l-5.973-5.973c-.255.208-.512.414-.79.599-.17.113-.363.167-.553.167-.324,0-.641-.156-.833-.446-.306-.46-.181-1.081.279-1.387,2.24-1.489,3.577-3.981,3.577-6.667,0-4.411-3.589-8-8-8S2,5.589,2,10c.049.297-.056.396-.012.922.046.551-.37,1.041-.914,1.079-.55.045-1.034-.364-1.079-.915-.027-.331.005-.875.005-1.087C0,4.486,4.486,0,10,0s10,4.486,10,10c0,2.341-.828,4.554-2.269,6.317l5.976,5.976c.391.391.391,1.023,0,1.414Zm-14.707-12.707h-3c-1.654,0-3,1.346-3,3v4.05c-.162-.033-.329-.05-.5-.05-1.381,0-2.5,1.119-2.5,2.5s1.119,2.5,2.5,2.5,2.5-1.119,2.5-2.5v-6.5c0-.552.449-1,1-1h3c.551,0,1,.448,1,1v4.05c-.162-.033-.329-.05-.5-.05-1.381,0-2.5,1.119-2.5,2.5s1.119,2.5,2.5,2.5,2.5-1.119,2.5-2.5v-6.5c0-1.654-1.346-3-3-3Z"/>
</svg>
