<?xml version="1.0" encoding="UTF-8"?>
<svg xmlns="http://www.w3.org/2000/svg" id="Layer_1" data-name="Layer 1" viewBox="0 0 24 24">
  <path d="M20,12H4c-2.206,0-4,1.794-4,4v2c0,1.474,.81,2.75,2,3.444v1.556c0,.553,.447,1,1,1s1-.447,1-1v-1H20v1c0,.553,.447,1,1,1s1-.447,1-1v-1.556c1.19-.694,2-1.97,2-3.444v-2c0-2.206-1.794-4-4-4Zm2,6c0,1.103-.897,2-2,2H4c-1.103,0-2-.897-2-2v-2c0-1.103,.897-2,2-2H20c1.103,0,2,.897,2,2v2ZM15.943,7.302c-2.291-1.703-5.596-1.703-7.887,0-.443,.331-1.069,.237-1.398-.205-.33-.442-.238-1.069,.205-1.398,1.492-1.111,3.269-1.698,5.137-1.698s3.645,.587,5.137,1.698c.443,.329,.535,.956,.205,1.398-.331,.446-.96,.534-1.398,.205Zm-1.642,1.345c.472,.288,.62,.903,.332,1.375-.29,.475-.911,.617-1.375,.332-.756-.463-1.762-.463-2.518,0-.473,.288-1.087,.14-1.375-.332s-.14-1.087,.332-1.375c1.385-.846,3.219-.846,4.604,0ZM4.109,4.127c-.346-.431-.278-1.06,.152-1.406C6.441,.967,9.19,0,12,0s5.559,.967,7.738,2.721c.431,.347,.498,.976,.152,1.406-.348,.432-.979,.497-1.406,.152-1.826-1.47-4.129-2.279-6.484-2.279s-4.658,.81-6.484,2.279c-.432,.346-1.06,.276-1.406-.152Zm2.891,12.873c0,.828-.672,1.5-1.5,1.5s-1.5-.672-1.5-1.5,.672-1.5,1.5-1.5,1.5,.672,1.5,1.5Zm4,0c0,.828-.672,1.5-1.5,1.5s-1.5-.672-1.5-1.5,.672-1.5,1.5-1.5,1.5,.672,1.5,1.5Z"/>
</svg>
