<?xml version="1.0" encoding="UTF-8"?>
<svg xmlns="http://www.w3.org/2000/svg" id="Layer_1" data-name="Layer 1" viewBox="0 0 24 24">
  <path d="M24,19.5c0-1.192-.836-2.186-1.953-2.436l-.009-.034c-.317-1.27-1.223-2.257-2.379-2.726l2.301-11.5c.09-.451,.547-.803,1.04-.803,.553,0,1-.448,1-1s-.447-1-1-1c-1.437,0-2.727,1.037-3.001,2.411l-2.319,11.589h-2.101c-1.658,0-3.163,1.043-3.746,2.596l-.158,.422c-.059-.004-.115-.018-.175-.018-1.381,0-2.5,1.119-2.5,2.5s1.119,2.5,2.5,2.5c1.209,0,2.218-.859,2.45-2h5.101c.232,1.141,1.24,2,2.45,2,1.381,0,2.5-1.119,2.5-2.5Zm-8.421-3.5h2.578c.896,0,1.672,.594,1.919,1.449-.218,.151-.405,.34-.565,.551h-6.023c-.01-.013-.022-.025-.032-.039l.249-.663c.291-.777,1.044-1.298,1.873-1.298Zm7.421,6c.553,0,1,.448,1,1s-.447,1-1,1H1c-.553,0-1-.448-1-1,0-.496,.367-.889,.84-.968-.153-1.105-.412-2.411-.765-3.25-.217-.516,.377-.969,.842-.658,1.056,.708,1.671,1.786,2.039,2.813-.077-1.38-.286-2.992-.846-4.145-.262-.539,.361-1.038,.846-.687,1.207,.872,1.848,2.4,2.191,3.739,.385-.98,.992-2.029,1.951-2.769,.443-.342,1.048,.206,.8,.708-.601,1.219-.815,2.824-.855,4.217h15.957ZM9.142,6.888c.66-.931,2.036-2.429,4.296-2.907,.484-.103,.748,.54,.368,.857-.997,.831-1.811,2.319-2.357,3.289-.188,.334-.598,.464-.949,.309l-1.054-.428c-.434-.193-.579-.731-.304-1.118Zm-4.762,3.69c2.282-.354,4.101,.56,5.048,1.196,.394,.265,.449,.819,.112,1.154l-.543,.853c-.272,.27-.702,.293-.996,.048-.855-.713-2.434-1.896-3.661-2.32-.468-.162-.449-.856,.04-.931Z"/>
</svg>
