<?xml version="1.0" encoding="UTF-8"?>
<svg xmlns="http://www.w3.org/2000/svg" id="Layer_1" data-name="Layer 1" viewBox="0 0 24 24">
  <path d="M12,0C7.038,0,3,4.037,3,9v6c0,4.963,4.038,9,9,9s9-4.037,9-9v-6C21,4.037,16.962,0,12,0Zm0,2c2.785,0,5.189,1.639,6.315,4H5.685c1.126-2.361,3.53-4,6.315-4Zm0,20c-3.86,0-7-3.141-7-7v-6c0-.34,.033-.672,.08-1h13.84c.047,.328,.08,.66,.08,1v5.065c-.315-.323-.688-.595-1.125-.782-.501-2.161-2.604-3.569-4.805-3.23-1.159,.182-2.242,.918-2.896,1.97-.531,.85-.749,1.739-.651,2.649-1.102,.566-1.703,1.771-1.476,3.021,.242,1.337,1.446,2.307,2.863,2.307h5.005c.386,0,.747-.049,1.092-.119-1.272,1.305-3.046,2.119-5.008,2.119Zm-.467-7.393c-.095-.521,.012-1.006,.337-1.527,.353-.565,.917-.958,1.509-1.051,.124-.02,.247-.029,.368-.029,1.049,0,1.956,.71,2.186,1.768,.131,.603,.56,1.106,1.143,1.35,.648,.271,1.018,.949,.9,1.65-.127,.761-.917,1.232-2.062,1.232h-5.005c-.442,0-.827-.285-.895-.663-.084-.463,.202-.803,.501-.922,.74-.294,1.158-1.038,1.017-1.808Z"/>
</svg>
