<?xml version="1.0" encoding="UTF-8"?>
<svg xmlns="http://www.w3.org/2000/svg" id="Layer_1" data-name="Layer 1" viewBox="0 0 24 24">
  <path d="m10.068,16.432c.391.391.391,1.023,0,1.414-.195.195-.451.293-.707.293s-.512-.098-.707-.293l-2.5-2.5c-.391-.391-.391-1.023,0-1.414s1.023-.391,1.414,0l2.5,2.5Zm12.028-3.527c1.228,1.228,1.904,2.859,1.904,4.596s-.677,3.368-1.904,4.596-2.859,1.904-4.596,1.904-3.368-.677-4.596-1.904l-.904-.904-.904.904c-1.228,1.228-2.86,1.904-4.596,1.904s-3.369-.677-4.596-1.904-1.904-2.859-1.904-4.596.676-3.368,1.904-4.596l.904-.904-.904-.904c-1.228-1.228-1.904-2.859-1.904-4.596S.676,3.132,1.904,1.904,4.764,0,6.5,0s3.369.677,4.596,1.904l.904.904.904-.904c1.228-1.228,2.859-1.904,4.596-1.904s3.368.676,4.596,1.904c1.229,1.228,1.904,2.859,1.904,4.596s-.677,3.368-1.904,4.596l-.904.904.904.905Zm-17.874-2.318l6.364-6.364-.904-.904c-.85-.851-1.98-1.318-3.182-1.318s-2.332.468-3.182,1.318c-.85.85-1.318,1.979-1.318,3.182s.468,2.332,1.318,3.182l.904.904Zm16.46-.904c.851-.85,1.318-1.979,1.318-3.182s-.468-2.332-1.318-3.182c-.85-.851-1.979-1.318-3.182-1.318s-2.332.468-3.182,1.318L3.318,14.318c-.85.85-1.318,1.979-1.318,3.182s.468,2.332,1.318,3.182c.85.851,1.98,1.318,3.182,1.318s2.332-.468,3.182-1.318l11-11Zm1.318,7.818c0-1.202-.468-2.332-1.318-3.182l-.904-.905-6.364,6.364.904.904c.85.851,1.979,1.318,3.182,1.318s2.332-.468,3.182-1.318c.851-.85,1.318-1.979,1.318-3.182Zm-6.654-11.346c-.391-.391-1.023-.391-1.414,0s-.391,1.023,0,1.414l2.5,2.5c.195.195.451.293.707.293s.512-.098.707-.293c.391-.391.391-1.023,0-1.414l-2.5-2.5Z"/>
</svg>
