<?xml version="1.0" encoding="UTF-8"?>
<svg xmlns="http://www.w3.org/2000/svg" id="Layer_1" data-name="Layer 1" viewBox="0 0 24 24">
  <path d="M17,21c0,.553-.447,1-1,1H3.957c-1.486,0-2.583-.405-3.259-1.206C-.227,19.701,.005,18.328,.081,17.878c.521-3.269,2.556-6.112,5.449-7.652,.487-.262,1.093-.074,1.353,.413s.074,1.093-.413,1.353c-2.343,1.247-3.99,3.549-4.406,6.156-.052,.311-.163,.971,.161,1.355,.275,.325,.874,.497,1.732,.497h12.043c.553,0,1,.447,1,1Zm5.223-.191l1.484,1.484c.391,.391,.391,1.023,0,1.414-.195,.195-.451,.293-.707,.293s-.512-.098-.707-.293L.293,1.707C-.098,1.316-.098,.684,.293,.293S1.316-.098,1.707,.293L10.414,9h11.496c-.478-2.833-2.942-5-5.91-5h-7c-.553,0-1-.447-1-1s.447-1,1-1h7c4.411,0,8,3.589,8,8v7c0,1.485-.668,2.869-1.777,3.809Zm-1.434-1.434c.745-.562,1.211-1.427,1.211-2.375v-6H12.414l8.375,8.375Z"/>
</svg>
