<?xml version="1.0" encoding="UTF-8"?>
<svg xmlns="http://www.w3.org/2000/svg" id="Layer_1" data-name="Layer 1" viewBox="0 0 24 24">
  <path d="M3.987,3.066c-.281-.475-.125-1.088,.351-1.37,.474-.281,1.088-.125,1.37,.351l.593,1c.281,.475,.125,1.088-.351,1.37-.467,.279-1.087,.129-1.37-.351l-.593-1ZM21.19,14.274c-1.49,1.952-4.665,5.226-9.19,5.226-4.645,0-7.761-3.233-9.205-5.161-1.022-1.364-1.02-3.256,.005-4.601,1.491-1.956,4.669-5.238,9.2-5.238,4.604,0,7.736,3.239,9.194,5.17,1.028,1.362,1.026,3.255-.004,4.604Zm-1.592-3.399c-1.233-1.634-3.86-4.375-7.598-4.375-3.669,0-6.342,2.789-7.609,4.451-.493,.647-.491,1.527,.005,2.189,1.22,1.628,3.83,4.36,7.604,4.36,3.664,0,6.334-2.781,7.6-4.439,.496-.649,.495-1.527-.002-2.186Zm-3.598,1.125c0,2.206-1.794,4-4,4s-4-1.794-4-4,1.794-4,4-4,4,1.794,4,4Zm-2,0c0-1.103-.897-2-2-2s-2,.897-2,2,.897,2,2,2,2-.897,2-2ZM12,3c.552,0,1-.448,1-1V1c0-.552-.448-1-1-1s-1,.448-1,1v1c0,.552,.448,1,1,1Zm6.05,1.417c.467,.279,1.087,.129,1.37-.351l.593-1c.281-.475,.125-1.088-.351-1.37-.474-.281-1.088-.125-1.37,.351l-.593,1c-.281,.475-.125,1.088,.351,1.37Zm1.37,15.517c-.282-.476-.895-.632-1.37-.351s-.632,.895-.351,1.37l.593,1c.283,.479,.903,.629,1.37,.351,.475-.282,.632-.895,.351-1.37l-.593-1Zm-7.42,1.066c-.552,0-1,.448-1,1v1c0,.552,.448,1,1,1s1-.448,1-1v-1c0-.552-.448-1-1-1Zm-6.05-1.417c-.475-.282-1.088-.125-1.37,.351l-.593,1c-.281,.475-.125,1.088,.351,1.37,.467,.279,1.087,.129,1.37-.351l.593-1c.281-.475,.125-1.088-.351-1.37Z"/>
</svg>
