<?xml version="1.0" encoding="UTF-8"?>
<svg xmlns="http://www.w3.org/2000/svg" id="Layer_1" data-name="Layer 1" viewBox="0 0 24 24">
  <path d="M13.25,11.25c0,.69-.56,1.25-1.25,1.25s-1.25-.56-1.25-1.25,.56-1.25,1.25-1.25,1.25,.56,1.25,1.25Zm-3.25-4.223c.552,0,1-.448,1-1,0-.317,.151-.623,.405-.819,.145-.112,.453-.285,.881-.171,.334,.087,.617,.39,.689,.735,.109,.525-.178,.938-.512,1.114-.771,.407-1.202,.934-1.248,.993-.34,.429-.268,1.046,.157,1.392,.184,.149,.406,.222,.627,.222,.289,0,.577-.124,.775-.362,.002-.003,.226-.267,.622-.476,1.198-.632,1.815-1.954,1.537-3.292-.229-1.092-1.068-1.979-2.14-2.261-.915-.242-1.868-.05-2.61,.522-.741,.572-1.184,1.47-1.184,2.402,0,.552,.448,1,1,1Zm13,3.973v5c0,1.654-1.346,3-3,3h-7v3h4c.552,0,1,.448,1,1s-.448,1-1,1H7c-.552,0-1-.448-1-1s.448-1,1-1h4v-3H4c-1.654,0-3-1.346-3-3v-5c0-2.206,1.794-4,4-4v-2C5,2.243,7.243,0,10,0h4c2.757,0,5,2.243,5,5v2c2.206,0,4,1.794,4,4Zm-4-2v4h1c.352,0,.686,.072,1,.184v-2.184c0-1.103-.897-2-2-2ZM7,13h10V5c0-1.654-1.346-3-3-3h-4c-1.654,0-3,1.346-3,3V13Zm-4-2v2.184c.314-.112,.648-.184,1-.184h1v-4c-1.103,0-2,.897-2,2Zm18,5c0-.551-.449-1-1-1H4c-.551,0-1,.449-1,1s.449,1,1,1H20c.551,0,1-.449,1-1Z"/>
</svg>
