<?xml version="1.0" encoding="UTF-8"?>
<svg xmlns="http://www.w3.org/2000/svg" id="Layer_1" data-name="Layer 1" viewBox="0 0 24 24">
  <path d="M16,19c0,2.757-2.243,5-5,5H5C2.243,24,0,21.757,0,19V5C0,2.243,2.243,0,5,0h6c1.433,0,2.799,.617,3.75,1.692,.366,.414,.327,1.046-.087,1.411-.413,.366-1.045,.328-1.411-.087-.571-.646-1.392-1.017-2.251-1.017H5c-1.654,0-3,1.346-3,3v11H11c.552,0,1,.447,1,1s-.448,1-1,1H2v1c0,1.654,1.346,3,3,3h6c1.654,0,3-1.346,3-3,0-.553,.447-1,1-1s1,.447,1,1Zm-9,0c-.552,0-1,.447-1,1s.448,1,1,1h2c.552,0,1-.447,1-1s-.448-1-1-1h-2ZM24,7.501v3.999c0,1.381-1.119,2.5-2.5,2.5h-3l-2.826,1.827c-.723,.463-1.672-.057-1.672-.915l-.002-7.411c0-1.376,1.125-2.501,2.5-2.501h5c1.38,.001,2.5,1.12,2.5,2.501Zm-2,1.15c0-.911-.672-1.65-1.5-1.65s-1.5,.739-1.5,1.65c0-.911-.672-1.65-1.5-1.65s-1.5,.739-1.5,1.65c0,1.225,1.507,2.648,2.385,3.372,.359,.296,.871,.296,1.23,0,.878-.725,2.385-2.148,2.385-3.372Z"/>
</svg>
