<?xml version="1.0" encoding="UTF-8"?>
<svg xmlns="http://www.w3.org/2000/svg" id="Layer_1" data-name="Layer 1" viewBox="0 0 24 24">
  <path d="m23.02,16.095s-1.227-1.55-1.257-1.581c-.708-.691-1.816-.691-2.524,0-.031.03-1.263,1.586-1.263,1.586-.629.651-.975,1.509-.975,2.423,0,1.273.671,2.417,1.794,3.06.52.298,1.114.447,1.708.447.607,0,1.214-.156,1.741-.467,1.101-.648,1.757-1.785,1.757-3.04,0-.914-.348-1.773-.98-2.429Zm-1.792,3.746c-.429.252-1.008.254-1.439.007-.5-.286-.788-.769-.788-1.324,0-.401.154-.775.433-1.054.028-.028,1.067-1.34,1.067-1.34,0,0,1.033,1.306,1.061,1.333.283.284.439.66.439,1.061,0,.547-.282,1.027-.773,1.317Zm2.732-10.344c.143-.879-.103-1.768-.674-2.439-.571-.672-1.404-1.057-2.289-1.057l-7.271.02-3.919-3.945c-.687-.691-1.602-1.073-2.576-1.075h-.006c-.972,0-1.886.378-2.573,1.066l-2.308,2.308C.832,5.884,0,7.894,0,10.031v6.969c0,2.757,2.243,5,5,5h4.721c2.375,0,4.437-1.69,4.903-4.019l1.196-5.981h5.073c1.516,0,2.834-1.076,3.066-2.503Zm-8.959.503c-.477,0-.887.336-.98.804l-1.357,6.785c-.28,1.397-1.517,2.412-2.942,2.412h-4.721c-1.654,0-3-1.346-3-3v-6.969c0-1.603.624-3.11,1.757-4.243l2.308-2.308c.31-.31.721-.48,1.159-.48h.002c.439,0,.851.172,1.161.484l2.527,2.544-3.917.011c-.552.001-.999.451-.997,1.003.002.552.428,1.043,1.003.997l13.997-.039c.294,0,.572.128.762.353.193.228.272.52.224.823-.076.462-.556.825-1.093.825h-5.893Z"/>
</svg>
