<?xml version="1.0" encoding="UTF-8"?>
<svg xmlns="http://www.w3.org/2000/svg" id="Layer_1" data-name="Layer 1" viewBox="0 0 24 24">
  <path d="M24,14v5c0,2.757-2.243,5-5,5H5c-2.757,0-5-2.243-5-5V8C0,5.243,2.243,3,5,3h4c.553,0,1,.448,1,1s-.447,1-1,1H5c-1.148,0-2.135,.655-2.639,1.604l7.518,7.517c1.133,1.133,3.109,1.133,4.242,0l.33-.329c.392-.39,1.024-.391,1.414,.002,.39,.391,.389,1.024-.002,1.414l-.329,.328c-.942,.943-2.198,1.464-3.534,1.464s-2.592-.521-3.535-1.465L2,9.071v9.929c0,1.654,1.346,3,3,3h14c1.654,0,3-1.346,3-3v-5c0-.553,.447-1,1-1s1,.447,1,1ZM12,6c0-3.309,2.691-6,6-6s6,2.691,6,6-2.691,6-6,6-6-2.691-6-6Zm2,0c0,2.206,1.794,4,4,4s4-1.794,4-4-1.794-4-4-4-4,1.794-4,4Zm2,1h1v1c0,.552,.447,1,1,1s1-.448,1-1v-1h1c.553,0,1-.448,1-1s-.447-1-1-1h-1v-1c0-.552-.447-1-1-1s-1,.448-1,1v1h-1c-.553,0-1,.448-1,1s.447,1,1,1Z"/>
</svg>
