<?xml version="1.0" encoding="UTF-8"?>
<svg xmlns="http://www.w3.org/2000/svg" id="Layer_1" data-name="Layer 1" viewBox="0 0 24 24">
  <path d="M12,14.5c0,.828-.672,1.5-1.5,1.5s-1.5-.672-1.5-1.5,.672-1.5,1.5-1.5,1.5,.672,1.5,1.5Zm-4.626-3.903c-.431,.346-.5,.975-.154,1.406,.345,.43,.976,.5,1.406,.154,1.086-.873,2.663-.871,3.748,0,.185,.148,.406,.22,.625,.22,.292,0,.583-.128,.78-.374,.346-.431,.277-1.06-.154-1.406-1.811-1.454-4.44-1.455-6.252,0Zm8.225-.598c.268,0,.536-.107,.733-.32,.376-.405,.352-1.038-.053-1.413-3.24-3.008-8.317-3.008-11.558,0-.405,.375-.429,1.008-.053,1.413,.376,.405,1.009,.428,1.413,.053,2.478-2.3,6.359-2.3,8.837,0,.192,.179,.437,.267,.68,.267Zm-6.442,8.895c-4.147-.658-7.157-4.188-7.157-8.395C2,5.813,5.813,2,10.5,2c4.207,0,7.737,3.01,8.395,7.157,.086,.545,.593,.917,1.145,.831,.545-.086,.917-.599,.831-1.145C20.057,3.719,15.696,0,10.5,0,4.71,0,0,4.71,0,10.5c0,5.196,3.719,9.557,8.843,10.37,.053,.008,.106,.012,.158,.012,.483,0,.908-.351,.986-.843,.086-.545-.286-1.058-.831-1.145Zm14.843-.895c0,3.314-2.686,6-6,6s-6-2.686-6-6,2.686-6,6-6,6,2.686,6,6Zm-4.75,2.75c0-.69-.56-1.25-1.25-1.25s-1.25,.56-1.25,1.25,.56,1.25,1.25,1.25,1.25-.56,1.25-1.25Zm.818-3.175c-1.267-.765-2.87-.765-4.136,0-.431,.26-.492,.864-.136,1.22l.028,.028c.255,.254,.646,.292,.956,.109,.75-.442,1.69-.442,2.439,0,.31,.183,.702,.145,.956-.109l.028-.028c.356-.356,.295-.96-.136-1.22Zm1.848-1.765c-1.122-.85-2.483-1.311-3.916-1.311s-2.794,.46-3.916,1.311c-.382,.29-.426,.848-.086,1.187l.021,.021c.276,.275,.714,.31,1.024,.075,.847-.644,1.875-.993,2.958-.993s2.111,.349,2.958,.993c.31,.236,.748,.201,1.024-.075l.021-.021c.339-.339,.296-.897-.087-1.187Z"/>
</svg>
