<?xml version="1.0" encoding="UTF-8"?>
<svg xmlns="http://www.w3.org/2000/svg" id="Layer_1" data-name="Layer 1" viewBox="0 0 24 24">
  <path d="M23.996,13.09c.049-.55-.356-1.036-.906-1.086-.561-.04-1.036,.356-1.086,.906-.065,.723-.217,1.42-.432,2.09h-3.473c.159-.616,.283-1.249,.347-1.903,.054-.55-.349-1.039-.898-1.092-.552-.055-1.039,.349-1.092,.898-.07,.722-.227,1.422-.434,2.097H7.978c-.207-.675-.364-1.375-.434-2.097-.053-.549-.539-.953-1.092-.898-.55,.053-.952,.542-.898,1.092,.063,.654,.188,1.287,.347,1.903H2.428c-.214-.67-.367-1.367-.432-2.09-.049-.549-.521-.944-1.086-.906-.55,.05-.956,.536-.906,1.086,.552,6.117,5.82,10.909,11.995,10.91,0,0,0,0,0,0,0,0,0,0,0,0,0,0,0,0,0,0s0,0,0,0c0,0,0,0,0,0,0,0,0,0,0,0,6.175,0,11.443-4.793,11.995-10.91Zm-8.774,3.91c-1.023,2.079-2.409,3.723-3.222,4.586-.813-.863-2.198-2.507-3.222-4.586h6.443Zm-11.897,0h3.252c.789,1.882,1.877,3.476,2.819,4.645-2.562-.698-4.744-2.392-6.07-4.645Zm11.28,4.645c.942-1.168,2.03-2.763,2.819-4.645h3.252c-1.326,2.253-3.508,3.947-6.07,4.645ZM1,9V4.689C.932,1.881,3.712-.442,6.465,.128l3.474,.631c.82,.149,1.528,.567,2.061,1.143,.533-.576,1.241-.994,2.061-1.143l3.474-.631c2.752-.568,5.534,1.752,5.465,4.562v4.311c0,.552-.448,1-1,1s-1-.448-1-1V4.689c.039-1.597-1.543-2.919-3.108-2.594l-3.474,.631c-.822,.149-1.418,.864-1.418,1.7v5.573c0,.552-.448,1-1,1s-1-.448-1-1V4.427c0-.835-.596-1.55-1.418-1.7l-3.474-.631c-1.567-.325-3.146,.997-3.108,2.594v4.311c0,.552-.448,1-1,1s-1-.448-1-1Z"/>
</svg>
