<?xml version="1.0" encoding="UTF-8"?>
<svg xmlns="http://www.w3.org/2000/svg" id="Layer_1" data-name="Layer 1" viewBox="0 0 24 24">
  <path d="M5.5,10c.543,0,1.052-.159,1.5-.422v.422c0,.553,.447,1,1,1s1-.447,1-1v-1.154c.54-.162,1.036-.443,1.443-.846h2.057c1.654,0,3-1.346,3-3,0-1.195-.732-2.279-1.818-2.747-.717-.855-1.794-1.349-2.942-1.241-.56-.638-1.365-1.012-2.239-1.012-.903,0-1.753,.415-2.317,1.108-1.56,.369-2.683,1.751-2.683,3.392,0,.086,.004,.173,.012,.261-.638,.56-1.012,1.365-1.012,2.239,0,1.654,1.346,3,3,3Zm-.44-3.889c.438-.217,.654-.716,.515-1.183-.051-.17-.074-.306-.074-.429,0-.771,.585-1.407,1.359-1.481,.326-.03,.615-.219,.776-.504,.182-.322,.505-.515,.864-.515,.378,0,.718,.215,.889,.56,.217,.436,.715,.653,1.183,.515,.17-.051,.306-.074,.429-.074,.494,0,.957,.245,1.238,.655,.13,.19,.321,.33,.542,.395,.431,.127,.72,.509,.72,.95,0,.552-.448,1-1,1h-2.508c-.314,0-.61,.147-.8,.399-.286,.382-.722,.601-1.192,.601-.123,0-.259-.023-.429-.074-.469-.14-.966,.078-1.183,.515-.171,.345-.511,.56-.889,.56-.552,0-1-.448-1-1,0-.378,.215-.718,.56-.889Zm17.958,3.674c-1.178-1.114-3.189-1.021-4.254,.199l-3.217,3.534c-.551-.909-1.55-1.519-2.689-1.519H4c-2.206,0-4,1.794-4,4v4c0,2.206,1.794,4,4,4h5.855c2.85,0,5.571-1.22,7.467-3.348l5.914-6.639c1.093-1.226,.995-3.122-.219-4.229Zm-1.274,2.897l-5.915,6.64c-1.516,1.702-3.693,2.678-5.973,2.678H4c-1.103,0-2-.897-2-2v-4c0-1.103,.897-2,2-2H12.857c.63,0,1.143,.513,1.143,1.143,0,.564-.421,1.051-.98,1.13l-5.161,.737c-.547,.078-.927,.585-.849,1.132s.584,.924,1.132,.849l5.161-.737c1.175-.168,2.129-.987,2.514-2.058l4.426-4.865c.358-.407,1.036-.447,1.428-.066,.407,.371,.44,1.008,.073,1.419Z"/>
</svg>
