<?xml version="1.0" encoding="UTF-8"?>
<svg xmlns="http://www.w3.org/2000/svg" id="Layer_1" data-name="Layer 1" viewBox="0 0 24 24">
  <path d="M24,7v10c0,1.654-1.346,3-3,3h-5.5c-.553,0-1-.448-1-1s.447-1,1-1h5.5c.552,0,1-.449,1-1V7c0-.551-.448-1-1-1H6c-1.096,0-2.146-.366-2.999-1.005,0,.002,0,.004,0,.005v3c0,.552-.447,1-1,1s-1-.448-1-1v-3C1.02,2.304,3.224-.006,6,0H23c.553,0,1,.448,1,1s-.447,1-1,1H6c-.881,0-1.667,.389-2.217,.996,.563,.623,1.361,1.004,2.217,1.004h15c1.654,0,3,1.346,3,3Zm-4,5c0-.828-.672-1.5-1.5-1.5s-1.5,.672-1.5,1.5,.672,1.5,1.5,1.5,1.5-.672,1.5-1.5ZM1.5,21c-.828,0-1.5,.672-1.5,1.5s.672,1.5,1.5,1.5,1.5-.672,1.5-1.5-.672-1.5-1.5-1.5Zm-.5-5c-.553,0-1,.448-1,1s.447,1,1,1c2.757,0,5,2.243,5,5,0,.552,.447,1,1,1s1-.448,1-1c0-3.86-3.141-7-7-7Zm0-5c-.553,0-1,.448-1,1s.447,1,1,1c5.514,0,10,4.486,10,10,0,.552,.447,1,1,1s1-.448,1-1c0-6.617-5.383-12-12-12Z"/>
</svg>
