<?xml version="1.0" encoding="UTF-8"?>
<svg xmlns="http://www.w3.org/2000/svg" id="Layer_1" data-name="Layer 1" viewBox="0 0 24 24">
  <path d="M17.556,5.685c-.459-.307-1.081-.185-1.387,.275-.307,.459-.184,1.08,.275,1.387,.964,.645,1.747,1.485,2.34,2.439l-5.324,1.065c-.996,.203-2.039,.191-3.036,0l-5.221-1.044c.594-.962,1.382-1.809,2.353-2.459,.459-.307,.582-.928,.275-1.387s-.928-.583-1.387-.275c-2.783,1.863-4.444,4.971-4.444,8.315,0,5.514,4.486,10,10,10s10-4.486,10-10c0-3.344-1.661-6.453-4.444-8.315ZM4.2,15.755l2.462,.492c.665,.133,1.23,.551,1.553,1.147l.511,.943c.179,.332,.274,.706,.274,1.083v1.991c-2.4-.975-4.221-3.082-4.8-5.656Zm6.8,6.175v-2.511c0-.708-.178-1.411-.515-2.034l-.511-.943c-.607-1.12-1.671-1.906-2.92-2.156l-3.034-.607c.028-.688,.143-1.359,.339-2.003l5.674,1.135c1.257,.252,2.566,.252,3.82,0l5.782-1.156c.2,.651,.318,1.329,.346,2.025l-3.035,.607c-1.249,.25-2.312,1.036-2.919,2.156l-.511,.944c-.337,.623-.515,1.326-.515,2.034v2.511c-.328,.041-.661,.069-1,.069s-.672-.028-1-.069Zm4-.52v-1.991c0-.376,.095-.751,.274-1.082l.511-.943c.323-.596,.889-1.014,1.553-1.147l2.462-.492c-.579,2.574-2.399,4.68-4.8,5.656ZM8.312,4.387c-.401-.38-.418-1.013-.038-1.414L10.444,.683c.765-.854,2.331-.873,3.131,.021l2.138,2.17c.387,.394,.382,1.027-.011,1.415-.393,.387-1.027,.383-1.415-.011l-1.273-1.267-.014,4.993c-.001,.551-.449,.998-1,.998h-.002c-.552-.001-.999-.45-.998-1.002l.014-5.008-1.288,1.359c-.381,.401-1.014,.417-1.414,.038Z"/>
</svg>
