<?xml version="1.0" encoding="UTF-8"?>
<svg xmlns="http://www.w3.org/2000/svg" id="Layer_1" data-name="Layer 1" viewBox="0 0 24 24">
  <path d="M12,8.5c1.933,0,3.5,1.567,3.5,3.5,0,.048-.012,.093-.014,.141-2.201-1.83-4.669-2.392-6.004-2.563,.637-.662,1.527-1.078,2.518-1.078Zm-3.5,3.5c0,1.933,1.567,3.5,3.5,3.5,1.115,0,2.097-.531,2.738-1.344-2.475-2.43-5.739-2.638-6.188-2.655-.024,.164-.05,.328-.05,.498Zm15.5,0c0,6.617-5.383,12-12,12S0,18.617,0,12,5.383,0,12,0s12,5.383,12,12Zm-21.998-.031c.009-.725,.341-1.393,.918-1.835l7.183-5.493h0c1.116-.854,2.677-.854,3.794,0l7.183,5.493c.582,.445,.914,1.118,.919,1.85-.008-5.507-4.491-9.985-9.999-9.985S2.018,6.469,2.002,11.969Zm17.864-.246l-7.183-5.492c-.401-.307-.963-.308-1.365,0l-7.183,5.493c-.193,.199-.194,.353,0,.553l7.183,5.493c.401,.307,.963,.307,1.366,0l7.182-5.493c.192-.2,.192-.353,0-.553Zm2.134,.292c-.005,.731-.337,1.405-.919,1.849l-7.183,5.493c-1.117,.853-2.678,.854-3.794,0L2.92,13.865c-.578-.442-.909-1.109-.918-1.835,.017,5.5,4.495,9.969,9.998,9.969s9.991-4.478,9.999-9.985Z"/>
</svg>
