<?xml version="1.0" encoding="UTF-8"?>
<svg xmlns="http://www.w3.org/2000/svg" id="Layer_1" data-name="Layer 1" viewBox="0 0 24 24">
  <path d="M13.861,19h-3.722c-2.366,0-4.65-.924-6.268-2.533-1.718-1.712-3-3.896-3.707-6.317-.36-1.233-.126-2.527,.642-3.552,.762-1.016,1.927-1.598,3.196-1.598h15.995c1.27,0,2.435,.583,3.196,1.598,.768,1.024,1.002,2.319,.642,3.552-.708,2.421-1.989,4.605-3.707,6.316-1.618,1.61-3.903,2.534-6.269,2.534ZM4.002,7c-.634,0-1.216,.291-1.596,.798-.387,.516-.504,1.169-.322,1.792,.604,2.068,1.74,4.007,3.199,5.46,1.245,1.239,3.015,1.95,4.856,1.95h3.722c1.841,0,3.611-.711,4.857-1.951,1.458-1.452,2.594-3.392,3.198-5.459,.182-.623,.064-1.275-.322-1.792-.38-.507-.962-.798-1.596-.798H4.002Z"/>
</svg>
