<?xml version="1.0" encoding="UTF-8"?>
<svg xmlns="http://www.w3.org/2000/svg" id="Layer_1" data-name="Layer 1" viewBox="0 0 24 24">
  <path d="M17.282,22.987c-1.212,0-2.391-.332-3.44-.991-.75-.472-1.372-1.076-1.842-1.768-.47,.692-1.092,1.296-1.842,1.768-1.959,1.23-4.365,1.32-6.603,.243-.996-.479-1.839-1.208-2.438-2.108C-2.379,14.88,2.958,7.621,9.119,2.579c1.671-1.367,4.093-1.366,5.762,0,6.161,5.042,11.498,12.302,8.001,17.552-.599,.9-1.441,1.629-2.438,2.108-1.038,.5-2.113,.749-3.162,.749Zm-4.282-5.987c0,1.317,.713,2.552,1.906,3.302,1.364,.856,3.067,.906,4.671,.134,.673-.324,1.24-.813,1.64-1.415,2.76-4.143-2.371-10.613-7.604-14.896-.934-.766-2.293-.766-3.227,0C5.154,8.409,.023,14.879,2.782,19.022c.4,.602,.968,1.091,1.641,1.415,1.604,.772,3.307,.723,4.671-.134,1.193-.75,1.906-1.985,1.906-3.302,0-.552,.447-1,1-1s1,.448,1,1Z"/>
</svg>
