<?xml version="1.0" encoding="UTF-8"?>
<svg xmlns="http://www.w3.org/2000/svg" id="Layer_1" data-name="Layer 1" viewBox="0 0 24 24">
  <path d="M11.5,11.5c0,.828-.672,1.5-1.5,1.5s-1.5-.672-1.5-1.5,.672-1.5,1.5-1.5,1.5,.672,1.5,1.5Zm2.5-1.5c-.828,0-1.5,.672-1.5,1.5s.672,1.5,1.5,1.5,1.5-.672,1.5-1.5-.672-1.5-1.5-1.5Zm4.5,1.744v.756c0,1.592-1.068,2.939-2.526,3.362-.176,1.208-1.218,2.138-2.474,2.138h-3c-1.256,0-2.298-.93-2.474-2.138-1.458-.423-2.526-1.77-2.526-3.362v-1c0-1.828,.778-3.582,2.136-4.813,1.354-1.229,3.183-1.833,5.009-1.655,3.283,.319,5.855,3.268,5.855,6.712Zm-2,0c0-2.427-1.778-4.501-4.049-4.722-.152-.015-.305-.022-.455-.022-1.12,0-2.178,.406-3.017,1.167-.94,.854-1.479,2.068-1.479,3.333v1c0,.827,.673,1.5,1.5,1.5,.553,0,1,.448,1,1v.5c0,.276,.225,.5,.5,.5h3c.275,0,.5-.224,.5-.5v-.5c0-.552,.447-1,1-1,.827,0,1.5-.673,1.5-1.5v-.756Zm6.48,7.06c-.107-.541-.631-.894-1.177-.784l-9.804,1.961-9.804-1.961c-.543-.106-1.068,.243-1.177,.784s.243,1.068,.784,1.177l5.098,1.02-5.098,1.02c-.541,.108-.893,.635-.784,1.177,.095,.475,.513,.804,.979,.804,.064,0,10.001-1.98,10.001-1.98,0,0,9.936,1.98,10.001,1.98,.467,0,.885-.329,.979-.804,.108-.542-.243-1.068-.784-1.177l-5.098-1.02,5.098-1.02c.541-.108,.893-.635,.784-1.177ZM3.626,13.34c.464-.3,.597-.919,.297-1.383-2.099-3.246-2.482-5.913-1.14-7.927,.399-.602,.967-1.091,1.64-1.415,2.241-1.078,4.58-.664,6.952,1.235,.365,.292,.885,.292,1.25,0,2.373-1.898,4.714-2.312,6.952-1.235,.673,.324,1.24,.813,1.641,1.415,1.342,2.015,.958,4.682-1.141,7.927-.3,.464-.167,1.083,.297,1.383,.168,.108,.356,.16,.542,.16,.328,0,.649-.161,.841-.457,3.202-4.954,2.38-8.239,1.126-10.122-.6-.9-1.442-1.629-2.438-2.108-2.746-1.321-5.651-.972-8.444,1.004C9.207-.158,6.303-.508,3.556,.813c-.996,.479-1.839,1.208-2.438,2.108C-.137,4.804-.959,8.089,2.243,13.043c.3,.463,.917,.596,1.383,.297Z"/>
</svg>
