<?xml version="1.0" encoding="UTF-8"?>
<svg xmlns="http://www.w3.org/2000/svg" id="Layer_1" data-name="Layer 1" viewBox="0 0 24 24">
  <path d="M19,7H8.895L20.405,1.905c.505-.224,.733-.813,.51-1.318-.225-.507-.814-.735-1.319-.51C19.595,.077,2.697,7.583,2.649,7.614c-1.568,.845-2.649,2.483-2.649,4.386v7c0,2.757,2.243,5,5,5h14c2.757,0,5-2.243,5-5v-7c0-2.757-2.243-5-5-5Zm3,12c0,1.654-1.346,3-3,3H5c-1.654,0-3-1.346-3-3v-7c-.006-1.667,1.385-3.004,3-3h14c1.654,0,3,1.346,3,3v7ZM7.6,13.6v1.801h1.601c.442,0,.8,.358,.8,.8s-.358,.8-.8,.8h-1.601v2.2c0,.442-.358,.8-.8,.8s-.8-.358-.8-.8v-6.4c0-.442,.358-.8,.8-.8h2.4c.442,0,.8,.358,.8,.8s-.358,.8-.8,.8h-1.601Zm9.893-.6l.445,6.142c.034,.463-.333,.858-.798,.858h0c-.419,0-.768-.324-.798-.742l-.265-3.66-.848,1.866c-.284,.625-1.172,.625-1.457,0l-.848-1.866-.265,3.66c-.03,.418-.379,.742-.798,.742-.465,0-.831-.394-.798-.858l.445-6.142c.043-.705,.472-1,.988-1,.342,0,.66,.242,.841,.64l1.164,2.56,1.164-2.56c.181-.398,.499-.64,.841-.64,.516,0,.945,.295,.988,1Z"/>
</svg>
