<?xml version="1.0" encoding="UTF-8"?>
<svg xmlns="http://www.w3.org/2000/svg" id="Layer_1" data-name="Layer 1" viewBox="0 0 24 24">
  <path d="M24,7c0,.552-.448,1-1,1s-1-.448-1-1c0-2.757-2.243-5-5-5-.552,0-1-.448-1-1s.448-1,1-1c3.86,0,7,3.14,7,7Zm-7-3c-.552,0-1,.448-1,1s.448,1,1,1,1,.449,1,1,.448,1,1,1,1-.448,1-1c0-1.654-1.346-3-3-3Zm-6,7.5c.828,0,1.5-.672,1.5-1.5s-.672-1.5-1.5-1.5-1.5,.672-1.5,1.5,.672,1.5,1.5,1.5Zm3,0c-.828,0-1.5,.672-1.5,1.5s.672,1.5,1.5,1.5,1.5-.672,1.5-1.5-.672-1.5-1.5-1.5Zm-6,0c-.828,0-1.5,.672-1.5,1.5s.672,1.5,1.5,1.5,1.5-.672,1.5-1.5-.672-1.5-1.5-1.5Zm3,3c-.828,0-1.5,.672-1.5,1.5s.672,1.5,1.5,1.5,1.5-.672,1.5-1.5-.672-1.5-1.5-1.5Zm6.532-5.199c1.941,1.859,1.944,5.208,.007,7.071l-6.156,6.16c-1.86,1.941-5.21,1.945-7.072,.005l-2.845-2.841c-1.95-1.947-1.953-5.119-.006-7.069L7.615,6.469c1.859-1.942,5.208-1.946,7.072-.008l2.846,2.84Zm-1.413,1.416l-2.846-2.84c-1.118-1.163-3.127-1.161-4.243,.004,0,0,0,0,0,0L2.876,14.041c-1.167,1.169-1.166,3.072,.004,4.241l2.845,2.841c1.117,1.164,3.129,1.162,4.244-.004l6.156-6.16c1.168-1.17,1.166-3.073-.005-4.241Z"/>
</svg>
