<?xml version="1.0" encoding="UTF-8"?>
<svg xmlns="http://www.w3.org/2000/svg" id="Layer_1" data-name="Layer 1" viewBox="0 0 24 24">
  <path d="M5.775,10.994c.358,0,.669-.245,.753-.593l.097-.401h2.148l.08,.358c.082,.371,.412,.636,.792,.636,.521,0,.907-.483,.791-.991l-1.04-4.581c-.311-1.853-2.97-1.844-3.303-.04l-1.072,4.664c-.112,.485,.257,.948,.755,.948Zm1.881-5.272c.019-.068,.05-.122,.097-.122,.014,.01,.057,.063,.082,.176l.583,2.624h-1.407l.646-2.678Zm3.844,1.478c0-.442,.358-.8,.8-.8h.4c.442,0,.8,.358,.8,.8s-.358,.8-.8,.8h-.4c-.442,0-.8-.358-.8-.8Zm3.184,1.749l2.329-3.349h-1.763c-.442,0-.8-.358-.8-.8s.358-.8,.8-.8h2.444c.721,0,1.306,.585,1.306,1.306,0,.266-.082,.527-.234,.745l-2.329,3.35h1.763c.442,0,.8,.358,.8,.8s-.358,.8-.8,.8h-2.444c-.721,0-1.306-.585-1.306-1.306,0-.266,.082-.526,.234-.745Zm9.316,14.051c0,.553-.448,1-1,1H1c-.552,0-1-.447-1-1s.448-1,1-1H10.316c-.307-.891-1.126-2-3.316-2H1c-.552,0-1-.447-1-1s.448-1,1-1H7c2.85,0,4.321,1.404,5,2.858,.679-1.454,2.15-2.858,5-2.858h6c.552,0,1,.447,1,1s-.448,1-1,1h-6c-2.191,0-3.009,1.11-3.316,2h9.316c.552,0,1,.447,1,1ZM6,15h3.12l1.844,1.638c.629,.498,1.48,.474,2.113-.035l1.803-1.603h3.12c2.757,0,5-2.243,5-5V5c0-2.757-2.243-5-5-5H6C3.243,0,1,2.243,1,5v5c0,2.757,2.243,5,5,5ZM3,5c0-1.654,1.346-3,3-3h12c1.654,0,3,1.346,3,3v5c0,1.654-1.346,3-3,3h-3.5c-.245,0-.481,.09-.665,.253l-1.834,1.632-1.836-1.632c-.183-.163-.419-.253-.665-.253h-3.5c-1.654,0-3-1.346-3-3V5Z"/>
</svg>
