<?xml version="1.0" encoding="UTF-8"?>
<svg xmlns="http://www.w3.org/2000/svg" id="Layer_1" data-name="Layer 1" viewBox="0 0 24 24">
  <path d="M22.585,9.911c-.031-.012-4.517-1.303-4.517-1.303l1.327-2.288c.21-.491,.1-1.06-.277-1.437s-.947-.486-1.437-.277l-2.312,1.246s-1.268-4.405-1.281-4.436c-.344-.859-1.164-1.415-2.089-1.415s-1.745,.555-2.089,1.414c-.013,.032-1.289,4.468-1.289,4.468l-2.303-1.276c-.489-.21-1.06-.101-1.437,.277-.377,.377-.487,.946-.277,1.437l1.271,2.304s-4.431,1.275-4.463,1.288c-.859,.344-1.414,1.164-1.414,2.089s.555,1.745,1.415,2.089c.031,.013,4.444,1.283,4.444,1.283l-1.254,2.309c-.21,.49-.1,1.06,.277,1.437,.377,.378,.947,.486,1.437,.277l2.294-1.305s1.285,4.464,1.297,4.495c.343,.859,1.164,1.415,2.089,1.415s1.746-.556,2.121-1.51l1.262-4.39,2.298,1.294c.166,.07,.341,.105,.514,.105,.339,0,.673-.133,.923-.382,.377-.377,.487-.947,.277-1.437l-1.3-2.298,4.49-1.294c.86-.343,1.416-1.163,1.416-2.089s-.556-1.746-1.415-2.089Zm-.647,2.289l-7.032,2.021c-.331,.095-.59,.354-.685,.685l-1.99,6.938c-.071,.18-.358,.194-.45,.027l-2.002-6.966c-.095-.331-.354-.59-.685-.685l-6.966-2.002c-.079-.043-.128-.126-.128-.218s.05-.175,.129-.219l6.966-2.002c.331-.095,.59-.354,.685-.685l2.002-6.966c.087-.158,.35-.159,.437,0l2.002,6.966c.095,.331,.354,.59,.685,.685l6.966,2.002c.079,.043,.129,.126,.129,.219,0,.103-.062,.193-.062,.199Z"/>
</svg>
