<?xml version="1.0" encoding="UTF-8"?>
<svg xmlns="http://www.w3.org/2000/svg" id="Layer_1" data-name="Layer 1" viewBox="0 0 24 24">
  <path d="M23,22h-.633l-.387-2.707c-.35-2.447-2.478-4.293-4.949-4.293h-.031v-1c0-1.654-1.346-3-3-3h-4c-1.654,0-3,1.346-3,3v1h-.031c-2.472,0-4.6,1.846-4.949,4.293l-.387,2.707h-.633c-.553,0-1,.447-1,1s.447,1,1,1H23c.553,0,1-.447,1-1s-.447-1-1-1ZM9,14c0-.552,.448-1,1-1h4c.552,0,1,.448,1,1v1h-6v-1Zm-5,5.576c.209-1.469,1.485-2.576,2.969-2.576h10.062c1.483,0,2.76,1.107,2.969,2.576l.347,2.424H3.653l.347-2.424ZM11,7V1c0-.552,.447-1,1-1s1,.448,1,1V7c0,.552-.447,1-1,1s-1-.448-1-1Zm6.293,1.707c-.391-.391-.391-1.023,0-1.414l4-4c.391-.391,1.023-.391,1.414,0s.391,1.023,0,1.414l-4,4c-.195,.195-.451,.293-.707,.293s-.512-.098-.707-.293ZM1.293,4.707c-.391-.391-.391-1.023,0-1.414s1.023-.391,1.414,0L6.707,7.293c.391,.391,.391,1.023,0,1.414-.195,.195-.451,.293-.707,.293s-.512-.098-.707-.293L1.293,4.707Z"/>
</svg>
