<?xml version="1.0" encoding="UTF-8"?>
<svg xmlns="http://www.w3.org/2000/svg" id="Layer_1" data-name="Layer 1" viewBox="0 0 24 24">
  <path d="M23.632,14.256c-.275-.479-.886-.645-1.365-.367l-.977,.563c-.605-.652-1.393-1.126-2.289-1.331v-1.121c0-.552-.447-1-1-1s-1,.448-1,1v1.121c-.896,.205-1.685,.678-2.289,1.331l-.977-.563c-.479-.277-1.091-.111-1.365,.367-.276,.479-.111,1.09,.367,1.365l.983,.566c-.129,.418-.218,.853-.218,1.313s.089,.895,.218,1.313l-.983,.566c-.479,.275-.644,.887-.367,1.365,.185,.321,.521,.501,.867,.501,.169,0,.341-.043,.498-.134l.977-.563c.605,.652,1.393,1.126,2.289,1.331v1.121c0,.553,.447,1,1,1s1-.447,1-1v-1.121c.896-.205,1.685-.678,2.289-1.331l.977,.563c.157,.091,.329,.134,.498,.134,.346,0,.683-.18,.867-.501,.276-.479,.111-1.09-.367-1.365l-.983-.566c.129-.418,.218-.853,.218-1.313s-.089-.895-.218-1.313l.983-.566c.479-.275,.644-.887,.367-1.365Zm-5.632,5.744c-1.379,0-2.5-1.121-2.5-2.5s1.121-2.5,2.5-2.5,2.5,1.121,2.5,2.5-1.121,2.5-2.5,2.5Zm1-18h-6.528c-.154,0-.309-.037-.446-.105L8.869,.316c-.414-.207-.878-.316-1.341-.316h-2.528C2.243,0,0,2.243,0,5v12c0,2.757,2.243,5,5,5h4c.553,0,1-.447,1-1s-.447-1-1-1H5c-1.654,0-3-1.346-3-3V8H22v3c0,.552,.447,1,1,1s1-.448,1-1V7c0-2.757-2.243-5-5-5ZM2,5c0-1.654,1.346-3,3-3h2.528c.154,0,.309,.037,.446,.105l3.156,1.578c.414,.207,.878,.316,1.341,.316h6.528c1.302,0,2.402,.839,2.816,2H2v-1Z"/>
</svg>
