<?xml version="1.0" encoding="UTF-8"?>
<svg xmlns="http://www.w3.org/2000/svg" id="Layer_1" data-name="Layer 1" viewBox="0 0 24 24">
  <path d="M12,10c1.657,0,3,1.343,3,3s-1.343,3-3,3-3-1.343-3-3,1.343-3,3-3Zm9-1c-.553,0-1,.448-1,1v4.646c0,.411-.247,.776-.628,.928l-3.564,1.426h-7.615l-3.563-1.426c-.382-.152-.629-.517-.629-.928v-4.646c0-.552-.448-1-1-1s-1,.448-1,1v4.646c0,1.234,.74,2.327,1.886,2.786l3.114,1.246v4.323c0,.552,.448,1,1,1s1-.448,1-1v-4h6v4c0,.552,.447,1,1,1s1-.448,1-1v-4.323l3.115-1.246c1.145-.458,1.885-1.552,1.885-2.785v-4.646c0-.552-.447-1-1-1ZM4.852,6.683c.22,.412,.775,.494,1.105,.164l1.641-1.641,1.219,2.446c.196,.394,.732,.456,1.013,.118,.111-.133,.16-.307,.135-.478l-.832-5.722c-.108-.534-.767-.733-1.152-.347l-1.63,1.63L5.248,.415c-.22-.455-.823-.557-1.181-.199l-1.118,1.118c-.267,.267-.333,.673-.166,1.011l2.068,4.339Zm10.302,.969l1.219-2.446,1.641,1.641c.33,.33,.885,.248,1.105-.164l2.068-4.339c.167-.338,.101-.744-.166-1.011l-1.118-1.118c-.357-.357-.961-.256-1.181,.199l-1.103,2.439-1.63-1.63c-.385-.385-1.044-.186-1.152,.347l-.832,5.722c-.025,.171,.024,.345,.135,.478,.282,.338,.817,.275,1.013-.118Z"/>
</svg>
