<?xml version="1.0" encoding="UTF-8"?>
<svg xmlns="http://www.w3.org/2000/svg" id="Layer_1" data-name="Layer 1" viewBox="0 0 24 24">
  <path d="M23,13c-.552,0-1,.447-1,1v3h-1v-5c0-.553-.448-1-1-1s-1,.447-1,1v5h-1v-3.5c0-.553-.448-1-1-1s-1,.447-1,1v5.501l-1.317-1.232c-.402-.377-1.036-.356-1.414,.048-.377,.403-.356,1.036,.047,1.413,0,0,4.295,3.98,4.369,4.02,.655,.468,1.45,.75,2.314,.75,2.206,0,4-1.794,4-4v-6c0-.553-.448-1-1-1Zm-3,9c-1.103,0-2-.897-2-2v-1h4v1c0,1.103-.897,2-2,2ZM5,10.5c0,3.032,2.467,5.5,5.5,5.5s5.5-2.468,5.5-5.5-2.467-5.5-5.5-5.5-5.5,2.468-5.5,5.5Zm9,0c0,1.93-1.57,3.5-3.5,3.5s-3.5-1.57-3.5-3.5,1.57-3.5,3.5-3.5,3.5,1.57,3.5,3.5Zm-3.5-1.5c.828,0,1.5,.672,1.5,1.5s-.672,1.5-1.5,1.5-1.5-.672-1.5-1.5,.672-1.5,1.5-1.5Zm.499,11.039c-.027,.534-.469,.948-.998,.948-.018,0-.035,0-.053,0C4.37,20.697,0,16.091,0,10.5,0,4.71,4.71,0,10.5,0c4.727,0,8.894,3.182,10.132,7.737,.145,.533-.169,1.083-.703,1.228-.53,.148-1.082-.169-1.227-.702-1.003-3.688-4.376-6.263-8.203-6.263C5.813,2,2,5.813,2,10.5c0,4.526,3.537,8.255,8.052,8.488,.552,.029,.976,.499,.947,1.051Z"/>
</svg>
