<?xml version="1.0" encoding="UTF-8"?>
<svg xmlns="http://www.w3.org/2000/svg" id="Layer_1" data-name="Layer 1" viewBox="0 0 24 24">
  <path d="M17.756,16.055c.413-.635,.363-1.466-.124-2.047l-.565-.675,2.033-3.403,1.615-.298c.519-.096,1.017-.284,1.469-.555l1.196-.717c.385-.231,.62-.646,.62-1.095,0-.705-.572-1.277-1.277-1.277h-1.723s-.096-.981-.745-1.376c-.593-.361-.725-.377-.743-.377-.002,0-.003,0-.003,0-.273-.138-.574-.209-.879-.209-.053,0-.106,.002-.159,.006l-3.013,.247-.223-.432c-.189-.367-.528-.635-.929-.734l-3.107-.767c-.101-.025-.204-.037-.306-.037-.334,0-.66,.132-.903,.374l-.491,.491-2.5-.5-2-.5-.797-.531c-.144-.096-.307-.142-.468-.142-.273,0-.541,.132-.704,.376l-.531,.797-1.503,.407C.306,3.355-.1,4.074,.022,4.807l.159,.957c.083,.499,.399,.927,.852,1.153l.796,.398c.221,.11,.462,.167,.706,.167,.103,0,.207-.01,.31-.031,0,0,1.708-.218,1.747-.218,.285,0,.558,.131,.736,.36,.282,.362,.259,.874-.053,1.21l-.799,.859c-.306,.328-.476,.761-.476,1.209v1.302s-1.096,.315-.5,1.5c.578,1.149,1,2,1,2l-.858,2.282c-.228,.685-.05,1.441,.461,1.952l1.619,1.619c.308,.308,.714,.464,1.12,.464,.371,0,.743-.13,1.042-.391l1.616-1.611h3.335c.426,0,.835-.169,1.136-.471l1.029-1.029,.928-.309c.37-.123,.688-.369,.901-.696l.928-1.427Zm-2.222-1.438l.434,.518-.764,1.175-.837,.279c-.295,.098-.562,.264-.782,.483l-.914,.914h-3.172c-.529,0-1.037,.21-1.412,.583l-1.248,1.244-1.28-1.28,.812-2.158c.195-.519,.166-1.096-.08-1.593,0,0-.28-.565-.699-1.401,.258-.339,.408-.761,.408-1.21v-1.214l.739-.794c.986-1.06,1.056-2.659,.166-3.801-.56-.718-1.403-1.13-2.314-1.13-.125,0-.25,.008-.376,.024l-1.614,.208-.483-.242-.06-.36,.964-.261c.406-.11,.766-.345,1.029-.669,.146,.079,.301,.139,.463,.179,0,0,2.062,.515,2.093,.521l2.5,.5c.13,.026,.262,.039,.392,.039,.525,0,1.035-.207,1.414-.586l.202-.202,2.46,.607,.104,.202c.345,.669,1.033,1.084,1.777,1.084,.054,0,3.151-.258,3.151-.258,.097,.049,.359,.154,.402,.178,.039,.685,.418,1.234,.969,1.535l-1.242,.229c-.566,.104-1.059,.447-1.354,.941l-2.033,3.403c-.436,.731-.363,1.657,.184,2.31Zm7.057,1.909c.541,.445,.547,1.28,.012,1.732l-1.148,.97c-.443,.375-1.096,.34-1.499-.079l-.642-.668c-.384-.4-.42-1.025-.083-1.467l.83-1.09c.379-.498,1.088-.582,1.57-.186l.96,.789Zm-4.077,4.355c.117,.268,.051,.585-.162,.779l-.724,.66c-.256,.233-.643,.221-.884-.029l-.054-.056c-.278-.288-.245-.765,.069-1.01l.778-.604c.331-.257,.806-.131,.977,.26Zm5.327-7.885c.175,.185,.21,.463,.087,.686-.152,.277-.495,.384-.778,.242l-.812-.406c-.316-.158-.422-.557-.226-.851l.178-.267c.154-.297,.53-.515,.916-.077l.635,.673Z"/>
</svg>
