<?xml version="1.0" encoding="UTF-8"?>
<svg xmlns="http://www.w3.org/2000/svg" id="Layer_1" data-name="Layer 1" viewBox="0 0 24 24">
  <path d="M15.707,13.707l-2.293,2.293,2.293,2.293c.391,.391,.391,1.023,0,1.414-.195,.195-.451,.293-.707,.293s-.512-.098-.707-.293l-2.293-2.293-2.293,2.293c-.195,.195-.451,.293-.707,.293s-.512-.098-.707-.293c-.391-.391-.391-1.023,0-1.414l2.293-2.293-2.293-2.293c-.391-.391-.391-1.023,0-1.414s1.023-.391,1.414,0l2.293,2.293,2.293-2.293c.391-.391,1.023-.391,1.414,0s.391,1.023,0,1.414Zm6.293-3.222v8.515c0,2.757-2.243,5-5,5H7c-2.757,0-5-2.243-5-5V5C2,2.243,4.243,0,7,0h4.515c1.87,0,3.628,.729,4.95,2.051l3.484,3.484c1.322,1.322,2.051,3.08,2.051,4.95ZM15.051,3.465c-.315-.315-.675-.564-1.051-.781V7c0,.552,.448,1,1,1h4.316c-.217-.376-.466-.736-.781-1.051l-3.484-3.484Zm4.949,7.021c0-.165-.032-.323-.047-.485h-4.953c-1.654,0-3-1.346-3-3V2.047c-.162-.016-.32-.047-.485-.047H7c-1.654,0-3,1.346-3,3v14c0,1.654,1.346,3,3,3h10c1.654,0,3-1.346,3-3V10.485Z"/>
</svg>
