<?xml version="1.0" encoding="UTF-8"?>
<svg xmlns="http://www.w3.org/2000/svg" id="Layer_1" data-name="Layer 1" viewBox="0 0 24 24">
  <path d="M22.943,5.265c-1.213-1.688-2.331-2.865-3.917-4.095-2.43-1.872-5.831-1.479-7.744,.898l-3.31,4.118c-1.059,1.317-1.247,3.066-.604,4.532L.879,17.207C.312,17.773,0,18.527,0,19.328v2.672c0,1.103,.897,2,2,2h2c1.103,0,2-.898,2-2.001v-.999h1c.552,0,1-.447,1-1v-1h2c.262,0,.514-.103,.701-.286l2.291-2.253c.639,.336,1.338,.525,2.048,.525,.954,0,1.911-.307,2.711-.932l4.086-3.188c2.354-1.836,2.84-5.176,1.105-7.602Zm-13.353,11.736h-2.59c-.537-.012-1.011,.461-1,.999v1h-1c-.552,0-1,.447-1,1v1.999H2s0-2.671,0-2.671c0-.263,.107-.521,.293-.707l6.276-6.275,2.854,2.854-1.832,1.801Zm11.017-5.711l-4.086,3.188c-.959,.746-2.329,.662-3.188-.196l-3.627-3.627c-.872-.872-.947-2.255-.174-3.216l3.31-4.118c1.236-1.536,3.426-1.758,4.963-.567,1.431,1.109,2.413,2.144,3.512,3.674h0c1.109,1.552,.798,3.687-.708,4.862Zm-1.923-4.01c.391,.391,.391,1.023,0,1.414-.195,.195-.451,.293-.707,.293s-.512-.098-.707-.293l-2-2c-.391-.391-.391-1.023,0-1.414s1.023-.391,1.414,0l2,2Z"/>
</svg>
