<?xml version="1.0" encoding="UTF-8"?>
<svg xmlns="http://www.w3.org/2000/svg" id="Layer_1" data-name="Layer 1" viewBox="0 0 24 24">
  <path d="M23.205,5.788c-.578-.575-1.375-.859-2.178-.773-1.105,.116-4.845,.625-6.543,2.318-1.68,1.684-2.057,4.56-.504,6.451-.637,.968-.981,2.101-.981,3.287v1.929c0,1.654-1.346,3-3,3s-3-1.346-3-3v-6.101c2.279-.465,4-2.484,4-4.899v-2c.553,0,1-.448,1-1s-.447-1-1-1h-2V1c0-.552-.447-1-1-1s-1,.448-1,1v3h-2V1c0-.552-.447-1-1-1s-1,.448-1,1v3H1c-.553,0-1,.448-1,1s.447,1,1,1v2c0,2.414,1.721,4.434,4,4.899v6.101c0,2.757,2.243,5,5,5s5-2.243,5-5v-1.929c0-.658,.175-1.284,.473-1.85,1.901,1.302,4.571,.909,6.198-.708,1.706-1.707,2.202-5.43,2.316-6.554,.079-.806-.206-1.597-.782-2.171ZM3,8v-2h6v2c0,1.654-1.346,3-3,3s-3-1.346-3-3Zm17.26,5.096c-.929,.92-2.322,1.153-3.504,.595-.005-.004-.013-.01-.018-.015l2.969-2.97c.391-.391,.391-1.024,0-1.414-.391-.391-1.023-.391-1.414,0l-2.97,2.97s-.007-.009-.01-.013c-.563-1.18-.332-2.578,.588-3.505,.916-.914,3.34-1.533,5.335-1.742,.545,.031,.734,.224,.759,.778-.2,1.982-.815,4.395-1.734,5.314Z"/>
</svg>
