<?xml version="1.0" encoding="UTF-8"?>
<svg xmlns="http://www.w3.org/2000/svg" id="Layer_1" data-name="Layer 1" viewBox="0 0 24 24">
  <path d="M0,7v-2C0,2.243,2.243,0,5,0h2c.552,0,1,.448,1,1s-.448,1-1,1h-2c-1.654,0-3,1.346-3,3v2c0,.552-.448,1-1,1s-1-.448-1-1Zm12,3c-1.105,0-2,.895-2,2s.895,2,2,2,2-.895,2-2-.895-2-2-2Zm-5,12h-2c-1.654,0-3-1.346-3-3v-2c0-.552-.448-1-1-1s-1,.448-1,1v2c0,2.757,2.243,5,5,5h2c.552,0,1-.448,1-1s-.448-1-1-1ZM19,0h-2c-.552,0-1,.448-1,1s.448,1,1,1h2c1.654,0,3,1.346,3,3v2c0,.552,.448,1,1,1s1-.448,1-1v-2c0-2.757-2.243-5-5-5Zm-7,18c-4.577,0-7.521-4.021-8.059-5.097-.287-.573-.287-1.23,0-1.805,.537-1.077,3.48-5.098,8.059-5.098s7.522,4.021,8.059,5.098t0,0c.285,.572,.285,1.229,0,1.802-.538,1.078-3.481,5.099-8.06,5.099Zm6.27-6.008c-.328-.657-2.736-3.992-6.27-3.992s-5.942,3.335-6.27,3.992c.328,.674,2.737,4.008,6.27,4.008s5.942-3.352,6.27-4.008Zm4.73,4.008c-.552,0-1,.448-1,1v2c0,1.654-1.346,3-3,3h-2c-.552,0-1,.448-1,1s.448,1,1,1h2c2.757,0,5-2.243,5-5v-2c0-.552-.448-1-1-1Z"/>
</svg>
