<?xml version="1.0" encoding="UTF-8"?>
<svg xmlns="http://www.w3.org/2000/svg" id="Layer_1" data-name="Layer 1" viewBox="0 0 24 24">
  <path d="M3,7.358c-1.721-.447-3-2-3-3.858V1C0,.448,.447,0,1,0s1,.448,1,1V3.5c0,.737,.405,1.375,1,1.722V1c0-.552,.447-1,1-1s1,.448,1,1V5.222c.595-.347,1-.985,1-1.722V1c0-.552,.447-1,1-1s1,.448,1,1V3.5c0,1.858-1.279,3.411-3,3.858v3.642c0,.552-.447,1-1,1s-1-.448-1-1v-3.642ZM22.782,.186c-.816,.683-2.176,2.451-2.28,4.944-.032,1.289,.361,2.712,1.498,4.122v1.749c0,.552,.447,1,1,1s1-.448,1-1V.597c-.004-.51-.75-.813-1.218-.411Zm.218,12.814c-.553,0-1,.448-1,1v4.412l-1.782-1.71c-1.815-1.743-4.201-2.702-6.718-2.702s-4.902,.959-6.718,2.702l-1.782,1.713v-4.415c0-.552-.447-1-1-1s-1,.448-1,1v5.5c0,.604,.34,1.137,.886,1.393,.549,.257,1.175,.174,1.688-.258l2.427-2.329v4.695c0,.552,.447,1,1,1s1-.448,1-1v-6.16c1.072-.548,2.266-.84,3.5-.84s2.428,.292,3.5,.841v6.159c0,.552,.447,1,1,1s1-.448,1-1v-4.695l2.479,2.375c.283,.237,.63,.359,.98,.359,.221,0,.444-.048,.655-.147,.546-.255,.886-.789,.886-1.393v-5.5c0-.552-.447-1-1-1ZM9,7.5c0-2.481,2.019-4.5,4.5-4.5s4.5,2.019,4.5,4.5-2.019,4.5-4.5,4.5-4.5-2.019-4.5-4.5Zm2,0c0,1.378,1.121,2.5,2.5,2.5s2.5-1.122,2.5-2.5-1.121-2.5-2.5-2.5-2.5,1.122-2.5,2.5Z"/>
</svg>
