<?xml version="1.0" encoding="UTF-8"?>
<svg xmlns="http://www.w3.org/2000/svg" id="Layer_1" data-name="Layer 1" viewBox="0 0 24 24">
  <path d="M24,4.118s-.451-1.13-.795-1.78c-.29-.582-1.246-.349-1.217,.31,.006,.508,.028,1.133,.013,1.35-.033,.476-.235,.78-.601,.918-.31,.117-.577,.325-.775,.59-.439,.588-1.149,1.524-1.499,1.895-.213,.224-1.057,.655-1.125,.096v-1.138c0-.808-.545-1.514-1.327-1.72-.837-.22-1.901-.488-2.673-.642-2.5-.5-7.5-1-9-1H3c-.552,0-1,.448-1,1h-.241c-.453,0-.849,.305-.966,.743-.293,1.096-.792,3.164-.792,4.52v1.256c0,1.703,.698,3.689,1.511,5.171,.444,.86,1.289,.272,1.989,.31,1.577,.179,3.492,1.104,4,2,.237,.53,.682,.974,1.283,1.021,.485,.048,1.047,.178,1.217,.517,.181,.361,.492,1.325,.816,1.716,.221,.267,.528,.394,.833,.394,.407,0,.809-.226,.995-.649,.449-1.022,1.025-2.76,1.356-3h.987c.48,0,.936-.227,1.21-.621,.141-.204,.385-.379,.803-.379,.617,0,2,0,2,1,0,.507,.366,1.178,.711,1.647,.163,.222,.421,.353,.7,.354h.014s.003,0,.003,0c.542,0,.944-.499,.836-1.031-.058-.285-.169-.552-.309-.813-.335-.625-.658-1.234-.915-1.89-.114-.296-.098-.737,.056-1.037,.351-.669,.977-1.402,1.355-2.059,.21-.365,.55-.67,.55-1.171,0-1,.009-1.925,0-2.5-.007-.463,2-4.5,2-4.5v-.88Zm-3.999,7.616s-.002,.003-.003,.005c-.099,.142-1.42,2.077-1.673,2.559-.123,.234-.216,.493-.277,.767-.315-.044-.663-.067-1.047-.067-.902,0-1.71,.361-2.262,1h-.738c-.422,0-.832,.133-1.174,.381-.53,.384-.842,.94-1.247,1.914-.472-.661-1.246-1.073-2.31-1.229-.924-1.69-3.546-2.823-5.544-3.054-.275-.031-.544-.029-.819,.005-.568-1.228-.907-2.517-.907-3.499v-1.256c0-.702,.204-1.922,.554-3.341,.502-.144,.922-.48,1.178-.922h1.268c1.363,0,6.224,.484,8.608,.961,.557,.111,1.382,.309,2.392,.572v.967c0,1.272,1.01,2.268,2.3,2.268,.57,0,1.196-.2,1.711-.528-.013,.115-.01,2.497-.01,2.497Z"/>
</svg>
