<?xml version="1.0" encoding="UTF-8"?>
<svg xmlns="http://www.w3.org/2000/svg" id="Layer_1" data-name="Layer 1" viewBox="0 0 24 24">
  <path d="M12,21c-6.193,0-9.721-4.082-11.271-6.515-.978-1.533-.978-3.438,0-4.971C2.28,7.081,5.81,3,12,3s9.72,4.081,11.271,6.514c.978,1.535,.978,3.439,0,4.972-1.551,2.433-5.078,6.515-11.271,6.515Zm0-16c-5.236,0-8.254,3.502-9.586,5.59-.554,.87-.554,1.95,0,2.819,1.332,2.088,4.347,5.591,9.586,5.591s8.254-3.503,9.586-5.591c.554-.869,.554-1.95,0-2.82-1.331-2.087-4.349-5.589-9.585-5.589Zm0,2c-2.757,0-5,2.243-5,5s2.243,5,5,5,5-2.243,5-5-2.243-5-5-5Zm0,9h0c-.552,0-1-.448-1-1h0c0-.552,.448-1,1-1h0c.552,0,1,.448,1,1h0c0,.552-.448,1-1,1Zm0-3h0c-.552,0-1-.448-1-1v-3c0-.552,.448-1,1-1h0c.552,0,1,.448,1,1v3c0,.552-.448,1-1,1Z"/>
</svg>
