<?xml version="1.0" encoding="UTF-8"?>
<svg xmlns="http://www.w3.org/2000/svg" id="Layer_1" data-name="Layer 1" viewBox="0 0 24 24">
  <path d="M6.163,21.814c-2.605-.43-4.163-1.514-4.163-2.314v-2.035c.741,.456,1.668,.833,2.76,1.102,1.246,.333,1.749-1.649,.479-1.941-2.127-.525-3.24-1.466-3.24-2.125v-2.041c1.535,.954,3.835,1.541,6.5,1.541,4.846,0,8.5-1.935,8.5-4.5V4.5C17,1.935,13.346,0,8.5,0S0,1.935,0,4.5v15c0,2.02,2.292,3.703,5.837,4.288,1.27,.232,1.613-1.781,.325-1.974Zm2.337-9.814c-3.968,0-6.5-1.48-6.5-2.5v-2.041c1.535,.954,3.835,1.541,6.5,1.541s4.965-.588,6.5-1.541v2.041c0,1.02-2.532,2.5-6.5,2.5Zm0-10c3.968,0,6.5,1.48,6.5,2.5s-2.532,2.5-6.5,2.5-6.5-1.48-6.5-2.5,2.532-2.5,6.5-2.5Zm4.471,18.974c-.19,1.174-1.214,2.026-2.434,2.026-.663,0-1.299-.195-1.837-.551-.388-.257-.448-.802-.119-1.13,.236-.235,.602-.283,.887-.111,.316,.191,.688,.297,1.068,.297,1.4-.007,1.287-1.552,.279-1.752-.914-.37-1.749-.779-1.752-.779-.691-.484-1.026-1.23-.921-2.047,.111-.844,.674-1.532,1.469-1.794,.838-.277,1.601-.076,2.15,.203,.405,.205,.518,.732,.24,1.092-.203,.263-.558,.357-.862,.224-.305-.134-.709-.226-1.136-.088-.825,.25-.476,1.11-.082,1.192,.282,.128,.805,.368,1.364,.595,1.459,.591,1.827,1.743,1.683,2.625Zm11.029,1.23h0c0,.442-.358,.8-.8,.8h-2.133c-.442,0-.8-.358-.8-.8v-6.401c0-.442,.358-.8,.8-.8h0c.442,0,.8,.358,.8,.8v5.601s.577,0,1.331,0c.442,0,.802,.358,.802,.8Zm-5.267-.598c.165-.334,.267-.705,.267-1.102v-2.944c0-1.402-1.147-2.582-2.548-2.556-1.358,.026-2.452,1.135-2.452,2.5v2.917c0,1.23,.856,2.319,2.065,2.543,.564,.104,1.084-.002,1.537-.226l.433,.433c.312,.312,.819,.312,1.131,0,.312-.312,.312-.819,0-1.131l-.433-.433Zm-1.333-1.102c0,.496-.404,.9-.9,.9s-.9-.404-.9-.9v-3c0-.496,.404-.9,.9-.9s.9,.404,.9,.9v3Z"/>
</svg>
