<?xml version="1.0" encoding="UTF-8"?>
<svg xmlns="http://www.w3.org/2000/svg" id="Layer_1" data-name="Layer 1" viewBox="0 0 24 24">
  <path d="M9.732,15.944c.103,.832-.145,1.676-.696,2.376l-.54,.78c-.315,.453-.938,.566-1.392,.25-.454-.315-.565-.938-.25-1.393l.575-.827c.257-.33,.355-.639,.318-.942-.039-.314-.217-.603-.515-.834l-.711-.596c-.552-.427-1.397-.324-1.855,.252l-2.373,2.984c-.46,.58-.376,1.405,.192,1.88l1.026,.8c.366-.411,.894-.675,1.488-.675,1.105,0,2,.895,2,2s-.895,2-2,2c-.718,0-1.343-.382-1.696-.951l-2.074-1.619c-1.435-1.196-1.644-3.243-.502-4.68l2.373-2.984c1.137-1.431,3.234-1.683,4.677-.563l.71,.596c.688,.532,1.141,1.303,1.244,2.146Zm7.768-10.944c1.381,0,2.5-1.119,2.5-2.5s-1.119-2.5-2.5-2.5-2.5,1.119-2.5,2.5,1.119,2.5,2.5,2.5Zm5.947,18.895c-.144,.071-.296,.105-.446,.105-.367,0-.72-.202-.896-.553l-1.866-3.732-5.003-2.899c-1.335-.889-2.016-2.427-1.789-3.951l.572-3.029-2.695,3.423c-.341,.436-.97,.508-1.404,.168-.434-.342-.509-.971-.167-1.404l3.561-4.524c.77-.955,1.905-1.498,3.121-1.498h.633c.867,0,1.69,.374,2.26,1.027s.829,1.52,.712,2.379l-.165,1.152,3.622,2.074c.479,.274,.645,.886,.371,1.365-.185,.322-.522,.503-.869,.503-.168,0-.339-.042-.496-.132l-2.934-1.68-.573,3.995,2.246,1.301c.34,.198,.611,.487,.786,.836l1.866,3.732c.247,.494,.047,1.095-.447,1.342Zm-7.154-8.776l.838,.485,.928-6.475c.039-.284-.045-.565-.238-.786s-.46-.343-.753-.343h-.633c-.012,0-.023,.004-.035,.004l-.98,5.193c-.107,.725,.233,1.494,.874,1.921Zm-1.771,2.784c-.547-.085-1.061,.276-1.152,.82l-.711,4.232c-.091,.545,.276,1.061,.821,1.152,.056,.009,.112,.014,.167,.014,.479,0,.903-.346,.985-.834l.711-4.232c.091-.545-.276-1.061-.821-1.152Z"/>
</svg>
