<?xml version="1.0" encoding="UTF-8"?>
<svg xmlns="http://www.w3.org/2000/svg" id="Layer_1" data-name="Layer 1" viewBox="0 0 24 24">
  <path d="M12.25,10.25v1.47h1.125c.345,0,.625,.28,.625,.625s-.28,.625-.625,.625h-1.125v1.405c0,.345-.28,.625-.625,.625s-.625-.28-.625-.625v-4.75c0-.345,.28-.625,.625-.625h1.75c.345,0,.625,.28,.625,.625s-.28,.625-.625,.625h-1.125Zm-3.356-1.25c-.335,0-.606,.271-.606,.606v2.644l-1.247-2.774c-.13-.289-.418-.476-.735-.476-.445,0-.806,.361-.806,.806v4.579c0,.34,.276,.615,.615,.615h0c.34,0,.615-.276,.615-.615v-2.635l1.23,2.772c.129,.291,.417,.478,.735,.478,.444,0,.804-.36,.804-.804v-4.59c0-.335-.271-.606-.606-.606Zm9.231,0h-2.5c-.345,0-.625,.28-.625,.625s.28,.625,.625,.625h.625v4.125c0,.345,.28,.625,.625,.625s.625-.28,.625-.625v-4.125h.625c.345,0,.625-.28,.625-.625s-.28-.625-.625-.625Zm4.875-1.031v8.199c0,1.462-.797,2.807-2.08,3.51l-7.006,3.831c-1.198,.655-2.629,.657-3.828,.006l-6.996-3.801c-1.289-.701-2.09-2.048-2.09-3.515V8c0-1.458,.793-2.801,2.07-3.504L10.075,.639c1.203-.663,2.643-.666,3.85-.005l6.994,3.826c1.284,.702,2.081,2.046,2.081,3.509Zm-2,0c0-.731-.398-1.404-1.04-1.754l-6.995-3.826c-.604-.331-1.324-.329-1.925,.002l-7.005,3.857c-.639,.352-1.035,1.023-1.035,1.752v8.199c0,.734,.4,1.407,1.045,1.758l6.995,3.8c.599,.325,1.314,.325,1.915-.003l7.005-3.831c.642-.351,1.04-1.023,1.04-1.755V7.969Z"/>
</svg>
