<?xml version="1.0" encoding="UTF-8"?>
<svg xmlns="http://www.w3.org/2000/svg" id="Layer_1" data-name="Layer 1" viewBox="0 0 24 24">
  <path d="M19,4h-.101c-.465-2.279-2.484-4-4.899-4H5C2.243,0,0,2.243,0,5v12.855c-.053,1.663,1.984,2.754,3.34,1.787l2.967-1.978c.69,1.937,2.523,3.336,4.694,3.336h5.697l3.963,2.642c1.356,.967,3.393-.124,3.34-1.787V9c0-2.757-2.243-5-5-5ZM2.23,17.978c-.049,.08-.269-.037-.23-.123V5c0-1.654,1.346-3,3-3H14c1.654,0,3,1.346,3,3v7c0,1.654-1.346,3-3,3H7c-.198-.001-.383,.078-.555,.168l-4.215,2.81Zm19.77,3.877c.04,.086-.184,.202-.23,.123l-4.215-2.81c-.164-.109-.357-.168-.555-.168h-6c-1.302,0-2.402-.839-2.816-2h5.816c2.757,0,5-2.243,5-5V6c1.654,0,3,1.346,3,3v12.855ZM10,5.8c0-.442,.358-.8,.8-.8h3.4c.442,0,.8,.358,.8,.8s-.358,.8-.8,.8h-.9v4.601c0,.442-.358,.8-.8,.8s-.8-.358-.8-.8V6.6h-.9c-.442,0-.8-.358-.8-.8Zm-1.012,1.218c-.117-1.171-1.19-2.018-2.367-2.018h-1.122c-.552,0-1,.448-1,1v5.2c0,.442,.358,.8,.8,.8s.8-.358,.8-.8v-1.7h.65c1.319,0,2.373-1.135,2.238-2.482Zm-2.888-.418h.65c.358,0,.65,.292,.65,.65s-.292,.65-.65,.65h-.65v-1.3Z"/>
</svg>
