<?xml version="1.0" encoding="UTF-8"?>
<svg xmlns="http://www.w3.org/2000/svg" id="Layer_1" data-name="Layer 1" viewBox="0 0 24 24">
  <path d="M11.207,9.207l-.793,.793,.793,.793c.391,.391,.391,1.023,0,1.414-.195,.195-.451,.293-.707,.293s-.512-.098-.707-.293l-.793-.793-.793,.793c-.195,.195-.451,.293-.707,.293s-.512-.098-.707-.293c-.391-.391-.391-1.023,0-1.414l.793-.793-.793-.793c-.391-.391-.391-1.023,0-1.414s1.023-.391,1.414,0l.793,.793,.793-.793c.391-.391,1.023-.391,1.414,0s.391,1.023,0,1.414Zm4.793-.207h-2c-.553,0-1,.447-1,1s.447,1,1,1h2c.553,0,1-.447,1-1s-.447-1-1-1Zm-4.793,5.793c-.391-.391-1.023-.391-1.414,0l-.793,.793-.793-.793c-.391-.391-1.023-.391-1.414,0s-.391,1.023,0,1.414l.793,.793-.793,.793c-.391,.391-.391,1.023,0,1.414,.195,.195,.451,.293,.707,.293s.512-.098,.707-.293l.793-.793,.793,.793c.195,.195,.451,.293,.707,.293s.512-.098,.707-.293c.391-.391,.391-1.023,0-1.414l-.793-.793,.793-.793c.391-.391,.391-1.023,0-1.414Zm4.793,1.207h-2c-.553,0-1,.447-1,1s.447,1,1,1h2c.553,0,1-.447,1-1s-.447-1-1-1Zm5-9v12c0,2.757-2.243,5-5,5H8c-2.757,0-5-2.243-5-5V7c0-2.757,2.243-5,5-5h.171c.413-1.164,1.525-2,2.829-2h2c1.304,0,2.416,.836,2.829,2h.171c2.757,0,5,2.243,5,5Zm-2,0c0-1.654-1.346-3-3-3h-1c-.553,0-1-.447-1-1s-.448-1-1-1h-2c-.552,0-1,.448-1,1s-.447,1-1,1h-1c-1.654,0-3,1.346-3,3v12c0,1.654,1.346,3,3,3h8c1.654,0,3-1.346,3-3V7Z"/>
</svg>
