<?xml version="1.0" encoding="UTF-8"?>
<svg xmlns="http://www.w3.org/2000/svg" id="Layer_1" data-name="Layer 1" viewBox="0 0 24 24">
  <path d="M8.359,17.488c.283,.474,.127,1.088-.347,1.371l-4.715,2.81c-.634,.425-1.483,.445-2.162,.08-.7-.375-1.135-1.1-1.135-1.894V5C0,2.243,2.243,0,5,0h12c2.757,0,5,2.243,5,5v3c0,.552-.448,1-1,1s-1-.448-1-1v-3c0-1.654-1.346-3-3-3H5c-1.654,0-3,1.346-3,3v14.855c-.039,.085,.18,.203,.229,.123l4.759-2.837c.473-.282,1.087-.127,1.371,.347Zm10.641-1.488h-2v-1.121c.025-.759-.977-1.177-1.499-.621l-1.5,1.5c-.685,.685-.685,1.8,0,2.485l1.5,1.5c.518,.557,1.524,.138,1.499-.621v-1.121h2c.552,0,1-.448,1-1s-.448-1-1-1Zm5,1c0,3.86-3.14,7-7,7s-7-3.14-7-7,3.14-7,7-7,7,3.14,7,7Zm-2,0c0-2.757-2.243-5-5-5s-5,2.243-5,5,2.243,5,5,5,5-2.243,5-5Z"/>
</svg>
