<?xml version="1.0" encoding="UTF-8"?>
<svg xmlns="http://www.w3.org/2000/svg" id="Layer_1" data-name="Layer 1" viewBox="0 0 24 24">
  <path d="M22.204,2.162c-1.142-.953-2.638-1.346-4.099-1.08l-3.821,.694c-.913,.166-1.706,.634-2.284,1.289-.578-.655-1.371-1.123-2.284-1.288l-3.821-.695c-1.465-.266-2.957,.127-4.099,1.08S0,4.515,0,6.001v10.792c0,2.418,1.727,4.487,4.105,4.919l6.285,1.144c.534,.097,1.071,.145,1.609,.145s1.075-.048,1.609-.146l6.285-1.143c2.379-.432,4.105-2.501,4.105-4.919V6.001c0-1.486-.654-2.886-1.796-3.839Zm-.204,14.631c0,1.451-1.036,2.692-2.463,2.952l-6.285,1.142c-.084,.015-.168,.022-.252,.034v-2.921c0-.553-.447-1-1-1s-1,.447-1,1v2.922c-.084-.012-.168-.019-.252-.034l-6.285-1.143c-1.427-.26-2.463-1.501-2.463-2.952V6.001c0-.892,.393-1.731,1.078-2.303,.544-.455,1.223-.697,1.919-.697,.18,0,.36,.016,.54,.048l3.821,.696c.951,.172,1.642,1,1.642,1.967v.288c0,.553,.447,1,1,1s1-.447,1-1v-.288c0-.967,.69-1.795,1.642-1.968l3.821-.695c.882-.157,1.776,.078,2.459,.649,.686,.571,1.078,1.411,1.078,2.303v10.792ZM5.636,9.383l-1.072,4.664c-.112,.485,.257,.948,.755,.948,.358,0,.669-.245,.753-.593l.097-.401h2.148l.08,.358c.082,.371,.412,.636,.792,.636,.521,0,.907-.483,.791-.991l-1.04-4.581c-.311-1.853-2.97-1.844-3.303-.04Zm.918,3.018l.646-2.678c.019-.068,.05-.122,.097-.122,.014,.01,.057,.063,.082,.176l.583,2.624h-1.407Zm6.446-1.2c0,.442-.358,.8-.8,.8h-.4c-.442,0-.8-.358-.8-.8s.358-.8,.8-.8h.4c.442,0,.8,.358,.8,.8Zm5.266-1.149l-2.329,3.35h1.763c.442,0,.8,.358,.8,.8s-.358,.8-.8,.8h-2.444c-.721,0-1.306-.585-1.306-1.306,0-.266,.082-.526,.234-.745l2.329-3.349h-1.763c-.442,0-.8-.358-.8-.8s.358-.8,.8-.8h2.444c.721,0,1.306,.585,1.306,1.306,0,.266-.082,.527-.234,.745Z"/>
</svg>
