<?xml version="1.0" encoding="UTF-8"?>
<svg xmlns="http://www.w3.org/2000/svg" id="Layer_1" data-name="Layer 1" viewBox="0 0 24 24">
  <path d="M24,14v5c0,2.757-2.243,5-5,5H5c-2.757,0-5-2.243-5-5V8C0,5.243,2.243,3,5,3h4c.553,0,1,.448,1,1s-.447,1-1,1H5c-1.148,0-2.135,.655-2.639,1.604l7.518,7.518c1.133,1.133,3.109,1.133,4.242,0l.329-.329c.391-.39,1.024-.391,1.415,0,.39,.391,.39,1.024,0,1.414l-.329,.329c-.944,.944-2.199,1.464-3.535,1.464s-2.591-.52-3.535-1.464L2,9.071v9.929c0,1.654,1.346,3,3,3h14c1.654,0,3-1.346,3-3v-5c0-.552,.447-1,1-1s1,.448,1,1ZM22.57,.241l-.981,.958c-1.023-.769-2.265-1.199-3.589-1.199-3.309,0-6,2.691-6,6s2.691,6,6,6c2.386,0,4.545-1.413,5.5-3.6,.222-.506-.01-1.096-.516-1.317-.509-.221-1.095,.011-1.316,.516-.638,1.458-2.077,2.4-3.668,2.4-2.206,0-4-1.794-4-4s1.794-4,4-4c.771,0,1.491,.238,2.119,.635l-.992,.969c-.528,.515-.154,1.397,.592,1.397h3.02c.696,0,1.261-.551,1.261-1.231V.82c0-.729-.902-1.094-1.43-.578Z"/>
</svg>
