<?xml version="1.0" encoding="UTF-8"?>
<svg xmlns="http://www.w3.org/2000/svg" id="Layer_1" data-name="Layer 1" viewBox="0 0 24 24">
  <path d="M23,22h-2V13c0-1.654-1.346-3-3-3h-5.72l-4.414-2.678c-.963-.643-2.11-1.332-3.388-1.322-1.667,.02-3.056,1.276-3.231,2.88L.018,16.153c-.205,1.469,1.052,2.881,2.535,2.847h.448v4c0,.552,.448,1,1,1s1-.448,1-1v-4h1.5c1.514,.019,2.747-1.377,2.526-2.907l-1.122-6.41,3.339,2.027c.313,.189,.671,.289,1.036,.289h2.72v6h-1.5c-.827,0-1.5,.673-1.5,1.5v3.5c0,.552,.448,1,1,1s1-.448,1-1v-3h5v2.5c0,.827,.673,1.5,1.5,1.5h2.5c.553,0,1-.448,1-1s-.447-1-1-1ZM6.913,16.814c-.062,.069-.197,.186-.413,.186H2.552c-.382-.046-.527-.215-.556-.564l1.23-7.278c.072-.657,.623-1.153,1.283-1.157,.356,.002,.739,.129,1.125,.317l1.414,8.065c.025,.214-.074,.362-.136,.432Zm12.087,1.186h-2v-6h1c.552,0,1,.449,1,1v5ZM15,6.5c0-1.381,1.119-2.5,2.5-2.5s2.5,1.119,2.5,2.5-1.119,2.5-2.5,2.5-2.5-1.119-2.5-2.5ZM2,2.5C2,1.119,3.119,0,4.5,0s2.5,1.119,2.5,2.5-1.119,2.5-2.5,2.5-2.5-1.119-2.5-2.5Z"/>
</svg>
