<?xml version="1.0" encoding="UTF-8"?>
<svg xmlns="http://www.w3.org/2000/svg" id="Layer_1" data-name="Layer 1" viewBox="0 0 24 24">
  <path d="M24,9.501c0,3.067-1.495,5.961-3.998,7.743-.999,.71-1.835,1.798-2.632,3.425-.458,.935-1.171,1.745-2.061,2.34-.984,.659-2.144,.985-3.303,.985-1.265,0-2.531-.389-3.569-1.163-.476-.355-.892-.769-1.239-1.232-.331-.442-.241-1.068,.201-1.4,.443-.331,1.069-.241,1.4,.201,.232,.31,.513,.588,.834,.828,1.321,.983,3.198,1.032,4.563,.118,.606-.406,1.069-.93,1.377-1.558,.949-1.938,1.988-3.264,3.269-4.175,1.978-1.406,3.158-3.691,3.158-6.113,0-2.132-.913-4.171-2.504-5.594-1.614-1.442-3.693-2.1-5.87-1.857-1.867,.21-3.585,1.133-4.837,2.599-.359,.419-.99,.469-1.41,.11-.419-.359-.469-.99-.11-1.41C8.851,1.498,11.03,.33,13.402,.063c2.715-.308,5.413,.554,7.427,2.353,2.015,1.801,3.171,4.384,3.171,7.085Zm-9.5-3.5c1.93,0,3.5,1.57,3.5,3.5,0,.552,.447,1,1,1s1-.448,1-1c0-3.033-2.468-5.5-5.5-5.5-2.824,0-5.186,2.102-5.494,4.889-.004,.036-.006,.073-.006,.11,0,1.298,1.03,2,2,2.001,.551,0,1,.449,1,1s-.449,1-1,1-1,.448-1,1,.448,1,1,1c1.654,0,3-1.346,3-3s-1.341-2.996-2.992-3.001c.245-1.717,1.727-2.999,3.492-2.999Zm-9.797-1.212c-.394-.388-1.025-.384-1.415,.008-.388,.393-.384,1.026,.008,1.415,1.743,1.722,2.703,3.98,2.703,6.357,0,2.334-.935,4.543-2.631,6.22-.393,.388-.396,1.021-.008,1.415,.196,.198,.454,.297,.711,.297,.254,0,.508-.096,.703-.289,2.08-2.056,3.225-4.77,3.225-7.643,0-2.916-1.171-5.679-3.297-7.78ZM1.935,7.494c-.391-.391-1.023-.391-1.414,0s-.391,1.023,0,1.414c1.973,1.973,1.973,5.184,0,7.157-.391,.391-.391,1.023,0,1.414,.195,.195,.451,.293,.707,.293s.512-.098,.707-.293c2.753-2.753,2.753-7.232,0-9.985Z"/>
</svg>
