<?xml version="1.0" encoding="UTF-8"?>
<svg xmlns="http://www.w3.org/2000/svg" id="Layer_1" data-name="Layer 1" viewBox="0 0 24 24">
  <path d="M15.617,8.873l-2.58,3.127h.663c.442,0,.8,.358,.8,.8s-.358,.8-.8,.8h-.9v.8h.9c.442,0,.8,.358,.8,.8s-.358,.8-.8,.8h-.9v.2c0,.442-.358,.8-.8,.8s-.8-.358-.8-.8v-.2h-.9c-.442,0-.8-.358-.8-.8s.358-.8,.8-.8h.9v-.8h-.9c-.442,0-.8-.358-.8-.8s.358-.8,.8-.8h.663l-2.58-3.127c-.281-.341-.233-.845,.108-1.126,.342-.282,.846-.232,1.126,.108l2.383,2.889,2.383-2.889c.281-.341,.784-.39,1.126-.108,.341,.281,.389,.786,.108,1.126Zm7.854-6.177L21.228,.314c-.379-.403-1.012-.42-1.414-.042-.402,.379-.421,1.012-.042,1.414l1.239,1.314H12C7.038,3,3,7.038,3,12c0,.761,.095,1.518,.284,2.249,.135,.539,.696,.857,1.217,.72,.535-.138,.857-.683,.719-1.218-.146-.568-.22-1.158-.22-1.751,0-3.86,3.14-7,7-7h9.01l-1.238,1.314c-.378,.402-.36,1.035,.042,1.414,.401,.378,1.034,.36,1.414-.042l2.223-2.36c.731-.731,.731-1.92,.021-2.63Zm-3.973,6.336c-.535,.138-.856,.683-.719,1.218,.146,.568,.22,1.157,.22,1.75,0,3.859-3.14,7-7,7H2.99l1.238-1.314c.378-.402,.36-1.035-.042-1.413-.401-.38-1.034-.36-1.414,.042l-2.222,2.359c-.355,.354-.55,.825-.55,1.326s.195,.973,.528,1.304l2.244,2.382c.379,.403,1.013,.421,1.414,.042,.402-.378,.421-1.011,.042-1.413l-1.238-1.314H12c4.962,0,9-4.037,9-9,0-.762-.095-1.519-.284-2.25-.138-.534-.679-.855-1.218-.719Z"/>
</svg>
