<?xml version="1.0" encoding="UTF-8"?>
<svg xmlns="http://www.w3.org/2000/svg" id="Layer_1" data-name="Layer 1" viewBox="0 0 24 24">
  <path d="M22.03,7.485c-1.275-1.034-1.956-2.137-2.03-3.68V.819c0-.577-.589-.969-1.122-.749-.818,.338-1.441,1.159-1.713,2.021-4.619,.594-5.165,4.254-5.165,5.909v.536c-.956,.77-2.203,1.47-3,1.47-1.138,0-2.091,.372-2.786,1.011-4.292,.116-5.214,2.755-5.214,4.983,0,.553,.448,1,1,1s1-.447,1-1c0-1.655,.625-2.54,2.069-2.854-.049,.272-.074,.557-.075,.854,0,1.808,1.483,3.744,2.301,4.673l-.338,.676c-.388,.775-.288,1.714,.253,2.392l.208,.26h-2.419c-.552,0-1,.447-1,1s.448,1,1,1h14c.552,0,1-.447,1-1s-.448-1-1-1h-5.058l-1.208-1.51c-.056-.07-.066-.167-.026-.247l.398-.796c.247-.494,.047-1.095-.447-1.342-.495-.247-1.095-.047-1.342,.447l-.398,.797c-.387,.775-.287,1.714,.254,2.391l.208,.26h-1.4l-1.208-1.509c-.056-.07-.066-.168-.026-.248l.517-1.035c1.413-.78,2.355-1.754,2.786-2.281,1.055-.187,3.716-.838,5.169-2.746l1.99,.853-.511,1.277-.706,.417c-.476,.28-.634,.894-.354,1.369,.187,.316,.52,.492,.862,.492,.173,0,.348-.045,.507-.139l1-.59c.191-.112,.338-.284,.421-.49l1-2.5c.171-.428,.027-.917-.348-1.185l-3.081-2.201v-2.416l2.783,.787c.737,.208,1.501-.226,1.699-.966,.138-.516-.037-1.07-.452-1.406Zm-5.029-.485s0,0-.001,0c-.552,0-1,.447-1,1v4.302c-.874,2.244-4.574,2.7-4.612,2.704-.289,.034-.554,.195-.717,.436-.008,.011-.679,.979-1.97,1.796-.799-.934-1.707-2.294-1.707-3.235,0-.601,.199-1.996,2.006-1.996,2.021,0,4.24-1.881,4.664-2.259,.214-.189,.336-.461,.336-.747v-1c0-2.532,1.321-3.825,3.996-3.971l.015,.03c.087,1.422,.406,2.378,.989,3.215,0,0-.691-.273-1.998-.274Z"/>
</svg>
