<?xml version="1.0" encoding="UTF-8"?>
<svg xmlns="http://www.w3.org/2000/svg" id="Layer_1" data-name="Layer 1" viewBox="0 0 24 24">
  <path d="m23,20.5c0-.994.707-1.79.732-1.818.271-.291.344-.714.186-1.078-.158-.366-.519-.604-.918-.604h-3.996c1.23-1.272,1.996-3.042,1.996-5,0-3.782-2.854-6.865-6.405-6.991.676-.162,1.418-.461,2.011-1.033.863-.833,1.227-2.071,1.38-2.942.098-.553-.37-1.053-.938-.989-.843.095-2.02.379-2.863,1.193-.76.734-1.111,1.773-1.274,2.602-.19-1.584-.658-2.629-1.033-3.318-.265-.484-.871-.664-1.357-.399-.485.265-.664.872-.399,1.356.356.653.818,1.725.868,3.519h-1.363c-3.654,0-6.627,3.142-6.627,7.003,0,1.958.766,3.728,1.996,5h-1.496c-1.93,0-3.5,1.57-3.5,3.5s1.57,3.5,3.5,3.5h19.5c.396,0,.753-.237.913-.6.16-.363.088-.788-.18-1.081-.008-.008-.733-.812-.733-1.819ZM9.627,6.997h4.745c2.552,0,4.627,2.244,4.627,5.003s-1.961,4.984-4.5,5c-.476-.004-1.009-.08-1.435-.267-.338-.149-.702-.224-1.065-.224s-.719.094-1.065.224c-.505.189-1.564.278-1.435.267-2.539-.016-4.5-2.251-4.5-5s2.076-5.003,4.627-5.003Zm11.641,15.003H3.5c-.827,0-1.5-.673-1.5-1.5s.673-1.5,1.5-1.5h17.768c-.157.438-.268.943-.268,1.5s.111,1.062.268,1.5Z"/>
</svg>
