<?xml version="1.0" encoding="UTF-8"?>
<svg xmlns="http://www.w3.org/2000/svg" id="Layer_1" data-name="Layer 1" viewBox="0 0 24 24">
  <path d="M0,7v-3c0-.552,.448-1,1-1s1,.448,1,1v1.412C4.21,2.067,7.966,0,12,0c6.253,0,11.391,4.69,11.951,10.91,.05,.55-.356,1.036-.906,1.086-.03,.002-.061,.004-.091,.004-.512,0-.948-.391-.995-.91-.467-5.182-4.748-9.09-9.959-9.09-3.559,0-6.878,1.916-8.662,5h1.662c.552,0,1,.448,1,1s-.448,1-1,1H2c-1.103,0-2-.897-2-2ZM22,15h-3c-.553,0-1,.447-1,1s.447,1,1,1h1.662c-1.785,3.084-5.104,5-8.662,5-5.21,0-9.492-3.908-9.959-9.09-.049-.549-.523-.944-1.086-.906C.405,12.054,0,12.54,.049,13.09c.561,6.22,5.699,10.91,11.951,10.91,4.033,0,7.79-2.068,10-5.413v1.413c0,.553,.447,1,1,1s1-.447,1-1v-3c0-1.103-.897-2-2-2ZM14,7c1.105,0,2,.895,2,2v6c0,1.105-.895,2-2,2h-4c-1.105,0-2-.895-2-2v-6c0-1.105,.895-2,2-2h4Zm-1,7c0-.552-.448-1-1-1h-1c-.552,0-1,.448-1,1s.448,1,1,1h1c.552,0,1-.448,1-1Zm1-4c0-.552-.448-1-1-1h-2c-.552,0-1,.448-1,1s.448,1,1,1h2c.552,0,1-.448,1-1Z"/>
</svg>
