<?xml version="1.0" encoding="UTF-8"?>
<svg xmlns="http://www.w3.org/2000/svg" id="Layer_1" data-name="Layer 1" viewBox="0 0 24 24">
  <path d="M19,16H6V5c0-1.654,1.346-3,3-3h6c1.37,0,2.564,.925,2.906,2.249,.138,.535,.682,.858,1.218,.72,.535-.138,.856-.684,.719-1.218-.568-2.209-2.56-3.751-4.842-3.751h-6c-2.757,0-5,2.243-5,5v14c0,2.757,2.243,5,5,5h6c2.757,0,5-2.243,5-5v-2c0-.553-.448-1-1-1Zm-1,3c0,1.654-1.346,3-3,3h-6c-1.654,0-3-1.346-3-3v-1h12v1Zm-8,1c0-.553,.448-1,1-1h2c.552,0,1,.447,1,1s-.448,1-1,1h-2c-.552,0-1-.447-1-1Zm6.4-6.8v-1.2h-1.601c-.994,0-1.8-.806-1.8-1.8v-3.4c0-.442,.358-.8,.8-.8s.8,.358,.8,.8v3.4c0,.111,.09,.2,.2,.2h1.601v-3.601c0-.442,.358-.8,.8-.8s.8,.358,.8,.8v6.4c0,.442-.358,.8-.8,.8s-.8-.358-.8-.8Zm7.6-2.9v1.2c0,1.365-1.093,2.474-2.452,2.5-1.401,.027-2.548-1.154-2.548-2.556v-2.887c0-1.402,1.147-2.582,2.548-2.556,.933,.018,1.741,.547,2.155,1.318,.287,.534-.097,1.182-.703,1.182-.29,0-.567-.151-.699-.409-.158-.308-.488-.514-.863-.489-.478,.032-.838,.451-.838,.93v2.968c0,.517,.438,.933,.962,.898,.478-.032,.838-.451,.838-.93v-.368h-.1c-.442,0-.8-.358-.8-.8s.358-.8,.8-.8h.9c.442,0,.8,.358,.8,.8Z"/>
</svg>
