<?xml version="1.0" encoding="UTF-8"?>
<svg xmlns="http://www.w3.org/2000/svg" id="Layer_1" data-name="Layer 1" viewBox="0 0 24 24">
  <path d="M10.586,7.828c.752-.75,1.958-.783,2.747-.077,.209,.188,.486,.276,.755,.249h4.912c.39,0,.768,.073,1.125,.218,.51,.207,1.095-.039,1.302-.551,.207-.512-.039-1.095-.552-1.302-.596-.242-1.228-.364-1.875-.364h-4.657c-.413-.299-.869-.504-1.343-.626v-.374l3.53-1.652c.627-.392,.627-1.304,0-1.696L13.33,.154c-.217-.102-.454-.154-.693-.154-.904,0-1.636,.732-1.636,1.636v3.734c-.472,.122-.922,.335-1.332,.63H5C2.243,6,0,8.243,0,11v10c0,1.654,1.346,3,3,3h6c.553,0,1-.448,1-1s-.447-1-1-1H3c-.552,0-1-.449-1-1V12h2.343c1.336,0,2.592-.52,3.536-1.464l2.707-2.708Zm-6.243,2.172H2.184c.414-1.161,1.514-2,2.816-2h2.586l-1.121,1.122c-.566,.566-1.32,.878-2.122,.878Zm2.657,5c0,.552-.447,1-1,1h-1c-.553,0-1-.448-1-1s.447-1,1-1h1c.553,0,1,.448,1,1Zm0,4c0,.552-.447,1-1,1h-1c-.553,0-1-.448-1-1s.447-1,1-1h1c.553,0,1,.448,1,1Zm5-7c-.552,0-1-.448-1-1s.448-1,1-1,1,.448,1,1-.448,1-1,1Zm10,2.556v-1.556c0-2.206-1.794-4-4-4s-4,1.794-4,4v1.556c-1.19,.694-2,1.97-2,3.444v2c0,2.206,1.794,4,4,4h4c2.206,0,4-1.794,4-4v-2c0-1.474-.81-2.75-2-3.444Zm-6-1.556c0-1.103,.897-2,2-2s2,.897,2,2v1h-4v-1Zm6,7c0,1.103-.897,2-2,2h-4c-1.103,0-2-.897-2-2v-2c0-1.103,.897-2,2-2h4c1.103,0,2,.897,2,2v2Zm-2.5-1c0,.828-.672,1.5-1.5,1.5s-1.5-.672-1.5-1.5,.672-1.5,1.5-1.5,1.5,.672,1.5,1.5Z"/>
</svg>
