<?xml version="1.0" encoding="UTF-8"?>
<svg xmlns="http://www.w3.org/2000/svg" id="Layer_1" data-name="Layer 1" viewBox="0 0 24 24">
  <path d="M19.536,4.126c-.432-2.391-2.502-4.126-4.925-4.126h-5.223c-2.423,0-4.493,1.735-4.925,4.125-.308,1.708-.464,3.348-.464,4.875,0,3.24,.732,7.738,1.347,10.942,.452,2.352,2.518,4.058,4.911,4.058h3.484c2.394,0,4.459-1.706,4.911-4.058,.614-3.204,1.347-7.703,1.347-10.942,0-1.527-.156-3.167-.464-4.874Zm-13.104,.354c.259-1.437,1.502-2.48,2.956-2.48h5.223c1.454,0,2.697,1.043,2.956,2.481,.228,1.265,.341,2.468,.388,3.623-2.188,.284-7.568,1.313-11.695,4.802-.159-1.394-.261-2.742-.261-3.906,0-1.408,.146-2.929,.433-4.52Zm9.871,5.949l-2.93,4.261c-.449,.652-1.282,.92-2.03,.656l-3.405-1.216c2.735-2.151,6.062-3.205,8.365-3.702Zm.385,9.136c-.271,1.41-1.51,2.435-2.946,2.435h-3.484c-1.437,0-2.676-1.024-2.946-2.435-.217-1.132-.449-2.43-.657-3.77l4.016,1.434c.413,.147,.839,.219,1.26,.219,1.209,0,2.378-.586,3.092-1.625l2.839-4.129c-.236,2.63-.734,5.584-1.173,7.871ZM9.5,6c0-1.381,1.119-2.5,2.5-2.5s2.5,1.119,2.5,2.5-1.119,2.5-2.5,2.5-2.5-1.119-2.5-2.5Z"/>
</svg>
