<?xml version="1.0" encoding="UTF-8"?>
<svg xmlns="http://www.w3.org/2000/svg" id="Layer_1" data-name="Layer 1" viewBox="0 0 24 24">
  <path d="M19,0H5C2.243,0,0,2.243,0,5v14c0,2.757,2.243,5,5,5h14c2.757,0,5-2.243,5-5V5c0-2.757-2.243-5-5-5Zm3,19c0,1.654-1.346,3-3,3H5c-1.654,0-3-1.346-3-3V5c0-1.654,1.346-3,3-3h14c1.654,0,3,1.346,3,3v14Zm-6-12c-.552,0-1,.448-1,1v2.957c-.129-.189-.283-.363-.478-.496l-4.569-3.128c-.581-.398-1.33-.44-1.954-.112-.617,.325-1,.958-1,1.651v6.258c0,.693,.383,1.326,1,1.651,.279,.146,.583,.22,.885,.22,.375,0,.748-.112,1.069-.332l4.569-3.129c.195-.134,.348-.307,.478-.497v2.957c0,.553,.448,1,1,1s1-.447,1-1V8c0-.552-.448-1-1-1Zm-7,7.896v-5.793l4.23,2.897-4.23,2.896Z"/>
</svg>
