<?xml version="1.0" encoding="UTF-8"?>
<svg xmlns="http://www.w3.org/2000/svg" id="Layer_1" data-name="Layer 1" viewBox="0 0 24 24">
  <path d="M24,1V23c0,.553-.447,1-1,1s-1-.447-1-1V12.012c-.009,.501-.201,1-.583,1.382l-3.199,3.302c-.195,.203-.457,.305-.718,.305-.251,0-.502-.094-.695-.282-.397-.384-.407-1.017-.022-1.413l2.232-2.305H4.995l2.223,2.305c.385,.396,.375,1.029-.022,1.413-.193,.188-.444,.282-.695,.282-.261,0-.522-.102-.718-.305l-3.21-3.313c-.375-.374-.564-.868-.572-1.366v10.984c0,.553-.447,1-1,1s-1-.447-1-1V1C0,.447,.447,0,1,0s1,.447,1,1V11.942c.01-.499,.202-.996,.583-1.376l3.203-3.266c.386-.394,1.021-.401,1.414-.014,.395,.387,.4,1.02,.014,1.414l-2.256,2.3h14.069l-2.241-2.3c-.387-.395-.381-1.027,.014-1.414,.393-.388,1.026-.38,1.414,.014l3.21,3.272c.378,.378,.569,.875,.576,1.376V1c0-.553,.447-1,1-1s1,.447,1,1Z"/>
</svg>
