<?xml version="1.0" encoding="UTF-8"?>
<svg xmlns="http://www.w3.org/2000/svg" id="Layer_1" data-name="Layer 1" viewBox="0 0 24 24">
  <path d="M0,7V3c0-.552,.447-1,1-1s1,.448,1,1v2.375C4.199,2.061,7.942,0,12,0c6.617,0,12,5.383,12,12,0,.552-.447,1-1,1s-1-.448-1-1c0-5.514-4.486-10-10-10-3.585,0-6.862,1.94-8.637,5h2.637c.553,0,1,.448,1,1s-.447,1-1,1H2c-1.103,0-2-.897-2-2Zm24,11v3c0,1.654-1.346,3-3,3s-3-1.346-3-3v-3c0-1.654,1.346-3,3-3s3,1.346,3,3Zm-2,0c0-.551-.448-1-1-1s-1,.449-1,1v3c0,.551,.448,1,1,1s1-.449,1-1v-3ZM11,7v4h-3c-.553,0-1,.448-1,1s.447,1,1,1h4c.553,0,1-.448,1-1V7c0-.552-.447-1-1-1s-1,.448-1,1Zm5.116,12.242c.28-.431,.446-.942,.446-1.492,0-1.517-1.233-2.75-2.75-2.75h-1.812c-.553,0-1,.448-1,1s.447,1,1,1h1.812c.413,0,.75,.336,.75,.75s-.337,.75-.75,.75h-.812c-.553,0-1,.448-1,1s.447,1,1,1h1.25c.413,0,.75,.336,.75,.75s-.337,.75-.75,.75h-2.25c-.553,0-1,.448-1,1s.447,1,1,1h2.25c1.517,0,2.75-1.233,2.75-2.75,0-.794-.343-1.505-.884-2.008Zm-7.754,2.078c-3.531-1.372-6.03-4.673-6.366-8.41-.05-.55-.545-.951-1.086-.906-.55,.05-.956,.536-.906,1.086,.404,4.488,3.4,8.45,7.634,10.095,.119,.046,.241,.068,.362,.068,.4,0,.778-.243,.933-.638,.199-.515-.056-1.094-.57-1.294Z"/>
</svg>
