<?xml version="1.0" encoding="UTF-8"?>
<svg xmlns="http://www.w3.org/2000/svg" id="Layer_1" data-name="Layer 1" viewBox="0 0 24 24">
  <path d="M5,5c0-.552,.448-1,1-1h1c.552,0,1,.448,1,1s-.448,1-1,1h-1c-.552,0-1-.448-1-1ZM1,6h1c.552,0,1-.448,1-1s-.448-1-1-1H1c-.552,0-1,.448-1,1s.448,1,1,1Zm17.706,2.291c-.391,.39-.391,1.023,0,1.414s1.023,.391,1.414,0l3.299-3.299c.774-.775,.774-2.037,0-2.812L20.12,.295c-.391-.391-1.023-.391-1.414,0s-.391,1.024,0,1.414l2.302,2.291H11c-.552,0-1,.448-1,1s.448,1,1,1h9.997l-2.291,2.291Zm5.294,7.709v4c0,2.209-1.791,4-4,4h-7V12h7c2.209,0,4,1.791,4,4Zm-3.253,4.792c-.491-.187-.943-.508-1.298-.969-.82-1.065-.82-2.579,0-3.645,.355-.462,.806-.783,1.298-.969,.476-.181,.466-.85-.018-1.01-.386-.128-.799-.198-1.229-.198-2.286,0-4.123,1.917-3.994,4.231,.113,2.01,1.751,3.646,3.761,3.763,.518,.03,1.014-.041,1.472-.195,.478-.16,.479-.828,.008-1.007ZM4,12h7v12H4c-2.209,0-4-1.791-4-4v-4c0-2.209,1.791-4,4-4Zm.5,3.184c-.337,.12-.643,.298-.912,.523l-.591-.349c-.474-.28-1.088-.123-1.37,.352-.281,.476-.124,1.089,.352,1.37l.58,.343c-.077,.372-.077,.784,0,1.157l-.58,.343c-.475,.281-.633,.895-.352,1.37,.187,.315,.52,.491,.862,.491,.173,0,.349-.045,.508-.139l.591-.349c.269,.225,.575,.403,.912,.523v.684c0,.552,.448,1,1,1s1-.448,1-1v-.684c.337-.12,.643-.298,.912-.523l.591,.349c.16,.094,.335,.139,.508,.139,.342,0,.675-.175,.862-.491,.281-.476,.124-1.089-.352-1.37l-.58-.343c.077-.372,.077-.784,0-1.157l.58-.343c.475-.281,.633-.895,.352-1.37-.281-.475-.894-.631-1.37-.352l-.591,.349c-.269-.225-.575-.403-.912-.523v-.684c0-.552-.448-1-1-1s-1,.448-1,1v.684Z"/>
</svg>
