<?xml version="1.0" encoding="UTF-8"?>
<svg xmlns="http://www.w3.org/2000/svg" id="Layer_1" data-name="Layer 1" viewBox="0 0 24 24">
  <path d="M19.783,14.079c-.164-.586-.349-1.206-.555-1.873-.576-1.87-1.228-3.99-1.228-5.206,0-.552,.449-1,1-1s1,.448,1,1,.448,1,1,1,1-.447,1-1c0-1.654-1.346-3-3-3s-3,1.346-3,3c0,.651,.128,1.427,.319,2.263l-4.815,3.745-4.534-3.008h3.028c.552,0,1-.447,1-1s-.448-1-1-1h-3.028c-1.867-.063-2.707,2.531-1.132,3.58l4.009,2.716-1.406,1.094c-.898-.856-2.106-1.39-3.442-1.39-2.757,0-5,2.243-5,5s2.243,5,5,5,5-2.243,5-5c0-.7-.147-1.366-.408-1.972l7.289-5.669c.141,.476,.289,.957,.435,1.435,.149,.483,.292,.949,.42,1.388-2.143,.564-3.737,2.5-3.737,4.818,0,2.757,2.243,5,5,5s5-2.243,5-5c0-2.489-1.833-4.542-4.217-4.921Zm-14.783,7.921c-1.654,0-3-1.346-3-3s1.346-3,3-3,3,1.346,3,3-1.346,3-3,3Zm14,0c-1.654,0-3-1.346-3-3s1.346-3,3-3,3,1.346,3,3-1.346,3-3,3ZM1,5c0-.553,.448-1,1-1h7c.552,0,1,.447,1,1s-.448,1-1,1H2c-.552,0-1-.447-1-1ZM3,1c0-.553,.448-1,1-1h7c.552,0,1,.447,1,1s-.448,1-1,1H4c-.552,0-1-.447-1-1ZM0,9c0-.553,.448-1,1-1h1c.552,0,1,.447,1,1s-.448,1-1,1H1c-.552,0-1-.447-1-1Z"/>
</svg>
