<?xml version="1.0" encoding="UTF-8"?>
<svg xmlns="http://www.w3.org/2000/svg" id="Layer_1" data-name="Layer 1" viewBox="0 0 24 24">
  <path d="M19,12h-2.613l.54-4.333c.455-1.809-1.064-3.703-2.928-3.654h-2.368l.142-1.137c.062-.5,.489-.876,.992-.876h3.234c.553,0,1-.448,1-1s-.447-1-1-1h-3.234c-1.51,0-2.79,1.13-2.977,2.628l-.173,1.385H5.427L1.707,.293C1.316-.098,.684-.098,.293,.293S-.098,1.316,.293,1.707L22.293,23.707c.391,.391,1.023,.391,1.414,0s.391-1.023,0-1.414l-.546-.546c.537-.813,.839-1.762,.839-2.747v-2c0-2.757-2.243-5-5-5Zm3,5h-3.586l-3-3h3.586c1.654,0,3,1.346,3,3Zm-8.586-5l-2-2h3.209l-.251,2h-.958Zm.585-5.987c.674,.011,1.131,.608,.96,1.312l-.085,.676h-3.741l.248-1.987h2.618Zm-4.633,0l-.216,1.724-1.724-1.724h1.939Zm11.048,12.987h1.586c0,.45-.112,.885-.302,1.284l-1.284-1.284Zm-2.656,3l1.944,1.944c-.232,.033-.465,.056-.702,.056l-12.47,.013c-2.516,0-4.649-1.882-4.962-4.378L.056,7.569c-.188-.836,.055-1.87,.721-2.55l1.419,1.419c-.164,.231-.233,.512-.171,.791l.097,.771h1.636l2,2H2.373l1.18,9.386c.188,1.498,1.468,2.627,2.978,2.627h2.506c-.641-.841-1.036-1.877-1.036-3.013v-2c0-1.317,.522-2.507,1.357-3.401l1.413,1.413c-.473,.531-.77,1.222-.77,1.988h2.758l2,2h-4.758c0,1.654,1.346,3,3,3h4.758Z"/>
</svg>
