<?xml version="1.0" encoding="UTF-8"?>
<svg xmlns="http://www.w3.org/2000/svg" id="Layer_1" data-name="Layer 1" viewBox="0 0 24 24">
  <path d="M17.365,7.072c-.122-.02-.243-.028-.365-.041v-2.032c0-2.757-2.243-5-5-5S7,2.243,7,5v2.023c-.38,.042-.761,.116-1.138,.236-2.338,.748-3.925,2.973-3.86,5.411,.115,4.383,4.636,8.418,7.319,10.435,.802,.602,1.738,.902,2.676,.902s1.877-.302,2.677-.906c2.66-2.009,7.148-6.024,7.321-10.346,.114-2.828-1.833-5.217-4.63-5.682ZM12,2c1.654,0,3,1.346,3,3v2.178c-.805,.209-1.561,.591-2.207,1.139-.297,.252-.562,.529-.789,.826-.312-.41-.688-.782-1.123-1.099-.575-.421-1.213-.713-1.881-.885v-2.159c0-1.654,1.346-3,3-3Zm1.469,19.504c-.88,.665-2.064,.663-2.946,0-1.929-1.448-6.425-5.213-6.521-8.888-.041-1.531,.998-2.983,2.47-3.453,.381-.122,.769-.182,1.149-.182,.746,0,1.469,.23,2.081,.677,.812,.594,1.298,1.469,1.298,2.341,0,.552,.447,1,1,1s1-.448,1-1c0-.786,.396-1.573,1.086-2.157,.808-.684,1.884-.977,2.951-.798,1.816,.302,3.033,1.794,2.96,3.629-.146,3.629-4.614,7.384-6.528,8.831Zm-.469-5.504v2c0,.552-.447,1-1,1s-1-.448-1-1v-2c0-.552,.447-1,1-1s1,.448,1,1Z"/>
</svg>
