<?xml version="1.0" encoding="UTF-8"?>
<svg xmlns="http://www.w3.org/2000/svg" id="Layer_1" data-name="Layer 1" viewBox="0 0 24 24">
  <path d="M24,16v5c0,1.657-1.343,3-3,3h-5c-2.955,0-5.535-1.615-6.92-4.004,.769-.006,1.518-.091,2.242-.248,1.101,1.371,2.787,2.252,4.678,2.252h5c.552,0,1-.448,1-1v-5c0-1.891-.881-3.577-2.252-4.678,.156-.724,.242-1.473,.248-2.242,2.389,1.385,4.004,3.965,4.004,6.92Zm-15.862,2H3.661c-2.019,0-3.661-1.645-3.661-3.666v-5.038C0,4.589,3.823,.343,8.349,.023c5.315-.505,10.126,4.315,9.628,9.628-.331,4.682-4.652,8.349-9.839,8.349Zm7.844-8.489c.367-3.95-3.037-7.597-6.994-7.511-3.735-.038-6.987,3.423-6.988,7.296v5.038c0,.919,.745,1.666,1.661,1.666h4.477c4.073,0,7.592-2.911,7.844-6.489Zm-6.982-2.011c-.828,0-1.5,.672-1.5,1.5s.672,1.5,1.5,1.5,1.5-.672,1.5-1.5-.672-1.5-1.5-1.5Zm-4,0c-.828,0-1.5,.672-1.5,1.5s.672,1.5,1.5,1.5,1.5-.672,1.5-1.5-.672-1.5-1.5-1.5Zm8,0c-.828,0-1.5,.672-1.5,1.5s.672,1.5,1.5,1.5,1.5-.672,1.5-1.5-.672-1.5-1.5-1.5Z"/>
</svg>
