<?xml version="1.0" encoding="UTF-8"?>
<svg xmlns="http://www.w3.org/2000/svg" id="Layer_1" data-name="Layer 1" viewBox="0 0 24 24">
  <path d="M19,0H5C2.243,0,0,2.243,0,5v14c0,2.757,2.243,5,5,5h11.343c1.336,0,2.592-.52,3.536-1.464l2.656-2.657c.944-.944,1.465-2.2,1.465-3.535V5c0-2.757-2.243-5-5-5ZM2,19V5c0-1.654,1.346-3,3-3h14c1.654,0,3,1.346,3,3V15h-4c-1.654,0-3,1.346-3,3v4H5c-1.654,0-3-1.346-3-3Zm16.465,2.122c-.408,.408-.915,.678-1.465,.8v-3.922c0-.551,.448-1,1-1h3.92c-.125,.549-.397,1.063-.799,1.464l-2.656,2.657ZM8,5.606v4.59c0,.444-.36,.804-.804,.804-.318,0-.606-.187-.735-.478l-1.23-2.772v2.635c0,.34-.276,.615-.615,.615h0c-.34,0-.615-.276-.615-.615V5.806c0-.445,.361-.806,.806-.806,.317,0,.605,.186,.735,.476l1.247,2.774v-2.644c0-.335,.271-.606,.606-.606s.606,.271,.606,.606Zm6.75,4.769V6.25h-.625c-.345,0-.625-.28-.625-.625s.28-.625,.625-.625h2.5c.345,0,.625,.28,.625,.625s-.28,.625-.625,.625h-.625v4.125c0,.345-.28,.625-.625,.625s-.625-.28-.625-.625Zm-4-4.125v1.47h1.125c.345,0,.625,.28,.625,.625s-.28,.625-.625,.625h-1.125v1.405c0,.345-.28,.625-.625,.625s-.625-.28-.625-.625V5.625c0-.345,.28-.625,.625-.625h1.75c.345,0,.625,.28,.625,.625s-.28,.625-.625,.625h-1.125Z"/>
</svg>
