<?xml version="1.0" encoding="UTF-8"?>
<svg xmlns="http://www.w3.org/2000/svg" id="Layer_1" data-name="Layer 1" viewBox="0 0 24 24">
  <path d="M6,15c-1.654,0-3,1.346-3,3v3c0,1.654,1.346,3,3,3s3-1.346,3-3v-3c0-1.654-1.346-3-3-3Zm1,6c0,.551-.449,1-1,1s-1-.449-1-1v-3c0-.551,.449-1,1-1s1,.449,1,1v3Zm11-6c-1.654,0-3,1.346-3,3v3c0,1.654,1.346,3,3,3s3-1.346,3-3v-3c0-1.654-1.346-3-3-3Zm1,6c0,.551-.449,1-1,1s-1-.449-1-1v-3c0-.551,.449-1,1-1s1,.449,1,1v3Zm-6-5v7c0,.552-.448,1-1,1s-1-.448-1-1v-4.627c-.375,.225-.866,.184-1.2-.13-.402-.378-.421-1.012-.042-1.414l1.427-1.515c.189-.201,.452-.314,.728-.314,.552,0,1.088,.448,1.088,1Zm11-3.5c0,.788-.122,1.564-.362,2.308-.17,.525-.734,.812-1.259,.644-.525-.17-.814-.734-.644-1.259,.176-.544,.265-1.113,.265-1.692,0-2.614-1.858-4.883-4.417-5.394-.958-.191-1.744-.801-2.158-1.673-1.182-2.493-3.822-3.832-6.567-3.329-2.407,.44-4.369,2.439-4.771,4.862-.122,.735-.114,1.469,.024,2.181,.191,.988-.177,2.046-.963,2.762-.729,.662-1.146,1.606-1.146,2.59,0,.263,.029,.525,.087,.779,.122,.539-.216,1.074-.755,1.196-.525,.122-1.076-.212-1.196-.755-.09-.399-.136-.81-.136-1.221,0-1.546,.656-3.03,1.801-4.07,.272-.248,.405-.593,.345-.901-.183-.947-.194-1.919-.033-2.89C2.66,3.349,5.226,.736,8.497,.137c3.592-.658,7.184,1.169,8.735,4.439,.14,.295,.411,.502,.742,.569,3.492,.697,6.026,3.79,6.026,7.354Z"/>
</svg>
