<?xml version="1.0" encoding="UTF-8"?>
<svg xmlns="http://www.w3.org/2000/svg" id="Layer_1" data-name="Layer 1" viewBox="0 0 24 24">
  <path d="M23.259,13.674c.482,.747,.742,1.616,.742,2.517,0,1.772-1.033,3.4-2.611,4.179-.688,1.504-1.689,2.559-2.979,3.139-.133,.06-.272,.088-.409,.088-.382,0-.746-.22-.913-.59-.227-.504-.002-1.096,.502-1.322,.91-.409,1.62-1.232,2.109-2.446,.104-.259,.312-.462,.573-.562,1.05-.397,1.729-1.373,1.729-2.485,0-.685-.265-1.338-.746-1.84-.385-.386-.364-1.068,.045-1.429,.516-.504,.742-1.237,.752-1.922,0-.613-.164-1.521-1.585-2.318-.315-.177-.511-.511-.511-.872v-1.048c0-1.112-1.11-1.619-2.143-1.619-.553,0-1-.447-1-1,0-1.032-.62-2.134-1.77-2.144-.789-.013-1.721,.368-2.044,1.193v4.808c0,.553-.448,1-1,1s-1-.447-1-1V3.194c-.321-.817-1.269-1.195-2.051-1.195-1.145,0-1.762,1.104-1.762,2.144,0,.553-.448,1-1,1-1.032,0-2.143,.507-2.143,1.619v1.048c0,.361-.195,.695-.511,.872-1.42,.797-1.584,1.705-1.584,2.318,.01,.685,.235,1.419,.752,1.922,.409,.362,.43,1.042,.045,1.429-.481,.501-.746,1.155-.746,1.84,0,1.112,.678,2.088,1.728,2.485,.261,.1,.469,.303,.574,.562,.489,1.214,1.199,2.037,2.109,2.446,.503,.227,.729,.818,.502,1.322s-.817,.727-1.322,.502c-1.291-.58-2.292-1.635-2.979-3.139C1.032,19.591,0,17.963,0,16.19,0,15.289,.258,14.421,.741,13.674,.221,12.868-.052,11.953-.052,11c0-1.086,.379-2.575,2.095-3.747v-.491c0-1.821,1.314-3.209,3.233-3.542C5.648,1.354,7.128,0,8.949,0,9.998,0,11.167,.369,12.004,1.168,12.854,.362,14.012-.017,15.06,0c1.814,.015,3.29,1.369,3.663,3.22,1.919,.333,3.233,1.722,3.233,3.543v.491c1.717,1.172,2.096,2.661,2.096,3.747,0,.953-.272,1.868-.793,2.674Zm-5.759,2.826c0,1.898-.968,3.636-2.588,4.646-.254,.158-.412,.469-.412,.808,0,1.148-.897,2.046-2,2.046h-1c-1.103,0-2-.897-2-2,0-.386-.153-.692-.399-.845-1.874-1.163-2.869-3.326-2.535-5.514,.341-2.237,2.049-4.053,4.25-4.517,1.66-.352,3.353,.051,4.648,1.102,1.295,1.05,2.037,2.607,2.037,4.273Zm-2,0c.042-1.875-1.623-3.542-3.492-3.501-1.677-.038-3.22,1.27-3.465,2.944-.216,1.416,.401,2.761,1.611,3.512,.347,.215,.624,.52,.846,.863v-2.425c-.4-.212-.734-.532-.935-.939-.218-.44,.143-.954,.634-.954h2.602c.491,0,.852,.514,.634,.954-.201,.407-.535,.727-.935,.939v2.434c.224-.349,.502-.658,.853-.877,1.032-.644,1.647-1.746,1.647-2.95Z"/>
</svg>
