<?xml version="1.0" encoding="UTF-8"?>
<svg xmlns="http://www.w3.org/2000/svg" id="Layer_1" data-name="Layer 1" viewBox="0 0 24 24">
  <path d="M23.886,11.831c-.256,.489-.86,.679-1.35,.423-.604-.316-1.308-.339-1.931-.063l-3.725,1.82c-.361,.178-.795,.12-1.099-.147l-3.942-3.466c-.426-.423-1.022-.507-1.402-.233-.506,.343-.571,1.108-.135,1.528l7.038,6.579c.3,.28,.398,.717,.247,1.099-.151,.382-.52,.632-.93,.632h-.002l-2.661-.006c-.546,0-.995,.451-.995,1.003s.45,1.003,1.003,1.003h6.997c.552,0,1,.447,1,1s-.448,1-1,1h-6.997c-1.656,0-3.003-1.347-3.003-3.003s1.343-2.999,2.995-3.003h.123l-5.205-4.865c-1.332-1.27-1.145-3.551,.356-4.589,1.174-.844,2.866-.673,3.938,.398l3.395,2.982,3.161-1.543c1.22-.54,2.554-.495,3.701,.104,.49,.256,.679,.86,.423,1.35Zm-19.762-.918c.571-.99,1.715-2.858,2.797-3.94,2.545-2.545,4.729-3.613,8.376-4.916,.277-.099,.521-.084,.657,.042,.112,.104,.143,.285,.083,.495-.443,1.575-.899,2.634-1.743,4.047-.283,.475-.128,1.088,.346,1.372,.475,.283,1.088,.128,1.372-.346,.932-1.562,1.46-2.79,1.95-4.53,.265-.941,.024-1.875-.643-2.499-.692-.646-1.698-.82-2.694-.464-3.68,1.315-5.993,2.436-8.579,4.876-1.594,.237-4.219,1.617-5.604,3.381-.297,.379-.442,.855-.442,1.336-.004,1.284,1.087,2.3,2.365,2.233l1.139,1.082-.788,.788c-.391,.391-.391,1.023,0,1.414,.39,.391,1.024,.391,1.414,0l.832-.833,1.038,.995c0,1.41,.975,2.553,2.385,2.553,.241,.011,.495-.036,.745-.123,.767-.266,.96-1.27,.375-1.833l-5.381-5.132Z"/>
</svg>
