<?xml version="1.0" encoding="UTF-8"?>
<svg xmlns="http://www.w3.org/2000/svg" id="Layer_1" data-name="Layer 1" viewBox="0 0 24 24">
  <path d="M23,0c-.553,0-1,.447-1,1H2c0-.553-.447-1-1-1S0,.447,0,1V10.528c.011,1.892,1.062,3.618,2.764,4.472l7,3.5-7.211,3.605c-.494,.247-.694,.848-.447,1.342,.248,.499,.858,.691,1.342,.447l8.553-4.276,8.553,4.276c.484,.244,1.093,.052,1.342-.447,.247-.494,.047-1.095-.447-1.342l-7.211-3.605,7-3.5c1.702-.854,2.752-2.58,2.764-4.472V1c0-.553-.447-1-1-1ZM2.236,11.691c-.151-.361-.236-.754-.236-1.162v-1.528H22v1.528c0,.409-.084,.801-.236,1.162-1.123,.35-4.659,1.309-9.764,1.309s-8.641-.959-9.764-1.309ZM22,3V7H2V3H22ZM6.515,14.639c1.544,.209,3.386,.361,5.485,.361s3.941-.152,5.485-.361l-5.485,2.743-5.485-2.743Z"/>
</svg>
